%TF.GenerationSoftware,KiCad,Pcbnew,9.0.3*%
%TF.CreationDate,2026-03-29T23:00:44+07:00*%
%TF.ProjectId,THIET_BI_DO_THAN_NHIET_VA_NHIP_TIM,54484945-545f-4424-995f-444f5f544841,rev?*%
%TF.SameCoordinates,Original*%
%TF.FileFunction,Legend,Top*%
%TF.FilePolarity,Positive*%
%FSLAX46Y46*%
G04 Gerber Fmt 4.6, Leading zero omitted, Abs format (unit mm)*
G04 Created by KiCad (PCBNEW 9.0.3) date 2026-03-29 23:00:44*
%MOMM*%
%LPD*%
G01*
G04 APERTURE LIST*
%ADD10C,0.150000*%
%ADD11C,0.100000*%
%ADD12C,0.120000*%
G04 APERTURE END LIST*
D10*
X164246666Y-109899819D02*
X164246666Y-110614104D01*
X164246666Y-110614104D02*
X164199047Y-110756961D01*
X164199047Y-110756961D02*
X164103809Y-110852200D01*
X164103809Y-110852200D02*
X163960952Y-110899819D01*
X163960952Y-110899819D02*
X163865714Y-110899819D01*
X165151428Y-109899819D02*
X164960952Y-109899819D01*
X164960952Y-109899819D02*
X164865714Y-109947438D01*
X164865714Y-109947438D02*
X164818095Y-109995057D01*
X164818095Y-109995057D02*
X164722857Y-110137914D01*
X164722857Y-110137914D02*
X164675238Y-110328390D01*
X164675238Y-110328390D02*
X164675238Y-110709342D01*
X164675238Y-110709342D02*
X164722857Y-110804580D01*
X164722857Y-110804580D02*
X164770476Y-110852200D01*
X164770476Y-110852200D02*
X164865714Y-110899819D01*
X164865714Y-110899819D02*
X165056190Y-110899819D01*
X165056190Y-110899819D02*
X165151428Y-110852200D01*
X165151428Y-110852200D02*
X165199047Y-110804580D01*
X165199047Y-110804580D02*
X165246666Y-110709342D01*
X165246666Y-110709342D02*
X165246666Y-110471247D01*
X165246666Y-110471247D02*
X165199047Y-110376009D01*
X165199047Y-110376009D02*
X165151428Y-110328390D01*
X165151428Y-110328390D02*
X165056190Y-110280771D01*
X165056190Y-110280771D02*
X164865714Y-110280771D01*
X164865714Y-110280771D02*
X164770476Y-110328390D01*
X164770476Y-110328390D02*
X164722857Y-110376009D01*
X164722857Y-110376009D02*
X164675238Y-110471247D01*
X122816666Y-115129819D02*
X122816666Y-115844104D01*
X122816666Y-115844104D02*
X122769047Y-115986961D01*
X122769047Y-115986961D02*
X122673809Y-116082200D01*
X122673809Y-116082200D02*
X122530952Y-116129819D01*
X122530952Y-116129819D02*
X122435714Y-116129819D01*
X123245238Y-115225057D02*
X123292857Y-115177438D01*
X123292857Y-115177438D02*
X123388095Y-115129819D01*
X123388095Y-115129819D02*
X123626190Y-115129819D01*
X123626190Y-115129819D02*
X123721428Y-115177438D01*
X123721428Y-115177438D02*
X123769047Y-115225057D01*
X123769047Y-115225057D02*
X123816666Y-115320295D01*
X123816666Y-115320295D02*
X123816666Y-115415533D01*
X123816666Y-115415533D02*
X123769047Y-115558390D01*
X123769047Y-115558390D02*
X123197619Y-116129819D01*
X123197619Y-116129819D02*
X123816666Y-116129819D01*
X101547083Y-94142080D02*
X101499464Y-94189700D01*
X101499464Y-94189700D02*
X101356607Y-94237319D01*
X101356607Y-94237319D02*
X101261369Y-94237319D01*
X101261369Y-94237319D02*
X101118512Y-94189700D01*
X101118512Y-94189700D02*
X101023274Y-94094461D01*
X101023274Y-94094461D02*
X100975655Y-93999223D01*
X100975655Y-93999223D02*
X100928036Y-93808747D01*
X100928036Y-93808747D02*
X100928036Y-93665890D01*
X100928036Y-93665890D02*
X100975655Y-93475414D01*
X100975655Y-93475414D02*
X101023274Y-93380176D01*
X101023274Y-93380176D02*
X101118512Y-93284938D01*
X101118512Y-93284938D02*
X101261369Y-93237319D01*
X101261369Y-93237319D02*
X101356607Y-93237319D01*
X101356607Y-93237319D02*
X101499464Y-93284938D01*
X101499464Y-93284938D02*
X101547083Y-93332557D01*
X102404226Y-93570652D02*
X102404226Y-94237319D01*
X102166131Y-93189700D02*
X101928036Y-93903985D01*
X101928036Y-93903985D02*
X102547083Y-93903985D01*
X135487142Y-104519819D02*
X135153809Y-104043628D01*
X134915714Y-104519819D02*
X134915714Y-103519819D01*
X134915714Y-103519819D02*
X135296666Y-103519819D01*
X135296666Y-103519819D02*
X135391904Y-103567438D01*
X135391904Y-103567438D02*
X135439523Y-103615057D01*
X135439523Y-103615057D02*
X135487142Y-103710295D01*
X135487142Y-103710295D02*
X135487142Y-103853152D01*
X135487142Y-103853152D02*
X135439523Y-103948390D01*
X135439523Y-103948390D02*
X135391904Y-103996009D01*
X135391904Y-103996009D02*
X135296666Y-104043628D01*
X135296666Y-104043628D02*
X134915714Y-104043628D01*
X136439523Y-104519819D02*
X135868095Y-104519819D01*
X136153809Y-104519819D02*
X136153809Y-103519819D01*
X136153809Y-103519819D02*
X136058571Y-103662676D01*
X136058571Y-103662676D02*
X135963333Y-103757914D01*
X135963333Y-103757914D02*
X135868095Y-103805533D01*
X136772857Y-103519819D02*
X137391904Y-103519819D01*
X137391904Y-103519819D02*
X137058571Y-103900771D01*
X137058571Y-103900771D02*
X137201428Y-103900771D01*
X137201428Y-103900771D02*
X137296666Y-103948390D01*
X137296666Y-103948390D02*
X137344285Y-103996009D01*
X137344285Y-103996009D02*
X137391904Y-104091247D01*
X137391904Y-104091247D02*
X137391904Y-104329342D01*
X137391904Y-104329342D02*
X137344285Y-104424580D01*
X137344285Y-104424580D02*
X137296666Y-104472200D01*
X137296666Y-104472200D02*
X137201428Y-104519819D01*
X137201428Y-104519819D02*
X136915714Y-104519819D01*
X136915714Y-104519819D02*
X136820476Y-104472200D01*
X136820476Y-104472200D02*
X136772857Y-104424580D01*
X122267083Y-89364580D02*
X122219464Y-89412200D01*
X122219464Y-89412200D02*
X122076607Y-89459819D01*
X122076607Y-89459819D02*
X121981369Y-89459819D01*
X121981369Y-89459819D02*
X121838512Y-89412200D01*
X121838512Y-89412200D02*
X121743274Y-89316961D01*
X121743274Y-89316961D02*
X121695655Y-89221723D01*
X121695655Y-89221723D02*
X121648036Y-89031247D01*
X121648036Y-89031247D02*
X121648036Y-88888390D01*
X121648036Y-88888390D02*
X121695655Y-88697914D01*
X121695655Y-88697914D02*
X121743274Y-88602676D01*
X121743274Y-88602676D02*
X121838512Y-88507438D01*
X121838512Y-88507438D02*
X121981369Y-88459819D01*
X121981369Y-88459819D02*
X122076607Y-88459819D01*
X122076607Y-88459819D02*
X122219464Y-88507438D01*
X122219464Y-88507438D02*
X122267083Y-88555057D01*
X122600417Y-88459819D02*
X123219464Y-88459819D01*
X123219464Y-88459819D02*
X122886131Y-88840771D01*
X122886131Y-88840771D02*
X123028988Y-88840771D01*
X123028988Y-88840771D02*
X123124226Y-88888390D01*
X123124226Y-88888390D02*
X123171845Y-88936009D01*
X123171845Y-88936009D02*
X123219464Y-89031247D01*
X123219464Y-89031247D02*
X123219464Y-89269342D01*
X123219464Y-89269342D02*
X123171845Y-89364580D01*
X123171845Y-89364580D02*
X123124226Y-89412200D01*
X123124226Y-89412200D02*
X123028988Y-89459819D01*
X123028988Y-89459819D02*
X122743274Y-89459819D01*
X122743274Y-89459819D02*
X122648036Y-89412200D01*
X122648036Y-89412200D02*
X122600417Y-89364580D01*
X102846666Y-115129819D02*
X102846666Y-115844104D01*
X102846666Y-115844104D02*
X102799047Y-115986961D01*
X102799047Y-115986961D02*
X102703809Y-116082200D01*
X102703809Y-116082200D02*
X102560952Y-116129819D01*
X102560952Y-116129819D02*
X102465714Y-116129819D01*
X103846666Y-116129819D02*
X103275238Y-116129819D01*
X103560952Y-116129819D02*
X103560952Y-115129819D01*
X103560952Y-115129819D02*
X103465714Y-115272676D01*
X103465714Y-115272676D02*
X103370476Y-115367914D01*
X103370476Y-115367914D02*
X103275238Y-115415533D01*
D11*
X178848095Y-106532419D02*
X178848095Y-107341942D01*
X178848095Y-107341942D02*
X178895714Y-107437180D01*
X178895714Y-107437180D02*
X178943333Y-107484800D01*
X178943333Y-107484800D02*
X179038571Y-107532419D01*
X179038571Y-107532419D02*
X179229047Y-107532419D01*
X179229047Y-107532419D02*
X179324285Y-107484800D01*
X179324285Y-107484800D02*
X179371904Y-107437180D01*
X179371904Y-107437180D02*
X179419523Y-107341942D01*
X179419523Y-107341942D02*
X179419523Y-106532419D01*
X179800476Y-106532419D02*
X180419523Y-106532419D01*
X180419523Y-106532419D02*
X180086190Y-106913371D01*
X180086190Y-106913371D02*
X180229047Y-106913371D01*
X180229047Y-106913371D02*
X180324285Y-106960990D01*
X180324285Y-106960990D02*
X180371904Y-107008609D01*
X180371904Y-107008609D02*
X180419523Y-107103847D01*
X180419523Y-107103847D02*
X180419523Y-107341942D01*
X180419523Y-107341942D02*
X180371904Y-107437180D01*
X180371904Y-107437180D02*
X180324285Y-107484800D01*
X180324285Y-107484800D02*
X180229047Y-107532419D01*
X180229047Y-107532419D02*
X179943333Y-107532419D01*
X179943333Y-107532419D02*
X179848095Y-107484800D01*
X179848095Y-107484800D02*
X179800476Y-107437180D01*
D10*
X109722083Y-91802080D02*
X109674464Y-91849700D01*
X109674464Y-91849700D02*
X109531607Y-91897319D01*
X109531607Y-91897319D02*
X109436369Y-91897319D01*
X109436369Y-91897319D02*
X109293512Y-91849700D01*
X109293512Y-91849700D02*
X109198274Y-91754461D01*
X109198274Y-91754461D02*
X109150655Y-91659223D01*
X109150655Y-91659223D02*
X109103036Y-91468747D01*
X109103036Y-91468747D02*
X109103036Y-91325890D01*
X109103036Y-91325890D02*
X109150655Y-91135414D01*
X109150655Y-91135414D02*
X109198274Y-91040176D01*
X109198274Y-91040176D02*
X109293512Y-90944938D01*
X109293512Y-90944938D02*
X109436369Y-90897319D01*
X109436369Y-90897319D02*
X109531607Y-90897319D01*
X109531607Y-90897319D02*
X109674464Y-90944938D01*
X109674464Y-90944938D02*
X109722083Y-90992557D01*
X110103036Y-90992557D02*
X110150655Y-90944938D01*
X110150655Y-90944938D02*
X110245893Y-90897319D01*
X110245893Y-90897319D02*
X110483988Y-90897319D01*
X110483988Y-90897319D02*
X110579226Y-90944938D01*
X110579226Y-90944938D02*
X110626845Y-90992557D01*
X110626845Y-90992557D02*
X110674464Y-91087795D01*
X110674464Y-91087795D02*
X110674464Y-91183033D01*
X110674464Y-91183033D02*
X110626845Y-91325890D01*
X110626845Y-91325890D02*
X110055417Y-91897319D01*
X110055417Y-91897319D02*
X110674464Y-91897319D01*
X115493333Y-104519819D02*
X115160000Y-104043628D01*
X114921905Y-104519819D02*
X114921905Y-103519819D01*
X114921905Y-103519819D02*
X115302857Y-103519819D01*
X115302857Y-103519819D02*
X115398095Y-103567438D01*
X115398095Y-103567438D02*
X115445714Y-103615057D01*
X115445714Y-103615057D02*
X115493333Y-103710295D01*
X115493333Y-103710295D02*
X115493333Y-103853152D01*
X115493333Y-103853152D02*
X115445714Y-103948390D01*
X115445714Y-103948390D02*
X115398095Y-103996009D01*
X115398095Y-103996009D02*
X115302857Y-104043628D01*
X115302857Y-104043628D02*
X114921905Y-104043628D01*
X115874286Y-103615057D02*
X115921905Y-103567438D01*
X115921905Y-103567438D02*
X116017143Y-103519819D01*
X116017143Y-103519819D02*
X116255238Y-103519819D01*
X116255238Y-103519819D02*
X116350476Y-103567438D01*
X116350476Y-103567438D02*
X116398095Y-103615057D01*
X116398095Y-103615057D02*
X116445714Y-103710295D01*
X116445714Y-103710295D02*
X116445714Y-103805533D01*
X116445714Y-103805533D02*
X116398095Y-103948390D01*
X116398095Y-103948390D02*
X115826667Y-104519819D01*
X115826667Y-104519819D02*
X116445714Y-104519819D01*
X133957142Y-96174580D02*
X133909523Y-96222200D01*
X133909523Y-96222200D02*
X133766666Y-96269819D01*
X133766666Y-96269819D02*
X133671428Y-96269819D01*
X133671428Y-96269819D02*
X133528571Y-96222200D01*
X133528571Y-96222200D02*
X133433333Y-96126961D01*
X133433333Y-96126961D02*
X133385714Y-96031723D01*
X133385714Y-96031723D02*
X133338095Y-95841247D01*
X133338095Y-95841247D02*
X133338095Y-95698390D01*
X133338095Y-95698390D02*
X133385714Y-95507914D01*
X133385714Y-95507914D02*
X133433333Y-95412676D01*
X133433333Y-95412676D02*
X133528571Y-95317438D01*
X133528571Y-95317438D02*
X133671428Y-95269819D01*
X133671428Y-95269819D02*
X133766666Y-95269819D01*
X133766666Y-95269819D02*
X133909523Y-95317438D01*
X133909523Y-95317438D02*
X133957142Y-95365057D01*
X134909523Y-96269819D02*
X134338095Y-96269819D01*
X134623809Y-96269819D02*
X134623809Y-95269819D01*
X134623809Y-95269819D02*
X134528571Y-95412676D01*
X134528571Y-95412676D02*
X134433333Y-95507914D01*
X134433333Y-95507914D02*
X134338095Y-95555533D01*
X135766666Y-95603152D02*
X135766666Y-96269819D01*
X135528571Y-95222200D02*
X135290476Y-95936485D01*
X135290476Y-95936485D02*
X135909523Y-95936485D01*
X115271845Y-94697319D02*
X115271845Y-95506842D01*
X115271845Y-95506842D02*
X115319464Y-95602080D01*
X115319464Y-95602080D02*
X115367083Y-95649700D01*
X115367083Y-95649700D02*
X115462321Y-95697319D01*
X115462321Y-95697319D02*
X115652797Y-95697319D01*
X115652797Y-95697319D02*
X115748035Y-95649700D01*
X115748035Y-95649700D02*
X115795654Y-95602080D01*
X115795654Y-95602080D02*
X115843273Y-95506842D01*
X115843273Y-95506842D02*
X115843273Y-94697319D01*
X116271845Y-94792557D02*
X116319464Y-94744938D01*
X116319464Y-94744938D02*
X116414702Y-94697319D01*
X116414702Y-94697319D02*
X116652797Y-94697319D01*
X116652797Y-94697319D02*
X116748035Y-94744938D01*
X116748035Y-94744938D02*
X116795654Y-94792557D01*
X116795654Y-94792557D02*
X116843273Y-94887795D01*
X116843273Y-94887795D02*
X116843273Y-94983033D01*
X116843273Y-94983033D02*
X116795654Y-95125890D01*
X116795654Y-95125890D02*
X116224226Y-95697319D01*
X116224226Y-95697319D02*
X116843273Y-95697319D01*
X156853333Y-112909819D02*
X156520000Y-112433628D01*
X156281905Y-112909819D02*
X156281905Y-111909819D01*
X156281905Y-111909819D02*
X156662857Y-111909819D01*
X156662857Y-111909819D02*
X156758095Y-111957438D01*
X156758095Y-111957438D02*
X156805714Y-112005057D01*
X156805714Y-112005057D02*
X156853333Y-112100295D01*
X156853333Y-112100295D02*
X156853333Y-112243152D01*
X156853333Y-112243152D02*
X156805714Y-112338390D01*
X156805714Y-112338390D02*
X156758095Y-112386009D01*
X156758095Y-112386009D02*
X156662857Y-112433628D01*
X156662857Y-112433628D02*
X156281905Y-112433628D01*
X157329524Y-112909819D02*
X157520000Y-112909819D01*
X157520000Y-112909819D02*
X157615238Y-112862200D01*
X157615238Y-112862200D02*
X157662857Y-112814580D01*
X157662857Y-112814580D02*
X157758095Y-112671723D01*
X157758095Y-112671723D02*
X157805714Y-112481247D01*
X157805714Y-112481247D02*
X157805714Y-112100295D01*
X157805714Y-112100295D02*
X157758095Y-112005057D01*
X157758095Y-112005057D02*
X157710476Y-111957438D01*
X157710476Y-111957438D02*
X157615238Y-111909819D01*
X157615238Y-111909819D02*
X157424762Y-111909819D01*
X157424762Y-111909819D02*
X157329524Y-111957438D01*
X157329524Y-111957438D02*
X157281905Y-112005057D01*
X157281905Y-112005057D02*
X157234286Y-112100295D01*
X157234286Y-112100295D02*
X157234286Y-112338390D01*
X157234286Y-112338390D02*
X157281905Y-112433628D01*
X157281905Y-112433628D02*
X157329524Y-112481247D01*
X157329524Y-112481247D02*
X157424762Y-112528866D01*
X157424762Y-112528866D02*
X157615238Y-112528866D01*
X157615238Y-112528866D02*
X157710476Y-112481247D01*
X157710476Y-112481247D02*
X157758095Y-112433628D01*
X157758095Y-112433628D02*
X157805714Y-112338390D01*
X102941905Y-98989819D02*
X102941905Y-97989819D01*
X102941905Y-97989819D02*
X103180000Y-97989819D01*
X103180000Y-97989819D02*
X103322857Y-98037438D01*
X103322857Y-98037438D02*
X103418095Y-98132676D01*
X103418095Y-98132676D02*
X103465714Y-98227914D01*
X103465714Y-98227914D02*
X103513333Y-98418390D01*
X103513333Y-98418390D02*
X103513333Y-98561247D01*
X103513333Y-98561247D02*
X103465714Y-98751723D01*
X103465714Y-98751723D02*
X103418095Y-98846961D01*
X103418095Y-98846961D02*
X103322857Y-98942200D01*
X103322857Y-98942200D02*
X103180000Y-98989819D01*
X103180000Y-98989819D02*
X102941905Y-98989819D01*
X104465714Y-98989819D02*
X103894286Y-98989819D01*
X104180000Y-98989819D02*
X104180000Y-97989819D01*
X104180000Y-97989819D02*
X104084762Y-98132676D01*
X104084762Y-98132676D02*
X103989524Y-98227914D01*
X103989524Y-98227914D02*
X103894286Y-98275533D01*
X137477142Y-96279819D02*
X137143809Y-95803628D01*
X136905714Y-96279819D02*
X136905714Y-95279819D01*
X136905714Y-95279819D02*
X137286666Y-95279819D01*
X137286666Y-95279819D02*
X137381904Y-95327438D01*
X137381904Y-95327438D02*
X137429523Y-95375057D01*
X137429523Y-95375057D02*
X137477142Y-95470295D01*
X137477142Y-95470295D02*
X137477142Y-95613152D01*
X137477142Y-95613152D02*
X137429523Y-95708390D01*
X137429523Y-95708390D02*
X137381904Y-95756009D01*
X137381904Y-95756009D02*
X137286666Y-95803628D01*
X137286666Y-95803628D02*
X136905714Y-95803628D01*
X138429523Y-96279819D02*
X137858095Y-96279819D01*
X138143809Y-96279819D02*
X138143809Y-95279819D01*
X138143809Y-95279819D02*
X138048571Y-95422676D01*
X138048571Y-95422676D02*
X137953333Y-95517914D01*
X137953333Y-95517914D02*
X137858095Y-95565533D01*
X139000952Y-95708390D02*
X138905714Y-95660771D01*
X138905714Y-95660771D02*
X138858095Y-95613152D01*
X138858095Y-95613152D02*
X138810476Y-95517914D01*
X138810476Y-95517914D02*
X138810476Y-95470295D01*
X138810476Y-95470295D02*
X138858095Y-95375057D01*
X138858095Y-95375057D02*
X138905714Y-95327438D01*
X138905714Y-95327438D02*
X139000952Y-95279819D01*
X139000952Y-95279819D02*
X139191428Y-95279819D01*
X139191428Y-95279819D02*
X139286666Y-95327438D01*
X139286666Y-95327438D02*
X139334285Y-95375057D01*
X139334285Y-95375057D02*
X139381904Y-95470295D01*
X139381904Y-95470295D02*
X139381904Y-95517914D01*
X139381904Y-95517914D02*
X139334285Y-95613152D01*
X139334285Y-95613152D02*
X139286666Y-95660771D01*
X139286666Y-95660771D02*
X139191428Y-95708390D01*
X139191428Y-95708390D02*
X139000952Y-95708390D01*
X139000952Y-95708390D02*
X138905714Y-95756009D01*
X138905714Y-95756009D02*
X138858095Y-95803628D01*
X138858095Y-95803628D02*
X138810476Y-95898866D01*
X138810476Y-95898866D02*
X138810476Y-96089342D01*
X138810476Y-96089342D02*
X138858095Y-96184580D01*
X138858095Y-96184580D02*
X138905714Y-96232200D01*
X138905714Y-96232200D02*
X139000952Y-96279819D01*
X139000952Y-96279819D02*
X139191428Y-96279819D01*
X139191428Y-96279819D02*
X139286666Y-96232200D01*
X139286666Y-96232200D02*
X139334285Y-96184580D01*
X139334285Y-96184580D02*
X139381904Y-96089342D01*
X139381904Y-96089342D02*
X139381904Y-95898866D01*
X139381904Y-95898866D02*
X139334285Y-95803628D01*
X139334285Y-95803628D02*
X139286666Y-95756009D01*
X139286666Y-95756009D02*
X139191428Y-95708390D01*
X97306666Y-95929819D02*
X97306666Y-96644104D01*
X97306666Y-96644104D02*
X97259047Y-96786961D01*
X97259047Y-96786961D02*
X97163809Y-96882200D01*
X97163809Y-96882200D02*
X97020952Y-96929819D01*
X97020952Y-96929819D02*
X96925714Y-96929819D01*
X97830476Y-96929819D02*
X98020952Y-96929819D01*
X98020952Y-96929819D02*
X98116190Y-96882200D01*
X98116190Y-96882200D02*
X98163809Y-96834580D01*
X98163809Y-96834580D02*
X98259047Y-96691723D01*
X98259047Y-96691723D02*
X98306666Y-96501247D01*
X98306666Y-96501247D02*
X98306666Y-96120295D01*
X98306666Y-96120295D02*
X98259047Y-96025057D01*
X98259047Y-96025057D02*
X98211428Y-95977438D01*
X98211428Y-95977438D02*
X98116190Y-95929819D01*
X98116190Y-95929819D02*
X97925714Y-95929819D01*
X97925714Y-95929819D02*
X97830476Y-95977438D01*
X97830476Y-95977438D02*
X97782857Y-96025057D01*
X97782857Y-96025057D02*
X97735238Y-96120295D01*
X97735238Y-96120295D02*
X97735238Y-96358390D01*
X97735238Y-96358390D02*
X97782857Y-96453628D01*
X97782857Y-96453628D02*
X97830476Y-96501247D01*
X97830476Y-96501247D02*
X97925714Y-96548866D01*
X97925714Y-96548866D02*
X98116190Y-96548866D01*
X98116190Y-96548866D02*
X98211428Y-96501247D01*
X98211428Y-96501247D02*
X98259047Y-96453628D01*
X98259047Y-96453628D02*
X98306666Y-96358390D01*
X136243333Y-86509580D02*
X136195714Y-86557200D01*
X136195714Y-86557200D02*
X136052857Y-86604819D01*
X136052857Y-86604819D02*
X135957619Y-86604819D01*
X135957619Y-86604819D02*
X135814762Y-86557200D01*
X135814762Y-86557200D02*
X135719524Y-86461961D01*
X135719524Y-86461961D02*
X135671905Y-86366723D01*
X135671905Y-86366723D02*
X135624286Y-86176247D01*
X135624286Y-86176247D02*
X135624286Y-86033390D01*
X135624286Y-86033390D02*
X135671905Y-85842914D01*
X135671905Y-85842914D02*
X135719524Y-85747676D01*
X135719524Y-85747676D02*
X135814762Y-85652438D01*
X135814762Y-85652438D02*
X135957619Y-85604819D01*
X135957619Y-85604819D02*
X136052857Y-85604819D01*
X136052857Y-85604819D02*
X136195714Y-85652438D01*
X136195714Y-85652438D02*
X136243333Y-85700057D01*
X136719524Y-86604819D02*
X136910000Y-86604819D01*
X136910000Y-86604819D02*
X137005238Y-86557200D01*
X137005238Y-86557200D02*
X137052857Y-86509580D01*
X137052857Y-86509580D02*
X137148095Y-86366723D01*
X137148095Y-86366723D02*
X137195714Y-86176247D01*
X137195714Y-86176247D02*
X137195714Y-85795295D01*
X137195714Y-85795295D02*
X137148095Y-85700057D01*
X137148095Y-85700057D02*
X137100476Y-85652438D01*
X137100476Y-85652438D02*
X137005238Y-85604819D01*
X137005238Y-85604819D02*
X136814762Y-85604819D01*
X136814762Y-85604819D02*
X136719524Y-85652438D01*
X136719524Y-85652438D02*
X136671905Y-85700057D01*
X136671905Y-85700057D02*
X136624286Y-85795295D01*
X136624286Y-85795295D02*
X136624286Y-86033390D01*
X136624286Y-86033390D02*
X136671905Y-86128628D01*
X136671905Y-86128628D02*
X136719524Y-86176247D01*
X136719524Y-86176247D02*
X136814762Y-86223866D01*
X136814762Y-86223866D02*
X137005238Y-86223866D01*
X137005238Y-86223866D02*
X137100476Y-86176247D01*
X137100476Y-86176247D02*
X137148095Y-86128628D01*
X137148095Y-86128628D02*
X137195714Y-86033390D01*
X109817142Y-104424580D02*
X109769523Y-104472200D01*
X109769523Y-104472200D02*
X109626666Y-104519819D01*
X109626666Y-104519819D02*
X109531428Y-104519819D01*
X109531428Y-104519819D02*
X109388571Y-104472200D01*
X109388571Y-104472200D02*
X109293333Y-104376961D01*
X109293333Y-104376961D02*
X109245714Y-104281723D01*
X109245714Y-104281723D02*
X109198095Y-104091247D01*
X109198095Y-104091247D02*
X109198095Y-103948390D01*
X109198095Y-103948390D02*
X109245714Y-103757914D01*
X109245714Y-103757914D02*
X109293333Y-103662676D01*
X109293333Y-103662676D02*
X109388571Y-103567438D01*
X109388571Y-103567438D02*
X109531428Y-103519819D01*
X109531428Y-103519819D02*
X109626666Y-103519819D01*
X109626666Y-103519819D02*
X109769523Y-103567438D01*
X109769523Y-103567438D02*
X109817142Y-103615057D01*
X110769523Y-104519819D02*
X110198095Y-104519819D01*
X110483809Y-104519819D02*
X110483809Y-103519819D01*
X110483809Y-103519819D02*
X110388571Y-103662676D01*
X110388571Y-103662676D02*
X110293333Y-103757914D01*
X110293333Y-103757914D02*
X110198095Y-103805533D01*
X111388571Y-103519819D02*
X111483809Y-103519819D01*
X111483809Y-103519819D02*
X111579047Y-103567438D01*
X111579047Y-103567438D02*
X111626666Y-103615057D01*
X111626666Y-103615057D02*
X111674285Y-103710295D01*
X111674285Y-103710295D02*
X111721904Y-103900771D01*
X111721904Y-103900771D02*
X111721904Y-104138866D01*
X111721904Y-104138866D02*
X111674285Y-104329342D01*
X111674285Y-104329342D02*
X111626666Y-104424580D01*
X111626666Y-104424580D02*
X111579047Y-104472200D01*
X111579047Y-104472200D02*
X111483809Y-104519819D01*
X111483809Y-104519819D02*
X111388571Y-104519819D01*
X111388571Y-104519819D02*
X111293333Y-104472200D01*
X111293333Y-104472200D02*
X111245714Y-104424580D01*
X111245714Y-104424580D02*
X111198095Y-104329342D01*
X111198095Y-104329342D02*
X111150476Y-104138866D01*
X111150476Y-104138866D02*
X111150476Y-103900771D01*
X111150476Y-103900771D02*
X111198095Y-103710295D01*
X111198095Y-103710295D02*
X111245714Y-103615057D01*
X111245714Y-103615057D02*
X111293333Y-103567438D01*
X111293333Y-103567438D02*
X111388571Y-103519819D01*
X160816666Y-86329819D02*
X160816666Y-87044104D01*
X160816666Y-87044104D02*
X160769047Y-87186961D01*
X160769047Y-87186961D02*
X160673809Y-87282200D01*
X160673809Y-87282200D02*
X160530952Y-87329819D01*
X160530952Y-87329819D02*
X160435714Y-87329819D01*
X161769047Y-86329819D02*
X161292857Y-86329819D01*
X161292857Y-86329819D02*
X161245238Y-86806009D01*
X161245238Y-86806009D02*
X161292857Y-86758390D01*
X161292857Y-86758390D02*
X161388095Y-86710771D01*
X161388095Y-86710771D02*
X161626190Y-86710771D01*
X161626190Y-86710771D02*
X161721428Y-86758390D01*
X161721428Y-86758390D02*
X161769047Y-86806009D01*
X161769047Y-86806009D02*
X161816666Y-86901247D01*
X161816666Y-86901247D02*
X161816666Y-87139342D01*
X161816666Y-87139342D02*
X161769047Y-87234580D01*
X161769047Y-87234580D02*
X161721428Y-87282200D01*
X161721428Y-87282200D02*
X161626190Y-87329819D01*
X161626190Y-87329819D02*
X161388095Y-87329819D01*
X161388095Y-87329819D02*
X161292857Y-87282200D01*
X161292857Y-87282200D02*
X161245238Y-87234580D01*
X189416666Y-95259819D02*
X189416666Y-95974104D01*
X189416666Y-95974104D02*
X189369047Y-96116961D01*
X189369047Y-96116961D02*
X189273809Y-96212200D01*
X189273809Y-96212200D02*
X189130952Y-96259819D01*
X189130952Y-96259819D02*
X189035714Y-96259819D01*
X190035714Y-95688390D02*
X189940476Y-95640771D01*
X189940476Y-95640771D02*
X189892857Y-95593152D01*
X189892857Y-95593152D02*
X189845238Y-95497914D01*
X189845238Y-95497914D02*
X189845238Y-95450295D01*
X189845238Y-95450295D02*
X189892857Y-95355057D01*
X189892857Y-95355057D02*
X189940476Y-95307438D01*
X189940476Y-95307438D02*
X190035714Y-95259819D01*
X190035714Y-95259819D02*
X190226190Y-95259819D01*
X190226190Y-95259819D02*
X190321428Y-95307438D01*
X190321428Y-95307438D02*
X190369047Y-95355057D01*
X190369047Y-95355057D02*
X190416666Y-95450295D01*
X190416666Y-95450295D02*
X190416666Y-95497914D01*
X190416666Y-95497914D02*
X190369047Y-95593152D01*
X190369047Y-95593152D02*
X190321428Y-95640771D01*
X190321428Y-95640771D02*
X190226190Y-95688390D01*
X190226190Y-95688390D02*
X190035714Y-95688390D01*
X190035714Y-95688390D02*
X189940476Y-95736009D01*
X189940476Y-95736009D02*
X189892857Y-95783628D01*
X189892857Y-95783628D02*
X189845238Y-95878866D01*
X189845238Y-95878866D02*
X189845238Y-96069342D01*
X189845238Y-96069342D02*
X189892857Y-96164580D01*
X189892857Y-96164580D02*
X189940476Y-96212200D01*
X189940476Y-96212200D02*
X190035714Y-96259819D01*
X190035714Y-96259819D02*
X190226190Y-96259819D01*
X190226190Y-96259819D02*
X190321428Y-96212200D01*
X190321428Y-96212200D02*
X190369047Y-96164580D01*
X190369047Y-96164580D02*
X190416666Y-96069342D01*
X190416666Y-96069342D02*
X190416666Y-95878866D01*
X190416666Y-95878866D02*
X190369047Y-95783628D01*
X190369047Y-95783628D02*
X190321428Y-95736009D01*
X190321428Y-95736009D02*
X190226190Y-95688390D01*
X132796666Y-115129819D02*
X132796666Y-115844104D01*
X132796666Y-115844104D02*
X132749047Y-115986961D01*
X132749047Y-115986961D02*
X132653809Y-116082200D01*
X132653809Y-116082200D02*
X132510952Y-116129819D01*
X132510952Y-116129819D02*
X132415714Y-116129819D01*
X133177619Y-115129819D02*
X133844285Y-115129819D01*
X133844285Y-115129819D02*
X133415714Y-116129819D01*
X162757142Y-94389819D02*
X162423809Y-93913628D01*
X162185714Y-94389819D02*
X162185714Y-93389819D01*
X162185714Y-93389819D02*
X162566666Y-93389819D01*
X162566666Y-93389819D02*
X162661904Y-93437438D01*
X162661904Y-93437438D02*
X162709523Y-93485057D01*
X162709523Y-93485057D02*
X162757142Y-93580295D01*
X162757142Y-93580295D02*
X162757142Y-93723152D01*
X162757142Y-93723152D02*
X162709523Y-93818390D01*
X162709523Y-93818390D02*
X162661904Y-93866009D01*
X162661904Y-93866009D02*
X162566666Y-93913628D01*
X162566666Y-93913628D02*
X162185714Y-93913628D01*
X163709523Y-94389819D02*
X163138095Y-94389819D01*
X163423809Y-94389819D02*
X163423809Y-93389819D01*
X163423809Y-93389819D02*
X163328571Y-93532676D01*
X163328571Y-93532676D02*
X163233333Y-93627914D01*
X163233333Y-93627914D02*
X163138095Y-93675533D01*
X164566666Y-93389819D02*
X164376190Y-93389819D01*
X164376190Y-93389819D02*
X164280952Y-93437438D01*
X164280952Y-93437438D02*
X164233333Y-93485057D01*
X164233333Y-93485057D02*
X164138095Y-93627914D01*
X164138095Y-93627914D02*
X164090476Y-93818390D01*
X164090476Y-93818390D02*
X164090476Y-94199342D01*
X164090476Y-94199342D02*
X164138095Y-94294580D01*
X164138095Y-94294580D02*
X164185714Y-94342200D01*
X164185714Y-94342200D02*
X164280952Y-94389819D01*
X164280952Y-94389819D02*
X164471428Y-94389819D01*
X164471428Y-94389819D02*
X164566666Y-94342200D01*
X164566666Y-94342200D02*
X164614285Y-94294580D01*
X164614285Y-94294580D02*
X164661904Y-94199342D01*
X164661904Y-94199342D02*
X164661904Y-93961247D01*
X164661904Y-93961247D02*
X164614285Y-93866009D01*
X164614285Y-93866009D02*
X164566666Y-93818390D01*
X164566666Y-93818390D02*
X164471428Y-93770771D01*
X164471428Y-93770771D02*
X164280952Y-93770771D01*
X164280952Y-93770771D02*
X164185714Y-93818390D01*
X164185714Y-93818390D02*
X164138095Y-93866009D01*
X164138095Y-93866009D02*
X164090476Y-93961247D01*
X124946667Y-96262200D02*
X125089524Y-96309819D01*
X125089524Y-96309819D02*
X125327619Y-96309819D01*
X125327619Y-96309819D02*
X125422857Y-96262200D01*
X125422857Y-96262200D02*
X125470476Y-96214580D01*
X125470476Y-96214580D02*
X125518095Y-96119342D01*
X125518095Y-96119342D02*
X125518095Y-96024104D01*
X125518095Y-96024104D02*
X125470476Y-95928866D01*
X125470476Y-95928866D02*
X125422857Y-95881247D01*
X125422857Y-95881247D02*
X125327619Y-95833628D01*
X125327619Y-95833628D02*
X125137143Y-95786009D01*
X125137143Y-95786009D02*
X125041905Y-95738390D01*
X125041905Y-95738390D02*
X124994286Y-95690771D01*
X124994286Y-95690771D02*
X124946667Y-95595533D01*
X124946667Y-95595533D02*
X124946667Y-95500295D01*
X124946667Y-95500295D02*
X124994286Y-95405057D01*
X124994286Y-95405057D02*
X125041905Y-95357438D01*
X125041905Y-95357438D02*
X125137143Y-95309819D01*
X125137143Y-95309819D02*
X125375238Y-95309819D01*
X125375238Y-95309819D02*
X125518095Y-95357438D01*
X125851429Y-95309819D02*
X126089524Y-96309819D01*
X126089524Y-96309819D02*
X126280000Y-95595533D01*
X126280000Y-95595533D02*
X126470476Y-96309819D01*
X126470476Y-96309819D02*
X126708572Y-95309819D01*
X126994286Y-95309819D02*
X127660952Y-95309819D01*
X127660952Y-95309819D02*
X127232381Y-96309819D01*
X148688095Y-89689819D02*
X148688095Y-90499342D01*
X148688095Y-90499342D02*
X148735714Y-90594580D01*
X148735714Y-90594580D02*
X148783333Y-90642200D01*
X148783333Y-90642200D02*
X148878571Y-90689819D01*
X148878571Y-90689819D02*
X149069047Y-90689819D01*
X149069047Y-90689819D02*
X149164285Y-90642200D01*
X149164285Y-90642200D02*
X149211904Y-90594580D01*
X149211904Y-90594580D02*
X149259523Y-90499342D01*
X149259523Y-90499342D02*
X149259523Y-89689819D01*
X150259523Y-90689819D02*
X149688095Y-90689819D01*
X149973809Y-90689819D02*
X149973809Y-89689819D01*
X149973809Y-89689819D02*
X149878571Y-89832676D01*
X149878571Y-89832676D02*
X149783333Y-89927914D01*
X149783333Y-89927914D02*
X149688095Y-89975533D01*
X120533333Y-104424580D02*
X120485714Y-104472200D01*
X120485714Y-104472200D02*
X120342857Y-104519819D01*
X120342857Y-104519819D02*
X120247619Y-104519819D01*
X120247619Y-104519819D02*
X120104762Y-104472200D01*
X120104762Y-104472200D02*
X120009524Y-104376961D01*
X120009524Y-104376961D02*
X119961905Y-104281723D01*
X119961905Y-104281723D02*
X119914286Y-104091247D01*
X119914286Y-104091247D02*
X119914286Y-103948390D01*
X119914286Y-103948390D02*
X119961905Y-103757914D01*
X119961905Y-103757914D02*
X120009524Y-103662676D01*
X120009524Y-103662676D02*
X120104762Y-103567438D01*
X120104762Y-103567438D02*
X120247619Y-103519819D01*
X120247619Y-103519819D02*
X120342857Y-103519819D01*
X120342857Y-103519819D02*
X120485714Y-103567438D01*
X120485714Y-103567438D02*
X120533333Y-103615057D01*
X120866667Y-103519819D02*
X121533333Y-103519819D01*
X121533333Y-103519819D02*
X121104762Y-104519819D01*
X124817083Y-89474580D02*
X124769464Y-89522200D01*
X124769464Y-89522200D02*
X124626607Y-89569819D01*
X124626607Y-89569819D02*
X124531369Y-89569819D01*
X124531369Y-89569819D02*
X124388512Y-89522200D01*
X124388512Y-89522200D02*
X124293274Y-89426961D01*
X124293274Y-89426961D02*
X124245655Y-89331723D01*
X124245655Y-89331723D02*
X124198036Y-89141247D01*
X124198036Y-89141247D02*
X124198036Y-88998390D01*
X124198036Y-88998390D02*
X124245655Y-88807914D01*
X124245655Y-88807914D02*
X124293274Y-88712676D01*
X124293274Y-88712676D02*
X124388512Y-88617438D01*
X124388512Y-88617438D02*
X124531369Y-88569819D01*
X124531369Y-88569819D02*
X124626607Y-88569819D01*
X124626607Y-88569819D02*
X124769464Y-88617438D01*
X124769464Y-88617438D02*
X124817083Y-88665057D01*
X125721845Y-88569819D02*
X125245655Y-88569819D01*
X125245655Y-88569819D02*
X125198036Y-89046009D01*
X125198036Y-89046009D02*
X125245655Y-88998390D01*
X125245655Y-88998390D02*
X125340893Y-88950771D01*
X125340893Y-88950771D02*
X125578988Y-88950771D01*
X125578988Y-88950771D02*
X125674226Y-88998390D01*
X125674226Y-88998390D02*
X125721845Y-89046009D01*
X125721845Y-89046009D02*
X125769464Y-89141247D01*
X125769464Y-89141247D02*
X125769464Y-89379342D01*
X125769464Y-89379342D02*
X125721845Y-89474580D01*
X125721845Y-89474580D02*
X125674226Y-89522200D01*
X125674226Y-89522200D02*
X125578988Y-89569819D01*
X125578988Y-89569819D02*
X125340893Y-89569819D01*
X125340893Y-89569819D02*
X125245655Y-89522200D01*
X125245655Y-89522200D02*
X125198036Y-89474580D01*
X107227083Y-92122080D02*
X107179464Y-92169700D01*
X107179464Y-92169700D02*
X107036607Y-92217319D01*
X107036607Y-92217319D02*
X106941369Y-92217319D01*
X106941369Y-92217319D02*
X106798512Y-92169700D01*
X106798512Y-92169700D02*
X106703274Y-92074461D01*
X106703274Y-92074461D02*
X106655655Y-91979223D01*
X106655655Y-91979223D02*
X106608036Y-91788747D01*
X106608036Y-91788747D02*
X106608036Y-91645890D01*
X106608036Y-91645890D02*
X106655655Y-91455414D01*
X106655655Y-91455414D02*
X106703274Y-91360176D01*
X106703274Y-91360176D02*
X106798512Y-91264938D01*
X106798512Y-91264938D02*
X106941369Y-91217319D01*
X106941369Y-91217319D02*
X107036607Y-91217319D01*
X107036607Y-91217319D02*
X107179464Y-91264938D01*
X107179464Y-91264938D02*
X107227083Y-91312557D01*
X108179464Y-92217319D02*
X107608036Y-92217319D01*
X107893750Y-92217319D02*
X107893750Y-91217319D01*
X107893750Y-91217319D02*
X107798512Y-91360176D01*
X107798512Y-91360176D02*
X107703274Y-91455414D01*
X107703274Y-91455414D02*
X107608036Y-91503033D01*
X140163333Y-111119819D02*
X139830000Y-110643628D01*
X139591905Y-111119819D02*
X139591905Y-110119819D01*
X139591905Y-110119819D02*
X139972857Y-110119819D01*
X139972857Y-110119819D02*
X140068095Y-110167438D01*
X140068095Y-110167438D02*
X140115714Y-110215057D01*
X140115714Y-110215057D02*
X140163333Y-110310295D01*
X140163333Y-110310295D02*
X140163333Y-110453152D01*
X140163333Y-110453152D02*
X140115714Y-110548390D01*
X140115714Y-110548390D02*
X140068095Y-110596009D01*
X140068095Y-110596009D02*
X139972857Y-110643628D01*
X139972857Y-110643628D02*
X139591905Y-110643628D01*
X140496667Y-110119819D02*
X141115714Y-110119819D01*
X141115714Y-110119819D02*
X140782381Y-110500771D01*
X140782381Y-110500771D02*
X140925238Y-110500771D01*
X140925238Y-110500771D02*
X141020476Y-110548390D01*
X141020476Y-110548390D02*
X141068095Y-110596009D01*
X141068095Y-110596009D02*
X141115714Y-110691247D01*
X141115714Y-110691247D02*
X141115714Y-110929342D01*
X141115714Y-110929342D02*
X141068095Y-111024580D01*
X141068095Y-111024580D02*
X141020476Y-111072200D01*
X141020476Y-111072200D02*
X140925238Y-111119819D01*
X140925238Y-111119819D02*
X140639524Y-111119819D01*
X140639524Y-111119819D02*
X140544286Y-111072200D01*
X140544286Y-111072200D02*
X140496667Y-111024580D01*
X160387142Y-109114819D02*
X160053809Y-108638628D01*
X159815714Y-109114819D02*
X159815714Y-108114819D01*
X159815714Y-108114819D02*
X160196666Y-108114819D01*
X160196666Y-108114819D02*
X160291904Y-108162438D01*
X160291904Y-108162438D02*
X160339523Y-108210057D01*
X160339523Y-108210057D02*
X160387142Y-108305295D01*
X160387142Y-108305295D02*
X160387142Y-108448152D01*
X160387142Y-108448152D02*
X160339523Y-108543390D01*
X160339523Y-108543390D02*
X160291904Y-108591009D01*
X160291904Y-108591009D02*
X160196666Y-108638628D01*
X160196666Y-108638628D02*
X159815714Y-108638628D01*
X161339523Y-109114819D02*
X160768095Y-109114819D01*
X161053809Y-109114819D02*
X161053809Y-108114819D01*
X161053809Y-108114819D02*
X160958571Y-108257676D01*
X160958571Y-108257676D02*
X160863333Y-108352914D01*
X160863333Y-108352914D02*
X160768095Y-108400533D01*
X162196666Y-108448152D02*
X162196666Y-109114819D01*
X161958571Y-108067200D02*
X161720476Y-108781485D01*
X161720476Y-108781485D02*
X162339523Y-108781485D01*
X138463333Y-86569580D02*
X138415714Y-86617200D01*
X138415714Y-86617200D02*
X138272857Y-86664819D01*
X138272857Y-86664819D02*
X138177619Y-86664819D01*
X138177619Y-86664819D02*
X138034762Y-86617200D01*
X138034762Y-86617200D02*
X137939524Y-86521961D01*
X137939524Y-86521961D02*
X137891905Y-86426723D01*
X137891905Y-86426723D02*
X137844286Y-86236247D01*
X137844286Y-86236247D02*
X137844286Y-86093390D01*
X137844286Y-86093390D02*
X137891905Y-85902914D01*
X137891905Y-85902914D02*
X137939524Y-85807676D01*
X137939524Y-85807676D02*
X138034762Y-85712438D01*
X138034762Y-85712438D02*
X138177619Y-85664819D01*
X138177619Y-85664819D02*
X138272857Y-85664819D01*
X138272857Y-85664819D02*
X138415714Y-85712438D01*
X138415714Y-85712438D02*
X138463333Y-85760057D01*
X139034762Y-86093390D02*
X138939524Y-86045771D01*
X138939524Y-86045771D02*
X138891905Y-85998152D01*
X138891905Y-85998152D02*
X138844286Y-85902914D01*
X138844286Y-85902914D02*
X138844286Y-85855295D01*
X138844286Y-85855295D02*
X138891905Y-85760057D01*
X138891905Y-85760057D02*
X138939524Y-85712438D01*
X138939524Y-85712438D02*
X139034762Y-85664819D01*
X139034762Y-85664819D02*
X139225238Y-85664819D01*
X139225238Y-85664819D02*
X139320476Y-85712438D01*
X139320476Y-85712438D02*
X139368095Y-85760057D01*
X139368095Y-85760057D02*
X139415714Y-85855295D01*
X139415714Y-85855295D02*
X139415714Y-85902914D01*
X139415714Y-85902914D02*
X139368095Y-85998152D01*
X139368095Y-85998152D02*
X139320476Y-86045771D01*
X139320476Y-86045771D02*
X139225238Y-86093390D01*
X139225238Y-86093390D02*
X139034762Y-86093390D01*
X139034762Y-86093390D02*
X138939524Y-86141009D01*
X138939524Y-86141009D02*
X138891905Y-86188628D01*
X138891905Y-86188628D02*
X138844286Y-86283866D01*
X138844286Y-86283866D02*
X138844286Y-86474342D01*
X138844286Y-86474342D02*
X138891905Y-86569580D01*
X138891905Y-86569580D02*
X138939524Y-86617200D01*
X138939524Y-86617200D02*
X139034762Y-86664819D01*
X139034762Y-86664819D02*
X139225238Y-86664819D01*
X139225238Y-86664819D02*
X139320476Y-86617200D01*
X139320476Y-86617200D02*
X139368095Y-86569580D01*
X139368095Y-86569580D02*
X139415714Y-86474342D01*
X139415714Y-86474342D02*
X139415714Y-86283866D01*
X139415714Y-86283866D02*
X139368095Y-86188628D01*
X139368095Y-86188628D02*
X139320476Y-86141009D01*
X139320476Y-86141009D02*
X139225238Y-86093390D01*
X113186666Y-115129819D02*
X113186666Y-115844104D01*
X113186666Y-115844104D02*
X113139047Y-115986961D01*
X113139047Y-115986961D02*
X113043809Y-116082200D01*
X113043809Y-116082200D02*
X112900952Y-116129819D01*
X112900952Y-116129819D02*
X112805714Y-116129819D01*
X114091428Y-115463152D02*
X114091428Y-116129819D01*
X113853333Y-115082200D02*
X113615238Y-115796485D01*
X113615238Y-115796485D02*
X114234285Y-115796485D01*
X187206666Y-87719819D02*
X187206666Y-88434104D01*
X187206666Y-88434104D02*
X187159047Y-88576961D01*
X187159047Y-88576961D02*
X187063809Y-88672200D01*
X187063809Y-88672200D02*
X186920952Y-88719819D01*
X186920952Y-88719819D02*
X186825714Y-88719819D01*
X187587619Y-87719819D02*
X188206666Y-87719819D01*
X188206666Y-87719819D02*
X187873333Y-88100771D01*
X187873333Y-88100771D02*
X188016190Y-88100771D01*
X188016190Y-88100771D02*
X188111428Y-88148390D01*
X188111428Y-88148390D02*
X188159047Y-88196009D01*
X188159047Y-88196009D02*
X188206666Y-88291247D01*
X188206666Y-88291247D02*
X188206666Y-88529342D01*
X188206666Y-88529342D02*
X188159047Y-88624580D01*
X188159047Y-88624580D02*
X188111428Y-88672200D01*
X188111428Y-88672200D02*
X188016190Y-88719819D01*
X188016190Y-88719819D02*
X187730476Y-88719819D01*
X187730476Y-88719819D02*
X187635238Y-88672200D01*
X187635238Y-88672200D02*
X187587619Y-88624580D01*
X152297142Y-112859819D02*
X151963809Y-112383628D01*
X151725714Y-112859819D02*
X151725714Y-111859819D01*
X151725714Y-111859819D02*
X152106666Y-111859819D01*
X152106666Y-111859819D02*
X152201904Y-111907438D01*
X152201904Y-111907438D02*
X152249523Y-111955057D01*
X152249523Y-111955057D02*
X152297142Y-112050295D01*
X152297142Y-112050295D02*
X152297142Y-112193152D01*
X152297142Y-112193152D02*
X152249523Y-112288390D01*
X152249523Y-112288390D02*
X152201904Y-112336009D01*
X152201904Y-112336009D02*
X152106666Y-112383628D01*
X152106666Y-112383628D02*
X151725714Y-112383628D01*
X153249523Y-112859819D02*
X152678095Y-112859819D01*
X152963809Y-112859819D02*
X152963809Y-111859819D01*
X152963809Y-111859819D02*
X152868571Y-112002676D01*
X152868571Y-112002676D02*
X152773333Y-112097914D01*
X152773333Y-112097914D02*
X152678095Y-112145533D01*
X154154285Y-111859819D02*
X153678095Y-111859819D01*
X153678095Y-111859819D02*
X153630476Y-112336009D01*
X153630476Y-112336009D02*
X153678095Y-112288390D01*
X153678095Y-112288390D02*
X153773333Y-112240771D01*
X153773333Y-112240771D02*
X154011428Y-112240771D01*
X154011428Y-112240771D02*
X154106666Y-112288390D01*
X154106666Y-112288390D02*
X154154285Y-112336009D01*
X154154285Y-112336009D02*
X154201904Y-112431247D01*
X154201904Y-112431247D02*
X154201904Y-112669342D01*
X154201904Y-112669342D02*
X154154285Y-112764580D01*
X154154285Y-112764580D02*
X154106666Y-112812200D01*
X154106666Y-112812200D02*
X154011428Y-112859819D01*
X154011428Y-112859819D02*
X153773333Y-112859819D01*
X153773333Y-112859819D02*
X153678095Y-112812200D01*
X153678095Y-112812200D02*
X153630476Y-112764580D01*
X125803333Y-104519819D02*
X125470000Y-104043628D01*
X125231905Y-104519819D02*
X125231905Y-103519819D01*
X125231905Y-103519819D02*
X125612857Y-103519819D01*
X125612857Y-103519819D02*
X125708095Y-103567438D01*
X125708095Y-103567438D02*
X125755714Y-103615057D01*
X125755714Y-103615057D02*
X125803333Y-103710295D01*
X125803333Y-103710295D02*
X125803333Y-103853152D01*
X125803333Y-103853152D02*
X125755714Y-103948390D01*
X125755714Y-103948390D02*
X125708095Y-103996009D01*
X125708095Y-103996009D02*
X125612857Y-104043628D01*
X125612857Y-104043628D02*
X125231905Y-104043628D01*
X126755714Y-104519819D02*
X126184286Y-104519819D01*
X126470000Y-104519819D02*
X126470000Y-103519819D01*
X126470000Y-103519819D02*
X126374762Y-103662676D01*
X126374762Y-103662676D02*
X126279524Y-103757914D01*
X126279524Y-103757914D02*
X126184286Y-103805533D01*
X161167142Y-102269819D02*
X160833809Y-101793628D01*
X160595714Y-102269819D02*
X160595714Y-101269819D01*
X160595714Y-101269819D02*
X160976666Y-101269819D01*
X160976666Y-101269819D02*
X161071904Y-101317438D01*
X161071904Y-101317438D02*
X161119523Y-101365057D01*
X161119523Y-101365057D02*
X161167142Y-101460295D01*
X161167142Y-101460295D02*
X161167142Y-101603152D01*
X161167142Y-101603152D02*
X161119523Y-101698390D01*
X161119523Y-101698390D02*
X161071904Y-101746009D01*
X161071904Y-101746009D02*
X160976666Y-101793628D01*
X160976666Y-101793628D02*
X160595714Y-101793628D01*
X162119523Y-102269819D02*
X161548095Y-102269819D01*
X161833809Y-102269819D02*
X161833809Y-101269819D01*
X161833809Y-101269819D02*
X161738571Y-101412676D01*
X161738571Y-101412676D02*
X161643333Y-101507914D01*
X161643333Y-101507914D02*
X161548095Y-101555533D01*
X162452857Y-101269819D02*
X163119523Y-101269819D01*
X163119523Y-101269819D02*
X162690952Y-102269819D01*
X130127142Y-104424580D02*
X130079523Y-104472200D01*
X130079523Y-104472200D02*
X129936666Y-104519819D01*
X129936666Y-104519819D02*
X129841428Y-104519819D01*
X129841428Y-104519819D02*
X129698571Y-104472200D01*
X129698571Y-104472200D02*
X129603333Y-104376961D01*
X129603333Y-104376961D02*
X129555714Y-104281723D01*
X129555714Y-104281723D02*
X129508095Y-104091247D01*
X129508095Y-104091247D02*
X129508095Y-103948390D01*
X129508095Y-103948390D02*
X129555714Y-103757914D01*
X129555714Y-103757914D02*
X129603333Y-103662676D01*
X129603333Y-103662676D02*
X129698571Y-103567438D01*
X129698571Y-103567438D02*
X129841428Y-103519819D01*
X129841428Y-103519819D02*
X129936666Y-103519819D01*
X129936666Y-103519819D02*
X130079523Y-103567438D01*
X130079523Y-103567438D02*
X130127142Y-103615057D01*
X131079523Y-104519819D02*
X130508095Y-104519819D01*
X130793809Y-104519819D02*
X130793809Y-103519819D01*
X130793809Y-103519819D02*
X130698571Y-103662676D01*
X130698571Y-103662676D02*
X130603333Y-103757914D01*
X130603333Y-103757914D02*
X130508095Y-103805533D01*
X131412857Y-103519819D02*
X132031904Y-103519819D01*
X132031904Y-103519819D02*
X131698571Y-103900771D01*
X131698571Y-103900771D02*
X131841428Y-103900771D01*
X131841428Y-103900771D02*
X131936666Y-103948390D01*
X131936666Y-103948390D02*
X131984285Y-103996009D01*
X131984285Y-103996009D02*
X132031904Y-104091247D01*
X132031904Y-104091247D02*
X132031904Y-104329342D01*
X132031904Y-104329342D02*
X131984285Y-104424580D01*
X131984285Y-104424580D02*
X131936666Y-104472200D01*
X131936666Y-104472200D02*
X131841428Y-104519819D01*
X131841428Y-104519819D02*
X131555714Y-104519819D01*
X131555714Y-104519819D02*
X131460476Y-104472200D01*
X131460476Y-104472200D02*
X131412857Y-104424580D01*
D12*
%TO.C,J6*%
X163210000Y-106390000D02*
X163210000Y-103740000D01*
X165970000Y-103740000D02*
X163210000Y-103740000D01*
X165970000Y-106390000D02*
X163210000Y-106390000D01*
X165970000Y-106390000D02*
X165970000Y-103740000D01*
X165970000Y-107660000D02*
X165970000Y-109040000D01*
X165970000Y-109040000D02*
X164590000Y-109040000D01*
%TO.C,J2*%
X119200000Y-107420000D02*
X119200000Y-108670000D01*
X119490000Y-107710000D02*
X119490000Y-113680000D01*
X119490000Y-113680000D02*
X127110000Y-113680000D01*
X119500000Y-107720000D02*
X119500000Y-108470000D01*
X119500000Y-108470000D02*
X121300000Y-108470000D01*
X119500000Y-109970000D02*
X120250000Y-109970000D01*
X120250000Y-109970000D02*
X120250000Y-112920000D01*
X120250000Y-112920000D02*
X123300000Y-112920000D01*
X120450000Y-107420000D02*
X119200000Y-107420000D01*
X121300000Y-107720000D02*
X119500000Y-107720000D01*
X121300000Y-108470000D02*
X121300000Y-107720000D01*
X122800000Y-107720000D02*
X122800000Y-108470000D01*
X122800000Y-108470000D02*
X123800000Y-108470000D01*
X123800000Y-107720000D02*
X122800000Y-107720000D01*
X123800000Y-108470000D02*
X123800000Y-107720000D01*
X125300000Y-107720000D02*
X125300000Y-108470000D01*
X125300000Y-108470000D02*
X127100000Y-108470000D01*
X126350000Y-109970000D02*
X126350000Y-112920000D01*
X126350000Y-112920000D02*
X123300000Y-112920000D01*
X127100000Y-107720000D02*
X125300000Y-107720000D01*
X127100000Y-108470000D02*
X127100000Y-107720000D01*
X127100000Y-109970000D02*
X126350000Y-109970000D01*
X127110000Y-107710000D02*
X119490000Y-107710000D01*
X127110000Y-113680000D02*
X127110000Y-107710000D01*
%TO.C,C4*%
X104983750Y-89302500D02*
G75*
G02*
X98443750Y-89302500I-3270000J0D01*
G01*
X98443750Y-89302500D02*
G75*
G02*
X104983750Y-89302500I3270000J0D01*
G01*
%TO.C,R13*%
X136337258Y-105242500D02*
X135862742Y-105242500D01*
X136337258Y-106287500D02*
X135862742Y-106287500D01*
%TO.C,C3*%
X121698750Y-91451248D02*
X121698750Y-91973752D01*
X123168750Y-91451248D02*
X123168750Y-91973752D01*
%TO.C,J1*%
X98800000Y-107410000D02*
X98800000Y-108660000D01*
X99090000Y-107700000D02*
X99090000Y-113670000D01*
X99090000Y-113670000D02*
X106710000Y-113670000D01*
X99100000Y-107710000D02*
X99100000Y-108460000D01*
X99100000Y-108460000D02*
X100900000Y-108460000D01*
X99100000Y-109960000D02*
X99850000Y-109960000D01*
X99850000Y-109960000D02*
X99850000Y-112910000D01*
X99850000Y-112910000D02*
X102900000Y-112910000D01*
X100050000Y-107410000D02*
X98800000Y-107410000D01*
X100900000Y-107710000D02*
X99100000Y-107710000D01*
X100900000Y-108460000D02*
X100900000Y-107710000D01*
X102400000Y-107710000D02*
X102400000Y-108460000D01*
X102400000Y-108460000D02*
X103400000Y-108460000D01*
X103400000Y-107710000D02*
X102400000Y-107710000D01*
X103400000Y-108460000D02*
X103400000Y-107710000D01*
X104900000Y-107710000D02*
X104900000Y-108460000D01*
X104900000Y-108460000D02*
X106700000Y-108460000D01*
X105950000Y-109960000D02*
X105950000Y-112910000D01*
X105950000Y-112910000D02*
X102900000Y-112910000D01*
X106700000Y-107710000D02*
X104900000Y-107710000D01*
X106700000Y-108460000D02*
X106700000Y-107710000D01*
X106700000Y-109960000D02*
X105950000Y-109960000D01*
X106710000Y-107700000D02*
X99090000Y-107700000D01*
X106710000Y-113670000D02*
X106710000Y-107700000D01*
D11*
%TO.C,U3*%
X169330000Y-114630000D02*
X169350000Y-100800000D01*
D12*
X169330000Y-116010000D02*
X169330000Y-114630000D01*
X169350000Y-98150000D02*
X189890000Y-98150000D01*
X169350000Y-100800000D02*
X169350000Y-98150000D01*
X170710000Y-116010000D02*
X169330000Y-116010000D01*
D11*
X171980000Y-116010000D02*
X170710000Y-116010000D01*
D12*
X171980000Y-116010000D02*
X189870000Y-116010000D01*
D11*
X189870000Y-110710000D02*
X189890000Y-98150000D01*
D12*
X189870000Y-116010000D02*
X189870000Y-110710000D01*
%TO.C,C2*%
X109333750Y-88751920D02*
X109333750Y-89033080D01*
X110353750Y-88751920D02*
X110353750Y-89033080D01*
%TO.C,R2*%
X115902258Y-105242500D02*
X115427742Y-105242500D01*
X115902258Y-106287500D02*
X115427742Y-106287500D01*
%TO.C,C14*%
X134220000Y-93229420D02*
X134220000Y-93510580D01*
X135240000Y-93229420D02*
X135240000Y-93510580D01*
%TO.C,U2*%
X114123750Y-87332500D02*
X114123750Y-88592500D01*
X114123750Y-94152500D02*
X114123750Y-92892500D01*
X117883750Y-87332500D02*
X114123750Y-87332500D01*
X117883750Y-94152500D02*
X114123750Y-94152500D01*
X119403750Y-94382500D02*
X118923750Y-94382500D01*
X119163750Y-94052500D01*
X119403750Y-94382500D01*
G36*
X119403750Y-94382500D02*
G01*
X118923750Y-94382500D01*
X119163750Y-94052500D01*
X119403750Y-94382500D01*
G37*
%TO.C,R9*%
X156257500Y-109557742D02*
X156257500Y-110032258D01*
X157302500Y-109557742D02*
X157302500Y-110032258D01*
%TO.C,D1*%
X102080000Y-99707500D02*
X102080000Y-105517500D01*
X105300000Y-99707500D02*
X102080000Y-99707500D01*
X105300000Y-105517500D02*
X105300000Y-99707500D01*
%TO.C,R18*%
X137127500Y-93067742D02*
X137127500Y-93542258D01*
X138172500Y-93067742D02*
X138172500Y-93542258D01*
%TO.C,J9*%
X94540000Y-97675000D02*
X94540000Y-105295000D01*
X94540000Y-105295000D02*
X100510000Y-105295000D01*
X95300000Y-98435000D02*
X95300000Y-101485000D01*
X95300000Y-104535000D02*
X95300000Y-101485000D01*
X98250000Y-97685000D02*
X98250000Y-98435000D01*
X98250000Y-98435000D02*
X95300000Y-98435000D01*
X98250000Y-104535000D02*
X95300000Y-104535000D01*
X98250000Y-105285000D02*
X98250000Y-104535000D01*
X99750000Y-97685000D02*
X99750000Y-99485000D01*
X99750000Y-99485000D02*
X100500000Y-99485000D01*
X99750000Y-100985000D02*
X99750000Y-101985000D01*
X99750000Y-101985000D02*
X100500000Y-101985000D01*
X99750000Y-103485000D02*
X99750000Y-105285000D01*
X99750000Y-105285000D02*
X100500000Y-105285000D01*
X100500000Y-97685000D02*
X99750000Y-97685000D01*
X100500000Y-99485000D02*
X100500000Y-97685000D01*
X100500000Y-100985000D02*
X99750000Y-100985000D01*
X100500000Y-101985000D02*
X100500000Y-100985000D01*
X100500000Y-103485000D02*
X99750000Y-103485000D01*
X100500000Y-105285000D02*
X100500000Y-103485000D01*
X100510000Y-97675000D02*
X94540000Y-97675000D01*
X100510000Y-105295000D02*
X100510000Y-97675000D01*
X100800000Y-97385000D02*
X99550000Y-97385000D01*
X100800000Y-98635000D02*
X100800000Y-97385000D01*
%TO.C,C9*%
X135725000Y-88768748D02*
X135725000Y-89291252D01*
X137195000Y-88768748D02*
X137195000Y-89291252D01*
%TO.C,C10*%
X110319420Y-105255000D02*
X110600580Y-105255000D01*
X110319420Y-106275000D02*
X110600580Y-106275000D01*
%TO.C,J5*%
X162620000Y-88205000D02*
X162620000Y-86825000D01*
X164000000Y-88205000D02*
X162620000Y-88205000D01*
X165270000Y-85445000D02*
X173000000Y-85445000D01*
X165270000Y-88205000D02*
X165270000Y-85445000D01*
X165270000Y-88205000D02*
X173000000Y-88205000D01*
X173000000Y-88205000D02*
X173000000Y-85445000D01*
%TO.C,J8*%
X192160000Y-98655000D02*
X192160000Y-99905000D01*
X192160000Y-99905000D02*
X193410000Y-99905000D01*
X192450000Y-91995000D02*
X192450000Y-99615000D01*
X192450000Y-99615000D02*
X198420000Y-99615000D01*
X192460000Y-92005000D02*
X192460000Y-93805000D01*
X192460000Y-93805000D02*
X193210000Y-93805000D01*
X192460000Y-95305000D02*
X192460000Y-96305000D01*
X192460000Y-96305000D02*
X193210000Y-96305000D01*
X192460000Y-97805000D02*
X192460000Y-99605000D01*
X192460000Y-99605000D02*
X193210000Y-99605000D01*
X193210000Y-92005000D02*
X192460000Y-92005000D01*
X193210000Y-93805000D02*
X193210000Y-92005000D01*
X193210000Y-95305000D02*
X192460000Y-95305000D01*
X193210000Y-96305000D02*
X193210000Y-95305000D01*
X193210000Y-97805000D02*
X192460000Y-97805000D01*
X193210000Y-99605000D02*
X193210000Y-97805000D01*
X194710000Y-92005000D02*
X194710000Y-92755000D01*
X194710000Y-92755000D02*
X197660000Y-92755000D01*
X194710000Y-98855000D02*
X197660000Y-98855000D01*
X194710000Y-99605000D02*
X194710000Y-98855000D01*
X197660000Y-92755000D02*
X197660000Y-95805000D01*
X197660000Y-98855000D02*
X197660000Y-95805000D01*
X198420000Y-91995000D02*
X192450000Y-91995000D01*
X198420000Y-99615000D02*
X198420000Y-91995000D01*
%TO.C,J7*%
X129320000Y-107420000D02*
X129320000Y-108670000D01*
X129610000Y-107710000D02*
X129610000Y-113680000D01*
X129610000Y-113680000D02*
X137230000Y-113680000D01*
X129620000Y-107720000D02*
X129620000Y-108470000D01*
X129620000Y-108470000D02*
X131420000Y-108470000D01*
X129620000Y-109970000D02*
X130370000Y-109970000D01*
X130370000Y-109970000D02*
X130370000Y-112920000D01*
X130370000Y-112920000D02*
X133420000Y-112920000D01*
X130570000Y-107420000D02*
X129320000Y-107420000D01*
X131420000Y-107720000D02*
X129620000Y-107720000D01*
X131420000Y-108470000D02*
X131420000Y-107720000D01*
X132920000Y-107720000D02*
X132920000Y-108470000D01*
X132920000Y-108470000D02*
X133920000Y-108470000D01*
X133920000Y-107720000D02*
X132920000Y-107720000D01*
X133920000Y-108470000D02*
X133920000Y-107720000D01*
X135420000Y-107720000D02*
X135420000Y-108470000D01*
X135420000Y-108470000D02*
X137220000Y-108470000D01*
X136470000Y-109970000D02*
X136470000Y-112920000D01*
X136470000Y-112920000D02*
X133420000Y-112920000D01*
X137220000Y-107720000D02*
X135420000Y-107720000D01*
X137220000Y-108470000D02*
X137220000Y-107720000D01*
X137220000Y-109970000D02*
X136470000Y-109970000D01*
X137230000Y-107710000D02*
X129610000Y-107710000D01*
X137230000Y-113680000D02*
X137230000Y-107710000D01*
%TO.C,R16*%
X163217258Y-91712500D02*
X162742742Y-91712500D01*
X163217258Y-92757500D02*
X162742742Y-92757500D01*
%TO.C,SW7*%
X123220000Y-94005000D02*
X129340000Y-94005000D01*
X123220000Y-97705000D02*
X123220000Y-94005000D01*
X129340000Y-94005000D02*
X129340000Y-97705000D01*
X129340000Y-97705000D02*
X123220000Y-97705000D01*
%TO.C,U1*%
X140830000Y-81040000D02*
X140830000Y-87200000D01*
X140830000Y-81040000D02*
X159070000Y-81040000D01*
X140830000Y-106000000D02*
X140830000Y-106780000D01*
X140830000Y-106780000D02*
X141830000Y-106780000D01*
X159070000Y-81040000D02*
X159070000Y-87455000D01*
X159070000Y-106000000D02*
X159070000Y-106780000D01*
X159070000Y-106780000D02*
X158070000Y-106780000D01*
X140825000Y-87925000D02*
X140325000Y-87925000D01*
X140825000Y-87425000D01*
X140825000Y-87925000D01*
G36*
X140825000Y-87925000D02*
G01*
X140325000Y-87925000D01*
X140825000Y-87425000D01*
X140825000Y-87925000D01*
G37*
%TO.C,C7*%
X120529420Y-105255000D02*
X120810580Y-105255000D01*
X120529420Y-106275000D02*
X120810580Y-106275000D01*
%TO.C,C5*%
X124473750Y-91396920D02*
X124473750Y-91678080D01*
X125493750Y-91396920D02*
X125493750Y-91678080D01*
%TO.C,C1*%
X106638750Y-88761248D02*
X106638750Y-89283752D01*
X108108750Y-88761248D02*
X108108750Y-89283752D01*
%TO.C,R3*%
X140567258Y-108152500D02*
X140092742Y-108152500D01*
X140567258Y-109197500D02*
X140092742Y-109197500D01*
%TO.C,R14*%
X160607500Y-106252258D02*
X160607500Y-105777742D01*
X161652500Y-106252258D02*
X161652500Y-105777742D01*
%TO.C,C8*%
X138170000Y-89029420D02*
X138170000Y-89310580D01*
X139190000Y-89029420D02*
X139190000Y-89310580D01*
%TO.C,J4*%
X108960000Y-107420000D02*
X108960000Y-108670000D01*
X109250000Y-107710000D02*
X109250000Y-113680000D01*
X109250000Y-113680000D02*
X116870000Y-113680000D01*
X109260000Y-107720000D02*
X109260000Y-108470000D01*
X109260000Y-108470000D02*
X111060000Y-108470000D01*
X109260000Y-109970000D02*
X110010000Y-109970000D01*
X110010000Y-109970000D02*
X110010000Y-112920000D01*
X110010000Y-112920000D02*
X113060000Y-112920000D01*
X110210000Y-107420000D02*
X108960000Y-107420000D01*
X111060000Y-107720000D02*
X109260000Y-107720000D01*
X111060000Y-108470000D02*
X111060000Y-107720000D01*
X112560000Y-107720000D02*
X112560000Y-108470000D01*
X112560000Y-108470000D02*
X113560000Y-108470000D01*
X113560000Y-107720000D02*
X112560000Y-107720000D01*
X113560000Y-108470000D02*
X113560000Y-107720000D01*
X115060000Y-107720000D02*
X115060000Y-108470000D01*
X115060000Y-108470000D02*
X116860000Y-108470000D01*
X116110000Y-109970000D02*
X116110000Y-112920000D01*
X116110000Y-112920000D02*
X113060000Y-112920000D01*
X116860000Y-107720000D02*
X115060000Y-107720000D01*
X116860000Y-108470000D02*
X116860000Y-107720000D01*
X116860000Y-109970000D02*
X116110000Y-109970000D01*
X116870000Y-107710000D02*
X109250000Y-107710000D01*
X116870000Y-113680000D02*
X116870000Y-107710000D01*
%TO.C,J3*%
X175190000Y-85525000D02*
X180940000Y-85525000D01*
X175190000Y-91525000D02*
X175190000Y-85525000D01*
X176540000Y-90415000D02*
X181620000Y-90415000D01*
X176540000Y-91425000D02*
X176540000Y-90415000D01*
X180940000Y-85525000D02*
X185490000Y-85525000D01*
X181620000Y-90415000D02*
X181620000Y-91425000D01*
X185490000Y-85575000D02*
X185490000Y-91525000D01*
X185490000Y-91525000D02*
X175190000Y-91525000D01*
%TO.C,R15*%
X153887500Y-110057258D02*
X153887500Y-109582742D01*
X154932500Y-110057258D02*
X154932500Y-109582742D01*
%TO.C,R1*%
X126177258Y-105242500D02*
X125702742Y-105242500D01*
X126177258Y-106287500D02*
X125702742Y-106287500D01*
%TO.C,R17*%
X162047258Y-99567500D02*
X161572742Y-99567500D01*
X162047258Y-100612500D02*
X161572742Y-100612500D01*
%TO.C,C13*%
X130599420Y-105255000D02*
X130880580Y-105255000D01*
X130599420Y-106275000D02*
X130880580Y-106275000D01*
%TD*%
M02*
