%TF.GenerationSoftware,KiCad,Pcbnew,9.0.3*%
%TF.CreationDate,2026-03-29T23:00:44+07:00*%
%TF.ProjectId,THIET_BI_DO_THAN_NHIET_VA_NHIP_TIM,54484945-545f-4424-995f-444f5f544841,rev?*%
%TF.SameCoordinates,Original*%
%TF.FileFunction,Soldermask,Top*%
%TF.FilePolarity,Negative*%
%FSLAX46Y46*%
G04 Gerber Fmt 4.6, Leading zero omitted, Abs format (unit mm)*
G04 Created by KiCad (PCBNEW 9.0.3) date 2026-03-29 23:00:44*
%MOMM*%
%LPD*%
G01*
G04 APERTURE LIST*
G04 Aperture macros list*
%AMRoundRect*
0 Rectangle with rounded corners*
0 $1 Rounding radius*
0 $2 $3 $4 $5 $6 $7 $8 $9 X,Y pos of 4 corners*
0 Add a 4 corners polygon primitive as box body*
4,1,4,$2,$3,$4,$5,$6,$7,$8,$9,$2,$3,0*
0 Add four circle primitives for the rounded corners*
1,1,$1+$1,$2,$3*
1,1,$1+$1,$4,$5*
1,1,$1+$1,$6,$7*
1,1,$1+$1,$8,$9*
0 Add four rect primitives between the rounded corners*
20,1,$1+$1,$2,$3,$4,$5,0*
20,1,$1+$1,$4,$5,$6,$7,0*
20,1,$1+$1,$6,$7,$8,$9,0*
20,1,$1+$1,$8,$9,$2,$3,0*%
G04 Aperture macros list end*
%ADD10R,1.700000X1.700000*%
%ADD11C,1.700000*%
%ADD12RoundRect,0.250000X-0.600000X-0.750000X0.600000X-0.750000X0.600000X0.750000X-0.600000X0.750000X0*%
%ADD13O,1.700000X2.000000*%
%ADD14C,1.600000*%
%ADD15RoundRect,0.200000X0.200000X0.275000X-0.200000X0.275000X-0.200000X-0.275000X0.200000X-0.275000X0*%
%ADD16RoundRect,0.250000X-0.475000X0.250000X-0.475000X-0.250000X0.475000X-0.250000X0.475000X0.250000X0*%
%ADD17RoundRect,0.225000X-0.250000X0.225000X-0.250000X-0.225000X0.250000X-0.225000X0.250000X0.225000X0*%
%ADD18C,3.200000*%
%ADD19RoundRect,0.375000X0.625000X0.375000X-0.625000X0.375000X-0.625000X-0.375000X0.625000X-0.375000X0*%
%ADD20RoundRect,0.500000X0.500000X1.400000X-0.500000X1.400000X-0.500000X-1.400000X0.500000X-1.400000X0*%
%ADD21RoundRect,0.200000X-0.275000X0.200000X-0.275000X-0.200000X0.275000X-0.200000X0.275000X0.200000X0*%
%ADD22RoundRect,0.250000X-1.100000X0.500000X-1.100000X-0.500000X1.100000X-0.500000X1.100000X0.500000X0*%
%ADD23RoundRect,0.250000X-0.750000X0.600000X-0.750000X-0.600000X0.750000X-0.600000X0.750000X0.600000X0*%
%ADD24O,2.000000X1.700000*%
%ADD25RoundRect,0.225000X-0.225000X-0.250000X0.225000X-0.250000X0.225000X0.250000X-0.225000X0.250000X0*%
%ADD26RoundRect,0.250000X0.750000X-0.600000X0.750000X0.600000X-0.750000X0.600000X-0.750000X-0.600000X0*%
%ADD27R,1.500000X1.500000*%
%ADD28R,1.500000X0.900000*%
%ADD29R,0.900000X1.500000*%
%ADD30C,0.600000*%
%ADD31R,3.800000X3.800000*%
%ADD32RoundRect,0.200000X0.275000X-0.200000X0.275000X0.200000X-0.275000X0.200000X-0.275000X-0.200000X0*%
%ADD33R,1.730000X2.030000*%
%ADD34O,1.730000X2.030000*%
G04 APERTURE END LIST*
D10*
%TO.C,J6*%
X164590000Y-107660000D03*
D11*
X164590000Y-105120000D03*
%TD*%
D12*
%TO.C,J2*%
X122050000Y-110170000D03*
D13*
X124550000Y-110170000D03*
%TD*%
D14*
%TO.C,C4*%
X101713750Y-88052500D03*
X101713750Y-90552500D03*
%TD*%
D15*
%TO.C,R13*%
X136925000Y-105765000D03*
X135275000Y-105765000D03*
%TD*%
D16*
%TO.C,C3*%
X122433750Y-90762500D03*
X122433750Y-92662500D03*
%TD*%
D12*
%TO.C,J1*%
X101650000Y-110160000D03*
D13*
X104150000Y-110160000D03*
%TD*%
D10*
%TO.C,U3*%
X170710000Y-114630000D03*
D11*
X173250000Y-114630000D03*
X175790000Y-114630000D03*
X178330000Y-114630000D03*
X180870000Y-114630000D03*
X183410000Y-114630000D03*
X185950000Y-114630000D03*
X188490000Y-114630000D03*
X188510000Y-99530000D03*
X185970000Y-99530000D03*
X183430000Y-99530000D03*
X180890000Y-99530000D03*
X178350000Y-99530000D03*
X175810000Y-99530000D03*
X173270000Y-99530000D03*
X170730000Y-99530000D03*
%TD*%
D17*
%TO.C,C2*%
X109843750Y-88117500D03*
X109843750Y-89667500D03*
%TD*%
D18*
%TO.C,H1*%
X95100000Y-86815000D03*
%TD*%
D15*
%TO.C,R2*%
X116490000Y-105765000D03*
X114840000Y-105765000D03*
%TD*%
D17*
%TO.C,C14*%
X134730000Y-92595000D03*
X134730000Y-94145000D03*
%TD*%
D19*
%TO.C,U2*%
X119183750Y-93042500D03*
X119183750Y-90742500D03*
D20*
X112883750Y-90742500D03*
D19*
X119183750Y-88442500D03*
%TD*%
D21*
%TO.C,R9*%
X156780000Y-108970000D03*
X156780000Y-110620000D03*
%TD*%
D22*
%TO.C,D1*%
X103690000Y-100717500D03*
X103690000Y-105517500D03*
%TD*%
D18*
%TO.C,H3*%
X198170000Y-115625000D03*
%TD*%
D21*
%TO.C,R18*%
X137650000Y-92480000D03*
X137650000Y-94130000D03*
%TD*%
D23*
%TO.C,J9*%
X98050000Y-100235000D03*
D24*
X98050000Y-102735000D03*
%TD*%
D16*
%TO.C,C9*%
X136460000Y-88080000D03*
X136460000Y-89980000D03*
%TD*%
D25*
%TO.C,C10*%
X109685000Y-105765000D03*
X111235000Y-105765000D03*
%TD*%
D10*
%TO.C,J5*%
X164000000Y-86825000D03*
D11*
X166540000Y-86825000D03*
X169080000Y-86825000D03*
X171620000Y-86825000D03*
%TD*%
D26*
%TO.C,J8*%
X194910000Y-97055000D03*
D24*
X194910000Y-94555000D03*
%TD*%
D12*
%TO.C,J7*%
X132170000Y-110170000D03*
D13*
X134670000Y-110170000D03*
%TD*%
D15*
%TO.C,R16*%
X163805000Y-92235000D03*
X162155000Y-92235000D03*
%TD*%
D27*
%TO.C,SW7*%
X130180000Y-95855000D03*
X122380000Y-95855000D03*
%TD*%
D28*
%TO.C,U1*%
X141200000Y-88650000D03*
X141200000Y-89920000D03*
X141200000Y-91190000D03*
X141200000Y-92460000D03*
X141200000Y-93730000D03*
X141200000Y-95000000D03*
X141200000Y-96270000D03*
X141200000Y-97540000D03*
X141200000Y-98810000D03*
X141200000Y-100080000D03*
X141200000Y-101350000D03*
X141200000Y-102620000D03*
X141200000Y-103890000D03*
X141200000Y-105160000D03*
D29*
X144240000Y-106410000D03*
X145510000Y-106410000D03*
X146780000Y-106410000D03*
X148050000Y-106410000D03*
X149320000Y-106410000D03*
X150590000Y-106410000D03*
X151860000Y-106410000D03*
X153130000Y-106410000D03*
X154400000Y-106410000D03*
X155670000Y-106410000D03*
D28*
X158700000Y-105160000D03*
X158700000Y-103890000D03*
X158700000Y-102620000D03*
X158700000Y-101350000D03*
X158700000Y-100080000D03*
X158700000Y-98810000D03*
X158700000Y-97540000D03*
X158700000Y-96270000D03*
X158700000Y-95000000D03*
X158700000Y-93730000D03*
X158700000Y-92460000D03*
X158700000Y-91190000D03*
X158700000Y-89920000D03*
X158700000Y-88650000D03*
D30*
X147050000Y-95670000D03*
X147050000Y-97070000D03*
X147750000Y-94970000D03*
X147750000Y-96370000D03*
X147750000Y-97770000D03*
X148425000Y-95670000D03*
X148425000Y-97070000D03*
D31*
X148450000Y-96370000D03*
D30*
X149150000Y-94970000D03*
X149150000Y-96370000D03*
X149150000Y-97770000D03*
X149850000Y-95670000D03*
X149850000Y-97070000D03*
%TD*%
D25*
%TO.C,C7*%
X119895000Y-105765000D03*
X121445000Y-105765000D03*
%TD*%
D17*
%TO.C,C5*%
X124983750Y-90762500D03*
X124983750Y-92312500D03*
%TD*%
D16*
%TO.C,C1*%
X107373750Y-88072500D03*
X107373750Y-89972500D03*
%TD*%
D15*
%TO.C,R3*%
X141155000Y-108675000D03*
X139505000Y-108675000D03*
%TD*%
D32*
%TO.C,R14*%
X161130000Y-106840000D03*
X161130000Y-105190000D03*
%TD*%
D18*
%TO.C,H4*%
X198100000Y-86565000D03*
%TD*%
D17*
%TO.C,C8*%
X138680000Y-88395000D03*
X138680000Y-89945000D03*
%TD*%
D12*
%TO.C,J4*%
X111810000Y-110170000D03*
D13*
X114310000Y-110170000D03*
%TD*%
D33*
%TO.C,J3*%
X176540000Y-88125000D03*
D34*
X179080000Y-88125000D03*
X181620000Y-88125000D03*
X184160000Y-88125000D03*
%TD*%
D32*
%TO.C,R15*%
X154410000Y-110645000D03*
X154410000Y-108995000D03*
%TD*%
D15*
%TO.C,R1*%
X126765000Y-105765000D03*
X125115000Y-105765000D03*
%TD*%
%TO.C,R17*%
X162635000Y-100090000D03*
X160985000Y-100090000D03*
%TD*%
D25*
%TO.C,C13*%
X129965000Y-105765000D03*
X131515000Y-105765000D03*
%TD*%
D18*
%TO.C,H2*%
X95100000Y-115755000D03*
%TD*%
M02*
