%TF.GenerationSoftware,KiCad,Pcbnew,9.0.3*%
%TF.CreationDate,2026-03-29T23:00:52+07:00*%
%TF.ProjectId,THIET_BI_DO_THAN_NHIET_VA_NHIP_TIM,54484945-545f-4424-995f-444f5f544841,rev?*%
%TF.SameCoordinates,Original*%
%TF.FileFunction,Drillmap*%
%TF.FilePolarity,Positive*%
%FSLAX45Y45*%
G04 Gerber Fmt 4.5, Leading zero omitted, Abs format (unit mm)*
G04 Created by KiCad (PCBNEW 9.0.3) date 2026-03-29 23:00:52*
%MOMM*%
%LPD*%
G01*
G04 APERTURE LIST*
%ADD10C,0.050000*%
%ADD11C,0.200000*%
%ADD12C,0.100000*%
%ADD13C,0.102000*%
G04 APERTURE END LIST*
D10*
X20117867Y-11852428D02*
X9229740Y-11829185D01*
X9241566Y-8390017D01*
X14066000Y-8380500D01*
X14063880Y-8701627D01*
X15910040Y-8695782D01*
X15910040Y-8364782D01*
X20125768Y-8364782D01*
X20117867Y-11852428D01*
D11*
D12*
X14695000Y-9557000D02*
X14715000Y-9577000D01*
X14715000Y-9557000D02*
X14695000Y-9577000D01*
X14695000Y-9697000D02*
X14715000Y-9717000D01*
X14715000Y-9697000D02*
X14695000Y-9717000D01*
X14765000Y-9487000D02*
X14785000Y-9507000D01*
X14785000Y-9487000D02*
X14765000Y-9507000D01*
X14765000Y-9627000D02*
X14785000Y-9647000D01*
X14785000Y-9627000D02*
X14765000Y-9647000D01*
X14765000Y-9767000D02*
X14785000Y-9787000D01*
X14785000Y-9767000D02*
X14765000Y-9787000D01*
X14832500Y-9557000D02*
X14852500Y-9577000D01*
X14852500Y-9557000D02*
X14832500Y-9577000D01*
X14832500Y-9697000D02*
X14852500Y-9717000D01*
X14852500Y-9697000D02*
X14832500Y-9717000D01*
X14905000Y-9487000D02*
X14925000Y-9507000D01*
X14925000Y-9487000D02*
X14905000Y-9507000D01*
X14905000Y-9627000D02*
X14925000Y-9647000D01*
X14925000Y-9627000D02*
X14905000Y-9647000D01*
X14905000Y-9767000D02*
X14925000Y-9787000D01*
X14925000Y-9767000D02*
X14905000Y-9787000D01*
X14975000Y-9557000D02*
X14995000Y-9577000D01*
X14995000Y-9557000D02*
X14975000Y-9577000D01*
X14975000Y-9697000D02*
X14995000Y-9717000D01*
X14995000Y-9697000D02*
X14975000Y-9717000D01*
X9598000Y-10850500D02*
G75*
G02*
X9548000Y-10850500I-25000J0D01*
G01*
X9548000Y-10850500D02*
G75*
G02*
X9598000Y-10850500I25000J0D01*
G01*
X10086000Y-9547500D02*
G75*
G02*
X10036000Y-9547500I-25000J0D01*
G01*
X10036000Y-9547500D02*
G75*
G02*
X10086000Y-9547500I25000J0D01*
G01*
X10289000Y-9652500D02*
G75*
G02*
X10239000Y-9652500I-25000J0D01*
G01*
X10239000Y-9652500D02*
G75*
G02*
X10289000Y-9652500I25000J0D01*
G01*
X10893000Y-9373500D02*
G75*
G02*
X10843000Y-9373500I-25000J0D01*
G01*
X10843000Y-9373500D02*
G75*
G02*
X10893000Y-9373500I25000J0D01*
G01*
X10895000Y-8539500D02*
G75*
G02*
X10845000Y-8539500I-25000J0D01*
G01*
X10845000Y-8539500D02*
G75*
G02*
X10895000Y-8539500I25000J0D01*
G01*
X11087000Y-10166500D02*
G75*
G02*
X11037000Y-10166500I-25000J0D01*
G01*
X11037000Y-10166500D02*
G75*
G02*
X11087000Y-10166500I25000J0D01*
G01*
X11174000Y-9719500D02*
G75*
G02*
X11124000Y-9719500I-25000J0D01*
G01*
X11124000Y-9719500D02*
G75*
G02*
X11174000Y-9719500I25000J0D01*
G01*
X11487250Y-8539500D02*
G75*
G02*
X11437250Y-8539500I-25000J0D01*
G01*
X11437250Y-8539500D02*
G75*
G02*
X11487250Y-8539500I25000J0D01*
G01*
X11520000Y-9723500D02*
G75*
G02*
X11470000Y-9723500I-25000J0D01*
G01*
X11470000Y-9723500D02*
G75*
G02*
X11520000Y-9723500I25000J0D01*
G01*
X11784000Y-10168500D02*
G75*
G02*
X11734000Y-10168500I-25000J0D01*
G01*
X11734000Y-10168500D02*
G75*
G02*
X11784000Y-10168500I25000J0D01*
G01*
X12079500Y-8539500D02*
G75*
G02*
X12029500Y-8539500I-25000J0D01*
G01*
X12029500Y-8539500D02*
G75*
G02*
X12079500Y-8539500I25000J0D01*
G01*
X12164600Y-10166500D02*
G75*
G02*
X12114600Y-10166500I-25000J0D01*
G01*
X12114600Y-10166500D02*
G75*
G02*
X12164600Y-10166500I25000J0D01*
G01*
X12671750Y-8539500D02*
G75*
G02*
X12621750Y-8539500I-25000J0D01*
G01*
X12621750Y-8539500D02*
G75*
G02*
X12671750Y-8539500I25000J0D01*
G01*
X12810000Y-10165500D02*
G75*
G02*
X12760000Y-10165500I-25000J0D01*
G01*
X12760000Y-10165500D02*
G75*
G02*
X12810000Y-10165500I25000J0D01*
G01*
X12989000Y-9224500D02*
G75*
G02*
X12939000Y-9224500I-25000J0D01*
G01*
X12939000Y-9224500D02*
G75*
G02*
X12989000Y-9224500I25000J0D01*
G01*
X13242200Y-10166500D02*
G75*
G02*
X13192200Y-10166500I-25000J0D01*
G01*
X13192200Y-10166500D02*
G75*
G02*
X13242200Y-10166500I25000J0D01*
G01*
X13264000Y-8539500D02*
G75*
G02*
X13214000Y-8539500I-25000J0D01*
G01*
X13214000Y-8539500D02*
G75*
G02*
X13264000Y-8539500I25000J0D01*
G01*
X13781000Y-10166500D02*
G75*
G02*
X13731000Y-10166500I-25000J0D01*
G01*
X13731000Y-10166500D02*
G75*
G02*
X13781000Y-10166500I25000J0D01*
G01*
X16109000Y-9373000D02*
G75*
G02*
X16059000Y-9373000I-25000J0D01*
G01*
X16059000Y-9373000D02*
G75*
G02*
X16109000Y-9373000I25000J0D01*
G01*
X16109000Y-9518500D02*
G75*
G02*
X16059000Y-9518500I-25000J0D01*
G01*
X16059000Y-9518500D02*
G75*
G02*
X16109000Y-9518500I25000J0D01*
G01*
X16132000Y-9785500D02*
G75*
G02*
X16082000Y-9785500I-25000J0D01*
G01*
X16082000Y-9785500D02*
G75*
G02*
X16132000Y-9785500I25000J0D01*
G01*
X16221000Y-9061500D02*
G75*
G02*
X16171000Y-9061500I-25000J0D01*
G01*
X16171000Y-9061500D02*
G75*
G02*
X16221000Y-9061500I25000J0D01*
G01*
X16431000Y-10230500D02*
G75*
G02*
X16381000Y-10230500I-25000J0D01*
G01*
X16381000Y-10230500D02*
G75*
G02*
X16431000Y-10230500I25000J0D01*
G01*
X16472000Y-9051500D02*
G75*
G02*
X16422000Y-9051500I-25000J0D01*
G01*
X16422000Y-9051500D02*
G75*
G02*
X16472000Y-9051500I25000J0D01*
G01*
X16518500Y-9782500D02*
G75*
G02*
X16468500Y-9782500I-25000J0D01*
G01*
X16468500Y-9782500D02*
G75*
G02*
X16518500Y-9782500I25000J0D01*
G01*
X16832000Y-11267500D02*
G75*
G02*
X16782000Y-11267500I-25000J0D01*
G01*
X16782000Y-11267500D02*
G75*
G02*
X16832000Y-11267500I25000J0D01*
G01*
X16869000Y-9299500D02*
G75*
G02*
X16819000Y-9299500I-25000J0D01*
G01*
X16819000Y-9299500D02*
G75*
G02*
X16869000Y-9299500I25000J0D01*
G01*
X17089342Y-10912330D02*
G75*
G02*
X17039342Y-10912330I-25000J0D01*
G01*
X17039342Y-10912330D02*
G75*
G02*
X17089342Y-10912330I25000J0D01*
G01*
X17206000Y-9299500D02*
G75*
G02*
X17156000Y-9299500I-25000J0D01*
G01*
X17156000Y-9299500D02*
G75*
G02*
X17206000Y-9299500I25000J0D01*
G01*
X17554000Y-10256500D02*
G75*
G02*
X17504000Y-10256500I-25000J0D01*
G01*
X17504000Y-10256500D02*
G75*
G02*
X17554000Y-10256500I25000J0D01*
G01*
X17891000Y-10256500D02*
G75*
G02*
X17841000Y-10256500I-25000J0D01*
G01*
X17841000Y-10256500D02*
G75*
G02*
X17891000Y-10256500I25000J0D01*
G01*
X17909000Y-11112500D02*
G75*
G02*
X17859000Y-11112500I-25000J0D01*
G01*
X17859000Y-11112500D02*
G75*
G02*
X17909000Y-11112500I25000J0D01*
G01*
X18195000Y-10256500D02*
G75*
G02*
X18145000Y-10256500I-25000J0D01*
G01*
X18145000Y-10256500D02*
G75*
G02*
X18195000Y-10256500I25000J0D01*
G01*
X18353000Y-10883500D02*
G75*
G02*
X18303000Y-10883500I-25000J0D01*
G01*
X18303000Y-10883500D02*
G75*
G02*
X18353000Y-10883500I25000J0D01*
G01*
X18468000Y-9322500D02*
G75*
G02*
X18418000Y-9322500I-25000J0D01*
G01*
X18418000Y-9322500D02*
G75*
G02*
X18468000Y-9322500I25000J0D01*
G01*
X18578000Y-10565500D02*
G75*
G02*
X18528000Y-10565500I-25000J0D01*
G01*
X18528000Y-10565500D02*
G75*
G02*
X18578000Y-10565500I25000J0D01*
G01*
X18582000Y-10256500D02*
G75*
G02*
X18532000Y-10256500I-25000J0D01*
G01*
X18532000Y-10256500D02*
G75*
G02*
X18582000Y-10256500I25000J0D01*
G01*
X18874000Y-9322500D02*
G75*
G02*
X18824000Y-9322500I-25000J0D01*
G01*
X18824000Y-9322500D02*
G75*
G02*
X18874000Y-9322500I25000J0D01*
G01*
X10171375Y-8765250D02*
X10171375Y-8845250D01*
X10131375Y-8805250D02*
X10211375Y-8805250D01*
X10171375Y-9015250D02*
X10171375Y-9095250D01*
X10131375Y-9055250D02*
X10211375Y-9055250D01*
X9840356Y-10058856D02*
X9840356Y-9988144D01*
X9769644Y-9988144D01*
X9769644Y-10058856D01*
X9840356Y-10058856D01*
X9840356Y-10308856D02*
X9840356Y-10238144D01*
X9769644Y-10238144D01*
X9769644Y-10308856D01*
X9840356Y-10308856D01*
X10200356Y-11051356D02*
X10200356Y-10980644D01*
X10129644Y-10980644D01*
X10129644Y-11051356D01*
X10200356Y-11051356D01*
X10450356Y-11051356D02*
X10450356Y-10980644D01*
X10379644Y-10980644D01*
X10379644Y-11051356D01*
X10450356Y-11051356D01*
X11216356Y-11052356D02*
X11216356Y-10981644D01*
X11145644Y-10981644D01*
X11145644Y-11052356D01*
X11216356Y-11052356D01*
X11466356Y-11052356D02*
X11466356Y-10981644D01*
X11395644Y-10981644D01*
X11395644Y-11052356D01*
X11466356Y-11052356D01*
X12240356Y-11052356D02*
X12240356Y-10981644D01*
X12169644Y-10981644D01*
X12169644Y-11052356D01*
X12240356Y-11052356D01*
X12490356Y-11052356D02*
X12490356Y-10981644D01*
X12419644Y-10981644D01*
X12419644Y-11052356D01*
X12490356Y-11052356D01*
X13252356Y-11052356D02*
X13252356Y-10981644D01*
X13181644Y-10981644D01*
X13181644Y-11052356D01*
X13252356Y-11052356D01*
X13502356Y-11052356D02*
X13502356Y-10981644D01*
X13431644Y-10981644D01*
X13431644Y-11052356D01*
X13502356Y-11052356D01*
X16435356Y-8717856D02*
X16435356Y-8647144D01*
X16364644Y-8647144D01*
X16364644Y-8717856D01*
X16435356Y-8717856D01*
X16494356Y-10547356D02*
X16494356Y-10476644D01*
X16423644Y-10476644D01*
X16423644Y-10547356D01*
X16494356Y-10547356D01*
X16494356Y-10801356D02*
X16494356Y-10730644D01*
X16423644Y-10730644D01*
X16423644Y-10801356D01*
X16494356Y-10801356D01*
X16689356Y-8717856D02*
X16689356Y-8647144D01*
X16618644Y-8647144D01*
X16618644Y-8717856D01*
X16689356Y-8717856D01*
X16943356Y-8717856D02*
X16943356Y-8647144D01*
X16872644Y-8647144D01*
X16872644Y-8717856D01*
X16943356Y-8717856D01*
X17106356Y-11498356D02*
X17106356Y-11427644D01*
X17035644Y-11427644D01*
X17035644Y-11498356D01*
X17106356Y-11498356D01*
X17108356Y-9988356D02*
X17108356Y-9917644D01*
X17037644Y-9917644D01*
X17037644Y-9988356D01*
X17108356Y-9988356D01*
X17197356Y-8717856D02*
X17197356Y-8647144D01*
X17126644Y-8647144D01*
X17126644Y-8717856D01*
X17197356Y-8717856D01*
X17360356Y-11498356D02*
X17360356Y-11427644D01*
X17289644Y-11427644D01*
X17289644Y-11498356D01*
X17360356Y-11498356D01*
X17362356Y-9988356D02*
X17362356Y-9917644D01*
X17291644Y-9917644D01*
X17291644Y-9988356D01*
X17362356Y-9988356D01*
X17614356Y-11498356D02*
X17614356Y-11427644D01*
X17543644Y-11427644D01*
X17543644Y-11498356D01*
X17614356Y-11498356D01*
X17616356Y-9988356D02*
X17616356Y-9917644D01*
X17545644Y-9917644D01*
X17545644Y-9988356D01*
X17616356Y-9988356D01*
X17868356Y-11498356D02*
X17868356Y-11427644D01*
X17797644Y-11427644D01*
X17797644Y-11498356D01*
X17868356Y-11498356D01*
X17870356Y-9988356D02*
X17870356Y-9917644D01*
X17799644Y-9917644D01*
X17799644Y-9988356D01*
X17870356Y-9988356D01*
X18122356Y-11498356D02*
X18122356Y-11427644D01*
X18051644Y-11427644D01*
X18051644Y-11498356D01*
X18122356Y-11498356D01*
X18124356Y-9988356D02*
X18124356Y-9917644D01*
X18053644Y-9917644D01*
X18053644Y-9988356D01*
X18124356Y-9988356D01*
X18376356Y-11498356D02*
X18376356Y-11427644D01*
X18305644Y-11427644D01*
X18305644Y-11498356D01*
X18376356Y-11498356D01*
X18378356Y-9988356D02*
X18378356Y-9917644D01*
X18307644Y-9917644D01*
X18307644Y-9988356D01*
X18378356Y-9988356D01*
X18630356Y-11498356D02*
X18630356Y-11427644D01*
X18559644Y-11427644D01*
X18559644Y-11498356D01*
X18630356Y-11498356D01*
X18632356Y-9988356D02*
X18632356Y-9917644D01*
X18561644Y-9917644D01*
X18561644Y-9988356D01*
X18632356Y-9988356D01*
X18884356Y-11498356D02*
X18884356Y-11427644D01*
X18813644Y-11427644D01*
X18813644Y-11498356D01*
X18884356Y-11498356D01*
X18886356Y-9988356D02*
X18886356Y-9917644D01*
X18815644Y-9917644D01*
X18815644Y-9988356D01*
X18886356Y-9988356D01*
X19526356Y-9490856D02*
X19526356Y-9420144D01*
X19455644Y-9420144D01*
X19455644Y-9490856D01*
X19526356Y-9490856D01*
X19526356Y-9740856D02*
X19526356Y-9670144D01*
X19455644Y-9670144D01*
X19455644Y-9740856D01*
X19526356Y-9740856D01*
D13*
X17654000Y-8863500D02*
X17705000Y-8812500D01*
X17654000Y-8761500D01*
X17603000Y-8812500D01*
X17654000Y-8863500D01*
X17908000Y-8863500D02*
X17959000Y-8812500D01*
X17908000Y-8761500D01*
X17857000Y-8812500D01*
X17908000Y-8863500D01*
X18162000Y-8863500D02*
X18213000Y-8812500D01*
X18162000Y-8761500D01*
X18111000Y-8812500D01*
X18162000Y-8863500D01*
X18416000Y-8863500D02*
X18467000Y-8812500D01*
X18416000Y-8761500D01*
X18365000Y-8812500D01*
X18416000Y-8863500D01*
D11*
X9488017Y-12166412D02*
X9488017Y-11966412D01*
X9488017Y-11966412D02*
X9535636Y-11966412D01*
X9535636Y-11966412D02*
X9564208Y-11975936D01*
X9564208Y-11975936D02*
X9583255Y-11994984D01*
X9583255Y-11994984D02*
X9592779Y-12014031D01*
X9592779Y-12014031D02*
X9602303Y-12052126D01*
X9602303Y-12052126D02*
X9602303Y-12080698D01*
X9602303Y-12080698D02*
X9592779Y-12118793D01*
X9592779Y-12118793D02*
X9583255Y-12137841D01*
X9583255Y-12137841D02*
X9564208Y-12156888D01*
X9564208Y-12156888D02*
X9535636Y-12166412D01*
X9535636Y-12166412D02*
X9488017Y-12166412D01*
X9688017Y-12166412D02*
X9688017Y-12033079D01*
X9688017Y-12071174D02*
X9697541Y-12052126D01*
X9697541Y-12052126D02*
X9707065Y-12042603D01*
X9707065Y-12042603D02*
X9726112Y-12033079D01*
X9726112Y-12033079D02*
X9745160Y-12033079D01*
X9811827Y-12166412D02*
X9811827Y-12033079D01*
X9811827Y-11966412D02*
X9802303Y-11975936D01*
X9802303Y-11975936D02*
X9811827Y-11985460D01*
X9811827Y-11985460D02*
X9821350Y-11975936D01*
X9821350Y-11975936D02*
X9811827Y-11966412D01*
X9811827Y-11966412D02*
X9811827Y-11985460D01*
X9935636Y-12166412D02*
X9916589Y-12156888D01*
X9916589Y-12156888D02*
X9907065Y-12137841D01*
X9907065Y-12137841D02*
X9907065Y-11966412D01*
X10040398Y-12166412D02*
X10021350Y-12156888D01*
X10021350Y-12156888D02*
X10011827Y-12137841D01*
X10011827Y-12137841D02*
X10011827Y-11966412D01*
X10268970Y-12166412D02*
X10268970Y-11966412D01*
X10268970Y-11966412D02*
X10335636Y-12109269D01*
X10335636Y-12109269D02*
X10402303Y-11966412D01*
X10402303Y-11966412D02*
X10402303Y-12166412D01*
X10583255Y-12166412D02*
X10583255Y-12061650D01*
X10583255Y-12061650D02*
X10573731Y-12042603D01*
X10573731Y-12042603D02*
X10554684Y-12033079D01*
X10554684Y-12033079D02*
X10516589Y-12033079D01*
X10516589Y-12033079D02*
X10497541Y-12042603D01*
X10583255Y-12156888D02*
X10564208Y-12166412D01*
X10564208Y-12166412D02*
X10516589Y-12166412D01*
X10516589Y-12166412D02*
X10497541Y-12156888D01*
X10497541Y-12156888D02*
X10488017Y-12137841D01*
X10488017Y-12137841D02*
X10488017Y-12118793D01*
X10488017Y-12118793D02*
X10497541Y-12099746D01*
X10497541Y-12099746D02*
X10516589Y-12090222D01*
X10516589Y-12090222D02*
X10564208Y-12090222D01*
X10564208Y-12090222D02*
X10583255Y-12080698D01*
X10678493Y-12033079D02*
X10678493Y-12233079D01*
X10678493Y-12042603D02*
X10697541Y-12033079D01*
X10697541Y-12033079D02*
X10735636Y-12033079D01*
X10735636Y-12033079D02*
X10754684Y-12042603D01*
X10754684Y-12042603D02*
X10764208Y-12052126D01*
X10764208Y-12052126D02*
X10773731Y-12071174D01*
X10773731Y-12071174D02*
X10773731Y-12128317D01*
X10773731Y-12128317D02*
X10764208Y-12147365D01*
X10764208Y-12147365D02*
X10754684Y-12156888D01*
X10754684Y-12156888D02*
X10735636Y-12166412D01*
X10735636Y-12166412D02*
X10697541Y-12166412D01*
X10697541Y-12166412D02*
X10678493Y-12156888D01*
X10859446Y-12147365D02*
X10868970Y-12156888D01*
X10868970Y-12156888D02*
X10859446Y-12166412D01*
X10859446Y-12166412D02*
X10849922Y-12156888D01*
X10849922Y-12156888D02*
X10859446Y-12147365D01*
X10859446Y-12147365D02*
X10859446Y-12166412D01*
X10859446Y-12042603D02*
X10868970Y-12052126D01*
X10868970Y-12052126D02*
X10859446Y-12061650D01*
X10859446Y-12061650D02*
X10849922Y-12052126D01*
X10849922Y-12052126D02*
X10859446Y-12042603D01*
X10859446Y-12042603D02*
X10859446Y-12061650D01*
D12*
X9207240Y-12484928D02*
X9227240Y-12504928D01*
X9227240Y-12484928D02*
X9207240Y-12504928D01*
D11*
X9526112Y-12386412D02*
X9545160Y-12386412D01*
X9545160Y-12386412D02*
X9564208Y-12395936D01*
X9564208Y-12395936D02*
X9573731Y-12405460D01*
X9573731Y-12405460D02*
X9583255Y-12424507D01*
X9583255Y-12424507D02*
X9592779Y-12462603D01*
X9592779Y-12462603D02*
X9592779Y-12510222D01*
X9592779Y-12510222D02*
X9583255Y-12548317D01*
X9583255Y-12548317D02*
X9573731Y-12567365D01*
X9573731Y-12567365D02*
X9564208Y-12576888D01*
X9564208Y-12576888D02*
X9545160Y-12586412D01*
X9545160Y-12586412D02*
X9526112Y-12586412D01*
X9526112Y-12586412D02*
X9507065Y-12576888D01*
X9507065Y-12576888D02*
X9497541Y-12567365D01*
X9497541Y-12567365D02*
X9488017Y-12548317D01*
X9488017Y-12548317D02*
X9478493Y-12510222D01*
X9478493Y-12510222D02*
X9478493Y-12462603D01*
X9478493Y-12462603D02*
X9488017Y-12424507D01*
X9488017Y-12424507D02*
X9497541Y-12405460D01*
X9497541Y-12405460D02*
X9507065Y-12395936D01*
X9507065Y-12395936D02*
X9526112Y-12386412D01*
X9678493Y-12567365D02*
X9688017Y-12576888D01*
X9688017Y-12576888D02*
X9678493Y-12586412D01*
X9678493Y-12586412D02*
X9668970Y-12576888D01*
X9668970Y-12576888D02*
X9678493Y-12567365D01*
X9678493Y-12567365D02*
X9678493Y-12586412D01*
X9764208Y-12405460D02*
X9773731Y-12395936D01*
X9773731Y-12395936D02*
X9792779Y-12386412D01*
X9792779Y-12386412D02*
X9840398Y-12386412D01*
X9840398Y-12386412D02*
X9859446Y-12395936D01*
X9859446Y-12395936D02*
X9868970Y-12405460D01*
X9868970Y-12405460D02*
X9878493Y-12424507D01*
X9878493Y-12424507D02*
X9878493Y-12443555D01*
X9878493Y-12443555D02*
X9868970Y-12472126D01*
X9868970Y-12472126D02*
X9754684Y-12586412D01*
X9754684Y-12586412D02*
X9878493Y-12586412D01*
X10002303Y-12386412D02*
X10021351Y-12386412D01*
X10021351Y-12386412D02*
X10040398Y-12395936D01*
X10040398Y-12395936D02*
X10049922Y-12405460D01*
X10049922Y-12405460D02*
X10059446Y-12424507D01*
X10059446Y-12424507D02*
X10068970Y-12462603D01*
X10068970Y-12462603D02*
X10068970Y-12510222D01*
X10068970Y-12510222D02*
X10059446Y-12548317D01*
X10059446Y-12548317D02*
X10049922Y-12567365D01*
X10049922Y-12567365D02*
X10040398Y-12576888D01*
X10040398Y-12576888D02*
X10021351Y-12586412D01*
X10021351Y-12586412D02*
X10002303Y-12586412D01*
X10002303Y-12586412D02*
X9983255Y-12576888D01*
X9983255Y-12576888D02*
X9973731Y-12567365D01*
X9973731Y-12567365D02*
X9964208Y-12548317D01*
X9964208Y-12548317D02*
X9954684Y-12510222D01*
X9954684Y-12510222D02*
X9954684Y-12462603D01*
X9954684Y-12462603D02*
X9964208Y-12424507D01*
X9964208Y-12424507D02*
X9973731Y-12405460D01*
X9973731Y-12405460D02*
X9983255Y-12395936D01*
X9983255Y-12395936D02*
X10002303Y-12386412D01*
X10192779Y-12386412D02*
X10211827Y-12386412D01*
X10211827Y-12386412D02*
X10230874Y-12395936D01*
X10230874Y-12395936D02*
X10240398Y-12405460D01*
X10240398Y-12405460D02*
X10249922Y-12424507D01*
X10249922Y-12424507D02*
X10259446Y-12462603D01*
X10259446Y-12462603D02*
X10259446Y-12510222D01*
X10259446Y-12510222D02*
X10249922Y-12548317D01*
X10249922Y-12548317D02*
X10240398Y-12567365D01*
X10240398Y-12567365D02*
X10230874Y-12576888D01*
X10230874Y-12576888D02*
X10211827Y-12586412D01*
X10211827Y-12586412D02*
X10192779Y-12586412D01*
X10192779Y-12586412D02*
X10173731Y-12576888D01*
X10173731Y-12576888D02*
X10164208Y-12567365D01*
X10164208Y-12567365D02*
X10154684Y-12548317D01*
X10154684Y-12548317D02*
X10145160Y-12510222D01*
X10145160Y-12510222D02*
X10145160Y-12462603D01*
X10145160Y-12462603D02*
X10154684Y-12424507D01*
X10154684Y-12424507D02*
X10164208Y-12405460D01*
X10164208Y-12405460D02*
X10173731Y-12395936D01*
X10173731Y-12395936D02*
X10192779Y-12386412D01*
X10345160Y-12586412D02*
X10345160Y-12453079D01*
X10345160Y-12472126D02*
X10354684Y-12462603D01*
X10354684Y-12462603D02*
X10373731Y-12453079D01*
X10373731Y-12453079D02*
X10402303Y-12453079D01*
X10402303Y-12453079D02*
X10421351Y-12462603D01*
X10421351Y-12462603D02*
X10430874Y-12481650D01*
X10430874Y-12481650D02*
X10430874Y-12586412D01*
X10430874Y-12481650D02*
X10440398Y-12462603D01*
X10440398Y-12462603D02*
X10459446Y-12453079D01*
X10459446Y-12453079D02*
X10488017Y-12453079D01*
X10488017Y-12453079D02*
X10507065Y-12462603D01*
X10507065Y-12462603D02*
X10516589Y-12481650D01*
X10516589Y-12481650D02*
X10516589Y-12586412D01*
X10611827Y-12586412D02*
X10611827Y-12453079D01*
X10611827Y-12472126D02*
X10621351Y-12462603D01*
X10621351Y-12462603D02*
X10640398Y-12453079D01*
X10640398Y-12453079D02*
X10668970Y-12453079D01*
X10668970Y-12453079D02*
X10688017Y-12462603D01*
X10688017Y-12462603D02*
X10697541Y-12481650D01*
X10697541Y-12481650D02*
X10697541Y-12586412D01*
X10697541Y-12481650D02*
X10707065Y-12462603D01*
X10707065Y-12462603D02*
X10726112Y-12453079D01*
X10726112Y-12453079D02*
X10754684Y-12453079D01*
X10754684Y-12453079D02*
X10773732Y-12462603D01*
X10773732Y-12462603D02*
X10783255Y-12481650D01*
X10783255Y-12481650D02*
X10783255Y-12586412D01*
X11173732Y-12376888D02*
X11002303Y-12634031D01*
X11430874Y-12386412D02*
X11449922Y-12386412D01*
X11449922Y-12386412D02*
X11468970Y-12395936D01*
X11468970Y-12395936D02*
X11478493Y-12405460D01*
X11478493Y-12405460D02*
X11488017Y-12424507D01*
X11488017Y-12424507D02*
X11497541Y-12462603D01*
X11497541Y-12462603D02*
X11497541Y-12510222D01*
X11497541Y-12510222D02*
X11488017Y-12548317D01*
X11488017Y-12548317D02*
X11478493Y-12567365D01*
X11478493Y-12567365D02*
X11468970Y-12576888D01*
X11468970Y-12576888D02*
X11449922Y-12586412D01*
X11449922Y-12586412D02*
X11430874Y-12586412D01*
X11430874Y-12586412D02*
X11411827Y-12576888D01*
X11411827Y-12576888D02*
X11402303Y-12567365D01*
X11402303Y-12567365D02*
X11392779Y-12548317D01*
X11392779Y-12548317D02*
X11383255Y-12510222D01*
X11383255Y-12510222D02*
X11383255Y-12462603D01*
X11383255Y-12462603D02*
X11392779Y-12424507D01*
X11392779Y-12424507D02*
X11402303Y-12405460D01*
X11402303Y-12405460D02*
X11411827Y-12395936D01*
X11411827Y-12395936D02*
X11430874Y-12386412D01*
X11583255Y-12567365D02*
X11592779Y-12576888D01*
X11592779Y-12576888D02*
X11583255Y-12586412D01*
X11583255Y-12586412D02*
X11573732Y-12576888D01*
X11573732Y-12576888D02*
X11583255Y-12567365D01*
X11583255Y-12567365D02*
X11583255Y-12586412D01*
X11716589Y-12386412D02*
X11735636Y-12386412D01*
X11735636Y-12386412D02*
X11754684Y-12395936D01*
X11754684Y-12395936D02*
X11764208Y-12405460D01*
X11764208Y-12405460D02*
X11773732Y-12424507D01*
X11773732Y-12424507D02*
X11783255Y-12462603D01*
X11783255Y-12462603D02*
X11783255Y-12510222D01*
X11783255Y-12510222D02*
X11773732Y-12548317D01*
X11773732Y-12548317D02*
X11764208Y-12567365D01*
X11764208Y-12567365D02*
X11754684Y-12576888D01*
X11754684Y-12576888D02*
X11735636Y-12586412D01*
X11735636Y-12586412D02*
X11716589Y-12586412D01*
X11716589Y-12586412D02*
X11697541Y-12576888D01*
X11697541Y-12576888D02*
X11688017Y-12567365D01*
X11688017Y-12567365D02*
X11678493Y-12548317D01*
X11678493Y-12548317D02*
X11668970Y-12510222D01*
X11668970Y-12510222D02*
X11668970Y-12462603D01*
X11668970Y-12462603D02*
X11678493Y-12424507D01*
X11678493Y-12424507D02*
X11688017Y-12405460D01*
X11688017Y-12405460D02*
X11697541Y-12395936D01*
X11697541Y-12395936D02*
X11716589Y-12386412D01*
X11907065Y-12386412D02*
X11926113Y-12386412D01*
X11926113Y-12386412D02*
X11945160Y-12395936D01*
X11945160Y-12395936D02*
X11954684Y-12405460D01*
X11954684Y-12405460D02*
X11964208Y-12424507D01*
X11964208Y-12424507D02*
X11973732Y-12462603D01*
X11973732Y-12462603D02*
X11973732Y-12510222D01*
X11973732Y-12510222D02*
X11964208Y-12548317D01*
X11964208Y-12548317D02*
X11954684Y-12567365D01*
X11954684Y-12567365D02*
X11945160Y-12576888D01*
X11945160Y-12576888D02*
X11926113Y-12586412D01*
X11926113Y-12586412D02*
X11907065Y-12586412D01*
X11907065Y-12586412D02*
X11888017Y-12576888D01*
X11888017Y-12576888D02*
X11878493Y-12567365D01*
X11878493Y-12567365D02*
X11868970Y-12548317D01*
X11868970Y-12548317D02*
X11859446Y-12510222D01*
X11859446Y-12510222D02*
X11859446Y-12462603D01*
X11859446Y-12462603D02*
X11868970Y-12424507D01*
X11868970Y-12424507D02*
X11878493Y-12405460D01*
X11878493Y-12405460D02*
X11888017Y-12395936D01*
X11888017Y-12395936D02*
X11907065Y-12386412D01*
X12040398Y-12386412D02*
X12173732Y-12386412D01*
X12173732Y-12386412D02*
X12088017Y-12586412D01*
X12259446Y-12586412D02*
X12297541Y-12586412D01*
X12297541Y-12586412D02*
X12316589Y-12576888D01*
X12316589Y-12576888D02*
X12326113Y-12567365D01*
X12326113Y-12567365D02*
X12345160Y-12538793D01*
X12345160Y-12538793D02*
X12354684Y-12500698D01*
X12354684Y-12500698D02*
X12354684Y-12424507D01*
X12354684Y-12424507D02*
X12345160Y-12405460D01*
X12345160Y-12405460D02*
X12335636Y-12395936D01*
X12335636Y-12395936D02*
X12316589Y-12386412D01*
X12316589Y-12386412D02*
X12278493Y-12386412D01*
X12278493Y-12386412D02*
X12259446Y-12395936D01*
X12259446Y-12395936D02*
X12249922Y-12405460D01*
X12249922Y-12405460D02*
X12240398Y-12424507D01*
X12240398Y-12424507D02*
X12240398Y-12472126D01*
X12240398Y-12472126D02*
X12249922Y-12491174D01*
X12249922Y-12491174D02*
X12259446Y-12500698D01*
X12259446Y-12500698D02*
X12278493Y-12510222D01*
X12278493Y-12510222D02*
X12316589Y-12510222D01*
X12316589Y-12510222D02*
X12335636Y-12500698D01*
X12335636Y-12500698D02*
X12345160Y-12491174D01*
X12345160Y-12491174D02*
X12354684Y-12472126D01*
X12430874Y-12386412D02*
X12430874Y-12424507D01*
X12507065Y-12386412D02*
X12507065Y-12424507D01*
X12802303Y-12662603D02*
X12792779Y-12653079D01*
X12792779Y-12653079D02*
X12773732Y-12624507D01*
X12773732Y-12624507D02*
X12764208Y-12605460D01*
X12764208Y-12605460D02*
X12754684Y-12576888D01*
X12754684Y-12576888D02*
X12745160Y-12529269D01*
X12745160Y-12529269D02*
X12745160Y-12491174D01*
X12745160Y-12491174D02*
X12754684Y-12443555D01*
X12754684Y-12443555D02*
X12764208Y-12414984D01*
X12764208Y-12414984D02*
X12773732Y-12395936D01*
X12773732Y-12395936D02*
X12792779Y-12367365D01*
X12792779Y-12367365D02*
X12802303Y-12357841D01*
X12983255Y-12586412D02*
X12868970Y-12586412D01*
X12926113Y-12586412D02*
X12926113Y-12386412D01*
X12926113Y-12386412D02*
X12907065Y-12414984D01*
X12907065Y-12414984D02*
X12888017Y-12434031D01*
X12888017Y-12434031D02*
X12868970Y-12443555D01*
X13059446Y-12405460D02*
X13068970Y-12395936D01*
X13068970Y-12395936D02*
X13088017Y-12386412D01*
X13088017Y-12386412D02*
X13135636Y-12386412D01*
X13135636Y-12386412D02*
X13154684Y-12395936D01*
X13154684Y-12395936D02*
X13164208Y-12405460D01*
X13164208Y-12405460D02*
X13173732Y-12424507D01*
X13173732Y-12424507D02*
X13173732Y-12443555D01*
X13173732Y-12443555D02*
X13164208Y-12472126D01*
X13164208Y-12472126D02*
X13049922Y-12586412D01*
X13049922Y-12586412D02*
X13173732Y-12586412D01*
X13411827Y-12586412D02*
X13411827Y-12386412D01*
X13497541Y-12586412D02*
X13497541Y-12481650D01*
X13497541Y-12481650D02*
X13488017Y-12462603D01*
X13488017Y-12462603D02*
X13468970Y-12453079D01*
X13468970Y-12453079D02*
X13440398Y-12453079D01*
X13440398Y-12453079D02*
X13421351Y-12462603D01*
X13421351Y-12462603D02*
X13411827Y-12472126D01*
X13621351Y-12586412D02*
X13602303Y-12576888D01*
X13602303Y-12576888D02*
X13592779Y-12567365D01*
X13592779Y-12567365D02*
X13583256Y-12548317D01*
X13583256Y-12548317D02*
X13583256Y-12491174D01*
X13583256Y-12491174D02*
X13592779Y-12472126D01*
X13592779Y-12472126D02*
X13602303Y-12462603D01*
X13602303Y-12462603D02*
X13621351Y-12453079D01*
X13621351Y-12453079D02*
X13649922Y-12453079D01*
X13649922Y-12453079D02*
X13668970Y-12462603D01*
X13668970Y-12462603D02*
X13678494Y-12472126D01*
X13678494Y-12472126D02*
X13688017Y-12491174D01*
X13688017Y-12491174D02*
X13688017Y-12548317D01*
X13688017Y-12548317D02*
X13678494Y-12567365D01*
X13678494Y-12567365D02*
X13668970Y-12576888D01*
X13668970Y-12576888D02*
X13649922Y-12586412D01*
X13649922Y-12586412D02*
X13621351Y-12586412D01*
X13802303Y-12586412D02*
X13783256Y-12576888D01*
X13783256Y-12576888D02*
X13773732Y-12557841D01*
X13773732Y-12557841D02*
X13773732Y-12386412D01*
X13954684Y-12576888D02*
X13935637Y-12586412D01*
X13935637Y-12586412D02*
X13897541Y-12586412D01*
X13897541Y-12586412D02*
X13878494Y-12576888D01*
X13878494Y-12576888D02*
X13868970Y-12557841D01*
X13868970Y-12557841D02*
X13868970Y-12481650D01*
X13868970Y-12481650D02*
X13878494Y-12462603D01*
X13878494Y-12462603D02*
X13897541Y-12453079D01*
X13897541Y-12453079D02*
X13935637Y-12453079D01*
X13935637Y-12453079D02*
X13954684Y-12462603D01*
X13954684Y-12462603D02*
X13964208Y-12481650D01*
X13964208Y-12481650D02*
X13964208Y-12500698D01*
X13964208Y-12500698D02*
X13868970Y-12519746D01*
X14040398Y-12576888D02*
X14059446Y-12586412D01*
X14059446Y-12586412D02*
X14097541Y-12586412D01*
X14097541Y-12586412D02*
X14116589Y-12576888D01*
X14116589Y-12576888D02*
X14126113Y-12557841D01*
X14126113Y-12557841D02*
X14126113Y-12548317D01*
X14126113Y-12548317D02*
X14116589Y-12529269D01*
X14116589Y-12529269D02*
X14097541Y-12519746D01*
X14097541Y-12519746D02*
X14068970Y-12519746D01*
X14068970Y-12519746D02*
X14049922Y-12510222D01*
X14049922Y-12510222D02*
X14040398Y-12491174D01*
X14040398Y-12491174D02*
X14040398Y-12481650D01*
X14040398Y-12481650D02*
X14049922Y-12462603D01*
X14049922Y-12462603D02*
X14068970Y-12453079D01*
X14068970Y-12453079D02*
X14097541Y-12453079D01*
X14097541Y-12453079D02*
X14116589Y-12462603D01*
X14192779Y-12662603D02*
X14202303Y-12653079D01*
X14202303Y-12653079D02*
X14221351Y-12624507D01*
X14221351Y-12624507D02*
X14230875Y-12605460D01*
X14230875Y-12605460D02*
X14240398Y-12576888D01*
X14240398Y-12576888D02*
X14249922Y-12529269D01*
X14249922Y-12529269D02*
X14249922Y-12491174D01*
X14249922Y-12491174D02*
X14240398Y-12443555D01*
X14240398Y-12443555D02*
X14230875Y-12414984D01*
X14230875Y-12414984D02*
X14221351Y-12395936D01*
X14221351Y-12395936D02*
X14202303Y-12367365D01*
X14202303Y-12367365D02*
X14192779Y-12357841D01*
D12*
X9227240Y-12758928D02*
G75*
G02*
X9177240Y-12758928I-25000J0D01*
G01*
X9177240Y-12758928D02*
G75*
G02*
X9227240Y-12758928I25000J0D01*
G01*
D11*
X9526112Y-12650412D02*
X9545160Y-12650412D01*
X9545160Y-12650412D02*
X9564208Y-12659936D01*
X9564208Y-12659936D02*
X9573731Y-12669460D01*
X9573731Y-12669460D02*
X9583255Y-12688507D01*
X9583255Y-12688507D02*
X9592779Y-12726603D01*
X9592779Y-12726603D02*
X9592779Y-12774222D01*
X9592779Y-12774222D02*
X9583255Y-12812317D01*
X9583255Y-12812317D02*
X9573731Y-12831365D01*
X9573731Y-12831365D02*
X9564208Y-12840888D01*
X9564208Y-12840888D02*
X9545160Y-12850412D01*
X9545160Y-12850412D02*
X9526112Y-12850412D01*
X9526112Y-12850412D02*
X9507065Y-12840888D01*
X9507065Y-12840888D02*
X9497541Y-12831365D01*
X9497541Y-12831365D02*
X9488017Y-12812317D01*
X9488017Y-12812317D02*
X9478493Y-12774222D01*
X9478493Y-12774222D02*
X9478493Y-12726603D01*
X9478493Y-12726603D02*
X9488017Y-12688507D01*
X9488017Y-12688507D02*
X9497541Y-12669460D01*
X9497541Y-12669460D02*
X9507065Y-12659936D01*
X9507065Y-12659936D02*
X9526112Y-12650412D01*
X9678493Y-12831365D02*
X9688017Y-12840888D01*
X9688017Y-12840888D02*
X9678493Y-12850412D01*
X9678493Y-12850412D02*
X9668970Y-12840888D01*
X9668970Y-12840888D02*
X9678493Y-12831365D01*
X9678493Y-12831365D02*
X9678493Y-12850412D01*
X9868970Y-12650412D02*
X9773731Y-12650412D01*
X9773731Y-12650412D02*
X9764208Y-12745650D01*
X9764208Y-12745650D02*
X9773731Y-12736126D01*
X9773731Y-12736126D02*
X9792779Y-12726603D01*
X9792779Y-12726603D02*
X9840398Y-12726603D01*
X9840398Y-12726603D02*
X9859446Y-12736126D01*
X9859446Y-12736126D02*
X9868970Y-12745650D01*
X9868970Y-12745650D02*
X9878493Y-12764698D01*
X9878493Y-12764698D02*
X9878493Y-12812317D01*
X9878493Y-12812317D02*
X9868970Y-12831365D01*
X9868970Y-12831365D02*
X9859446Y-12840888D01*
X9859446Y-12840888D02*
X9840398Y-12850412D01*
X9840398Y-12850412D02*
X9792779Y-12850412D01*
X9792779Y-12850412D02*
X9773731Y-12840888D01*
X9773731Y-12840888D02*
X9764208Y-12831365D01*
X10002303Y-12650412D02*
X10021351Y-12650412D01*
X10021351Y-12650412D02*
X10040398Y-12659936D01*
X10040398Y-12659936D02*
X10049922Y-12669460D01*
X10049922Y-12669460D02*
X10059446Y-12688507D01*
X10059446Y-12688507D02*
X10068970Y-12726603D01*
X10068970Y-12726603D02*
X10068970Y-12774222D01*
X10068970Y-12774222D02*
X10059446Y-12812317D01*
X10059446Y-12812317D02*
X10049922Y-12831365D01*
X10049922Y-12831365D02*
X10040398Y-12840888D01*
X10040398Y-12840888D02*
X10021351Y-12850412D01*
X10021351Y-12850412D02*
X10002303Y-12850412D01*
X10002303Y-12850412D02*
X9983255Y-12840888D01*
X9983255Y-12840888D02*
X9973731Y-12831365D01*
X9973731Y-12831365D02*
X9964208Y-12812317D01*
X9964208Y-12812317D02*
X9954684Y-12774222D01*
X9954684Y-12774222D02*
X9954684Y-12726603D01*
X9954684Y-12726603D02*
X9964208Y-12688507D01*
X9964208Y-12688507D02*
X9973731Y-12669460D01*
X9973731Y-12669460D02*
X9983255Y-12659936D01*
X9983255Y-12659936D02*
X10002303Y-12650412D01*
X10192779Y-12650412D02*
X10211827Y-12650412D01*
X10211827Y-12650412D02*
X10230874Y-12659936D01*
X10230874Y-12659936D02*
X10240398Y-12669460D01*
X10240398Y-12669460D02*
X10249922Y-12688507D01*
X10249922Y-12688507D02*
X10259446Y-12726603D01*
X10259446Y-12726603D02*
X10259446Y-12774222D01*
X10259446Y-12774222D02*
X10249922Y-12812317D01*
X10249922Y-12812317D02*
X10240398Y-12831365D01*
X10240398Y-12831365D02*
X10230874Y-12840888D01*
X10230874Y-12840888D02*
X10211827Y-12850412D01*
X10211827Y-12850412D02*
X10192779Y-12850412D01*
X10192779Y-12850412D02*
X10173731Y-12840888D01*
X10173731Y-12840888D02*
X10164208Y-12831365D01*
X10164208Y-12831365D02*
X10154684Y-12812317D01*
X10154684Y-12812317D02*
X10145160Y-12774222D01*
X10145160Y-12774222D02*
X10145160Y-12726603D01*
X10145160Y-12726603D02*
X10154684Y-12688507D01*
X10154684Y-12688507D02*
X10164208Y-12669460D01*
X10164208Y-12669460D02*
X10173731Y-12659936D01*
X10173731Y-12659936D02*
X10192779Y-12650412D01*
X10345160Y-12850412D02*
X10345160Y-12717079D01*
X10345160Y-12736126D02*
X10354684Y-12726603D01*
X10354684Y-12726603D02*
X10373731Y-12717079D01*
X10373731Y-12717079D02*
X10402303Y-12717079D01*
X10402303Y-12717079D02*
X10421351Y-12726603D01*
X10421351Y-12726603D02*
X10430874Y-12745650D01*
X10430874Y-12745650D02*
X10430874Y-12850412D01*
X10430874Y-12745650D02*
X10440398Y-12726603D01*
X10440398Y-12726603D02*
X10459446Y-12717079D01*
X10459446Y-12717079D02*
X10488017Y-12717079D01*
X10488017Y-12717079D02*
X10507065Y-12726603D01*
X10507065Y-12726603D02*
X10516589Y-12745650D01*
X10516589Y-12745650D02*
X10516589Y-12850412D01*
X10611827Y-12850412D02*
X10611827Y-12717079D01*
X10611827Y-12736126D02*
X10621351Y-12726603D01*
X10621351Y-12726603D02*
X10640398Y-12717079D01*
X10640398Y-12717079D02*
X10668970Y-12717079D01*
X10668970Y-12717079D02*
X10688017Y-12726603D01*
X10688017Y-12726603D02*
X10697541Y-12745650D01*
X10697541Y-12745650D02*
X10697541Y-12850412D01*
X10697541Y-12745650D02*
X10707065Y-12726603D01*
X10707065Y-12726603D02*
X10726112Y-12717079D01*
X10726112Y-12717079D02*
X10754684Y-12717079D01*
X10754684Y-12717079D02*
X10773732Y-12726603D01*
X10773732Y-12726603D02*
X10783255Y-12745650D01*
X10783255Y-12745650D02*
X10783255Y-12850412D01*
X11173732Y-12640888D02*
X11002303Y-12898031D01*
X11430874Y-12650412D02*
X11449922Y-12650412D01*
X11449922Y-12650412D02*
X11468970Y-12659936D01*
X11468970Y-12659936D02*
X11478493Y-12669460D01*
X11478493Y-12669460D02*
X11488017Y-12688507D01*
X11488017Y-12688507D02*
X11497541Y-12726603D01*
X11497541Y-12726603D02*
X11497541Y-12774222D01*
X11497541Y-12774222D02*
X11488017Y-12812317D01*
X11488017Y-12812317D02*
X11478493Y-12831365D01*
X11478493Y-12831365D02*
X11468970Y-12840888D01*
X11468970Y-12840888D02*
X11449922Y-12850412D01*
X11449922Y-12850412D02*
X11430874Y-12850412D01*
X11430874Y-12850412D02*
X11411827Y-12840888D01*
X11411827Y-12840888D02*
X11402303Y-12831365D01*
X11402303Y-12831365D02*
X11392779Y-12812317D01*
X11392779Y-12812317D02*
X11383255Y-12774222D01*
X11383255Y-12774222D02*
X11383255Y-12726603D01*
X11383255Y-12726603D02*
X11392779Y-12688507D01*
X11392779Y-12688507D02*
X11402303Y-12669460D01*
X11402303Y-12669460D02*
X11411827Y-12659936D01*
X11411827Y-12659936D02*
X11430874Y-12650412D01*
X11583255Y-12831365D02*
X11592779Y-12840888D01*
X11592779Y-12840888D02*
X11583255Y-12850412D01*
X11583255Y-12850412D02*
X11573732Y-12840888D01*
X11573732Y-12840888D02*
X11583255Y-12831365D01*
X11583255Y-12831365D02*
X11583255Y-12850412D01*
X11716589Y-12650412D02*
X11735636Y-12650412D01*
X11735636Y-12650412D02*
X11754684Y-12659936D01*
X11754684Y-12659936D02*
X11764208Y-12669460D01*
X11764208Y-12669460D02*
X11773732Y-12688507D01*
X11773732Y-12688507D02*
X11783255Y-12726603D01*
X11783255Y-12726603D02*
X11783255Y-12774222D01*
X11783255Y-12774222D02*
X11773732Y-12812317D01*
X11773732Y-12812317D02*
X11764208Y-12831365D01*
X11764208Y-12831365D02*
X11754684Y-12840888D01*
X11754684Y-12840888D02*
X11735636Y-12850412D01*
X11735636Y-12850412D02*
X11716589Y-12850412D01*
X11716589Y-12850412D02*
X11697541Y-12840888D01*
X11697541Y-12840888D02*
X11688017Y-12831365D01*
X11688017Y-12831365D02*
X11678493Y-12812317D01*
X11678493Y-12812317D02*
X11668970Y-12774222D01*
X11668970Y-12774222D02*
X11668970Y-12726603D01*
X11668970Y-12726603D02*
X11678493Y-12688507D01*
X11678493Y-12688507D02*
X11688017Y-12669460D01*
X11688017Y-12669460D02*
X11697541Y-12659936D01*
X11697541Y-12659936D02*
X11716589Y-12650412D01*
X11973732Y-12850412D02*
X11859446Y-12850412D01*
X11916589Y-12850412D02*
X11916589Y-12650412D01*
X11916589Y-12650412D02*
X11897541Y-12678984D01*
X11897541Y-12678984D02*
X11878493Y-12698031D01*
X11878493Y-12698031D02*
X11859446Y-12707555D01*
X12068970Y-12850412D02*
X12107065Y-12850412D01*
X12107065Y-12850412D02*
X12126113Y-12840888D01*
X12126113Y-12840888D02*
X12135636Y-12831365D01*
X12135636Y-12831365D02*
X12154684Y-12802793D01*
X12154684Y-12802793D02*
X12164208Y-12764698D01*
X12164208Y-12764698D02*
X12164208Y-12688507D01*
X12164208Y-12688507D02*
X12154684Y-12669460D01*
X12154684Y-12669460D02*
X12145160Y-12659936D01*
X12145160Y-12659936D02*
X12126113Y-12650412D01*
X12126113Y-12650412D02*
X12088017Y-12650412D01*
X12088017Y-12650412D02*
X12068970Y-12659936D01*
X12068970Y-12659936D02*
X12059446Y-12669460D01*
X12059446Y-12669460D02*
X12049922Y-12688507D01*
X12049922Y-12688507D02*
X12049922Y-12736126D01*
X12049922Y-12736126D02*
X12059446Y-12755174D01*
X12059446Y-12755174D02*
X12068970Y-12764698D01*
X12068970Y-12764698D02*
X12088017Y-12774222D01*
X12088017Y-12774222D02*
X12126113Y-12774222D01*
X12126113Y-12774222D02*
X12145160Y-12764698D01*
X12145160Y-12764698D02*
X12154684Y-12755174D01*
X12154684Y-12755174D02*
X12164208Y-12736126D01*
X12230874Y-12650412D02*
X12364208Y-12650412D01*
X12364208Y-12650412D02*
X12278493Y-12850412D01*
X12430874Y-12650412D02*
X12430874Y-12688507D01*
X12507065Y-12650412D02*
X12507065Y-12688507D01*
X12802303Y-12926603D02*
X12792779Y-12917079D01*
X12792779Y-12917079D02*
X12773732Y-12888507D01*
X12773732Y-12888507D02*
X12764208Y-12869460D01*
X12764208Y-12869460D02*
X12754684Y-12840888D01*
X12754684Y-12840888D02*
X12745160Y-12793269D01*
X12745160Y-12793269D02*
X12745160Y-12755174D01*
X12745160Y-12755174D02*
X12754684Y-12707555D01*
X12754684Y-12707555D02*
X12764208Y-12678984D01*
X12764208Y-12678984D02*
X12773732Y-12659936D01*
X12773732Y-12659936D02*
X12792779Y-12631365D01*
X12792779Y-12631365D02*
X12802303Y-12621841D01*
X12859446Y-12650412D02*
X12983255Y-12650412D01*
X12983255Y-12650412D02*
X12916589Y-12726603D01*
X12916589Y-12726603D02*
X12945160Y-12726603D01*
X12945160Y-12726603D02*
X12964208Y-12736126D01*
X12964208Y-12736126D02*
X12973732Y-12745650D01*
X12973732Y-12745650D02*
X12983255Y-12764698D01*
X12983255Y-12764698D02*
X12983255Y-12812317D01*
X12983255Y-12812317D02*
X12973732Y-12831365D01*
X12973732Y-12831365D02*
X12964208Y-12840888D01*
X12964208Y-12840888D02*
X12945160Y-12850412D01*
X12945160Y-12850412D02*
X12888017Y-12850412D01*
X12888017Y-12850412D02*
X12868970Y-12840888D01*
X12868970Y-12840888D02*
X12859446Y-12831365D01*
X13097541Y-12736126D02*
X13078494Y-12726603D01*
X13078494Y-12726603D02*
X13068970Y-12717079D01*
X13068970Y-12717079D02*
X13059446Y-12698031D01*
X13059446Y-12698031D02*
X13059446Y-12688507D01*
X13059446Y-12688507D02*
X13068970Y-12669460D01*
X13068970Y-12669460D02*
X13078494Y-12659936D01*
X13078494Y-12659936D02*
X13097541Y-12650412D01*
X13097541Y-12650412D02*
X13135636Y-12650412D01*
X13135636Y-12650412D02*
X13154684Y-12659936D01*
X13154684Y-12659936D02*
X13164208Y-12669460D01*
X13164208Y-12669460D02*
X13173732Y-12688507D01*
X13173732Y-12688507D02*
X13173732Y-12698031D01*
X13173732Y-12698031D02*
X13164208Y-12717079D01*
X13164208Y-12717079D02*
X13154684Y-12726603D01*
X13154684Y-12726603D02*
X13135636Y-12736126D01*
X13135636Y-12736126D02*
X13097541Y-12736126D01*
X13097541Y-12736126D02*
X13078494Y-12745650D01*
X13078494Y-12745650D02*
X13068970Y-12755174D01*
X13068970Y-12755174D02*
X13059446Y-12774222D01*
X13059446Y-12774222D02*
X13059446Y-12812317D01*
X13059446Y-12812317D02*
X13068970Y-12831365D01*
X13068970Y-12831365D02*
X13078494Y-12840888D01*
X13078494Y-12840888D02*
X13097541Y-12850412D01*
X13097541Y-12850412D02*
X13135636Y-12850412D01*
X13135636Y-12850412D02*
X13154684Y-12840888D01*
X13154684Y-12840888D02*
X13164208Y-12831365D01*
X13164208Y-12831365D02*
X13173732Y-12812317D01*
X13173732Y-12812317D02*
X13173732Y-12774222D01*
X13173732Y-12774222D02*
X13164208Y-12755174D01*
X13164208Y-12755174D02*
X13154684Y-12745650D01*
X13154684Y-12745650D02*
X13135636Y-12736126D01*
X13411827Y-12850412D02*
X13411827Y-12650412D01*
X13497541Y-12850412D02*
X13497541Y-12745650D01*
X13497541Y-12745650D02*
X13488017Y-12726603D01*
X13488017Y-12726603D02*
X13468970Y-12717079D01*
X13468970Y-12717079D02*
X13440398Y-12717079D01*
X13440398Y-12717079D02*
X13421351Y-12726603D01*
X13421351Y-12726603D02*
X13411827Y-12736126D01*
X13621351Y-12850412D02*
X13602303Y-12840888D01*
X13602303Y-12840888D02*
X13592779Y-12831365D01*
X13592779Y-12831365D02*
X13583256Y-12812317D01*
X13583256Y-12812317D02*
X13583256Y-12755174D01*
X13583256Y-12755174D02*
X13592779Y-12736126D01*
X13592779Y-12736126D02*
X13602303Y-12726603D01*
X13602303Y-12726603D02*
X13621351Y-12717079D01*
X13621351Y-12717079D02*
X13649922Y-12717079D01*
X13649922Y-12717079D02*
X13668970Y-12726603D01*
X13668970Y-12726603D02*
X13678494Y-12736126D01*
X13678494Y-12736126D02*
X13688017Y-12755174D01*
X13688017Y-12755174D02*
X13688017Y-12812317D01*
X13688017Y-12812317D02*
X13678494Y-12831365D01*
X13678494Y-12831365D02*
X13668970Y-12840888D01*
X13668970Y-12840888D02*
X13649922Y-12850412D01*
X13649922Y-12850412D02*
X13621351Y-12850412D01*
X13802303Y-12850412D02*
X13783256Y-12840888D01*
X13783256Y-12840888D02*
X13773732Y-12821841D01*
X13773732Y-12821841D02*
X13773732Y-12650412D01*
X13954684Y-12840888D02*
X13935637Y-12850412D01*
X13935637Y-12850412D02*
X13897541Y-12850412D01*
X13897541Y-12850412D02*
X13878494Y-12840888D01*
X13878494Y-12840888D02*
X13868970Y-12821841D01*
X13868970Y-12821841D02*
X13868970Y-12745650D01*
X13868970Y-12745650D02*
X13878494Y-12726603D01*
X13878494Y-12726603D02*
X13897541Y-12717079D01*
X13897541Y-12717079D02*
X13935637Y-12717079D01*
X13935637Y-12717079D02*
X13954684Y-12726603D01*
X13954684Y-12726603D02*
X13964208Y-12745650D01*
X13964208Y-12745650D02*
X13964208Y-12764698D01*
X13964208Y-12764698D02*
X13868970Y-12783746D01*
X14040398Y-12840888D02*
X14059446Y-12850412D01*
X14059446Y-12850412D02*
X14097541Y-12850412D01*
X14097541Y-12850412D02*
X14116589Y-12840888D01*
X14116589Y-12840888D02*
X14126113Y-12821841D01*
X14126113Y-12821841D02*
X14126113Y-12812317D01*
X14126113Y-12812317D02*
X14116589Y-12793269D01*
X14116589Y-12793269D02*
X14097541Y-12783746D01*
X14097541Y-12783746D02*
X14068970Y-12783746D01*
X14068970Y-12783746D02*
X14049922Y-12774222D01*
X14049922Y-12774222D02*
X14040398Y-12755174D01*
X14040398Y-12755174D02*
X14040398Y-12745650D01*
X14040398Y-12745650D02*
X14049922Y-12726603D01*
X14049922Y-12726603D02*
X14068970Y-12717079D01*
X14068970Y-12717079D02*
X14097541Y-12717079D01*
X14097541Y-12717079D02*
X14116589Y-12726603D01*
X14192779Y-12926603D02*
X14202303Y-12917079D01*
X14202303Y-12917079D02*
X14221351Y-12888507D01*
X14221351Y-12888507D02*
X14230875Y-12869460D01*
X14230875Y-12869460D02*
X14240398Y-12840888D01*
X14240398Y-12840888D02*
X14249922Y-12793269D01*
X14249922Y-12793269D02*
X14249922Y-12755174D01*
X14249922Y-12755174D02*
X14240398Y-12707555D01*
X14240398Y-12707555D02*
X14230875Y-12678984D01*
X14230875Y-12678984D02*
X14221351Y-12659936D01*
X14221351Y-12659936D02*
X14202303Y-12631365D01*
X14202303Y-12631365D02*
X14192779Y-12621841D01*
D12*
X9187240Y-12982928D02*
X9187240Y-13062928D01*
X9147240Y-13022928D02*
X9227240Y-13022928D01*
D11*
X9526112Y-12914412D02*
X9545160Y-12914412D01*
X9545160Y-12914412D02*
X9564208Y-12923936D01*
X9564208Y-12923936D02*
X9573731Y-12933460D01*
X9573731Y-12933460D02*
X9583255Y-12952507D01*
X9583255Y-12952507D02*
X9592779Y-12990603D01*
X9592779Y-12990603D02*
X9592779Y-13038222D01*
X9592779Y-13038222D02*
X9583255Y-13076317D01*
X9583255Y-13076317D02*
X9573731Y-13095365D01*
X9573731Y-13095365D02*
X9564208Y-13104888D01*
X9564208Y-13104888D02*
X9545160Y-13114412D01*
X9545160Y-13114412D02*
X9526112Y-13114412D01*
X9526112Y-13114412D02*
X9507065Y-13104888D01*
X9507065Y-13104888D02*
X9497541Y-13095365D01*
X9497541Y-13095365D02*
X9488017Y-13076317D01*
X9488017Y-13076317D02*
X9478493Y-13038222D01*
X9478493Y-13038222D02*
X9478493Y-12990603D01*
X9478493Y-12990603D02*
X9488017Y-12952507D01*
X9488017Y-12952507D02*
X9497541Y-12933460D01*
X9497541Y-12933460D02*
X9507065Y-12923936D01*
X9507065Y-12923936D02*
X9526112Y-12914412D01*
X9678493Y-13095365D02*
X9688017Y-13104888D01*
X9688017Y-13104888D02*
X9678493Y-13114412D01*
X9678493Y-13114412D02*
X9668970Y-13104888D01*
X9668970Y-13104888D02*
X9678493Y-13095365D01*
X9678493Y-13095365D02*
X9678493Y-13114412D01*
X9802303Y-13000126D02*
X9783255Y-12990603D01*
X9783255Y-12990603D02*
X9773731Y-12981079D01*
X9773731Y-12981079D02*
X9764208Y-12962031D01*
X9764208Y-12962031D02*
X9764208Y-12952507D01*
X9764208Y-12952507D02*
X9773731Y-12933460D01*
X9773731Y-12933460D02*
X9783255Y-12923936D01*
X9783255Y-12923936D02*
X9802303Y-12914412D01*
X9802303Y-12914412D02*
X9840398Y-12914412D01*
X9840398Y-12914412D02*
X9859446Y-12923936D01*
X9859446Y-12923936D02*
X9868970Y-12933460D01*
X9868970Y-12933460D02*
X9878493Y-12952507D01*
X9878493Y-12952507D02*
X9878493Y-12962031D01*
X9878493Y-12962031D02*
X9868970Y-12981079D01*
X9868970Y-12981079D02*
X9859446Y-12990603D01*
X9859446Y-12990603D02*
X9840398Y-13000126D01*
X9840398Y-13000126D02*
X9802303Y-13000126D01*
X9802303Y-13000126D02*
X9783255Y-13009650D01*
X9783255Y-13009650D02*
X9773731Y-13019174D01*
X9773731Y-13019174D02*
X9764208Y-13038222D01*
X9764208Y-13038222D02*
X9764208Y-13076317D01*
X9764208Y-13076317D02*
X9773731Y-13095365D01*
X9773731Y-13095365D02*
X9783255Y-13104888D01*
X9783255Y-13104888D02*
X9802303Y-13114412D01*
X9802303Y-13114412D02*
X9840398Y-13114412D01*
X9840398Y-13114412D02*
X9859446Y-13104888D01*
X9859446Y-13104888D02*
X9868970Y-13095365D01*
X9868970Y-13095365D02*
X9878493Y-13076317D01*
X9878493Y-13076317D02*
X9878493Y-13038222D01*
X9878493Y-13038222D02*
X9868970Y-13019174D01*
X9868970Y-13019174D02*
X9859446Y-13009650D01*
X9859446Y-13009650D02*
X9840398Y-13000126D01*
X10002303Y-12914412D02*
X10021351Y-12914412D01*
X10021351Y-12914412D02*
X10040398Y-12923936D01*
X10040398Y-12923936D02*
X10049922Y-12933460D01*
X10049922Y-12933460D02*
X10059446Y-12952507D01*
X10059446Y-12952507D02*
X10068970Y-12990603D01*
X10068970Y-12990603D02*
X10068970Y-13038222D01*
X10068970Y-13038222D02*
X10059446Y-13076317D01*
X10059446Y-13076317D02*
X10049922Y-13095365D01*
X10049922Y-13095365D02*
X10040398Y-13104888D01*
X10040398Y-13104888D02*
X10021351Y-13114412D01*
X10021351Y-13114412D02*
X10002303Y-13114412D01*
X10002303Y-13114412D02*
X9983255Y-13104888D01*
X9983255Y-13104888D02*
X9973731Y-13095365D01*
X9973731Y-13095365D02*
X9964208Y-13076317D01*
X9964208Y-13076317D02*
X9954684Y-13038222D01*
X9954684Y-13038222D02*
X9954684Y-12990603D01*
X9954684Y-12990603D02*
X9964208Y-12952507D01*
X9964208Y-12952507D02*
X9973731Y-12933460D01*
X9973731Y-12933460D02*
X9983255Y-12923936D01*
X9983255Y-12923936D02*
X10002303Y-12914412D01*
X10192779Y-12914412D02*
X10211827Y-12914412D01*
X10211827Y-12914412D02*
X10230874Y-12923936D01*
X10230874Y-12923936D02*
X10240398Y-12933460D01*
X10240398Y-12933460D02*
X10249922Y-12952507D01*
X10249922Y-12952507D02*
X10259446Y-12990603D01*
X10259446Y-12990603D02*
X10259446Y-13038222D01*
X10259446Y-13038222D02*
X10249922Y-13076317D01*
X10249922Y-13076317D02*
X10240398Y-13095365D01*
X10240398Y-13095365D02*
X10230874Y-13104888D01*
X10230874Y-13104888D02*
X10211827Y-13114412D01*
X10211827Y-13114412D02*
X10192779Y-13114412D01*
X10192779Y-13114412D02*
X10173731Y-13104888D01*
X10173731Y-13104888D02*
X10164208Y-13095365D01*
X10164208Y-13095365D02*
X10154684Y-13076317D01*
X10154684Y-13076317D02*
X10145160Y-13038222D01*
X10145160Y-13038222D02*
X10145160Y-12990603D01*
X10145160Y-12990603D02*
X10154684Y-12952507D01*
X10154684Y-12952507D02*
X10164208Y-12933460D01*
X10164208Y-12933460D02*
X10173731Y-12923936D01*
X10173731Y-12923936D02*
X10192779Y-12914412D01*
X10345160Y-13114412D02*
X10345160Y-12981079D01*
X10345160Y-13000126D02*
X10354684Y-12990603D01*
X10354684Y-12990603D02*
X10373731Y-12981079D01*
X10373731Y-12981079D02*
X10402303Y-12981079D01*
X10402303Y-12981079D02*
X10421351Y-12990603D01*
X10421351Y-12990603D02*
X10430874Y-13009650D01*
X10430874Y-13009650D02*
X10430874Y-13114412D01*
X10430874Y-13009650D02*
X10440398Y-12990603D01*
X10440398Y-12990603D02*
X10459446Y-12981079D01*
X10459446Y-12981079D02*
X10488017Y-12981079D01*
X10488017Y-12981079D02*
X10507065Y-12990603D01*
X10507065Y-12990603D02*
X10516589Y-13009650D01*
X10516589Y-13009650D02*
X10516589Y-13114412D01*
X10611827Y-13114412D02*
X10611827Y-12981079D01*
X10611827Y-13000126D02*
X10621351Y-12990603D01*
X10621351Y-12990603D02*
X10640398Y-12981079D01*
X10640398Y-12981079D02*
X10668970Y-12981079D01*
X10668970Y-12981079D02*
X10688017Y-12990603D01*
X10688017Y-12990603D02*
X10697541Y-13009650D01*
X10697541Y-13009650D02*
X10697541Y-13114412D01*
X10697541Y-13009650D02*
X10707065Y-12990603D01*
X10707065Y-12990603D02*
X10726112Y-12981079D01*
X10726112Y-12981079D02*
X10754684Y-12981079D01*
X10754684Y-12981079D02*
X10773732Y-12990603D01*
X10773732Y-12990603D02*
X10783255Y-13009650D01*
X10783255Y-13009650D02*
X10783255Y-13114412D01*
X11173732Y-12904888D02*
X11002303Y-13162031D01*
X11430874Y-12914412D02*
X11449922Y-12914412D01*
X11449922Y-12914412D02*
X11468970Y-12923936D01*
X11468970Y-12923936D02*
X11478493Y-12933460D01*
X11478493Y-12933460D02*
X11488017Y-12952507D01*
X11488017Y-12952507D02*
X11497541Y-12990603D01*
X11497541Y-12990603D02*
X11497541Y-13038222D01*
X11497541Y-13038222D02*
X11488017Y-13076317D01*
X11488017Y-13076317D02*
X11478493Y-13095365D01*
X11478493Y-13095365D02*
X11468970Y-13104888D01*
X11468970Y-13104888D02*
X11449922Y-13114412D01*
X11449922Y-13114412D02*
X11430874Y-13114412D01*
X11430874Y-13114412D02*
X11411827Y-13104888D01*
X11411827Y-13104888D02*
X11402303Y-13095365D01*
X11402303Y-13095365D02*
X11392779Y-13076317D01*
X11392779Y-13076317D02*
X11383255Y-13038222D01*
X11383255Y-13038222D02*
X11383255Y-12990603D01*
X11383255Y-12990603D02*
X11392779Y-12952507D01*
X11392779Y-12952507D02*
X11402303Y-12933460D01*
X11402303Y-12933460D02*
X11411827Y-12923936D01*
X11411827Y-12923936D02*
X11430874Y-12914412D01*
X11583255Y-13095365D02*
X11592779Y-13104888D01*
X11592779Y-13104888D02*
X11583255Y-13114412D01*
X11583255Y-13114412D02*
X11573732Y-13104888D01*
X11573732Y-13104888D02*
X11583255Y-13095365D01*
X11583255Y-13095365D02*
X11583255Y-13114412D01*
X11716589Y-12914412D02*
X11735636Y-12914412D01*
X11735636Y-12914412D02*
X11754684Y-12923936D01*
X11754684Y-12923936D02*
X11764208Y-12933460D01*
X11764208Y-12933460D02*
X11773732Y-12952507D01*
X11773732Y-12952507D02*
X11783255Y-12990603D01*
X11783255Y-12990603D02*
X11783255Y-13038222D01*
X11783255Y-13038222D02*
X11773732Y-13076317D01*
X11773732Y-13076317D02*
X11764208Y-13095365D01*
X11764208Y-13095365D02*
X11754684Y-13104888D01*
X11754684Y-13104888D02*
X11735636Y-13114412D01*
X11735636Y-13114412D02*
X11716589Y-13114412D01*
X11716589Y-13114412D02*
X11697541Y-13104888D01*
X11697541Y-13104888D02*
X11688017Y-13095365D01*
X11688017Y-13095365D02*
X11678493Y-13076317D01*
X11678493Y-13076317D02*
X11668970Y-13038222D01*
X11668970Y-13038222D02*
X11668970Y-12990603D01*
X11668970Y-12990603D02*
X11678493Y-12952507D01*
X11678493Y-12952507D02*
X11688017Y-12933460D01*
X11688017Y-12933460D02*
X11697541Y-12923936D01*
X11697541Y-12923936D02*
X11716589Y-12914412D01*
X11849922Y-12914412D02*
X11973732Y-12914412D01*
X11973732Y-12914412D02*
X11907065Y-12990603D01*
X11907065Y-12990603D02*
X11935636Y-12990603D01*
X11935636Y-12990603D02*
X11954684Y-13000126D01*
X11954684Y-13000126D02*
X11964208Y-13009650D01*
X11964208Y-13009650D02*
X11973732Y-13028698D01*
X11973732Y-13028698D02*
X11973732Y-13076317D01*
X11973732Y-13076317D02*
X11964208Y-13095365D01*
X11964208Y-13095365D02*
X11954684Y-13104888D01*
X11954684Y-13104888D02*
X11935636Y-13114412D01*
X11935636Y-13114412D02*
X11878493Y-13114412D01*
X11878493Y-13114412D02*
X11859446Y-13104888D01*
X11859446Y-13104888D02*
X11849922Y-13095365D01*
X12164208Y-13114412D02*
X12049922Y-13114412D01*
X12107065Y-13114412D02*
X12107065Y-12914412D01*
X12107065Y-12914412D02*
X12088017Y-12942984D01*
X12088017Y-12942984D02*
X12068970Y-12962031D01*
X12068970Y-12962031D02*
X12049922Y-12971555D01*
X12345160Y-12914412D02*
X12249922Y-12914412D01*
X12249922Y-12914412D02*
X12240398Y-13009650D01*
X12240398Y-13009650D02*
X12249922Y-13000126D01*
X12249922Y-13000126D02*
X12268970Y-12990603D01*
X12268970Y-12990603D02*
X12316589Y-12990603D01*
X12316589Y-12990603D02*
X12335636Y-13000126D01*
X12335636Y-13000126D02*
X12345160Y-13009650D01*
X12345160Y-13009650D02*
X12354684Y-13028698D01*
X12354684Y-13028698D02*
X12354684Y-13076317D01*
X12354684Y-13076317D02*
X12345160Y-13095365D01*
X12345160Y-13095365D02*
X12335636Y-13104888D01*
X12335636Y-13104888D02*
X12316589Y-13114412D01*
X12316589Y-13114412D02*
X12268970Y-13114412D01*
X12268970Y-13114412D02*
X12249922Y-13104888D01*
X12249922Y-13104888D02*
X12240398Y-13095365D01*
X12430874Y-12914412D02*
X12430874Y-12952507D01*
X12507065Y-12914412D02*
X12507065Y-12952507D01*
X12802303Y-13190603D02*
X12792779Y-13181079D01*
X12792779Y-13181079D02*
X12773732Y-13152507D01*
X12773732Y-13152507D02*
X12764208Y-13133460D01*
X12764208Y-13133460D02*
X12754684Y-13104888D01*
X12754684Y-13104888D02*
X12745160Y-13057269D01*
X12745160Y-13057269D02*
X12745160Y-13019174D01*
X12745160Y-13019174D02*
X12754684Y-12971555D01*
X12754684Y-12971555D02*
X12764208Y-12942984D01*
X12764208Y-12942984D02*
X12773732Y-12923936D01*
X12773732Y-12923936D02*
X12792779Y-12895365D01*
X12792779Y-12895365D02*
X12802303Y-12885841D01*
X12868970Y-12933460D02*
X12878494Y-12923936D01*
X12878494Y-12923936D02*
X12897541Y-12914412D01*
X12897541Y-12914412D02*
X12945160Y-12914412D01*
X12945160Y-12914412D02*
X12964208Y-12923936D01*
X12964208Y-12923936D02*
X12973732Y-12933460D01*
X12973732Y-12933460D02*
X12983255Y-12952507D01*
X12983255Y-12952507D02*
X12983255Y-12971555D01*
X12983255Y-12971555D02*
X12973732Y-13000126D01*
X12973732Y-13000126D02*
X12859446Y-13114412D01*
X12859446Y-13114412D02*
X12983255Y-13114412D01*
X13221351Y-13114412D02*
X13221351Y-12914412D01*
X13307065Y-13114412D02*
X13307065Y-13009650D01*
X13307065Y-13009650D02*
X13297541Y-12990603D01*
X13297541Y-12990603D02*
X13278494Y-12981079D01*
X13278494Y-12981079D02*
X13249922Y-12981079D01*
X13249922Y-12981079D02*
X13230875Y-12990603D01*
X13230875Y-12990603D02*
X13221351Y-13000126D01*
X13430875Y-13114412D02*
X13411827Y-13104888D01*
X13411827Y-13104888D02*
X13402303Y-13095365D01*
X13402303Y-13095365D02*
X13392779Y-13076317D01*
X13392779Y-13076317D02*
X13392779Y-13019174D01*
X13392779Y-13019174D02*
X13402303Y-13000126D01*
X13402303Y-13000126D02*
X13411827Y-12990603D01*
X13411827Y-12990603D02*
X13430875Y-12981079D01*
X13430875Y-12981079D02*
X13459446Y-12981079D01*
X13459446Y-12981079D02*
X13478494Y-12990603D01*
X13478494Y-12990603D02*
X13488017Y-13000126D01*
X13488017Y-13000126D02*
X13497541Y-13019174D01*
X13497541Y-13019174D02*
X13497541Y-13076317D01*
X13497541Y-13076317D02*
X13488017Y-13095365D01*
X13488017Y-13095365D02*
X13478494Y-13104888D01*
X13478494Y-13104888D02*
X13459446Y-13114412D01*
X13459446Y-13114412D02*
X13430875Y-13114412D01*
X13611827Y-13114412D02*
X13592779Y-13104888D01*
X13592779Y-13104888D02*
X13583256Y-13085841D01*
X13583256Y-13085841D02*
X13583256Y-12914412D01*
X13764208Y-13104888D02*
X13745160Y-13114412D01*
X13745160Y-13114412D02*
X13707065Y-13114412D01*
X13707065Y-13114412D02*
X13688017Y-13104888D01*
X13688017Y-13104888D02*
X13678494Y-13085841D01*
X13678494Y-13085841D02*
X13678494Y-13009650D01*
X13678494Y-13009650D02*
X13688017Y-12990603D01*
X13688017Y-12990603D02*
X13707065Y-12981079D01*
X13707065Y-12981079D02*
X13745160Y-12981079D01*
X13745160Y-12981079D02*
X13764208Y-12990603D01*
X13764208Y-12990603D02*
X13773732Y-13009650D01*
X13773732Y-13009650D02*
X13773732Y-13028698D01*
X13773732Y-13028698D02*
X13678494Y-13047746D01*
X13849922Y-13104888D02*
X13868970Y-13114412D01*
X13868970Y-13114412D02*
X13907065Y-13114412D01*
X13907065Y-13114412D02*
X13926113Y-13104888D01*
X13926113Y-13104888D02*
X13935637Y-13085841D01*
X13935637Y-13085841D02*
X13935637Y-13076317D01*
X13935637Y-13076317D02*
X13926113Y-13057269D01*
X13926113Y-13057269D02*
X13907065Y-13047746D01*
X13907065Y-13047746D02*
X13878494Y-13047746D01*
X13878494Y-13047746D02*
X13859446Y-13038222D01*
X13859446Y-13038222D02*
X13849922Y-13019174D01*
X13849922Y-13019174D02*
X13849922Y-13009650D01*
X13849922Y-13009650D02*
X13859446Y-12990603D01*
X13859446Y-12990603D02*
X13878494Y-12981079D01*
X13878494Y-12981079D02*
X13907065Y-12981079D01*
X13907065Y-12981079D02*
X13926113Y-12990603D01*
X14002303Y-13190603D02*
X14011827Y-13181079D01*
X14011827Y-13181079D02*
X14030875Y-13152507D01*
X14030875Y-13152507D02*
X14040398Y-13133460D01*
X14040398Y-13133460D02*
X14049922Y-13104888D01*
X14049922Y-13104888D02*
X14059446Y-13057269D01*
X14059446Y-13057269D02*
X14059446Y-13019174D01*
X14059446Y-13019174D02*
X14049922Y-12971555D01*
X14049922Y-12971555D02*
X14040398Y-12942984D01*
X14040398Y-12942984D02*
X14030875Y-12923936D01*
X14030875Y-12923936D02*
X14011827Y-12895365D01*
X14011827Y-12895365D02*
X14002303Y-12885841D01*
D12*
X9212596Y-13322284D02*
X9212596Y-13251573D01*
X9141885Y-13251573D01*
X9141885Y-13322284D01*
X9212596Y-13322284D01*
D11*
X9592779Y-13378412D02*
X9478493Y-13378412D01*
X9535636Y-13378412D02*
X9535636Y-13178412D01*
X9535636Y-13178412D02*
X9516589Y-13206984D01*
X9516589Y-13206984D02*
X9497541Y-13226031D01*
X9497541Y-13226031D02*
X9478493Y-13235555D01*
X9678493Y-13359365D02*
X9688017Y-13368888D01*
X9688017Y-13368888D02*
X9678493Y-13378412D01*
X9678493Y-13378412D02*
X9668970Y-13368888D01*
X9668970Y-13368888D02*
X9678493Y-13359365D01*
X9678493Y-13359365D02*
X9678493Y-13378412D01*
X9811827Y-13178412D02*
X9830874Y-13178412D01*
X9830874Y-13178412D02*
X9849922Y-13187936D01*
X9849922Y-13187936D02*
X9859446Y-13197460D01*
X9859446Y-13197460D02*
X9868970Y-13216507D01*
X9868970Y-13216507D02*
X9878493Y-13254603D01*
X9878493Y-13254603D02*
X9878493Y-13302222D01*
X9878493Y-13302222D02*
X9868970Y-13340317D01*
X9868970Y-13340317D02*
X9859446Y-13359365D01*
X9859446Y-13359365D02*
X9849922Y-13368888D01*
X9849922Y-13368888D02*
X9830874Y-13378412D01*
X9830874Y-13378412D02*
X9811827Y-13378412D01*
X9811827Y-13378412D02*
X9792779Y-13368888D01*
X9792779Y-13368888D02*
X9783255Y-13359365D01*
X9783255Y-13359365D02*
X9773731Y-13340317D01*
X9773731Y-13340317D02*
X9764208Y-13302222D01*
X9764208Y-13302222D02*
X9764208Y-13254603D01*
X9764208Y-13254603D02*
X9773731Y-13216507D01*
X9773731Y-13216507D02*
X9783255Y-13197460D01*
X9783255Y-13197460D02*
X9792779Y-13187936D01*
X9792779Y-13187936D02*
X9811827Y-13178412D01*
X10002303Y-13178412D02*
X10021351Y-13178412D01*
X10021351Y-13178412D02*
X10040398Y-13187936D01*
X10040398Y-13187936D02*
X10049922Y-13197460D01*
X10049922Y-13197460D02*
X10059446Y-13216507D01*
X10059446Y-13216507D02*
X10068970Y-13254603D01*
X10068970Y-13254603D02*
X10068970Y-13302222D01*
X10068970Y-13302222D02*
X10059446Y-13340317D01*
X10059446Y-13340317D02*
X10049922Y-13359365D01*
X10049922Y-13359365D02*
X10040398Y-13368888D01*
X10040398Y-13368888D02*
X10021351Y-13378412D01*
X10021351Y-13378412D02*
X10002303Y-13378412D01*
X10002303Y-13378412D02*
X9983255Y-13368888D01*
X9983255Y-13368888D02*
X9973731Y-13359365D01*
X9973731Y-13359365D02*
X9964208Y-13340317D01*
X9964208Y-13340317D02*
X9954684Y-13302222D01*
X9954684Y-13302222D02*
X9954684Y-13254603D01*
X9954684Y-13254603D02*
X9964208Y-13216507D01*
X9964208Y-13216507D02*
X9973731Y-13197460D01*
X9973731Y-13197460D02*
X9983255Y-13187936D01*
X9983255Y-13187936D02*
X10002303Y-13178412D01*
X10192779Y-13178412D02*
X10211827Y-13178412D01*
X10211827Y-13178412D02*
X10230874Y-13187936D01*
X10230874Y-13187936D02*
X10240398Y-13197460D01*
X10240398Y-13197460D02*
X10249922Y-13216507D01*
X10249922Y-13216507D02*
X10259446Y-13254603D01*
X10259446Y-13254603D02*
X10259446Y-13302222D01*
X10259446Y-13302222D02*
X10249922Y-13340317D01*
X10249922Y-13340317D02*
X10240398Y-13359365D01*
X10240398Y-13359365D02*
X10230874Y-13368888D01*
X10230874Y-13368888D02*
X10211827Y-13378412D01*
X10211827Y-13378412D02*
X10192779Y-13378412D01*
X10192779Y-13378412D02*
X10173731Y-13368888D01*
X10173731Y-13368888D02*
X10164208Y-13359365D01*
X10164208Y-13359365D02*
X10154684Y-13340317D01*
X10154684Y-13340317D02*
X10145160Y-13302222D01*
X10145160Y-13302222D02*
X10145160Y-13254603D01*
X10145160Y-13254603D02*
X10154684Y-13216507D01*
X10154684Y-13216507D02*
X10164208Y-13197460D01*
X10164208Y-13197460D02*
X10173731Y-13187936D01*
X10173731Y-13187936D02*
X10192779Y-13178412D01*
X10345160Y-13378412D02*
X10345160Y-13245079D01*
X10345160Y-13264126D02*
X10354684Y-13254603D01*
X10354684Y-13254603D02*
X10373731Y-13245079D01*
X10373731Y-13245079D02*
X10402303Y-13245079D01*
X10402303Y-13245079D02*
X10421351Y-13254603D01*
X10421351Y-13254603D02*
X10430874Y-13273650D01*
X10430874Y-13273650D02*
X10430874Y-13378412D01*
X10430874Y-13273650D02*
X10440398Y-13254603D01*
X10440398Y-13254603D02*
X10459446Y-13245079D01*
X10459446Y-13245079D02*
X10488017Y-13245079D01*
X10488017Y-13245079D02*
X10507065Y-13254603D01*
X10507065Y-13254603D02*
X10516589Y-13273650D01*
X10516589Y-13273650D02*
X10516589Y-13378412D01*
X10611827Y-13378412D02*
X10611827Y-13245079D01*
X10611827Y-13264126D02*
X10621351Y-13254603D01*
X10621351Y-13254603D02*
X10640398Y-13245079D01*
X10640398Y-13245079D02*
X10668970Y-13245079D01*
X10668970Y-13245079D02*
X10688017Y-13254603D01*
X10688017Y-13254603D02*
X10697541Y-13273650D01*
X10697541Y-13273650D02*
X10697541Y-13378412D01*
X10697541Y-13273650D02*
X10707065Y-13254603D01*
X10707065Y-13254603D02*
X10726112Y-13245079D01*
X10726112Y-13245079D02*
X10754684Y-13245079D01*
X10754684Y-13245079D02*
X10773732Y-13254603D01*
X10773732Y-13254603D02*
X10783255Y-13273650D01*
X10783255Y-13273650D02*
X10783255Y-13378412D01*
X11173732Y-13168888D02*
X11002303Y-13426031D01*
X11430874Y-13178412D02*
X11449922Y-13178412D01*
X11449922Y-13178412D02*
X11468970Y-13187936D01*
X11468970Y-13187936D02*
X11478493Y-13197460D01*
X11478493Y-13197460D02*
X11488017Y-13216507D01*
X11488017Y-13216507D02*
X11497541Y-13254603D01*
X11497541Y-13254603D02*
X11497541Y-13302222D01*
X11497541Y-13302222D02*
X11488017Y-13340317D01*
X11488017Y-13340317D02*
X11478493Y-13359365D01*
X11478493Y-13359365D02*
X11468970Y-13368888D01*
X11468970Y-13368888D02*
X11449922Y-13378412D01*
X11449922Y-13378412D02*
X11430874Y-13378412D01*
X11430874Y-13378412D02*
X11411827Y-13368888D01*
X11411827Y-13368888D02*
X11402303Y-13359365D01*
X11402303Y-13359365D02*
X11392779Y-13340317D01*
X11392779Y-13340317D02*
X11383255Y-13302222D01*
X11383255Y-13302222D02*
X11383255Y-13254603D01*
X11383255Y-13254603D02*
X11392779Y-13216507D01*
X11392779Y-13216507D02*
X11402303Y-13197460D01*
X11402303Y-13197460D02*
X11411827Y-13187936D01*
X11411827Y-13187936D02*
X11430874Y-13178412D01*
X11583255Y-13359365D02*
X11592779Y-13368888D01*
X11592779Y-13368888D02*
X11583255Y-13378412D01*
X11583255Y-13378412D02*
X11573732Y-13368888D01*
X11573732Y-13368888D02*
X11583255Y-13359365D01*
X11583255Y-13359365D02*
X11583255Y-13378412D01*
X11716589Y-13178412D02*
X11735636Y-13178412D01*
X11735636Y-13178412D02*
X11754684Y-13187936D01*
X11754684Y-13187936D02*
X11764208Y-13197460D01*
X11764208Y-13197460D02*
X11773732Y-13216507D01*
X11773732Y-13216507D02*
X11783255Y-13254603D01*
X11783255Y-13254603D02*
X11783255Y-13302222D01*
X11783255Y-13302222D02*
X11773732Y-13340317D01*
X11773732Y-13340317D02*
X11764208Y-13359365D01*
X11764208Y-13359365D02*
X11754684Y-13368888D01*
X11754684Y-13368888D02*
X11735636Y-13378412D01*
X11735636Y-13378412D02*
X11716589Y-13378412D01*
X11716589Y-13378412D02*
X11697541Y-13368888D01*
X11697541Y-13368888D02*
X11688017Y-13359365D01*
X11688017Y-13359365D02*
X11678493Y-13340317D01*
X11678493Y-13340317D02*
X11668970Y-13302222D01*
X11668970Y-13302222D02*
X11668970Y-13254603D01*
X11668970Y-13254603D02*
X11678493Y-13216507D01*
X11678493Y-13216507D02*
X11688017Y-13197460D01*
X11688017Y-13197460D02*
X11697541Y-13187936D01*
X11697541Y-13187936D02*
X11716589Y-13178412D01*
X11849922Y-13178412D02*
X11973732Y-13178412D01*
X11973732Y-13178412D02*
X11907065Y-13254603D01*
X11907065Y-13254603D02*
X11935636Y-13254603D01*
X11935636Y-13254603D02*
X11954684Y-13264126D01*
X11954684Y-13264126D02*
X11964208Y-13273650D01*
X11964208Y-13273650D02*
X11973732Y-13292698D01*
X11973732Y-13292698D02*
X11973732Y-13340317D01*
X11973732Y-13340317D02*
X11964208Y-13359365D01*
X11964208Y-13359365D02*
X11954684Y-13368888D01*
X11954684Y-13368888D02*
X11935636Y-13378412D01*
X11935636Y-13378412D02*
X11878493Y-13378412D01*
X11878493Y-13378412D02*
X11859446Y-13368888D01*
X11859446Y-13368888D02*
X11849922Y-13359365D01*
X12068970Y-13378412D02*
X12107065Y-13378412D01*
X12107065Y-13378412D02*
X12126113Y-13368888D01*
X12126113Y-13368888D02*
X12135636Y-13359365D01*
X12135636Y-13359365D02*
X12154684Y-13330793D01*
X12154684Y-13330793D02*
X12164208Y-13292698D01*
X12164208Y-13292698D02*
X12164208Y-13216507D01*
X12164208Y-13216507D02*
X12154684Y-13197460D01*
X12154684Y-13197460D02*
X12145160Y-13187936D01*
X12145160Y-13187936D02*
X12126113Y-13178412D01*
X12126113Y-13178412D02*
X12088017Y-13178412D01*
X12088017Y-13178412D02*
X12068970Y-13187936D01*
X12068970Y-13187936D02*
X12059446Y-13197460D01*
X12059446Y-13197460D02*
X12049922Y-13216507D01*
X12049922Y-13216507D02*
X12049922Y-13264126D01*
X12049922Y-13264126D02*
X12059446Y-13283174D01*
X12059446Y-13283174D02*
X12068970Y-13292698D01*
X12068970Y-13292698D02*
X12088017Y-13302222D01*
X12088017Y-13302222D02*
X12126113Y-13302222D01*
X12126113Y-13302222D02*
X12145160Y-13292698D01*
X12145160Y-13292698D02*
X12154684Y-13283174D01*
X12154684Y-13283174D02*
X12164208Y-13264126D01*
X12335636Y-13245079D02*
X12335636Y-13378412D01*
X12288017Y-13168888D02*
X12240398Y-13311746D01*
X12240398Y-13311746D02*
X12364208Y-13311746D01*
X12430874Y-13178412D02*
X12430874Y-13216507D01*
X12507065Y-13178412D02*
X12507065Y-13216507D01*
X12802303Y-13454603D02*
X12792779Y-13445079D01*
X12792779Y-13445079D02*
X12773732Y-13416507D01*
X12773732Y-13416507D02*
X12764208Y-13397460D01*
X12764208Y-13397460D02*
X12754684Y-13368888D01*
X12754684Y-13368888D02*
X12745160Y-13321269D01*
X12745160Y-13321269D02*
X12745160Y-13283174D01*
X12745160Y-13283174D02*
X12754684Y-13235555D01*
X12754684Y-13235555D02*
X12764208Y-13206984D01*
X12764208Y-13206984D02*
X12773732Y-13187936D01*
X12773732Y-13187936D02*
X12792779Y-13159365D01*
X12792779Y-13159365D02*
X12802303Y-13149841D01*
X12859446Y-13178412D02*
X12983255Y-13178412D01*
X12983255Y-13178412D02*
X12916589Y-13254603D01*
X12916589Y-13254603D02*
X12945160Y-13254603D01*
X12945160Y-13254603D02*
X12964208Y-13264126D01*
X12964208Y-13264126D02*
X12973732Y-13273650D01*
X12973732Y-13273650D02*
X12983255Y-13292698D01*
X12983255Y-13292698D02*
X12983255Y-13340317D01*
X12983255Y-13340317D02*
X12973732Y-13359365D01*
X12973732Y-13359365D02*
X12964208Y-13368888D01*
X12964208Y-13368888D02*
X12945160Y-13378412D01*
X12945160Y-13378412D02*
X12888017Y-13378412D01*
X12888017Y-13378412D02*
X12868970Y-13368888D01*
X12868970Y-13368888D02*
X12859446Y-13359365D01*
X13154684Y-13245079D02*
X13154684Y-13378412D01*
X13107065Y-13168888D02*
X13059446Y-13311746D01*
X13059446Y-13311746D02*
X13183255Y-13311746D01*
X13411827Y-13378412D02*
X13411827Y-13178412D01*
X13497541Y-13378412D02*
X13497541Y-13273650D01*
X13497541Y-13273650D02*
X13488017Y-13254603D01*
X13488017Y-13254603D02*
X13468970Y-13245079D01*
X13468970Y-13245079D02*
X13440398Y-13245079D01*
X13440398Y-13245079D02*
X13421351Y-13254603D01*
X13421351Y-13254603D02*
X13411827Y-13264126D01*
X13621351Y-13378412D02*
X13602303Y-13368888D01*
X13602303Y-13368888D02*
X13592779Y-13359365D01*
X13592779Y-13359365D02*
X13583256Y-13340317D01*
X13583256Y-13340317D02*
X13583256Y-13283174D01*
X13583256Y-13283174D02*
X13592779Y-13264126D01*
X13592779Y-13264126D02*
X13602303Y-13254603D01*
X13602303Y-13254603D02*
X13621351Y-13245079D01*
X13621351Y-13245079D02*
X13649922Y-13245079D01*
X13649922Y-13245079D02*
X13668970Y-13254603D01*
X13668970Y-13254603D02*
X13678494Y-13264126D01*
X13678494Y-13264126D02*
X13688017Y-13283174D01*
X13688017Y-13283174D02*
X13688017Y-13340317D01*
X13688017Y-13340317D02*
X13678494Y-13359365D01*
X13678494Y-13359365D02*
X13668970Y-13368888D01*
X13668970Y-13368888D02*
X13649922Y-13378412D01*
X13649922Y-13378412D02*
X13621351Y-13378412D01*
X13802303Y-13378412D02*
X13783256Y-13368888D01*
X13783256Y-13368888D02*
X13773732Y-13349841D01*
X13773732Y-13349841D02*
X13773732Y-13178412D01*
X13954684Y-13368888D02*
X13935637Y-13378412D01*
X13935637Y-13378412D02*
X13897541Y-13378412D01*
X13897541Y-13378412D02*
X13878494Y-13368888D01*
X13878494Y-13368888D02*
X13868970Y-13349841D01*
X13868970Y-13349841D02*
X13868970Y-13273650D01*
X13868970Y-13273650D02*
X13878494Y-13254603D01*
X13878494Y-13254603D02*
X13897541Y-13245079D01*
X13897541Y-13245079D02*
X13935637Y-13245079D01*
X13935637Y-13245079D02*
X13954684Y-13254603D01*
X13954684Y-13254603D02*
X13964208Y-13273650D01*
X13964208Y-13273650D02*
X13964208Y-13292698D01*
X13964208Y-13292698D02*
X13868970Y-13311746D01*
X14040398Y-13368888D02*
X14059446Y-13378412D01*
X14059446Y-13378412D02*
X14097541Y-13378412D01*
X14097541Y-13378412D02*
X14116589Y-13368888D01*
X14116589Y-13368888D02*
X14126113Y-13349841D01*
X14126113Y-13349841D02*
X14126113Y-13340317D01*
X14126113Y-13340317D02*
X14116589Y-13321269D01*
X14116589Y-13321269D02*
X14097541Y-13311746D01*
X14097541Y-13311746D02*
X14068970Y-13311746D01*
X14068970Y-13311746D02*
X14049922Y-13302222D01*
X14049922Y-13302222D02*
X14040398Y-13283174D01*
X14040398Y-13283174D02*
X14040398Y-13273650D01*
X14040398Y-13273650D02*
X14049922Y-13254603D01*
X14049922Y-13254603D02*
X14068970Y-13245079D01*
X14068970Y-13245079D02*
X14097541Y-13245079D01*
X14097541Y-13245079D02*
X14116589Y-13254603D01*
X14192779Y-13454603D02*
X14202303Y-13445079D01*
X14202303Y-13445079D02*
X14221351Y-13416507D01*
X14221351Y-13416507D02*
X14230875Y-13397460D01*
X14230875Y-13397460D02*
X14240398Y-13368888D01*
X14240398Y-13368888D02*
X14249922Y-13321269D01*
X14249922Y-13321269D02*
X14249922Y-13283174D01*
X14249922Y-13283174D02*
X14240398Y-13235555D01*
X14240398Y-13235555D02*
X14230875Y-13206984D01*
X14230875Y-13206984D02*
X14221351Y-13187936D01*
X14221351Y-13187936D02*
X14202303Y-13159365D01*
X14202303Y-13159365D02*
X14192779Y-13149841D01*
D13*
X9176240Y-13601928D02*
X9227240Y-13550928D01*
X9176240Y-13499928D01*
X9125240Y-13550928D01*
X9176240Y-13601928D01*
D11*
X9592779Y-13642412D02*
X9478493Y-13642412D01*
X9535636Y-13642412D02*
X9535636Y-13442412D01*
X9535636Y-13442412D02*
X9516589Y-13470984D01*
X9516589Y-13470984D02*
X9497541Y-13490031D01*
X9497541Y-13490031D02*
X9478493Y-13499555D01*
X9678493Y-13623365D02*
X9688017Y-13632888D01*
X9688017Y-13632888D02*
X9678493Y-13642412D01*
X9678493Y-13642412D02*
X9668970Y-13632888D01*
X9668970Y-13632888D02*
X9678493Y-13623365D01*
X9678493Y-13623365D02*
X9678493Y-13642412D01*
X9811827Y-13442412D02*
X9830874Y-13442412D01*
X9830874Y-13442412D02*
X9849922Y-13451936D01*
X9849922Y-13451936D02*
X9859446Y-13461460D01*
X9859446Y-13461460D02*
X9868970Y-13480507D01*
X9868970Y-13480507D02*
X9878493Y-13518603D01*
X9878493Y-13518603D02*
X9878493Y-13566222D01*
X9878493Y-13566222D02*
X9868970Y-13604317D01*
X9868970Y-13604317D02*
X9859446Y-13623365D01*
X9859446Y-13623365D02*
X9849922Y-13632888D01*
X9849922Y-13632888D02*
X9830874Y-13642412D01*
X9830874Y-13642412D02*
X9811827Y-13642412D01*
X9811827Y-13642412D02*
X9792779Y-13632888D01*
X9792779Y-13632888D02*
X9783255Y-13623365D01*
X9783255Y-13623365D02*
X9773731Y-13604317D01*
X9773731Y-13604317D02*
X9764208Y-13566222D01*
X9764208Y-13566222D02*
X9764208Y-13518603D01*
X9764208Y-13518603D02*
X9773731Y-13480507D01*
X9773731Y-13480507D02*
X9783255Y-13461460D01*
X9783255Y-13461460D02*
X9792779Y-13451936D01*
X9792779Y-13451936D02*
X9811827Y-13442412D01*
X9954684Y-13461460D02*
X9964208Y-13451936D01*
X9964208Y-13451936D02*
X9983255Y-13442412D01*
X9983255Y-13442412D02*
X10030874Y-13442412D01*
X10030874Y-13442412D02*
X10049922Y-13451936D01*
X10049922Y-13451936D02*
X10059446Y-13461460D01*
X10059446Y-13461460D02*
X10068970Y-13480507D01*
X10068970Y-13480507D02*
X10068970Y-13499555D01*
X10068970Y-13499555D02*
X10059446Y-13528126D01*
X10059446Y-13528126D02*
X9945160Y-13642412D01*
X9945160Y-13642412D02*
X10068970Y-13642412D01*
X10192779Y-13442412D02*
X10211827Y-13442412D01*
X10211827Y-13442412D02*
X10230874Y-13451936D01*
X10230874Y-13451936D02*
X10240398Y-13461460D01*
X10240398Y-13461460D02*
X10249922Y-13480507D01*
X10249922Y-13480507D02*
X10259446Y-13518603D01*
X10259446Y-13518603D02*
X10259446Y-13566222D01*
X10259446Y-13566222D02*
X10249922Y-13604317D01*
X10249922Y-13604317D02*
X10240398Y-13623365D01*
X10240398Y-13623365D02*
X10230874Y-13632888D01*
X10230874Y-13632888D02*
X10211827Y-13642412D01*
X10211827Y-13642412D02*
X10192779Y-13642412D01*
X10192779Y-13642412D02*
X10173731Y-13632888D01*
X10173731Y-13632888D02*
X10164208Y-13623365D01*
X10164208Y-13623365D02*
X10154684Y-13604317D01*
X10154684Y-13604317D02*
X10145160Y-13566222D01*
X10145160Y-13566222D02*
X10145160Y-13518603D01*
X10145160Y-13518603D02*
X10154684Y-13480507D01*
X10154684Y-13480507D02*
X10164208Y-13461460D01*
X10164208Y-13461460D02*
X10173731Y-13451936D01*
X10173731Y-13451936D02*
X10192779Y-13442412D01*
X10345160Y-13642412D02*
X10345160Y-13509079D01*
X10345160Y-13528126D02*
X10354684Y-13518603D01*
X10354684Y-13518603D02*
X10373731Y-13509079D01*
X10373731Y-13509079D02*
X10402303Y-13509079D01*
X10402303Y-13509079D02*
X10421351Y-13518603D01*
X10421351Y-13518603D02*
X10430874Y-13537650D01*
X10430874Y-13537650D02*
X10430874Y-13642412D01*
X10430874Y-13537650D02*
X10440398Y-13518603D01*
X10440398Y-13518603D02*
X10459446Y-13509079D01*
X10459446Y-13509079D02*
X10488017Y-13509079D01*
X10488017Y-13509079D02*
X10507065Y-13518603D01*
X10507065Y-13518603D02*
X10516589Y-13537650D01*
X10516589Y-13537650D02*
X10516589Y-13642412D01*
X10611827Y-13642412D02*
X10611827Y-13509079D01*
X10611827Y-13528126D02*
X10621351Y-13518603D01*
X10621351Y-13518603D02*
X10640398Y-13509079D01*
X10640398Y-13509079D02*
X10668970Y-13509079D01*
X10668970Y-13509079D02*
X10688017Y-13518603D01*
X10688017Y-13518603D02*
X10697541Y-13537650D01*
X10697541Y-13537650D02*
X10697541Y-13642412D01*
X10697541Y-13537650D02*
X10707065Y-13518603D01*
X10707065Y-13518603D02*
X10726112Y-13509079D01*
X10726112Y-13509079D02*
X10754684Y-13509079D01*
X10754684Y-13509079D02*
X10773732Y-13518603D01*
X10773732Y-13518603D02*
X10783255Y-13537650D01*
X10783255Y-13537650D02*
X10783255Y-13642412D01*
X11173732Y-13432888D02*
X11002303Y-13690031D01*
X11430874Y-13442412D02*
X11449922Y-13442412D01*
X11449922Y-13442412D02*
X11468970Y-13451936D01*
X11468970Y-13451936D02*
X11478493Y-13461460D01*
X11478493Y-13461460D02*
X11488017Y-13480507D01*
X11488017Y-13480507D02*
X11497541Y-13518603D01*
X11497541Y-13518603D02*
X11497541Y-13566222D01*
X11497541Y-13566222D02*
X11488017Y-13604317D01*
X11488017Y-13604317D02*
X11478493Y-13623365D01*
X11478493Y-13623365D02*
X11468970Y-13632888D01*
X11468970Y-13632888D02*
X11449922Y-13642412D01*
X11449922Y-13642412D02*
X11430874Y-13642412D01*
X11430874Y-13642412D02*
X11411827Y-13632888D01*
X11411827Y-13632888D02*
X11402303Y-13623365D01*
X11402303Y-13623365D02*
X11392779Y-13604317D01*
X11392779Y-13604317D02*
X11383255Y-13566222D01*
X11383255Y-13566222D02*
X11383255Y-13518603D01*
X11383255Y-13518603D02*
X11392779Y-13480507D01*
X11392779Y-13480507D02*
X11402303Y-13461460D01*
X11402303Y-13461460D02*
X11411827Y-13451936D01*
X11411827Y-13451936D02*
X11430874Y-13442412D01*
X11583255Y-13623365D02*
X11592779Y-13632888D01*
X11592779Y-13632888D02*
X11583255Y-13642412D01*
X11583255Y-13642412D02*
X11573732Y-13632888D01*
X11573732Y-13632888D02*
X11583255Y-13623365D01*
X11583255Y-13623365D02*
X11583255Y-13642412D01*
X11716589Y-13442412D02*
X11735636Y-13442412D01*
X11735636Y-13442412D02*
X11754684Y-13451936D01*
X11754684Y-13451936D02*
X11764208Y-13461460D01*
X11764208Y-13461460D02*
X11773732Y-13480507D01*
X11773732Y-13480507D02*
X11783255Y-13518603D01*
X11783255Y-13518603D02*
X11783255Y-13566222D01*
X11783255Y-13566222D02*
X11773732Y-13604317D01*
X11773732Y-13604317D02*
X11764208Y-13623365D01*
X11764208Y-13623365D02*
X11754684Y-13632888D01*
X11754684Y-13632888D02*
X11735636Y-13642412D01*
X11735636Y-13642412D02*
X11716589Y-13642412D01*
X11716589Y-13642412D02*
X11697541Y-13632888D01*
X11697541Y-13632888D02*
X11688017Y-13623365D01*
X11688017Y-13623365D02*
X11678493Y-13604317D01*
X11678493Y-13604317D02*
X11668970Y-13566222D01*
X11668970Y-13566222D02*
X11668970Y-13518603D01*
X11668970Y-13518603D02*
X11678493Y-13480507D01*
X11678493Y-13480507D02*
X11688017Y-13461460D01*
X11688017Y-13461460D02*
X11697541Y-13451936D01*
X11697541Y-13451936D02*
X11716589Y-13442412D01*
X11954684Y-13509079D02*
X11954684Y-13642412D01*
X11907065Y-13432888D02*
X11859446Y-13575746D01*
X11859446Y-13575746D02*
X11983255Y-13575746D01*
X12097541Y-13442412D02*
X12116589Y-13442412D01*
X12116589Y-13442412D02*
X12135636Y-13451936D01*
X12135636Y-13451936D02*
X12145160Y-13461460D01*
X12145160Y-13461460D02*
X12154684Y-13480507D01*
X12154684Y-13480507D02*
X12164208Y-13518603D01*
X12164208Y-13518603D02*
X12164208Y-13566222D01*
X12164208Y-13566222D02*
X12154684Y-13604317D01*
X12154684Y-13604317D02*
X12145160Y-13623365D01*
X12145160Y-13623365D02*
X12135636Y-13632888D01*
X12135636Y-13632888D02*
X12116589Y-13642412D01*
X12116589Y-13642412D02*
X12097541Y-13642412D01*
X12097541Y-13642412D02*
X12078493Y-13632888D01*
X12078493Y-13632888D02*
X12068970Y-13623365D01*
X12068970Y-13623365D02*
X12059446Y-13604317D01*
X12059446Y-13604317D02*
X12049922Y-13566222D01*
X12049922Y-13566222D02*
X12049922Y-13518603D01*
X12049922Y-13518603D02*
X12059446Y-13480507D01*
X12059446Y-13480507D02*
X12068970Y-13461460D01*
X12068970Y-13461460D02*
X12078493Y-13451936D01*
X12078493Y-13451936D02*
X12097541Y-13442412D01*
X12240398Y-13461460D02*
X12249922Y-13451936D01*
X12249922Y-13451936D02*
X12268970Y-13442412D01*
X12268970Y-13442412D02*
X12316589Y-13442412D01*
X12316589Y-13442412D02*
X12335636Y-13451936D01*
X12335636Y-13451936D02*
X12345160Y-13461460D01*
X12345160Y-13461460D02*
X12354684Y-13480507D01*
X12354684Y-13480507D02*
X12354684Y-13499555D01*
X12354684Y-13499555D02*
X12345160Y-13528126D01*
X12345160Y-13528126D02*
X12230874Y-13642412D01*
X12230874Y-13642412D02*
X12354684Y-13642412D01*
X12430874Y-13442412D02*
X12430874Y-13480507D01*
X12507065Y-13442412D02*
X12507065Y-13480507D01*
X12802303Y-13718603D02*
X12792779Y-13709079D01*
X12792779Y-13709079D02*
X12773732Y-13680507D01*
X12773732Y-13680507D02*
X12764208Y-13661460D01*
X12764208Y-13661460D02*
X12754684Y-13632888D01*
X12754684Y-13632888D02*
X12745160Y-13585269D01*
X12745160Y-13585269D02*
X12745160Y-13547174D01*
X12745160Y-13547174D02*
X12754684Y-13499555D01*
X12754684Y-13499555D02*
X12764208Y-13470984D01*
X12764208Y-13470984D02*
X12773732Y-13451936D01*
X12773732Y-13451936D02*
X12792779Y-13423365D01*
X12792779Y-13423365D02*
X12802303Y-13413841D01*
X12964208Y-13509079D02*
X12964208Y-13642412D01*
X12916589Y-13432888D02*
X12868970Y-13575746D01*
X12868970Y-13575746D02*
X12992779Y-13575746D01*
X13221351Y-13642412D02*
X13221351Y-13442412D01*
X13307065Y-13642412D02*
X13307065Y-13537650D01*
X13307065Y-13537650D02*
X13297541Y-13518603D01*
X13297541Y-13518603D02*
X13278494Y-13509079D01*
X13278494Y-13509079D02*
X13249922Y-13509079D01*
X13249922Y-13509079D02*
X13230875Y-13518603D01*
X13230875Y-13518603D02*
X13221351Y-13528126D01*
X13430875Y-13642412D02*
X13411827Y-13632888D01*
X13411827Y-13632888D02*
X13402303Y-13623365D01*
X13402303Y-13623365D02*
X13392779Y-13604317D01*
X13392779Y-13604317D02*
X13392779Y-13547174D01*
X13392779Y-13547174D02*
X13402303Y-13528126D01*
X13402303Y-13528126D02*
X13411827Y-13518603D01*
X13411827Y-13518603D02*
X13430875Y-13509079D01*
X13430875Y-13509079D02*
X13459446Y-13509079D01*
X13459446Y-13509079D02*
X13478494Y-13518603D01*
X13478494Y-13518603D02*
X13488017Y-13528126D01*
X13488017Y-13528126D02*
X13497541Y-13547174D01*
X13497541Y-13547174D02*
X13497541Y-13604317D01*
X13497541Y-13604317D02*
X13488017Y-13623365D01*
X13488017Y-13623365D02*
X13478494Y-13632888D01*
X13478494Y-13632888D02*
X13459446Y-13642412D01*
X13459446Y-13642412D02*
X13430875Y-13642412D01*
X13611827Y-13642412D02*
X13592779Y-13632888D01*
X13592779Y-13632888D02*
X13583256Y-13613841D01*
X13583256Y-13613841D02*
X13583256Y-13442412D01*
X13764208Y-13632888D02*
X13745160Y-13642412D01*
X13745160Y-13642412D02*
X13707065Y-13642412D01*
X13707065Y-13642412D02*
X13688017Y-13632888D01*
X13688017Y-13632888D02*
X13678494Y-13613841D01*
X13678494Y-13613841D02*
X13678494Y-13537650D01*
X13678494Y-13537650D02*
X13688017Y-13518603D01*
X13688017Y-13518603D02*
X13707065Y-13509079D01*
X13707065Y-13509079D02*
X13745160Y-13509079D01*
X13745160Y-13509079D02*
X13764208Y-13518603D01*
X13764208Y-13518603D02*
X13773732Y-13537650D01*
X13773732Y-13537650D02*
X13773732Y-13556698D01*
X13773732Y-13556698D02*
X13678494Y-13575746D01*
X13849922Y-13632888D02*
X13868970Y-13642412D01*
X13868970Y-13642412D02*
X13907065Y-13642412D01*
X13907065Y-13642412D02*
X13926113Y-13632888D01*
X13926113Y-13632888D02*
X13935637Y-13613841D01*
X13935637Y-13613841D02*
X13935637Y-13604317D01*
X13935637Y-13604317D02*
X13926113Y-13585269D01*
X13926113Y-13585269D02*
X13907065Y-13575746D01*
X13907065Y-13575746D02*
X13878494Y-13575746D01*
X13878494Y-13575746D02*
X13859446Y-13566222D01*
X13859446Y-13566222D02*
X13849922Y-13547174D01*
X13849922Y-13547174D02*
X13849922Y-13537650D01*
X13849922Y-13537650D02*
X13859446Y-13518603D01*
X13859446Y-13518603D02*
X13878494Y-13509079D01*
X13878494Y-13509079D02*
X13907065Y-13509079D01*
X13907065Y-13509079D02*
X13926113Y-13518603D01*
X14002303Y-13718603D02*
X14011827Y-13709079D01*
X14011827Y-13709079D02*
X14030875Y-13680507D01*
X14030875Y-13680507D02*
X14040398Y-13661460D01*
X14040398Y-13661460D02*
X14049922Y-13632888D01*
X14049922Y-13632888D02*
X14059446Y-13585269D01*
X14059446Y-13585269D02*
X14059446Y-13547174D01*
X14059446Y-13547174D02*
X14049922Y-13499555D01*
X14049922Y-13499555D02*
X14040398Y-13470984D01*
X14040398Y-13470984D02*
X14030875Y-13451936D01*
X14030875Y-13451936D02*
X14011827Y-13423365D01*
X14011827Y-13423365D02*
X14002303Y-13413841D01*
M02*
