%TF.GenerationSoftware,KiCad,Pcbnew,9.0.3*%
%TF.CreationDate,2026-03-29T23:00:52+07:00*%
%TF.ProjectId,THIET_BI_DO_THAN_NHIET_VA_NHIP_TIM,54484945-545f-4424-995f-444f5f544841,rev?*%
%TF.SameCoordinates,Original*%
%TF.FileFunction,Drillmap*%
%TF.FilePolarity,Positive*%
%FSLAX45Y45*%
G04 Gerber Fmt 4.5, Leading zero omitted, Abs format (unit mm)*
G04 Created by KiCad (PCBNEW 9.0.3) date 2026-03-29 23:00:52*
%MOMM*%
%LPD*%
G01*
G04 APERTURE LIST*
%ADD10C,0.050000*%
%ADD11C,0.200000*%
%ADD12C,0.320000*%
G04 APERTURE END LIST*
D10*
X20117867Y-11852428D02*
X9229740Y-11829185D01*
X9241566Y-8390017D01*
X14066000Y-8380500D01*
X14063880Y-8701627D01*
X15910040Y-8695782D01*
X15910040Y-8364782D01*
X20125768Y-8364782D01*
X20117867Y-11852428D01*
D11*
D12*
X9350000Y-8521500D02*
X9670000Y-8841500D01*
X9670000Y-8521500D02*
X9350000Y-8841500D01*
X9350000Y-11415500D02*
X9670000Y-11735500D01*
X9670000Y-11415500D02*
X9350000Y-11735500D01*
X19650000Y-8496500D02*
X19970000Y-8816500D01*
X19970000Y-8496500D02*
X19650000Y-8816500D01*
X19657000Y-11402500D02*
X19977000Y-11722500D01*
X19977000Y-11402500D02*
X19657000Y-11722500D01*
D11*
X9488017Y-12166412D02*
X9488017Y-11966412D01*
X9488017Y-11966412D02*
X9535636Y-11966412D01*
X9535636Y-11966412D02*
X9564208Y-11975936D01*
X9564208Y-11975936D02*
X9583255Y-11994984D01*
X9583255Y-11994984D02*
X9592779Y-12014031D01*
X9592779Y-12014031D02*
X9602303Y-12052126D01*
X9602303Y-12052126D02*
X9602303Y-12080698D01*
X9602303Y-12080698D02*
X9592779Y-12118793D01*
X9592779Y-12118793D02*
X9583255Y-12137841D01*
X9583255Y-12137841D02*
X9564208Y-12156888D01*
X9564208Y-12156888D02*
X9535636Y-12166412D01*
X9535636Y-12166412D02*
X9488017Y-12166412D01*
X9688017Y-12166412D02*
X9688017Y-12033079D01*
X9688017Y-12071174D02*
X9697541Y-12052126D01*
X9697541Y-12052126D02*
X9707065Y-12042603D01*
X9707065Y-12042603D02*
X9726112Y-12033079D01*
X9726112Y-12033079D02*
X9745160Y-12033079D01*
X9811827Y-12166412D02*
X9811827Y-12033079D01*
X9811827Y-11966412D02*
X9802303Y-11975936D01*
X9802303Y-11975936D02*
X9811827Y-11985460D01*
X9811827Y-11985460D02*
X9821350Y-11975936D01*
X9821350Y-11975936D02*
X9811827Y-11966412D01*
X9811827Y-11966412D02*
X9811827Y-11985460D01*
X9935636Y-12166412D02*
X9916589Y-12156888D01*
X9916589Y-12156888D02*
X9907065Y-12137841D01*
X9907065Y-12137841D02*
X9907065Y-11966412D01*
X10040398Y-12166412D02*
X10021350Y-12156888D01*
X10021350Y-12156888D02*
X10011827Y-12137841D01*
X10011827Y-12137841D02*
X10011827Y-11966412D01*
X10268970Y-12166412D02*
X10268970Y-11966412D01*
X10268970Y-11966412D02*
X10335636Y-12109269D01*
X10335636Y-12109269D02*
X10402303Y-11966412D01*
X10402303Y-11966412D02*
X10402303Y-12166412D01*
X10583255Y-12166412D02*
X10583255Y-12061650D01*
X10583255Y-12061650D02*
X10573731Y-12042603D01*
X10573731Y-12042603D02*
X10554684Y-12033079D01*
X10554684Y-12033079D02*
X10516589Y-12033079D01*
X10516589Y-12033079D02*
X10497541Y-12042603D01*
X10583255Y-12156888D02*
X10564208Y-12166412D01*
X10564208Y-12166412D02*
X10516589Y-12166412D01*
X10516589Y-12166412D02*
X10497541Y-12156888D01*
X10497541Y-12156888D02*
X10488017Y-12137841D01*
X10488017Y-12137841D02*
X10488017Y-12118793D01*
X10488017Y-12118793D02*
X10497541Y-12099746D01*
X10497541Y-12099746D02*
X10516589Y-12090222D01*
X10516589Y-12090222D02*
X10564208Y-12090222D01*
X10564208Y-12090222D02*
X10583255Y-12080698D01*
X10678493Y-12033079D02*
X10678493Y-12233079D01*
X10678493Y-12042603D02*
X10697541Y-12033079D01*
X10697541Y-12033079D02*
X10735636Y-12033079D01*
X10735636Y-12033079D02*
X10754684Y-12042603D01*
X10754684Y-12042603D02*
X10764208Y-12052126D01*
X10764208Y-12052126D02*
X10773731Y-12071174D01*
X10773731Y-12071174D02*
X10773731Y-12128317D01*
X10773731Y-12128317D02*
X10764208Y-12147365D01*
X10764208Y-12147365D02*
X10754684Y-12156888D01*
X10754684Y-12156888D02*
X10735636Y-12166412D01*
X10735636Y-12166412D02*
X10697541Y-12166412D01*
X10697541Y-12166412D02*
X10678493Y-12156888D01*
X10859446Y-12147365D02*
X10868970Y-12156888D01*
X10868970Y-12156888D02*
X10859446Y-12166412D01*
X10859446Y-12166412D02*
X10849922Y-12156888D01*
X10849922Y-12156888D02*
X10859446Y-12147365D01*
X10859446Y-12147365D02*
X10859446Y-12166412D01*
X10859446Y-12042603D02*
X10868970Y-12052126D01*
X10868970Y-12052126D02*
X10859446Y-12061650D01*
X10859446Y-12061650D02*
X10849922Y-12052126D01*
X10849922Y-12052126D02*
X10859446Y-12042603D01*
X10859446Y-12042603D02*
X10859446Y-12061650D01*
X9027240Y-12394928D02*
X9227240Y-12594928D01*
X9227240Y-12394928D02*
X9027240Y-12594928D01*
X9468970Y-12386412D02*
X9592779Y-12386412D01*
X9592779Y-12386412D02*
X9526112Y-12462603D01*
X9526112Y-12462603D02*
X9554684Y-12462603D01*
X9554684Y-12462603D02*
X9573731Y-12472126D01*
X9573731Y-12472126D02*
X9583255Y-12481650D01*
X9583255Y-12481650D02*
X9592779Y-12500698D01*
X9592779Y-12500698D02*
X9592779Y-12548317D01*
X9592779Y-12548317D02*
X9583255Y-12567365D01*
X9583255Y-12567365D02*
X9573731Y-12576888D01*
X9573731Y-12576888D02*
X9554684Y-12586412D01*
X9554684Y-12586412D02*
X9497541Y-12586412D01*
X9497541Y-12586412D02*
X9478493Y-12576888D01*
X9478493Y-12576888D02*
X9468970Y-12567365D01*
X9678493Y-12567365D02*
X9688017Y-12576888D01*
X9688017Y-12576888D02*
X9678493Y-12586412D01*
X9678493Y-12586412D02*
X9668970Y-12576888D01*
X9668970Y-12576888D02*
X9678493Y-12567365D01*
X9678493Y-12567365D02*
X9678493Y-12586412D01*
X9764208Y-12405460D02*
X9773731Y-12395936D01*
X9773731Y-12395936D02*
X9792779Y-12386412D01*
X9792779Y-12386412D02*
X9840398Y-12386412D01*
X9840398Y-12386412D02*
X9859446Y-12395936D01*
X9859446Y-12395936D02*
X9868970Y-12405460D01*
X9868970Y-12405460D02*
X9878493Y-12424507D01*
X9878493Y-12424507D02*
X9878493Y-12443555D01*
X9878493Y-12443555D02*
X9868970Y-12472126D01*
X9868970Y-12472126D02*
X9754684Y-12586412D01*
X9754684Y-12586412D02*
X9878493Y-12586412D01*
X10002303Y-12386412D02*
X10021351Y-12386412D01*
X10021351Y-12386412D02*
X10040398Y-12395936D01*
X10040398Y-12395936D02*
X10049922Y-12405460D01*
X10049922Y-12405460D02*
X10059446Y-12424507D01*
X10059446Y-12424507D02*
X10068970Y-12462603D01*
X10068970Y-12462603D02*
X10068970Y-12510222D01*
X10068970Y-12510222D02*
X10059446Y-12548317D01*
X10059446Y-12548317D02*
X10049922Y-12567365D01*
X10049922Y-12567365D02*
X10040398Y-12576888D01*
X10040398Y-12576888D02*
X10021351Y-12586412D01*
X10021351Y-12586412D02*
X10002303Y-12586412D01*
X10002303Y-12586412D02*
X9983255Y-12576888D01*
X9983255Y-12576888D02*
X9973731Y-12567365D01*
X9973731Y-12567365D02*
X9964208Y-12548317D01*
X9964208Y-12548317D02*
X9954684Y-12510222D01*
X9954684Y-12510222D02*
X9954684Y-12462603D01*
X9954684Y-12462603D02*
X9964208Y-12424507D01*
X9964208Y-12424507D02*
X9973731Y-12405460D01*
X9973731Y-12405460D02*
X9983255Y-12395936D01*
X9983255Y-12395936D02*
X10002303Y-12386412D01*
X10192779Y-12386412D02*
X10211827Y-12386412D01*
X10211827Y-12386412D02*
X10230874Y-12395936D01*
X10230874Y-12395936D02*
X10240398Y-12405460D01*
X10240398Y-12405460D02*
X10249922Y-12424507D01*
X10249922Y-12424507D02*
X10259446Y-12462603D01*
X10259446Y-12462603D02*
X10259446Y-12510222D01*
X10259446Y-12510222D02*
X10249922Y-12548317D01*
X10249922Y-12548317D02*
X10240398Y-12567365D01*
X10240398Y-12567365D02*
X10230874Y-12576888D01*
X10230874Y-12576888D02*
X10211827Y-12586412D01*
X10211827Y-12586412D02*
X10192779Y-12586412D01*
X10192779Y-12586412D02*
X10173731Y-12576888D01*
X10173731Y-12576888D02*
X10164208Y-12567365D01*
X10164208Y-12567365D02*
X10154684Y-12548317D01*
X10154684Y-12548317D02*
X10145160Y-12510222D01*
X10145160Y-12510222D02*
X10145160Y-12462603D01*
X10145160Y-12462603D02*
X10154684Y-12424507D01*
X10154684Y-12424507D02*
X10164208Y-12405460D01*
X10164208Y-12405460D02*
X10173731Y-12395936D01*
X10173731Y-12395936D02*
X10192779Y-12386412D01*
X10345160Y-12586412D02*
X10345160Y-12453079D01*
X10345160Y-12472126D02*
X10354684Y-12462603D01*
X10354684Y-12462603D02*
X10373731Y-12453079D01*
X10373731Y-12453079D02*
X10402303Y-12453079D01*
X10402303Y-12453079D02*
X10421351Y-12462603D01*
X10421351Y-12462603D02*
X10430874Y-12481650D01*
X10430874Y-12481650D02*
X10430874Y-12586412D01*
X10430874Y-12481650D02*
X10440398Y-12462603D01*
X10440398Y-12462603D02*
X10459446Y-12453079D01*
X10459446Y-12453079D02*
X10488017Y-12453079D01*
X10488017Y-12453079D02*
X10507065Y-12462603D01*
X10507065Y-12462603D02*
X10516589Y-12481650D01*
X10516589Y-12481650D02*
X10516589Y-12586412D01*
X10611827Y-12586412D02*
X10611827Y-12453079D01*
X10611827Y-12472126D02*
X10621351Y-12462603D01*
X10621351Y-12462603D02*
X10640398Y-12453079D01*
X10640398Y-12453079D02*
X10668970Y-12453079D01*
X10668970Y-12453079D02*
X10688017Y-12462603D01*
X10688017Y-12462603D02*
X10697541Y-12481650D01*
X10697541Y-12481650D02*
X10697541Y-12586412D01*
X10697541Y-12481650D02*
X10707065Y-12462603D01*
X10707065Y-12462603D02*
X10726112Y-12453079D01*
X10726112Y-12453079D02*
X10754684Y-12453079D01*
X10754684Y-12453079D02*
X10773732Y-12462603D01*
X10773732Y-12462603D02*
X10783255Y-12481650D01*
X10783255Y-12481650D02*
X10783255Y-12586412D01*
X11173732Y-12376888D02*
X11002303Y-12634031D01*
X11430874Y-12386412D02*
X11449922Y-12386412D01*
X11449922Y-12386412D02*
X11468970Y-12395936D01*
X11468970Y-12395936D02*
X11478493Y-12405460D01*
X11478493Y-12405460D02*
X11488017Y-12424507D01*
X11488017Y-12424507D02*
X11497541Y-12462603D01*
X11497541Y-12462603D02*
X11497541Y-12510222D01*
X11497541Y-12510222D02*
X11488017Y-12548317D01*
X11488017Y-12548317D02*
X11478493Y-12567365D01*
X11478493Y-12567365D02*
X11468970Y-12576888D01*
X11468970Y-12576888D02*
X11449922Y-12586412D01*
X11449922Y-12586412D02*
X11430874Y-12586412D01*
X11430874Y-12586412D02*
X11411827Y-12576888D01*
X11411827Y-12576888D02*
X11402303Y-12567365D01*
X11402303Y-12567365D02*
X11392779Y-12548317D01*
X11392779Y-12548317D02*
X11383255Y-12510222D01*
X11383255Y-12510222D02*
X11383255Y-12462603D01*
X11383255Y-12462603D02*
X11392779Y-12424507D01*
X11392779Y-12424507D02*
X11402303Y-12405460D01*
X11402303Y-12405460D02*
X11411827Y-12395936D01*
X11411827Y-12395936D02*
X11430874Y-12386412D01*
X11583255Y-12567365D02*
X11592779Y-12576888D01*
X11592779Y-12576888D02*
X11583255Y-12586412D01*
X11583255Y-12586412D02*
X11573732Y-12576888D01*
X11573732Y-12576888D02*
X11583255Y-12567365D01*
X11583255Y-12567365D02*
X11583255Y-12586412D01*
X11783255Y-12586412D02*
X11668970Y-12586412D01*
X11726112Y-12586412D02*
X11726112Y-12386412D01*
X11726112Y-12386412D02*
X11707065Y-12414984D01*
X11707065Y-12414984D02*
X11688017Y-12434031D01*
X11688017Y-12434031D02*
X11668970Y-12443555D01*
X11859446Y-12405460D02*
X11868970Y-12395936D01*
X11868970Y-12395936D02*
X11888017Y-12386412D01*
X11888017Y-12386412D02*
X11935636Y-12386412D01*
X11935636Y-12386412D02*
X11954684Y-12395936D01*
X11954684Y-12395936D02*
X11964208Y-12405460D01*
X11964208Y-12405460D02*
X11973732Y-12424507D01*
X11973732Y-12424507D02*
X11973732Y-12443555D01*
X11973732Y-12443555D02*
X11964208Y-12472126D01*
X11964208Y-12472126D02*
X11849922Y-12586412D01*
X11849922Y-12586412D02*
X11973732Y-12586412D01*
X12145160Y-12386412D02*
X12107065Y-12386412D01*
X12107065Y-12386412D02*
X12088017Y-12395936D01*
X12088017Y-12395936D02*
X12078493Y-12405460D01*
X12078493Y-12405460D02*
X12059446Y-12434031D01*
X12059446Y-12434031D02*
X12049922Y-12472126D01*
X12049922Y-12472126D02*
X12049922Y-12548317D01*
X12049922Y-12548317D02*
X12059446Y-12567365D01*
X12059446Y-12567365D02*
X12068970Y-12576888D01*
X12068970Y-12576888D02*
X12088017Y-12586412D01*
X12088017Y-12586412D02*
X12126113Y-12586412D01*
X12126113Y-12586412D02*
X12145160Y-12576888D01*
X12145160Y-12576888D02*
X12154684Y-12567365D01*
X12154684Y-12567365D02*
X12164208Y-12548317D01*
X12164208Y-12548317D02*
X12164208Y-12500698D01*
X12164208Y-12500698D02*
X12154684Y-12481650D01*
X12154684Y-12481650D02*
X12145160Y-12472126D01*
X12145160Y-12472126D02*
X12126113Y-12462603D01*
X12126113Y-12462603D02*
X12088017Y-12462603D01*
X12088017Y-12462603D02*
X12068970Y-12472126D01*
X12068970Y-12472126D02*
X12059446Y-12481650D01*
X12059446Y-12481650D02*
X12049922Y-12500698D01*
X12288017Y-12386412D02*
X12307065Y-12386412D01*
X12307065Y-12386412D02*
X12326113Y-12395936D01*
X12326113Y-12395936D02*
X12335636Y-12405460D01*
X12335636Y-12405460D02*
X12345160Y-12424507D01*
X12345160Y-12424507D02*
X12354684Y-12462603D01*
X12354684Y-12462603D02*
X12354684Y-12510222D01*
X12354684Y-12510222D02*
X12345160Y-12548317D01*
X12345160Y-12548317D02*
X12335636Y-12567365D01*
X12335636Y-12567365D02*
X12326113Y-12576888D01*
X12326113Y-12576888D02*
X12307065Y-12586412D01*
X12307065Y-12586412D02*
X12288017Y-12586412D01*
X12288017Y-12586412D02*
X12268970Y-12576888D01*
X12268970Y-12576888D02*
X12259446Y-12567365D01*
X12259446Y-12567365D02*
X12249922Y-12548317D01*
X12249922Y-12548317D02*
X12240398Y-12510222D01*
X12240398Y-12510222D02*
X12240398Y-12462603D01*
X12240398Y-12462603D02*
X12249922Y-12424507D01*
X12249922Y-12424507D02*
X12259446Y-12405460D01*
X12259446Y-12405460D02*
X12268970Y-12395936D01*
X12268970Y-12395936D02*
X12288017Y-12386412D01*
X12430874Y-12386412D02*
X12430874Y-12424507D01*
X12507065Y-12386412D02*
X12507065Y-12424507D01*
X12802303Y-12662603D02*
X12792779Y-12653079D01*
X12792779Y-12653079D02*
X12773732Y-12624507D01*
X12773732Y-12624507D02*
X12764208Y-12605460D01*
X12764208Y-12605460D02*
X12754684Y-12576888D01*
X12754684Y-12576888D02*
X12745160Y-12529269D01*
X12745160Y-12529269D02*
X12745160Y-12491174D01*
X12745160Y-12491174D02*
X12754684Y-12443555D01*
X12754684Y-12443555D02*
X12764208Y-12414984D01*
X12764208Y-12414984D02*
X12773732Y-12395936D01*
X12773732Y-12395936D02*
X12792779Y-12367365D01*
X12792779Y-12367365D02*
X12802303Y-12357841D01*
X12964208Y-12453079D02*
X12964208Y-12586412D01*
X12916589Y-12376888D02*
X12868970Y-12519746D01*
X12868970Y-12519746D02*
X12992779Y-12519746D01*
X13221351Y-12586412D02*
X13221351Y-12386412D01*
X13307065Y-12586412D02*
X13307065Y-12481650D01*
X13307065Y-12481650D02*
X13297541Y-12462603D01*
X13297541Y-12462603D02*
X13278494Y-12453079D01*
X13278494Y-12453079D02*
X13249922Y-12453079D01*
X13249922Y-12453079D02*
X13230875Y-12462603D01*
X13230875Y-12462603D02*
X13221351Y-12472126D01*
X13430875Y-12586412D02*
X13411827Y-12576888D01*
X13411827Y-12576888D02*
X13402303Y-12567365D01*
X13402303Y-12567365D02*
X13392779Y-12548317D01*
X13392779Y-12548317D02*
X13392779Y-12491174D01*
X13392779Y-12491174D02*
X13402303Y-12472126D01*
X13402303Y-12472126D02*
X13411827Y-12462603D01*
X13411827Y-12462603D02*
X13430875Y-12453079D01*
X13430875Y-12453079D02*
X13459446Y-12453079D01*
X13459446Y-12453079D02*
X13478494Y-12462603D01*
X13478494Y-12462603D02*
X13488017Y-12472126D01*
X13488017Y-12472126D02*
X13497541Y-12491174D01*
X13497541Y-12491174D02*
X13497541Y-12548317D01*
X13497541Y-12548317D02*
X13488017Y-12567365D01*
X13488017Y-12567365D02*
X13478494Y-12576888D01*
X13478494Y-12576888D02*
X13459446Y-12586412D01*
X13459446Y-12586412D02*
X13430875Y-12586412D01*
X13611827Y-12586412D02*
X13592779Y-12576888D01*
X13592779Y-12576888D02*
X13583256Y-12557841D01*
X13583256Y-12557841D02*
X13583256Y-12386412D01*
X13764208Y-12576888D02*
X13745160Y-12586412D01*
X13745160Y-12586412D02*
X13707065Y-12586412D01*
X13707065Y-12586412D02*
X13688017Y-12576888D01*
X13688017Y-12576888D02*
X13678494Y-12557841D01*
X13678494Y-12557841D02*
X13678494Y-12481650D01*
X13678494Y-12481650D02*
X13688017Y-12462603D01*
X13688017Y-12462603D02*
X13707065Y-12453079D01*
X13707065Y-12453079D02*
X13745160Y-12453079D01*
X13745160Y-12453079D02*
X13764208Y-12462603D01*
X13764208Y-12462603D02*
X13773732Y-12481650D01*
X13773732Y-12481650D02*
X13773732Y-12500698D01*
X13773732Y-12500698D02*
X13678494Y-12519746D01*
X13849922Y-12576888D02*
X13868970Y-12586412D01*
X13868970Y-12586412D02*
X13907065Y-12586412D01*
X13907065Y-12586412D02*
X13926113Y-12576888D01*
X13926113Y-12576888D02*
X13935637Y-12557841D01*
X13935637Y-12557841D02*
X13935637Y-12548317D01*
X13935637Y-12548317D02*
X13926113Y-12529269D01*
X13926113Y-12529269D02*
X13907065Y-12519746D01*
X13907065Y-12519746D02*
X13878494Y-12519746D01*
X13878494Y-12519746D02*
X13859446Y-12510222D01*
X13859446Y-12510222D02*
X13849922Y-12491174D01*
X13849922Y-12491174D02*
X13849922Y-12481650D01*
X13849922Y-12481650D02*
X13859446Y-12462603D01*
X13859446Y-12462603D02*
X13878494Y-12453079D01*
X13878494Y-12453079D02*
X13907065Y-12453079D01*
X13907065Y-12453079D02*
X13926113Y-12462603D01*
X14002303Y-12662603D02*
X14011827Y-12653079D01*
X14011827Y-12653079D02*
X14030875Y-12624507D01*
X14030875Y-12624507D02*
X14040398Y-12605460D01*
X14040398Y-12605460D02*
X14049922Y-12576888D01*
X14049922Y-12576888D02*
X14059446Y-12529269D01*
X14059446Y-12529269D02*
X14059446Y-12491174D01*
X14059446Y-12491174D02*
X14049922Y-12443555D01*
X14049922Y-12443555D02*
X14040398Y-12414984D01*
X14040398Y-12414984D02*
X14030875Y-12395936D01*
X14030875Y-12395936D02*
X14011827Y-12367365D01*
X14011827Y-12367365D02*
X14002303Y-12357841D01*
X14364208Y-12662603D02*
X14354684Y-12653079D01*
X14354684Y-12653079D02*
X14335637Y-12624507D01*
X14335637Y-12624507D02*
X14326113Y-12605460D01*
X14326113Y-12605460D02*
X14316589Y-12576888D01*
X14316589Y-12576888D02*
X14307065Y-12529269D01*
X14307065Y-12529269D02*
X14307065Y-12491174D01*
X14307065Y-12491174D02*
X14316589Y-12443555D01*
X14316589Y-12443555D02*
X14326113Y-12414984D01*
X14326113Y-12414984D02*
X14335637Y-12395936D01*
X14335637Y-12395936D02*
X14354684Y-12367365D01*
X14354684Y-12367365D02*
X14364208Y-12357841D01*
X14440398Y-12453079D02*
X14440398Y-12586412D01*
X14440398Y-12472126D02*
X14449922Y-12462603D01*
X14449922Y-12462603D02*
X14468970Y-12453079D01*
X14468970Y-12453079D02*
X14497541Y-12453079D01*
X14497541Y-12453079D02*
X14516589Y-12462603D01*
X14516589Y-12462603D02*
X14526113Y-12481650D01*
X14526113Y-12481650D02*
X14526113Y-12586412D01*
X14649922Y-12586412D02*
X14630875Y-12576888D01*
X14630875Y-12576888D02*
X14621351Y-12567365D01*
X14621351Y-12567365D02*
X14611827Y-12548317D01*
X14611827Y-12548317D02*
X14611827Y-12491174D01*
X14611827Y-12491174D02*
X14621351Y-12472126D01*
X14621351Y-12472126D02*
X14630875Y-12462603D01*
X14630875Y-12462603D02*
X14649922Y-12453079D01*
X14649922Y-12453079D02*
X14678494Y-12453079D01*
X14678494Y-12453079D02*
X14697541Y-12462603D01*
X14697541Y-12462603D02*
X14707065Y-12472126D01*
X14707065Y-12472126D02*
X14716589Y-12491174D01*
X14716589Y-12491174D02*
X14716589Y-12548317D01*
X14716589Y-12548317D02*
X14707065Y-12567365D01*
X14707065Y-12567365D02*
X14697541Y-12576888D01*
X14697541Y-12576888D02*
X14678494Y-12586412D01*
X14678494Y-12586412D02*
X14649922Y-12586412D01*
X14773732Y-12453079D02*
X14849922Y-12453079D01*
X14802303Y-12386412D02*
X14802303Y-12557841D01*
X14802303Y-12557841D02*
X14811827Y-12576888D01*
X14811827Y-12576888D02*
X14830875Y-12586412D01*
X14830875Y-12586412D02*
X14849922Y-12586412D01*
X15068970Y-12453079D02*
X15068970Y-12653079D01*
X15068970Y-12462603D02*
X15088018Y-12453079D01*
X15088018Y-12453079D02*
X15126113Y-12453079D01*
X15126113Y-12453079D02*
X15145160Y-12462603D01*
X15145160Y-12462603D02*
X15154684Y-12472126D01*
X15154684Y-12472126D02*
X15164208Y-12491174D01*
X15164208Y-12491174D02*
X15164208Y-12548317D01*
X15164208Y-12548317D02*
X15154684Y-12567365D01*
X15154684Y-12567365D02*
X15145160Y-12576888D01*
X15145160Y-12576888D02*
X15126113Y-12586412D01*
X15126113Y-12586412D02*
X15088018Y-12586412D01*
X15088018Y-12586412D02*
X15068970Y-12576888D01*
X15278494Y-12586412D02*
X15259446Y-12576888D01*
X15259446Y-12576888D02*
X15249922Y-12557841D01*
X15249922Y-12557841D02*
X15249922Y-12386412D01*
X15440399Y-12586412D02*
X15440399Y-12481650D01*
X15440399Y-12481650D02*
X15430875Y-12462603D01*
X15430875Y-12462603D02*
X15411827Y-12453079D01*
X15411827Y-12453079D02*
X15373732Y-12453079D01*
X15373732Y-12453079D02*
X15354684Y-12462603D01*
X15440399Y-12576888D02*
X15421351Y-12586412D01*
X15421351Y-12586412D02*
X15373732Y-12586412D01*
X15373732Y-12586412D02*
X15354684Y-12576888D01*
X15354684Y-12576888D02*
X15345160Y-12557841D01*
X15345160Y-12557841D02*
X15345160Y-12538793D01*
X15345160Y-12538793D02*
X15354684Y-12519746D01*
X15354684Y-12519746D02*
X15373732Y-12510222D01*
X15373732Y-12510222D02*
X15421351Y-12510222D01*
X15421351Y-12510222D02*
X15440399Y-12500698D01*
X15507065Y-12453079D02*
X15583256Y-12453079D01*
X15535637Y-12386412D02*
X15535637Y-12557841D01*
X15535637Y-12557841D02*
X15545160Y-12576888D01*
X15545160Y-12576888D02*
X15564208Y-12586412D01*
X15564208Y-12586412D02*
X15583256Y-12586412D01*
X15726113Y-12576888D02*
X15707065Y-12586412D01*
X15707065Y-12586412D02*
X15668970Y-12586412D01*
X15668970Y-12586412D02*
X15649922Y-12576888D01*
X15649922Y-12576888D02*
X15640399Y-12557841D01*
X15640399Y-12557841D02*
X15640399Y-12481650D01*
X15640399Y-12481650D02*
X15649922Y-12462603D01*
X15649922Y-12462603D02*
X15668970Y-12453079D01*
X15668970Y-12453079D02*
X15707065Y-12453079D01*
X15707065Y-12453079D02*
X15726113Y-12462603D01*
X15726113Y-12462603D02*
X15735637Y-12481650D01*
X15735637Y-12481650D02*
X15735637Y-12500698D01*
X15735637Y-12500698D02*
X15640399Y-12519746D01*
X15907065Y-12586412D02*
X15907065Y-12386412D01*
X15907065Y-12576888D02*
X15888018Y-12586412D01*
X15888018Y-12586412D02*
X15849922Y-12586412D01*
X15849922Y-12586412D02*
X15830875Y-12576888D01*
X15830875Y-12576888D02*
X15821351Y-12567365D01*
X15821351Y-12567365D02*
X15811827Y-12548317D01*
X15811827Y-12548317D02*
X15811827Y-12491174D01*
X15811827Y-12491174D02*
X15821351Y-12472126D01*
X15821351Y-12472126D02*
X15830875Y-12462603D01*
X15830875Y-12462603D02*
X15849922Y-12453079D01*
X15849922Y-12453079D02*
X15888018Y-12453079D01*
X15888018Y-12453079D02*
X15907065Y-12462603D01*
X15983256Y-12662603D02*
X15992780Y-12653079D01*
X15992780Y-12653079D02*
X16011827Y-12624507D01*
X16011827Y-12624507D02*
X16021351Y-12605460D01*
X16021351Y-12605460D02*
X16030875Y-12576888D01*
X16030875Y-12576888D02*
X16040399Y-12529269D01*
X16040399Y-12529269D02*
X16040399Y-12491174D01*
X16040399Y-12491174D02*
X16030875Y-12443555D01*
X16030875Y-12443555D02*
X16021351Y-12414984D01*
X16021351Y-12414984D02*
X16011827Y-12395936D01*
X16011827Y-12395936D02*
X15992780Y-12367365D01*
X15992780Y-12367365D02*
X15983256Y-12357841D01*
M02*
