%TF.GenerationSoftware,KiCad,Pcbnew,9.0.3*%
%TF.CreationDate,2026-03-29T23:00:44+07:00*%
%TF.ProjectId,THIET_BI_DO_THAN_NHIET_VA_NHIP_TIM,54484945-545f-4424-995f-444f5f544841,rev?*%
%TF.SameCoordinates,Original*%
%TF.FileFunction,Paste,Top*%
%TF.FilePolarity,Positive*%
%FSLAX46Y46*%
G04 Gerber Fmt 4.6, Leading zero omitted, Abs format (unit mm)*
G04 Created by KiCad (PCBNEW 9.0.3) date 2026-03-29 23:00:44*
%MOMM*%
%LPD*%
G01*
G04 APERTURE LIST*
G04 Aperture macros list*
%AMRoundRect*
0 Rectangle with rounded corners*
0 $1 Rounding radius*
0 $2 $3 $4 $5 $6 $7 $8 $9 X,Y pos of 4 corners*
0 Add a 4 corners polygon primitive as box body*
4,1,4,$2,$3,$4,$5,$6,$7,$8,$9,$2,$3,0*
0 Add four circle primitives for the rounded corners*
1,1,$1+$1,$2,$3*
1,1,$1+$1,$4,$5*
1,1,$1+$1,$6,$7*
1,1,$1+$1,$8,$9*
0 Add four rect primitives between the rounded corners*
20,1,$1+$1,$2,$3,$4,$5,0*
20,1,$1+$1,$4,$5,$6,$7,0*
20,1,$1+$1,$6,$7,$8,$9,0*
20,1,$1+$1,$8,$9,$2,$3,0*%
G04 Aperture macros list end*
%ADD10RoundRect,0.200000X0.200000X0.275000X-0.200000X0.275000X-0.200000X-0.275000X0.200000X-0.275000X0*%
%ADD11RoundRect,0.250000X-0.475000X0.250000X-0.475000X-0.250000X0.475000X-0.250000X0.475000X0.250000X0*%
%ADD12RoundRect,0.225000X-0.250000X0.225000X-0.250000X-0.225000X0.250000X-0.225000X0.250000X0.225000X0*%
%ADD13RoundRect,0.375000X0.625000X0.375000X-0.625000X0.375000X-0.625000X-0.375000X0.625000X-0.375000X0*%
%ADD14RoundRect,0.500000X0.500000X1.400000X-0.500000X1.400000X-0.500000X-1.400000X0.500000X-1.400000X0*%
%ADD15RoundRect,0.200000X-0.275000X0.200000X-0.275000X-0.200000X0.275000X-0.200000X0.275000X0.200000X0*%
%ADD16RoundRect,0.250000X-1.100000X0.500000X-1.100000X-0.500000X1.100000X-0.500000X1.100000X0.500000X0*%
%ADD17RoundRect,0.225000X-0.225000X-0.250000X0.225000X-0.250000X0.225000X0.250000X-0.225000X0.250000X0*%
%ADD18R,1.500000X1.500000*%
%ADD19R,1.500000X0.900000*%
%ADD20R,0.900000X1.500000*%
%ADD21R,0.900000X0.900000*%
%ADD22RoundRect,0.200000X0.275000X-0.200000X0.275000X0.200000X-0.275000X0.200000X-0.275000X-0.200000X0*%
G04 APERTURE END LIST*
D10*
%TO.C,R13*%
X136925000Y-105765000D03*
X135275000Y-105765000D03*
%TD*%
D11*
%TO.C,C3*%
X122433750Y-90762500D03*
X122433750Y-92662500D03*
%TD*%
D12*
%TO.C,C2*%
X109843750Y-88117500D03*
X109843750Y-89667500D03*
%TD*%
D10*
%TO.C,R2*%
X116490000Y-105765000D03*
X114840000Y-105765000D03*
%TD*%
D12*
%TO.C,C14*%
X134730000Y-92595000D03*
X134730000Y-94145000D03*
%TD*%
D13*
%TO.C,U2*%
X119183750Y-93042500D03*
X119183750Y-90742500D03*
D14*
X112883750Y-90742500D03*
D13*
X119183750Y-88442500D03*
%TD*%
D15*
%TO.C,R9*%
X156780000Y-108970000D03*
X156780000Y-110620000D03*
%TD*%
D16*
%TO.C,D1*%
X103690000Y-100717500D03*
X103690000Y-105517500D03*
%TD*%
D15*
%TO.C,R18*%
X137650000Y-92480000D03*
X137650000Y-94130000D03*
%TD*%
D11*
%TO.C,C9*%
X136460000Y-88080000D03*
X136460000Y-89980000D03*
%TD*%
D17*
%TO.C,C10*%
X109685000Y-105765000D03*
X111235000Y-105765000D03*
%TD*%
D10*
%TO.C,R16*%
X163805000Y-92235000D03*
X162155000Y-92235000D03*
%TD*%
D18*
%TO.C,SW7*%
X130180000Y-95855000D03*
X122380000Y-95855000D03*
%TD*%
D19*
%TO.C,U1*%
X141200000Y-88650000D03*
X141200000Y-89920000D03*
X141200000Y-91190000D03*
X141200000Y-92460000D03*
X141200000Y-93730000D03*
X141200000Y-95000000D03*
X141200000Y-96270000D03*
X141200000Y-97540000D03*
X141200000Y-98810000D03*
X141200000Y-100080000D03*
X141200000Y-101350000D03*
X141200000Y-102620000D03*
X141200000Y-103890000D03*
X141200000Y-105160000D03*
D20*
X144240000Y-106410000D03*
X145510000Y-106410000D03*
X146780000Y-106410000D03*
X148050000Y-106410000D03*
X149320000Y-106410000D03*
X150590000Y-106410000D03*
X151860000Y-106410000D03*
X153130000Y-106410000D03*
X154400000Y-106410000D03*
X155670000Y-106410000D03*
D19*
X158700000Y-105160000D03*
X158700000Y-103890000D03*
X158700000Y-102620000D03*
X158700000Y-101350000D03*
X158700000Y-100080000D03*
X158700000Y-98810000D03*
X158700000Y-97540000D03*
X158700000Y-96270000D03*
X158700000Y-95000000D03*
X158700000Y-93730000D03*
X158700000Y-92460000D03*
X158700000Y-91190000D03*
X158700000Y-89920000D03*
X158700000Y-88650000D03*
D21*
X147050000Y-94970000D03*
X147050000Y-96370000D03*
X147050000Y-97770000D03*
X148450000Y-94970000D03*
X148450000Y-96370000D03*
X148450000Y-97770000D03*
X149850000Y-94970000D03*
X149850000Y-96370000D03*
X149850000Y-97770000D03*
%TD*%
D17*
%TO.C,C7*%
X119895000Y-105765000D03*
X121445000Y-105765000D03*
%TD*%
D12*
%TO.C,C5*%
X124983750Y-90762500D03*
X124983750Y-92312500D03*
%TD*%
D11*
%TO.C,C1*%
X107373750Y-88072500D03*
X107373750Y-89972500D03*
%TD*%
D10*
%TO.C,R3*%
X141155000Y-108675000D03*
X139505000Y-108675000D03*
%TD*%
D22*
%TO.C,R14*%
X161130000Y-106840000D03*
X161130000Y-105190000D03*
%TD*%
D12*
%TO.C,C8*%
X138680000Y-88395000D03*
X138680000Y-89945000D03*
%TD*%
D22*
%TO.C,R15*%
X154410000Y-110645000D03*
X154410000Y-108995000D03*
%TD*%
D10*
%TO.C,R1*%
X126765000Y-105765000D03*
X125115000Y-105765000D03*
%TD*%
%TO.C,R17*%
X162635000Y-100090000D03*
X160985000Y-100090000D03*
%TD*%
D17*
%TO.C,C13*%
X129965000Y-105765000D03*
X131515000Y-105765000D03*
%TD*%
M02*
