%TF.GenerationSoftware,KiCad,Pcbnew,9.0.3*%
%TF.CreationDate,2026-04-04T09:27:55+07:00*%
%TF.ProjectId,P17230326 - TENP MEASURING DEVICE - MASTER,50313732-3330-4333-9236-202d2054454e,rev?*%
%TF.SameCoordinates,Original*%
%TF.FileFunction,Profile,NP*%
%FSLAX46Y46*%
G04 Gerber Fmt 4.6, Leading zero omitted, Abs format (unit mm)*
G04 Created by KiCad (PCBNEW 9.0.3) date 2026-04-04 09:27:55*
%MOMM*%
%LPD*%
G01*
G04 APERTURE LIST*
%TA.AperFunction,Profile*%
%ADD10C,0.050000*%
%TD*%
G04 APERTURE END LIST*
D10*
X33350000Y-47500000D02*
X153670000Y-47500000D01*
X153670000Y-138280000D01*
X33350000Y-138280000D01*
X33350000Y-47500000D01*
X101320000Y-117110000D02*
G75*
G02*
X84820000Y-117110000I-8250000J0D01*
G01*
X84820000Y-117110000D02*
G75*
G02*
X101320000Y-117110000I8250000J0D01*
G01*
X229465000Y-57850000D02*
G75*
G02*
X191465000Y-57850000I-19000000J0D01*
G01*
X191465000Y-57850000D02*
G75*
G02*
X229465000Y-57850000I19000000J0D01*
G01*
X164940000Y-27840000D02*
X255990000Y-27840000D01*
X255990000Y-87860000D01*
X164940000Y-87860000D01*
X164940000Y-27840000D01*
X44090000Y-57910000D02*
X142200000Y-57910000D01*
X142200000Y-98010000D01*
X44090000Y-98010000D01*
X44090000Y-57910000D01*
X249350000Y-144350000D02*
G75*
G02*
X240450000Y-144350000I-4450000J0D01*
G01*
X240450000Y-144350000D02*
G75*
G02*
X249350000Y-144350000I4450000J0D01*
G01*
X200190000Y-135440000D02*
X221350000Y-135440000D01*
X221350000Y-148550000D01*
X200190000Y-148550000D01*
X200190000Y-135440000D01*
X63670000Y-117110000D02*
G75*
G02*
X47170000Y-117110000I-8250000J0D01*
G01*
X47170000Y-117110000D02*
G75*
G02*
X63670000Y-117110000I8250000J0D01*
G01*
X138970000Y-117110000D02*
G75*
G02*
X122470000Y-117110000I-8250000J0D01*
G01*
X122470000Y-117110000D02*
G75*
G02*
X138970000Y-117110000I8250000J0D01*
G01*
X164910000Y-97360000D02*
X255960000Y-97360000D01*
X255960000Y-157380000D01*
X164910000Y-157380000D01*
X164910000Y-97360000D01*
M02*
