%TF.GenerationSoftware,KiCad,Pcbnew,9.0.3*%
%TF.CreationDate,2026-04-01T23:57:34+07:00*%
%TF.ProjectId,P17230326 - TENP MEASURING DEVICE (SLAVE),50313732-3330-4333-9236-202d2054454e,rev?*%
%TF.SameCoordinates,Original*%
%TF.FileFunction,Copper,L2,Bot*%
%TF.FilePolarity,Positive*%
%FSLAX46Y46*%
G04 Gerber Fmt 4.6, Leading zero omitted, Abs format (unit mm)*
G04 Created by KiCad (PCBNEW 9.0.3) date 2026-04-01 23:57:34*
%MOMM*%
%LPD*%
G01*
G04 APERTURE LIST*
G04 Aperture macros list*
%AMRoundRect*
0 Rectangle with rounded corners*
0 $1 Rounding radius*
0 $2 $3 $4 $5 $6 $7 $8 $9 X,Y pos of 4 corners*
0 Add a 4 corners polygon primitive as box body*
4,1,4,$2,$3,$4,$5,$6,$7,$8,$9,$2,$3,0*
0 Add four circle primitives for the rounded corners*
1,1,$1+$1,$2,$3*
1,1,$1+$1,$4,$5*
1,1,$1+$1,$6,$7*
1,1,$1+$1,$8,$9*
0 Add four rect primitives between the rounded corners*
20,1,$1+$1,$2,$3,$4,$5,0*
20,1,$1+$1,$4,$5,$6,$7,0*
20,1,$1+$1,$6,$7,$8,$9,0*
20,1,$1+$1,$8,$9,$2,$3,0*%
G04 Aperture macros list end*
%TA.AperFunction,HeatsinkPad*%
%ADD10C,0.500000*%
%TD*%
%TA.AperFunction,HeatsinkPad*%
%ADD11R,1.900000X2.900000*%
%TD*%
%TA.AperFunction,ComponentPad*%
%ADD12RoundRect,0.250000X-0.750000X0.600000X-0.750000X-0.600000X0.750000X-0.600000X0.750000X0.600000X0*%
%TD*%
%TA.AperFunction,ComponentPad*%
%ADD13O,2.000000X1.700000*%
%TD*%
%TA.AperFunction,ComponentPad*%
%ADD14R,1.700000X1.700000*%
%TD*%
%TA.AperFunction,ComponentPad*%
%ADD15C,1.700000*%
%TD*%
%TA.AperFunction,ComponentPad*%
%ADD16R,1.800000X1.800000*%
%TD*%
%TA.AperFunction,ComponentPad*%
%ADD17C,1.800000*%
%TD*%
%TA.AperFunction,HeatsinkPad*%
%ADD18C,0.600000*%
%TD*%
%TA.AperFunction,HeatsinkPad*%
%ADD19O,1.000000X1.700000*%
%TD*%
%TA.AperFunction,ViaPad*%
%ADD20C,1.500000*%
%TD*%
%TA.AperFunction,ViaPad*%
%ADD21C,2.000000*%
%TD*%
%TA.AperFunction,ViaPad*%
%ADD22C,1.000000*%
%TD*%
%TA.AperFunction,ViaPad*%
%ADD23C,1.200000*%
%TD*%
%TA.AperFunction,Conductor*%
%ADD24C,1.500000*%
%TD*%
%TA.AperFunction,Conductor*%
%ADD25C,1.200000*%
%TD*%
%TA.AperFunction,Conductor*%
%ADD26C,0.800000*%
%TD*%
%TA.AperFunction,Conductor*%
%ADD27C,0.500000*%
%TD*%
G04 APERTURE END LIST*
D10*
%TO.P,U2,9,POWERPAD*%
%TO.N,GND*%
X154330000Y-96255000D03*
X154330000Y-97455000D03*
X154330000Y-98655000D03*
D11*
X155030000Y-97455000D03*
D10*
X155730000Y-96255000D03*
X155730000Y-97455000D03*
X155730000Y-98655000D03*
%TD*%
D12*
%TO.P,J97,1,Pin_1*%
%TO.N,Net-(J97-Pin_1)*%
X138870000Y-93480000D03*
D13*
%TO.P,J97,2,Pin_2*%
%TO.N,GND*%
X138870000Y-95980000D03*
%TD*%
D14*
%TO.P,J6,1,Pin_1*%
%TO.N,+3.3V*%
X161440000Y-64910000D03*
D15*
%TO.P,J6,2,Pin_2*%
%TO.N,RX*%
X161440000Y-62370000D03*
%TO.P,J6,3,Pin_3*%
%TO.N,TX*%
X161440000Y-59830000D03*
%TO.P,J6,4,Pin_4*%
%TO.N,GND*%
X161440000Y-57290000D03*
%TD*%
D16*
%TO.P,D1,1,K*%
%TO.N,GND*%
X148230000Y-106180000D03*
D17*
%TO.P,D1,2,A*%
%TO.N,Net-(D1-A)*%
X148230000Y-103640000D03*
%TD*%
D12*
%TO.P,J8,1,Pin_1*%
%TO.N,Net-(J8-Pin_1)*%
X138950000Y-103570000D03*
D13*
%TO.P,J8,2,Pin_2*%
%TO.N,Net-(J8-Pin_2)*%
X138950000Y-106070000D03*
%TD*%
D18*
%TO.P,U3,19,GND*%
%TO.N,GND*%
X147380000Y-58730000D03*
X147380000Y-59830000D03*
X147930000Y-58180000D03*
X147930000Y-59280000D03*
X147930000Y-60380000D03*
X148480000Y-58730000D03*
X148480000Y-59830000D03*
X149030000Y-58180000D03*
X149030000Y-59280000D03*
X149030000Y-60380000D03*
X149580000Y-58730000D03*
X149580000Y-59830000D03*
%TD*%
D14*
%TO.P,J3,1,Pin_1*%
%TO.N,+3.3V*%
X161475000Y-79270000D03*
D15*
%TO.P,J3,2,Pin_2*%
%TO.N,GND*%
X161475000Y-76730000D03*
%TO.P,J3,3,Pin_3*%
%TO.N,SCL*%
X161475000Y-74190000D03*
%TO.P,J3,4,Pin_4*%
%TO.N,SDA*%
X161475000Y-71650000D03*
%TO.P,J3,5,Pin_5*%
%TO.N,INT*%
X161475000Y-69110000D03*
%TD*%
D19*
%TO.P,J1,S1,SHIELD*%
%TO.N,GND*%
X144850000Y-115730000D03*
X144850000Y-119530000D03*
X153490000Y-115730000D03*
X153490000Y-119530000D03*
%TD*%
D14*
%TO.P,J2,1,Pin_1*%
%TO.N,SDA*%
X155815000Y-71650000D03*
D15*
%TO.P,J2,2,Pin_2*%
%TO.N,SCL*%
X155815000Y-74190000D03*
%TO.P,J2,3,Pin_3*%
%TO.N,GND*%
X155815000Y-76730000D03*
%TO.P,J2,4,Pin_4*%
%TO.N,+3.3V*%
X155815000Y-79270000D03*
%TD*%
D20*
%TO.N,VUSB*%
X145570000Y-112300000D03*
X142300000Y-99390000D03*
X149240000Y-118080000D03*
D21*
X134480000Y-113240000D03*
D22*
%TO.N,GND*%
X164010000Y-92730000D03*
X164100000Y-85850000D03*
X162810000Y-109730000D03*
X141840000Y-119720000D03*
X158350000Y-113440000D03*
X134670000Y-86410000D03*
X134650000Y-80080000D03*
X136080000Y-71150000D03*
X134630000Y-83410000D03*
X149130000Y-72640000D03*
X163450000Y-53890000D03*
X146300000Y-75380000D03*
X158830000Y-57930000D03*
X139760000Y-66750000D03*
X135190000Y-119440000D03*
X158810000Y-53930000D03*
X162650000Y-116520000D03*
X149000000Y-75470000D03*
X134500000Y-89380000D03*
X146340000Y-69540000D03*
X164070000Y-89340000D03*
X163790000Y-96130000D03*
X141860000Y-73290000D03*
X162720000Y-113380000D03*
X149260000Y-88300000D03*
X162590000Y-119320000D03*
X163600000Y-105300000D03*
X161400000Y-95090000D03*
X156040000Y-109860000D03*
X138680000Y-119580000D03*
X163610000Y-100280000D03*
X163860000Y-82130000D03*
X158250000Y-116300000D03*
X146300000Y-72620000D03*
X158330000Y-119420000D03*
D23*
%TO.N,EN*%
X136360000Y-54580000D03*
X134060000Y-71490000D03*
D22*
%TO.N,Net-(J8-Pin_2)*%
X157730000Y-100795000D03*
%TD*%
D24*
%TO.N,VUSB*%
X134480000Y-113240000D02*
X134480000Y-102720000D01*
D25*
X149240000Y-118080000D02*
X149240000Y-115970000D01*
D24*
X140890000Y-100800000D02*
X142300000Y-99390000D01*
X134480000Y-102720000D02*
X136400000Y-100800000D01*
X136400000Y-100800000D02*
X140890000Y-100800000D01*
D25*
X149240000Y-115970000D02*
X145570000Y-112300000D01*
D26*
%TO.N,EN*%
X134060000Y-56880000D02*
X136360000Y-54580000D01*
X134060000Y-71490000D02*
X134060000Y-56880000D01*
D27*
%TO.N,Net-(J8-Pin_2)*%
X141550000Y-108670000D02*
X153780000Y-108670000D01*
X157730000Y-104720000D02*
X157730000Y-100795000D01*
X138950000Y-106070000D02*
X141550000Y-108670000D01*
X153780000Y-108670000D02*
X157730000Y-104720000D01*
%TD*%
%TA.AperFunction,Conductor*%
%TO.N,GND*%
G36*
X164956843Y-52350207D02*
G01*
X165026084Y-52405426D01*
X165064511Y-52485218D01*
X165069500Y-52529500D01*
X165069500Y-120740500D01*
X165049793Y-120826843D01*
X164994574Y-120896084D01*
X164914782Y-120934511D01*
X164870500Y-120939500D01*
X154325142Y-120939500D01*
X154238799Y-120919793D01*
X154169558Y-120864574D01*
X154131131Y-120784782D01*
X154131131Y-120696218D01*
X154169558Y-120616426D01*
X154184428Y-120599786D01*
X154266747Y-120517466D01*
X154266753Y-120517458D01*
X154376187Y-120353680D01*
X154376191Y-120353673D01*
X154451569Y-120171692D01*
X154451571Y-120171685D01*
X154490000Y-119978494D01*
X154490000Y-119780000D01*
X153740000Y-119780000D01*
X153740000Y-119280000D01*
X154490000Y-119280000D01*
X154490000Y-119081505D01*
X154451571Y-118888314D01*
X154451569Y-118888307D01*
X154376191Y-118706326D01*
X154376187Y-118706319D01*
X154266753Y-118542541D01*
X154266747Y-118542533D01*
X154127466Y-118403252D01*
X154127458Y-118403246D01*
X153963680Y-118293812D01*
X153963673Y-118293808D01*
X153781688Y-118218428D01*
X153781689Y-118218428D01*
X153740000Y-118210135D01*
X153740000Y-119130272D01*
X153701940Y-119038386D01*
X153631614Y-118968060D01*
X153539728Y-118930000D01*
X153440272Y-118930000D01*
X153348386Y-118968060D01*
X153278060Y-119038386D01*
X153240000Y-119130272D01*
X153240000Y-118210135D01*
X153198310Y-118218428D01*
X153016326Y-118293808D01*
X153016319Y-118293812D01*
X152852541Y-118403246D01*
X152852533Y-118403252D01*
X152713252Y-118542533D01*
X152713246Y-118542541D01*
X152603812Y-118706319D01*
X152603808Y-118706326D01*
X152528430Y-118888307D01*
X152528428Y-118888314D01*
X152490000Y-119081505D01*
X152490000Y-119280000D01*
X153240000Y-119280000D01*
X153240000Y-119780000D01*
X152490000Y-119780000D01*
X152490000Y-119978494D01*
X152528428Y-120171685D01*
X152528430Y-120171692D01*
X152603808Y-120353673D01*
X152603812Y-120353680D01*
X152713246Y-120517458D01*
X152713252Y-120517466D01*
X152795572Y-120599786D01*
X152842691Y-120674774D01*
X152852607Y-120762781D01*
X152823356Y-120846374D01*
X152760732Y-120908998D01*
X152677139Y-120938249D01*
X152654858Y-120939500D01*
X145685142Y-120939500D01*
X145598799Y-120919793D01*
X145529558Y-120864574D01*
X145491131Y-120784782D01*
X145491131Y-120696218D01*
X145529558Y-120616426D01*
X145544428Y-120599786D01*
X145626747Y-120517466D01*
X145626753Y-120517458D01*
X145736187Y-120353680D01*
X145736191Y-120353673D01*
X145811569Y-120171692D01*
X145811571Y-120171685D01*
X145850000Y-119978494D01*
X145850000Y-119780000D01*
X145100000Y-119780000D01*
X145100000Y-119280000D01*
X145850000Y-119280000D01*
X145850000Y-119081505D01*
X145811571Y-118888314D01*
X145811569Y-118888307D01*
X145736191Y-118706326D01*
X145736187Y-118706319D01*
X145626753Y-118542541D01*
X145626747Y-118542533D01*
X145487466Y-118403252D01*
X145487458Y-118403246D01*
X145323680Y-118293812D01*
X145323673Y-118293808D01*
X145141688Y-118218428D01*
X145141689Y-118218428D01*
X145100000Y-118210135D01*
X145100000Y-119130272D01*
X145061940Y-119038386D01*
X144991614Y-118968060D01*
X144899728Y-118930000D01*
X144800272Y-118930000D01*
X144708386Y-118968060D01*
X144638060Y-119038386D01*
X144600000Y-119130272D01*
X144600000Y-118210135D01*
X144558310Y-118218428D01*
X144376326Y-118293808D01*
X144376319Y-118293812D01*
X144212541Y-118403246D01*
X144212533Y-118403252D01*
X144073252Y-118542533D01*
X144073246Y-118542541D01*
X143963812Y-118706319D01*
X143963808Y-118706326D01*
X143888430Y-118888307D01*
X143888428Y-118888314D01*
X143850000Y-119081505D01*
X143850000Y-119280000D01*
X144600000Y-119280000D01*
X144600000Y-119780000D01*
X143850000Y-119780000D01*
X143850000Y-119978494D01*
X143888428Y-120171685D01*
X143888430Y-120171692D01*
X143963808Y-120353673D01*
X143963812Y-120353680D01*
X144073246Y-120517458D01*
X144073252Y-120517466D01*
X144155572Y-120599786D01*
X144202691Y-120674774D01*
X144212607Y-120762781D01*
X144183356Y-120846374D01*
X144120732Y-120908998D01*
X144037139Y-120938249D01*
X144014858Y-120939500D01*
X133469500Y-120939500D01*
X133383157Y-120919793D01*
X133313916Y-120864574D01*
X133275489Y-120784782D01*
X133270500Y-120740500D01*
X133270500Y-115281505D01*
X143850000Y-115281505D01*
X143850000Y-115480000D01*
X144600000Y-115480000D01*
X144600000Y-115980000D01*
X143850000Y-115980000D01*
X143850000Y-116178494D01*
X143888428Y-116371685D01*
X143888430Y-116371692D01*
X143963808Y-116553673D01*
X143963812Y-116553680D01*
X144073246Y-116717458D01*
X144073252Y-116717466D01*
X144212533Y-116856747D01*
X144212541Y-116856753D01*
X144376319Y-116966187D01*
X144376323Y-116966189D01*
X144558305Y-117041569D01*
X144599999Y-117049862D01*
X144600000Y-117049862D01*
X144600000Y-116129728D01*
X144638060Y-116221614D01*
X144708386Y-116291940D01*
X144800272Y-116330000D01*
X144899728Y-116330000D01*
X144991614Y-116291940D01*
X145061940Y-116221614D01*
X145100000Y-116129728D01*
X145100000Y-117049862D01*
X145141693Y-117041569D01*
X145141694Y-117041569D01*
X145323676Y-116966189D01*
X145323680Y-116966187D01*
X145487458Y-116856753D01*
X145487466Y-116856747D01*
X145626747Y-116717466D01*
X145626753Y-116717458D01*
X145736187Y-116553680D01*
X145736191Y-116553673D01*
X145811569Y-116371692D01*
X145811571Y-116371685D01*
X145850000Y-116178494D01*
X145850000Y-115980000D01*
X145100000Y-115980000D01*
X145100000Y-115480000D01*
X145850000Y-115480000D01*
X145850000Y-115281505D01*
X145811571Y-115088314D01*
X145811569Y-115088307D01*
X145736191Y-114906326D01*
X145736187Y-114906319D01*
X145626753Y-114742541D01*
X145626747Y-114742533D01*
X145487466Y-114603252D01*
X145487458Y-114603246D01*
X145323680Y-114493812D01*
X145323673Y-114493808D01*
X145141688Y-114418428D01*
X145141689Y-114418428D01*
X145100000Y-114410135D01*
X145100000Y-115330272D01*
X145061940Y-115238386D01*
X144991614Y-115168060D01*
X144899728Y-115130000D01*
X144800272Y-115130000D01*
X144708386Y-115168060D01*
X144638060Y-115238386D01*
X144600000Y-115330272D01*
X144600000Y-114410135D01*
X144558310Y-114418428D01*
X144376326Y-114493808D01*
X144376319Y-114493812D01*
X144212541Y-114603246D01*
X144212533Y-114603252D01*
X144073252Y-114742533D01*
X144073246Y-114742541D01*
X143963812Y-114906319D01*
X143963808Y-114906326D01*
X143888430Y-115088307D01*
X143888428Y-115088314D01*
X143850000Y-115281505D01*
X133270500Y-115281505D01*
X133270500Y-114482920D01*
X133290207Y-114396577D01*
X133345426Y-114327336D01*
X133425218Y-114288909D01*
X133513782Y-114288909D01*
X133586466Y-114321923D01*
X133745978Y-114437815D01*
X133942394Y-114537895D01*
X133942399Y-114537896D01*
X133942400Y-114537897D01*
X134152039Y-114606012D01*
X134152043Y-114606013D01*
X134152049Y-114606015D01*
X134369778Y-114640500D01*
X134590222Y-114640500D01*
X134807951Y-114606015D01*
X135017606Y-114537895D01*
X135214022Y-114437815D01*
X135392365Y-114308242D01*
X135548242Y-114152365D01*
X135677815Y-113974022D01*
X135777895Y-113777606D01*
X135846015Y-113567951D01*
X135880500Y-113350222D01*
X135880500Y-113129778D01*
X135846015Y-112912049D01*
X135777895Y-112702394D01*
X135677815Y-112505978D01*
X135668503Y-112493161D01*
X135661429Y-112476610D01*
X135650207Y-112462538D01*
X135644238Y-112436388D01*
X135633698Y-112411726D01*
X135630500Y-112376195D01*
X135630500Y-112209454D01*
X144419500Y-112209454D01*
X144419500Y-112390545D01*
X144447828Y-112569407D01*
X144447831Y-112569418D01*
X144503786Y-112741632D01*
X144503794Y-112741651D01*
X144586000Y-112902988D01*
X144586003Y-112902992D01*
X144586004Y-112902994D01*
X144692447Y-113049501D01*
X144820499Y-113177553D01*
X144967006Y-113283996D01*
X144967008Y-113283997D01*
X144967011Y-113283999D01*
X145128348Y-113366205D01*
X145128352Y-113366206D01*
X145128361Y-113366211D01*
X145220581Y-113396174D01*
X145296606Y-113441597D01*
X145299800Y-113444720D01*
X148181214Y-116326134D01*
X148228333Y-116401122D01*
X148239500Y-116466848D01*
X148239500Y-117461620D01*
X148219793Y-117547963D01*
X148217811Y-117551964D01*
X148173787Y-117638365D01*
X148173787Y-117638366D01*
X148117831Y-117810581D01*
X148117828Y-117810592D01*
X148089500Y-117989454D01*
X148089500Y-118170545D01*
X148117828Y-118349407D01*
X148117831Y-118349418D01*
X148173786Y-118521632D01*
X148173794Y-118521651D01*
X148256000Y-118682988D01*
X148256003Y-118682992D01*
X148256004Y-118682994D01*
X148362447Y-118829501D01*
X148490499Y-118957553D01*
X148637006Y-119063996D01*
X148637008Y-119063997D01*
X148637011Y-119063999D01*
X148798348Y-119146205D01*
X148798355Y-119146207D01*
X148798361Y-119146211D01*
X148798366Y-119146212D01*
X148798367Y-119146213D01*
X148970581Y-119202168D01*
X148970585Y-119202169D01*
X148970591Y-119202171D01*
X149149454Y-119230500D01*
X149330546Y-119230500D01*
X149509409Y-119202171D01*
X149681639Y-119146211D01*
X149842994Y-119063996D01*
X149989501Y-118957553D01*
X150117553Y-118829501D01*
X150223996Y-118682994D01*
X150306211Y-118521639D01*
X150362171Y-118349409D01*
X150390500Y-118170546D01*
X150390500Y-117989454D01*
X150362171Y-117810591D01*
X150306211Y-117638361D01*
X150262188Y-117551962D01*
X150240550Y-117466085D01*
X150240500Y-117461620D01*
X150240500Y-115871459D01*
X150202051Y-115678167D01*
X150202050Y-115678163D01*
X150126634Y-115496090D01*
X150126630Y-115496083D01*
X150050597Y-115382292D01*
X150017139Y-115332218D01*
X149966426Y-115281505D01*
X152490000Y-115281505D01*
X152490000Y-115480000D01*
X153240000Y-115480000D01*
X153240000Y-115980000D01*
X152490000Y-115980000D01*
X152490000Y-116178494D01*
X152528428Y-116371685D01*
X152528430Y-116371692D01*
X152603808Y-116553673D01*
X152603812Y-116553680D01*
X152713246Y-116717458D01*
X152713252Y-116717466D01*
X152852533Y-116856747D01*
X152852541Y-116856753D01*
X153016319Y-116966187D01*
X153016323Y-116966189D01*
X153198305Y-117041569D01*
X153239999Y-117049862D01*
X153240000Y-117049862D01*
X153240000Y-116129728D01*
X153278060Y-116221614D01*
X153348386Y-116291940D01*
X153440272Y-116330000D01*
X153539728Y-116330000D01*
X153631614Y-116291940D01*
X153701940Y-116221614D01*
X153740000Y-116129728D01*
X153740000Y-117049862D01*
X153781693Y-117041569D01*
X153781694Y-117041569D01*
X153963676Y-116966189D01*
X153963680Y-116966187D01*
X154127458Y-116856753D01*
X154127466Y-116856747D01*
X154266747Y-116717466D01*
X154266753Y-116717458D01*
X154376187Y-116553680D01*
X154376191Y-116553673D01*
X154451569Y-116371692D01*
X154451571Y-116371685D01*
X154490000Y-116178494D01*
X154490000Y-115980000D01*
X153740000Y-115980000D01*
X153740000Y-115480000D01*
X154490000Y-115480000D01*
X154490000Y-115281505D01*
X154451571Y-115088314D01*
X154451569Y-115088307D01*
X154376191Y-114906326D01*
X154376187Y-114906319D01*
X154266753Y-114742541D01*
X154266747Y-114742533D01*
X154127466Y-114603252D01*
X154127458Y-114603246D01*
X153963680Y-114493812D01*
X153963673Y-114493808D01*
X153781688Y-114418428D01*
X153781689Y-114418428D01*
X153740000Y-114410135D01*
X153740000Y-115330272D01*
X153701940Y-115238386D01*
X153631614Y-115168060D01*
X153539728Y-115130000D01*
X153440272Y-115130000D01*
X153348386Y-115168060D01*
X153278060Y-115238386D01*
X153240000Y-115330272D01*
X153240000Y-114410135D01*
X153198310Y-114418428D01*
X153016326Y-114493808D01*
X153016319Y-114493812D01*
X152852541Y-114603246D01*
X152852533Y-114603252D01*
X152713252Y-114742533D01*
X152713246Y-114742541D01*
X152603812Y-114906319D01*
X152603808Y-114906326D01*
X152528430Y-115088307D01*
X152528428Y-115088314D01*
X152490000Y-115281505D01*
X149966426Y-115281505D01*
X149877782Y-115192861D01*
X149877781Y-115192860D01*
X146714719Y-112029799D01*
X146667601Y-111954812D01*
X146666191Y-111950633D01*
X146636211Y-111858361D01*
X146636206Y-111858352D01*
X146636205Y-111858348D01*
X146553999Y-111697011D01*
X146553997Y-111697008D01*
X146553996Y-111697006D01*
X146447553Y-111550499D01*
X146319501Y-111422447D01*
X146172994Y-111316004D01*
X146172992Y-111316003D01*
X146172988Y-111316000D01*
X146011651Y-111233794D01*
X146011632Y-111233786D01*
X145839418Y-111177831D01*
X145839407Y-111177828D01*
X145660546Y-111149500D01*
X145479454Y-111149500D01*
X145300592Y-111177828D01*
X145300581Y-111177831D01*
X145128367Y-111233786D01*
X145128348Y-111233794D01*
X144967011Y-111316000D01*
X144820496Y-111422449D01*
X144692449Y-111550496D01*
X144586000Y-111697011D01*
X144503794Y-111858348D01*
X144503786Y-111858367D01*
X144447831Y-112030581D01*
X144447828Y-112030592D01*
X144419500Y-112209454D01*
X135630500Y-112209454D01*
X135630500Y-103278981D01*
X135650207Y-103192638D01*
X135688786Y-103138267D01*
X136818267Y-102008786D01*
X136893255Y-101961667D01*
X136958981Y-101950500D01*
X137979281Y-101950500D01*
X138065624Y-101970207D01*
X138134865Y-102025426D01*
X138173292Y-102105218D01*
X138173292Y-102193782D01*
X138134865Y-102273574D01*
X138065624Y-102328793D01*
X138034801Y-102340598D01*
X137939600Y-102368256D01*
X137798136Y-102451917D01*
X137681917Y-102568136D01*
X137598256Y-102709600D01*
X137552402Y-102867430D01*
X137549500Y-102904311D01*
X137549500Y-104235688D01*
X137552402Y-104272569D01*
X137598256Y-104430399D01*
X137681917Y-104571863D01*
X137798136Y-104688082D01*
X137889247Y-104741964D01*
X137939602Y-104771744D01*
X137939606Y-104771745D01*
X137945184Y-104774159D01*
X138016601Y-104826534D01*
X138058220Y-104904708D01*
X138061800Y-104993199D01*
X138026630Y-105074480D01*
X137990630Y-105110324D01*
X137991293Y-105111100D01*
X137985347Y-105116177D01*
X137846177Y-105255347D01*
X137846176Y-105255349D01*
X137730477Y-105414592D01*
X137641113Y-105589981D01*
X137641113Y-105589982D01*
X137580291Y-105777171D01*
X137580289Y-105777179D01*
X137549500Y-105971583D01*
X137549500Y-106168416D01*
X137580289Y-106362820D01*
X137580291Y-106362828D01*
X137641113Y-106550017D01*
X137641113Y-106550018D01*
X137641115Y-106550021D01*
X137641116Y-106550025D01*
X137730476Y-106725405D01*
X137846172Y-106884646D01*
X137846176Y-106884650D01*
X137846177Y-106884652D01*
X137985347Y-107023822D01*
X137985349Y-107023823D01*
X137985354Y-107023828D01*
X138144595Y-107139524D01*
X138319975Y-107228884D01*
X138507174Y-107289709D01*
X138507176Y-107289709D01*
X138507179Y-107289710D01*
X138701583Y-107320500D01*
X139198126Y-107320500D01*
X139284469Y-107340207D01*
X139338840Y-107378786D01*
X141135330Y-109175276D01*
X141241873Y-109246465D01*
X141241876Y-109246466D01*
X141241877Y-109246467D01*
X141276549Y-109260828D01*
X141360256Y-109295501D01*
X141485931Y-109320500D01*
X141485932Y-109320500D01*
X153844068Y-109320500D01*
X153844069Y-109320500D01*
X153969744Y-109295501D01*
X154088127Y-109246465D01*
X154194669Y-109175277D01*
X158235277Y-105134669D01*
X158306466Y-105028126D01*
X158332316Y-104965718D01*
X158342762Y-104940499D01*
X158342763Y-104940494D01*
X158355501Y-104909744D01*
X158380500Y-104784069D01*
X158380500Y-101499901D01*
X158400207Y-101413558D01*
X158425671Y-101373657D01*
X158429458Y-101369040D01*
X158429464Y-101369035D01*
X158528013Y-101221547D01*
X158595894Y-101057666D01*
X158630500Y-100883691D01*
X158630500Y-100706309D01*
X158595894Y-100532334D01*
X158528013Y-100368453D01*
X158528012Y-100368451D01*
X158528011Y-100368449D01*
X158429464Y-100220965D01*
X158429458Y-100220958D01*
X158304041Y-100095541D01*
X158304034Y-100095535D01*
X158156550Y-99996988D01*
X158101920Y-99974360D01*
X157992666Y-99929106D01*
X157992663Y-99929105D01*
X157992660Y-99929104D01*
X157853108Y-99901346D01*
X157818691Y-99894500D01*
X157641309Y-99894500D01*
X157612576Y-99900215D01*
X157467339Y-99929104D01*
X157303449Y-99996988D01*
X157155965Y-100095535D01*
X157155958Y-100095541D01*
X157030541Y-100220958D01*
X157030535Y-100220965D01*
X156931988Y-100368449D01*
X156864104Y-100532339D01*
X156829500Y-100706309D01*
X156829500Y-100883690D01*
X156864104Y-101057660D01*
X156931988Y-101221550D01*
X157030536Y-101369035D01*
X157034329Y-101373657D01*
X157073871Y-101452903D01*
X157079500Y-101499901D01*
X157079500Y-104368126D01*
X157059793Y-104454469D01*
X157021214Y-104508840D01*
X153568840Y-107961214D01*
X153493852Y-108008333D01*
X153428126Y-108019500D01*
X141901874Y-108019500D01*
X141815531Y-107999793D01*
X141761160Y-107961214D01*
X140367452Y-106567506D01*
X140363130Y-106560628D01*
X140356620Y-106555768D01*
X140339748Y-106523416D01*
X140320333Y-106492518D01*
X140319423Y-106484443D01*
X140315667Y-106477241D01*
X140316268Y-106456446D01*
X140310417Y-106404511D01*
X140312841Y-106388723D01*
X140315158Y-106376829D01*
X140319709Y-106362826D01*
X140350500Y-106168417D01*
X140350500Y-105971583D01*
X140319709Y-105777174D01*
X140258884Y-105589975D01*
X140169524Y-105414595D01*
X140053828Y-105255354D01*
X140030651Y-105232177D01*
X146830000Y-105232177D01*
X146830000Y-105930000D01*
X147854722Y-105930000D01*
X147810667Y-106006306D01*
X147780000Y-106120756D01*
X147780000Y-106239244D01*
X147810667Y-106353694D01*
X147854722Y-106430000D01*
X146830000Y-106430000D01*
X146830000Y-107127822D01*
X146836401Y-107187372D01*
X146836403Y-107187381D01*
X146886646Y-107322087D01*
X146886647Y-107322090D01*
X146972810Y-107437189D01*
X147087909Y-107523352D01*
X147087912Y-107523353D01*
X147222618Y-107573596D01*
X147222627Y-107573598D01*
X147282177Y-107580000D01*
X147980000Y-107580000D01*
X147980000Y-106555277D01*
X148056306Y-106599333D01*
X148170756Y-106630000D01*
X148289244Y-106630000D01*
X148403694Y-106599333D01*
X148480000Y-106555277D01*
X148480000Y-107580000D01*
X149177823Y-107580000D01*
X149237372Y-107573598D01*
X149237381Y-107573596D01*
X149372087Y-107523353D01*
X149372090Y-107523352D01*
X149487189Y-107437189D01*
X149573352Y-107322090D01*
X149573353Y-107322087D01*
X149623596Y-107187381D01*
X149623598Y-107187372D01*
X149630000Y-107127822D01*
X149630000Y-106430000D01*
X148605278Y-106430000D01*
X148649333Y-106353694D01*
X148680000Y-106239244D01*
X148680000Y-106120756D01*
X148649333Y-106006306D01*
X148605278Y-105930000D01*
X149630000Y-105930000D01*
X149630000Y-105232177D01*
X149623598Y-105172627D01*
X149623596Y-105172618D01*
X149573353Y-105037912D01*
X149573352Y-105037909D01*
X149487189Y-104922810D01*
X149372092Y-104836648D01*
X149298371Y-104809153D01*
X149224359Y-104760515D01*
X149178779Y-104684581D01*
X149170660Y-104596391D01*
X149201609Y-104513411D01*
X149217617Y-104493785D01*
X149216889Y-104493163D01*
X149221955Y-104487229D01*
X149221966Y-104487219D01*
X149342287Y-104321610D01*
X149386064Y-104235694D01*
X149435214Y-104139231D01*
X149435214Y-104139229D01*
X149435220Y-104139219D01*
X149498477Y-103944534D01*
X149530500Y-103742352D01*
X149530500Y-103537648D01*
X149498477Y-103335466D01*
X149435220Y-103140781D01*
X149435216Y-103140775D01*
X149435214Y-103140768D01*
X149342293Y-102958400D01*
X149342287Y-102958390D01*
X149221966Y-102792781D01*
X149077219Y-102648034D01*
X148911610Y-102527713D01*
X148911611Y-102527713D01*
X148911609Y-102527712D01*
X148911599Y-102527706D01*
X148729231Y-102434785D01*
X148729212Y-102434777D01*
X148534536Y-102371523D01*
X148534529Y-102371522D01*
X148419735Y-102353340D01*
X148332352Y-102339500D01*
X148127648Y-102339500D01*
X148120716Y-102340598D01*
X147925470Y-102371522D01*
X147925463Y-102371523D01*
X147730787Y-102434777D01*
X147730768Y-102434785D01*
X147548400Y-102527706D01*
X147548390Y-102527712D01*
X147382783Y-102648032D01*
X147382779Y-102648035D01*
X147238035Y-102792779D01*
X147238032Y-102792783D01*
X147117712Y-102958390D01*
X147117706Y-102958400D01*
X147024785Y-103140768D01*
X147024777Y-103140787D01*
X146961523Y-103335463D01*
X146961522Y-103335470D01*
X146929500Y-103537649D01*
X146929500Y-103742350D01*
X146961522Y-103944529D01*
X146961523Y-103944536D01*
X147024777Y-104139212D01*
X147024785Y-104139231D01*
X147117706Y-104321599D01*
X147117712Y-104321609D01*
X147190334Y-104421565D01*
X147238034Y-104487219D01*
X147238037Y-104487222D01*
X147243111Y-104493163D01*
X147240971Y-104494990D01*
X147279919Y-104556973D01*
X147289835Y-104644980D01*
X147260584Y-104728573D01*
X147197960Y-104791197D01*
X147161629Y-104809152D01*
X147087910Y-104836647D01*
X147087909Y-104836647D01*
X146972810Y-104922810D01*
X146886647Y-105037909D01*
X146886646Y-105037912D01*
X146836403Y-105172618D01*
X146836401Y-105172627D01*
X146830000Y-105232177D01*
X140030651Y-105232177D01*
X139914646Y-105116172D01*
X139900297Y-105105747D01*
X139886526Y-105090583D01*
X139874595Y-105069399D01*
X139858600Y-105051090D01*
X139853139Y-105031302D01*
X139843066Y-105013416D01*
X139841508Y-104989154D01*
X139835041Y-104965718D01*
X139838707Y-104945519D01*
X139837392Y-104925034D01*
X139846515Y-104902499D01*
X139850857Y-104878578D01*
X139862924Y-104861969D01*
X139870627Y-104842944D01*
X139888623Y-104826600D01*
X139902915Y-104806930D01*
X139927087Y-104791667D01*
X139936188Y-104783402D01*
X139943715Y-104781167D01*
X139954819Y-104774157D01*
X139960388Y-104771746D01*
X139960398Y-104771744D01*
X140101865Y-104688081D01*
X140218081Y-104571865D01*
X140301744Y-104430398D01*
X140347598Y-104272569D01*
X140350500Y-104235694D01*
X140350500Y-102904306D01*
X140347598Y-102867431D01*
X140301744Y-102709602D01*
X140218081Y-102568135D01*
X140101865Y-102451919D01*
X140101863Y-102451917D01*
X139960399Y-102368256D01*
X139865199Y-102340598D01*
X139787783Y-102297584D01*
X139736696Y-102225241D01*
X139722058Y-102137895D01*
X139746766Y-102052849D01*
X139805928Y-101986945D01*
X139887826Y-101953237D01*
X139920719Y-101950500D01*
X140791221Y-101950500D01*
X140791245Y-101950501D01*
X140799454Y-101950501D01*
X140980540Y-101950501D01*
X140980546Y-101950501D01*
X141159409Y-101922171D01*
X141331639Y-101866211D01*
X141374644Y-101844299D01*
X141492988Y-101783999D01*
X141492987Y-101783999D01*
X141492994Y-101783996D01*
X141639501Y-101677553D01*
X141767553Y-101549501D01*
X141767554Y-101549499D01*
X141778889Y-101538164D01*
X141778895Y-101538157D01*
X143038157Y-100278895D01*
X143038164Y-100278889D01*
X143049499Y-100267554D01*
X143049501Y-100267553D01*
X143177553Y-100139501D01*
X143283996Y-99992994D01*
X143366211Y-99831639D01*
X143422171Y-99659409D01*
X143422172Y-99659403D01*
X143425549Y-99638083D01*
X143450500Y-99480552D01*
X143450501Y-99480547D01*
X143450501Y-99332577D01*
X154005975Y-99332577D01*
X154111235Y-99376178D01*
X154256127Y-99405000D01*
X154403873Y-99405000D01*
X154548764Y-99376178D01*
X154548768Y-99376177D01*
X154654024Y-99332577D01*
X155405975Y-99332577D01*
X155511235Y-99376178D01*
X155656127Y-99405000D01*
X155803873Y-99405000D01*
X155948764Y-99376178D01*
X155948768Y-99376177D01*
X156054024Y-99332577D01*
X155730001Y-99008554D01*
X155730000Y-99008554D01*
X155405975Y-99332577D01*
X154654024Y-99332577D01*
X154330001Y-99008554D01*
X154330000Y-99008554D01*
X154005975Y-99332577D01*
X143450501Y-99332577D01*
X143450501Y-99299454D01*
X143450499Y-99299445D01*
X143450499Y-99299438D01*
X143450307Y-99298225D01*
X143450304Y-99298209D01*
X143443688Y-99256443D01*
X143422171Y-99120591D01*
X143366211Y-98948361D01*
X143366210Y-98948359D01*
X143366205Y-98948348D01*
X143283998Y-98787008D01*
X143242125Y-98729375D01*
X143212300Y-98688325D01*
X143177553Y-98640499D01*
X143118182Y-98581128D01*
X153580000Y-98581128D01*
X153580000Y-98728871D01*
X153608821Y-98873765D01*
X153608822Y-98873766D01*
X153652421Y-98979024D01*
X153976446Y-98655000D01*
X153976446Y-98654999D01*
X153956556Y-98635109D01*
X154230000Y-98635109D01*
X154230000Y-98674891D01*
X154245224Y-98711645D01*
X154273355Y-98739776D01*
X154310109Y-98755000D01*
X154349891Y-98755000D01*
X154386645Y-98739776D01*
X154414776Y-98711645D01*
X154430000Y-98674891D01*
X154430000Y-98655000D01*
X154683554Y-98655000D01*
X155009745Y-98981191D01*
X155017742Y-98978840D01*
X155038727Y-98982286D01*
X155049158Y-98982286D01*
X155376446Y-98654999D01*
X155356556Y-98635109D01*
X155630000Y-98635109D01*
X155630000Y-98674891D01*
X155645224Y-98711645D01*
X155673355Y-98739776D01*
X155710109Y-98755000D01*
X155749891Y-98755000D01*
X155786645Y-98739776D01*
X155814776Y-98711645D01*
X155830000Y-98674891D01*
X155830000Y-98654999D01*
X156083554Y-98654999D01*
X156083554Y-98655000D01*
X156407577Y-98979023D01*
X156451177Y-98873768D01*
X156451178Y-98873764D01*
X156480000Y-98728873D01*
X156480000Y-98581126D01*
X156451178Y-98436235D01*
X156407577Y-98330975D01*
X156083554Y-98654999D01*
X155830000Y-98654999D01*
X155830000Y-98635109D01*
X155814776Y-98598355D01*
X155786645Y-98570224D01*
X155749891Y-98555000D01*
X155710109Y-98555000D01*
X155673355Y-98570224D01*
X155645224Y-98598355D01*
X155630000Y-98635109D01*
X155356556Y-98635109D01*
X155048591Y-98327144D01*
X155042962Y-98326986D01*
X155011120Y-98327433D01*
X154683554Y-98655000D01*
X154430000Y-98655000D01*
X154430000Y-98635109D01*
X154414776Y-98598355D01*
X154386645Y-98570224D01*
X154349891Y-98555000D01*
X154310109Y-98555000D01*
X154273355Y-98570224D01*
X154245224Y-98598355D01*
X154230000Y-98635109D01*
X153956556Y-98635109D01*
X153652421Y-98330974D01*
X153608822Y-98436232D01*
X153608821Y-98436234D01*
X153580000Y-98581128D01*
X143118182Y-98581128D01*
X143049501Y-98512447D01*
X142902994Y-98406004D01*
X142902992Y-98406003D01*
X142902988Y-98406000D01*
X142741651Y-98323794D01*
X142741640Y-98323789D01*
X142672873Y-98301446D01*
X142569409Y-98267829D01*
X142569403Y-98267828D01*
X142569404Y-98267828D01*
X142390551Y-98239499D01*
X142390546Y-98239499D01*
X142209453Y-98239499D01*
X142209447Y-98239499D01*
X142030596Y-98267827D01*
X141858359Y-98323789D01*
X141858348Y-98323794D01*
X141697011Y-98406000D01*
X141550496Y-98512449D01*
X141481820Y-98581126D01*
X141422447Y-98640499D01*
X141422444Y-98640502D01*
X140942352Y-99120595D01*
X140471733Y-99591214D01*
X140396745Y-99638333D01*
X140331019Y-99649500D01*
X136498779Y-99649500D01*
X136498755Y-99649499D01*
X136490546Y-99649499D01*
X136309454Y-99649499D01*
X136309448Y-99649499D01*
X136130595Y-99677828D01*
X136130592Y-99677828D01*
X136130591Y-99677829D01*
X136076237Y-99695489D01*
X135958359Y-99733789D01*
X135958348Y-99733794D01*
X135797011Y-99816000D01*
X135650496Y-99922449D01*
X133610214Y-101962732D01*
X133535226Y-102009851D01*
X133447219Y-102019767D01*
X133363626Y-101990516D01*
X133301002Y-101927892D01*
X133271751Y-101844299D01*
X133270500Y-101822018D01*
X133270500Y-98055000D01*
X154083554Y-98055000D01*
X154330000Y-98301446D01*
X154576446Y-98055000D01*
X155483554Y-98055000D01*
X155730000Y-98301446D01*
X155976446Y-98055000D01*
X155730000Y-97808554D01*
X155483554Y-98055000D01*
X154576446Y-98055000D01*
X154330000Y-97808554D01*
X154083554Y-98055000D01*
X133270500Y-98055000D01*
X133270500Y-97381128D01*
X153580000Y-97381128D01*
X153580000Y-97528871D01*
X153608821Y-97673765D01*
X153608822Y-97673766D01*
X153652421Y-97779024D01*
X153976446Y-97455000D01*
X153976446Y-97454999D01*
X153956556Y-97435109D01*
X154230000Y-97435109D01*
X154230000Y-97474891D01*
X154245224Y-97511645D01*
X154273355Y-97539776D01*
X154310109Y-97555000D01*
X154349891Y-97555000D01*
X154386645Y-97539776D01*
X154414776Y-97511645D01*
X154430000Y-97474891D01*
X154430000Y-97455000D01*
X154683554Y-97455000D01*
X155010840Y-97782286D01*
X155049158Y-97782286D01*
X155376446Y-97454999D01*
X155356556Y-97435109D01*
X155630000Y-97435109D01*
X155630000Y-97474891D01*
X155645224Y-97511645D01*
X155673355Y-97539776D01*
X155710109Y-97555000D01*
X155749891Y-97555000D01*
X155786645Y-97539776D01*
X155814776Y-97511645D01*
X155830000Y-97474891D01*
X155830000Y-97454999D01*
X156083554Y-97454999D01*
X156083554Y-97455000D01*
X156407577Y-97779023D01*
X156451177Y-97673768D01*
X156451178Y-97673764D01*
X156480000Y-97528873D01*
X156480000Y-97381126D01*
X156451178Y-97236235D01*
X156407577Y-97130975D01*
X156083554Y-97454999D01*
X155830000Y-97454999D01*
X155830000Y-97435109D01*
X155814776Y-97398355D01*
X155786645Y-97370224D01*
X155749891Y-97355000D01*
X155710109Y-97355000D01*
X155673355Y-97370224D01*
X155645224Y-97398355D01*
X155630000Y-97435109D01*
X155356556Y-97435109D01*
X155048591Y-97127144D01*
X155042962Y-97126986D01*
X155011120Y-97127433D01*
X154683554Y-97455000D01*
X154430000Y-97455000D01*
X154430000Y-97435109D01*
X154414776Y-97398355D01*
X154386645Y-97370224D01*
X154349891Y-97355000D01*
X154310109Y-97355000D01*
X154273355Y-97370224D01*
X154245224Y-97398355D01*
X154230000Y-97435109D01*
X153956556Y-97435109D01*
X153652421Y-97130974D01*
X153608822Y-97236232D01*
X153608821Y-97236234D01*
X153580000Y-97381128D01*
X133270500Y-97381128D01*
X133270500Y-95729999D01*
X137392768Y-95729999D01*
X137392769Y-95730000D01*
X138436988Y-95730000D01*
X138404075Y-95787007D01*
X138370000Y-95914174D01*
X138370000Y-96045826D01*
X138404075Y-96172993D01*
X138436988Y-96230000D01*
X137392769Y-96230000D01*
X137403240Y-96296117D01*
X137403244Y-96296133D01*
X137468903Y-96498213D01*
X137468911Y-96498232D01*
X137565373Y-96687548D01*
X137690280Y-96859469D01*
X137840530Y-97009719D01*
X138012451Y-97134626D01*
X138201767Y-97231088D01*
X138201786Y-97231096D01*
X138403871Y-97296757D01*
X138403878Y-97296758D01*
X138613754Y-97330000D01*
X138620000Y-97330000D01*
X138620000Y-96413012D01*
X138677007Y-96445925D01*
X138804174Y-96480000D01*
X138935826Y-96480000D01*
X139062993Y-96445925D01*
X139120000Y-96413012D01*
X139120000Y-97330000D01*
X139126246Y-97330000D01*
X139336121Y-97296758D01*
X139336128Y-97296757D01*
X139538213Y-97231096D01*
X139538232Y-97231088D01*
X139610934Y-97194045D01*
X139727548Y-97134626D01*
X139899469Y-97009719D01*
X140049719Y-96859469D01*
X140052966Y-96855000D01*
X154083554Y-96855000D01*
X154330000Y-97101446D01*
X154576446Y-96855000D01*
X155483554Y-96855000D01*
X155730000Y-97101446D01*
X155976446Y-96855000D01*
X155730000Y-96608554D01*
X155483554Y-96855000D01*
X154576446Y-96855000D01*
X154330000Y-96608554D01*
X154083554Y-96855000D01*
X140052966Y-96855000D01*
X140174626Y-96687548D01*
X140271088Y-96498232D01*
X140271096Y-96498213D01*
X140336755Y-96296133D01*
X140336759Y-96296117D01*
X140347231Y-96230000D01*
X139303012Y-96230000D01*
X139331228Y-96181128D01*
X153580000Y-96181128D01*
X153580000Y-96328871D01*
X153608821Y-96473765D01*
X153608822Y-96473766D01*
X153652421Y-96579024D01*
X153976446Y-96255000D01*
X153976446Y-96254999D01*
X153956556Y-96235109D01*
X154230000Y-96235109D01*
X154230000Y-96274891D01*
X154245224Y-96311645D01*
X154273355Y-96339776D01*
X154310109Y-96355000D01*
X154349891Y-96355000D01*
X154386645Y-96339776D01*
X154414776Y-96311645D01*
X154430000Y-96274891D01*
X154430000Y-96255000D01*
X154683554Y-96255000D01*
X155010840Y-96582286D01*
X155049158Y-96582286D01*
X155376446Y-96254999D01*
X155356556Y-96235109D01*
X155630000Y-96235109D01*
X155630000Y-96274891D01*
X155645224Y-96311645D01*
X155673355Y-96339776D01*
X155710109Y-96355000D01*
X155749891Y-96355000D01*
X155786645Y-96339776D01*
X155814776Y-96311645D01*
X155830000Y-96274891D01*
X155830000Y-96254999D01*
X156083554Y-96254999D01*
X156083554Y-96255000D01*
X156407577Y-96579023D01*
X156451177Y-96473768D01*
X156451178Y-96473764D01*
X156480000Y-96328873D01*
X156480000Y-96181126D01*
X156451178Y-96036235D01*
X156407577Y-95930975D01*
X156083554Y-96254999D01*
X155830000Y-96254999D01*
X155830000Y-96235109D01*
X155814776Y-96198355D01*
X155786645Y-96170224D01*
X155749891Y-96155000D01*
X155710109Y-96155000D01*
X155673355Y-96170224D01*
X155645224Y-96198355D01*
X155630000Y-96235109D01*
X155356556Y-96235109D01*
X155048591Y-95927144D01*
X155043117Y-95926990D01*
X155017742Y-95931158D01*
X155008583Y-95929970D01*
X154683554Y-96255000D01*
X154430000Y-96255000D01*
X154430000Y-96235109D01*
X154414776Y-96198355D01*
X154386645Y-96170224D01*
X154349891Y-96155000D01*
X154310109Y-96155000D01*
X154273355Y-96170224D01*
X154245224Y-96198355D01*
X154230000Y-96235109D01*
X153956556Y-96235109D01*
X153652421Y-95930974D01*
X153608822Y-96036232D01*
X153608821Y-96036234D01*
X153580000Y-96181128D01*
X139331228Y-96181128D01*
X139335925Y-96172993D01*
X139370000Y-96045826D01*
X139370000Y-95914174D01*
X139335925Y-95787007D01*
X139303012Y-95730000D01*
X140347231Y-95730000D01*
X140347231Y-95729999D01*
X140338370Y-95674052D01*
X140336759Y-95663882D01*
X140336755Y-95663866D01*
X140308668Y-95577421D01*
X154005974Y-95577421D01*
X154330000Y-95901446D01*
X154330001Y-95901446D01*
X154654024Y-95577421D01*
X155405974Y-95577421D01*
X155730000Y-95901446D01*
X155730001Y-95901446D01*
X156054024Y-95577421D01*
X155948766Y-95533822D01*
X155948765Y-95533821D01*
X155803872Y-95505000D01*
X155656128Y-95505000D01*
X155511234Y-95533821D01*
X155511232Y-95533822D01*
X155405974Y-95577421D01*
X154654024Y-95577421D01*
X154548766Y-95533822D01*
X154548765Y-95533821D01*
X154403872Y-95505000D01*
X154256128Y-95505000D01*
X154111234Y-95533821D01*
X154111232Y-95533822D01*
X154005974Y-95577421D01*
X140308668Y-95577421D01*
X140271096Y-95461786D01*
X140271088Y-95461767D01*
X140174626Y-95272451D01*
X140049719Y-95100530D01*
X139905047Y-94955858D01*
X139857928Y-94880870D01*
X139848012Y-94792863D01*
X139877263Y-94709270D01*
X139939887Y-94646646D01*
X139944429Y-94643875D01*
X140021865Y-94598081D01*
X140138081Y-94481865D01*
X140221744Y-94340398D01*
X140267598Y-94182569D01*
X140270500Y-94145694D01*
X140270500Y-92814306D01*
X140267598Y-92777431D01*
X140221744Y-92619602D01*
X140138081Y-92478135D01*
X140021865Y-92361919D01*
X140021863Y-92361917D01*
X139880399Y-92278256D01*
X139722569Y-92232402D01*
X139685694Y-92229500D01*
X138054306Y-92229500D01*
X138023576Y-92231918D01*
X138017430Y-92232402D01*
X137859600Y-92278256D01*
X137718136Y-92361917D01*
X137601917Y-92478136D01*
X137518256Y-92619600D01*
X137472402Y-92777430D01*
X137469500Y-92814311D01*
X137469500Y-94145688D01*
X137472402Y-94182569D01*
X137518256Y-94340399D01*
X137601917Y-94481863D01*
X137718137Y-94598083D01*
X137795536Y-94643856D01*
X137859824Y-94704770D01*
X137891315Y-94787545D01*
X137883773Y-94875787D01*
X137838691Y-94952017D01*
X137834953Y-94955858D01*
X137690277Y-95100534D01*
X137565373Y-95272451D01*
X137468911Y-95461767D01*
X137468903Y-95461786D01*
X137403244Y-95663866D01*
X137403240Y-95663882D01*
X137392768Y-95729999D01*
X133270500Y-95729999D01*
X133270500Y-76623754D01*
X154465000Y-76623754D01*
X154465000Y-76836245D01*
X154498241Y-77046121D01*
X154498242Y-77046128D01*
X154563903Y-77248213D01*
X154563911Y-77248232D01*
X154660370Y-77437543D01*
X154660382Y-77437561D01*
X154699728Y-77491717D01*
X155332037Y-76859408D01*
X155349075Y-76922993D01*
X155414901Y-77037007D01*
X155507993Y-77130099D01*
X155622007Y-77195925D01*
X155685590Y-77212962D01*
X155053281Y-77845270D01*
X155107446Y-77884623D01*
X155114123Y-77888715D01*
X155113102Y-77890380D01*
X155172251Y-77939745D01*
X155208889Y-78020374D01*
X155206916Y-78108916D01*
X155166721Y-78187833D01*
X155130911Y-78221315D01*
X155000351Y-78316173D01*
X154861177Y-78455347D01*
X154861176Y-78455349D01*
X154745477Y-78614592D01*
X154656113Y-78789981D01*
X154656113Y-78789982D01*
X154595291Y-78977171D01*
X154595289Y-78977179D01*
X154564500Y-79171583D01*
X154564500Y-79368416D01*
X154595289Y-79562820D01*
X154595291Y-79562828D01*
X154656113Y-79750017D01*
X154656113Y-79750018D01*
X154656115Y-79750021D01*
X154656116Y-79750025D01*
X154745476Y-79925405D01*
X154861172Y-80084646D01*
X154861176Y-80084650D01*
X154861177Y-80084652D01*
X155000347Y-80223822D01*
X155000349Y-80223823D01*
X155000354Y-80223828D01*
X155159595Y-80339524D01*
X155334975Y-80428884D01*
X155334980Y-80428885D01*
X155334981Y-80428886D01*
X155459774Y-80469434D01*
X155522174Y-80489709D01*
X155522176Y-80489709D01*
X155522179Y-80489710D01*
X155716583Y-80520500D01*
X155913417Y-80520500D01*
X156107820Y-80489710D01*
X156107820Y-80489709D01*
X156107826Y-80489709D01*
X156295025Y-80428884D01*
X156470405Y-80339524D01*
X156629646Y-80223828D01*
X156768828Y-80084646D01*
X156884524Y-79925405D01*
X156973884Y-79750025D01*
X157034709Y-79562826D01*
X157065500Y-79368417D01*
X157065500Y-79171583D01*
X157034709Y-78977174D01*
X156973884Y-78789975D01*
X156884524Y-78614595D01*
X156768828Y-78455354D01*
X156768823Y-78455349D01*
X156768822Y-78455347D01*
X156629651Y-78316176D01*
X156629647Y-78316173D01*
X156629646Y-78316172D01*
X156499086Y-78221314D01*
X156440819Y-78154621D01*
X156417258Y-78069249D01*
X156433072Y-77982109D01*
X156485129Y-77910460D01*
X156516304Y-77889378D01*
X156515892Y-77888705D01*
X156522554Y-77884622D01*
X156576716Y-77845271D01*
X156576716Y-77845270D01*
X155944409Y-77212962D01*
X156007993Y-77195925D01*
X156122007Y-77130099D01*
X156215099Y-77037007D01*
X156280925Y-76922993D01*
X156297962Y-76859408D01*
X156930270Y-77491716D01*
X156930271Y-77491716D01*
X156969621Y-77437556D01*
X157066090Y-77248226D01*
X157066096Y-77248213D01*
X157131757Y-77046128D01*
X157131758Y-77046121D01*
X157165000Y-76836245D01*
X157165000Y-76623754D01*
X160125000Y-76623754D01*
X160125000Y-76836245D01*
X160158241Y-77046121D01*
X160158242Y-77046128D01*
X160223903Y-77248213D01*
X160223911Y-77248232D01*
X160320370Y-77437543D01*
X160320382Y-77437561D01*
X160359728Y-77491717D01*
X160992037Y-76859408D01*
X161009075Y-76922993D01*
X161074901Y-77037007D01*
X161167993Y-77130099D01*
X161282007Y-77195925D01*
X161345590Y-77212962D01*
X160705336Y-77853215D01*
X160698044Y-77902852D01*
X160648428Y-77976212D01*
X160571896Y-78020780D01*
X160543661Y-78027391D01*
X160499694Y-78034354D01*
X160386655Y-78091951D01*
X160296949Y-78181657D01*
X160239355Y-78294692D01*
X160239353Y-78294699D01*
X160224500Y-78388481D01*
X160224500Y-80151518D01*
X160235952Y-80223822D01*
X160239353Y-80245300D01*
X160239354Y-80245303D01*
X160239354Y-80245305D01*
X160296951Y-80358344D01*
X160386657Y-80448050D01*
X160468416Y-80489708D01*
X160499696Y-80505646D01*
X160593481Y-80520500D01*
X162356518Y-80520499D01*
X162450304Y-80505646D01*
X162563342Y-80448050D01*
X162653050Y-80358342D01*
X162710646Y-80245304D01*
X162725500Y-80151519D01*
X162725499Y-78388482D01*
X162710646Y-78294696D01*
X162653050Y-78181658D01*
X162653049Y-78181657D01*
X162653048Y-78181655D01*
X162563342Y-78091949D01*
X162450307Y-78034355D01*
X162450301Y-78034353D01*
X162406336Y-78027390D01*
X162324139Y-77994418D01*
X162264388Y-77929047D01*
X162240310Y-77848864D01*
X161604409Y-77212962D01*
X161667993Y-77195925D01*
X161782007Y-77130099D01*
X161875099Y-77037007D01*
X161940925Y-76922993D01*
X161957962Y-76859408D01*
X162590270Y-77491716D01*
X162590271Y-77491716D01*
X162629621Y-77437556D01*
X162726090Y-77248226D01*
X162726096Y-77248213D01*
X162791757Y-77046128D01*
X162791758Y-77046121D01*
X162825000Y-76836245D01*
X162825000Y-76623754D01*
X162791758Y-76413878D01*
X162791757Y-76413871D01*
X162726096Y-76211786D01*
X162726088Y-76211767D01*
X162629629Y-76022456D01*
X162629623Y-76022446D01*
X162590270Y-75968281D01*
X161957962Y-76600590D01*
X161940925Y-76537007D01*
X161875099Y-76422993D01*
X161782007Y-76329901D01*
X161667993Y-76264075D01*
X161604409Y-76247037D01*
X162236717Y-75614728D01*
X162236717Y-75614727D01*
X162182561Y-75575382D01*
X162175886Y-75571291D01*
X162176904Y-75569629D01*
X162117736Y-75520238D01*
X162081106Y-75439605D01*
X162083088Y-75351063D01*
X162123291Y-75272151D01*
X162159085Y-75238686D01*
X162289646Y-75143828D01*
X162428828Y-75004646D01*
X162544524Y-74845405D01*
X162633884Y-74670025D01*
X162694709Y-74482826D01*
X162725500Y-74288417D01*
X162725500Y-74091583D01*
X162694709Y-73897174D01*
X162633884Y-73709975D01*
X162544524Y-73534595D01*
X162428828Y-73375354D01*
X162428823Y-73375349D01*
X162428822Y-73375347D01*
X162289652Y-73236177D01*
X162289650Y-73236176D01*
X162289646Y-73236172D01*
X162130405Y-73120476D01*
X162084938Y-73097309D01*
X162016955Y-73040553D01*
X161980328Y-72959919D01*
X161982314Y-72871378D01*
X162022521Y-72792467D01*
X162084938Y-72742690D01*
X162130405Y-72719524D01*
X162289646Y-72603828D01*
X162428828Y-72464646D01*
X162544524Y-72305405D01*
X162633884Y-72130025D01*
X162694709Y-71942826D01*
X162725500Y-71748417D01*
X162725500Y-71551583D01*
X162694709Y-71357174D01*
X162633884Y-71169975D01*
X162544524Y-70994595D01*
X162428828Y-70835354D01*
X162428823Y-70835349D01*
X162428822Y-70835347D01*
X162289652Y-70696177D01*
X162289650Y-70696176D01*
X162289646Y-70696172D01*
X162130405Y-70580476D01*
X162084938Y-70557309D01*
X162016955Y-70500553D01*
X161980328Y-70419919D01*
X161982314Y-70331378D01*
X162022521Y-70252467D01*
X162084938Y-70202690D01*
X162130405Y-70179524D01*
X162289646Y-70063828D01*
X162428828Y-69924646D01*
X162544524Y-69765405D01*
X162633884Y-69590025D01*
X162694709Y-69402826D01*
X162725500Y-69208417D01*
X162725500Y-69011583D01*
X162694709Y-68817174D01*
X162633884Y-68629975D01*
X162544524Y-68454595D01*
X162428828Y-68295354D01*
X162428823Y-68295349D01*
X162428822Y-68295347D01*
X162289652Y-68156177D01*
X162289650Y-68156176D01*
X162289646Y-68156172D01*
X162177049Y-68074365D01*
X162130407Y-68040477D01*
X162124704Y-68037571D01*
X161955025Y-67951116D01*
X161955021Y-67951115D01*
X161955018Y-67951113D01*
X161767828Y-67890291D01*
X161767820Y-67890289D01*
X161573417Y-67859500D01*
X161376583Y-67859500D01*
X161182179Y-67890289D01*
X161182171Y-67890291D01*
X160994982Y-67951113D01*
X160994981Y-67951113D01*
X160819592Y-68040477D01*
X160698156Y-68128706D01*
X160660354Y-68156172D01*
X160660352Y-68156173D01*
X160660349Y-68156176D01*
X160660347Y-68156177D01*
X160521177Y-68295347D01*
X160521176Y-68295349D01*
X160405477Y-68454592D01*
X160316113Y-68629981D01*
X160316113Y-68629982D01*
X160255291Y-68817171D01*
X160255289Y-68817179D01*
X160224500Y-69011583D01*
X160224500Y-69208416D01*
X160255289Y-69402820D01*
X160255291Y-69402828D01*
X160316113Y-69590017D01*
X160316113Y-69590018D01*
X160316115Y-69590021D01*
X160316116Y-69590025D01*
X160405476Y-69765405D01*
X160521172Y-69924646D01*
X160521176Y-69924650D01*
X160521177Y-69924652D01*
X160660347Y-70063822D01*
X160660349Y-70063823D01*
X160660354Y-70063828D01*
X160819595Y-70179524D01*
X160819597Y-70179525D01*
X160865060Y-70202690D01*
X160933045Y-70259448D01*
X160969671Y-70340083D01*
X160967684Y-70428624D01*
X160927477Y-70507534D01*
X160865060Y-70557310D01*
X160819597Y-70580474D01*
X160724326Y-70649693D01*
X160660354Y-70696172D01*
X160660352Y-70696173D01*
X160660349Y-70696176D01*
X160660347Y-70696177D01*
X160521177Y-70835347D01*
X160521176Y-70835349D01*
X160405477Y-70994592D01*
X160316113Y-71169981D01*
X160316113Y-71169982D01*
X160255291Y-71357171D01*
X160255289Y-71357179D01*
X160224500Y-71551583D01*
X160224500Y-71748416D01*
X160255289Y-71942820D01*
X160255291Y-71942828D01*
X160316113Y-72130017D01*
X160316113Y-72130018D01*
X160316115Y-72130021D01*
X160316116Y-72130025D01*
X160405476Y-72305405D01*
X160521172Y-72464646D01*
X160521176Y-72464650D01*
X160521177Y-72464652D01*
X160660347Y-72603822D01*
X160660349Y-72603823D01*
X160660354Y-72603828D01*
X160819595Y-72719524D01*
X160819597Y-72719525D01*
X160865060Y-72742690D01*
X160933045Y-72799448D01*
X160969671Y-72880083D01*
X160967684Y-72968624D01*
X160927477Y-73047534D01*
X160865060Y-73097310D01*
X160819597Y-73120474D01*
X160758207Y-73165077D01*
X160660354Y-73236172D01*
X160660352Y-73236173D01*
X160660349Y-73236176D01*
X160660347Y-73236177D01*
X160521177Y-73375347D01*
X160521176Y-73375349D01*
X160405477Y-73534592D01*
X160316113Y-73709981D01*
X160316113Y-73709982D01*
X160255291Y-73897171D01*
X160255289Y-73897179D01*
X160224500Y-74091583D01*
X160224500Y-74288416D01*
X160255289Y-74482820D01*
X160255291Y-74482828D01*
X160316113Y-74670017D01*
X160316113Y-74670018D01*
X160316115Y-74670021D01*
X160316116Y-74670025D01*
X160405476Y-74845405D01*
X160521172Y-75004646D01*
X160521176Y-75004650D01*
X160521177Y-75004652D01*
X160660347Y-75143822D01*
X160660349Y-75143823D01*
X160660354Y-75143828D01*
X160790910Y-75238683D01*
X160849179Y-75305378D01*
X160872740Y-75390750D01*
X160856926Y-75477890D01*
X160804869Y-75549539D01*
X160773703Y-75570620D01*
X160774115Y-75571291D01*
X160767442Y-75575379D01*
X160713282Y-75614728D01*
X161345591Y-76247037D01*
X161282007Y-76264075D01*
X161167993Y-76329901D01*
X161074901Y-76422993D01*
X161009075Y-76537007D01*
X160992037Y-76600591D01*
X160359728Y-75968282D01*
X160320379Y-76022442D01*
X160320373Y-76022452D01*
X160223909Y-76211773D01*
X160223903Y-76211786D01*
X160158242Y-76413871D01*
X160158241Y-76413878D01*
X160125000Y-76623754D01*
X157165000Y-76623754D01*
X157131758Y-76413878D01*
X157131757Y-76413871D01*
X157066096Y-76211786D01*
X157066088Y-76211767D01*
X156969629Y-76022456D01*
X156969623Y-76022446D01*
X156930270Y-75968281D01*
X156297962Y-76600590D01*
X156280925Y-76537007D01*
X156215099Y-76422993D01*
X156122007Y-76329901D01*
X156007993Y-76264075D01*
X155944409Y-76247037D01*
X156576717Y-75614728D01*
X156576717Y-75614727D01*
X156522561Y-75575382D01*
X156515886Y-75571291D01*
X156516904Y-75569629D01*
X156457736Y-75520238D01*
X156421106Y-75439605D01*
X156423088Y-75351063D01*
X156463291Y-75272151D01*
X156499085Y-75238686D01*
X156629646Y-75143828D01*
X156768828Y-75004646D01*
X156884524Y-74845405D01*
X156973884Y-74670025D01*
X157034709Y-74482826D01*
X157065500Y-74288417D01*
X157065500Y-74091583D01*
X157034709Y-73897174D01*
X156973884Y-73709975D01*
X156884524Y-73534595D01*
X156768828Y-73375354D01*
X156768823Y-73375349D01*
X156768822Y-73375347D01*
X156625180Y-73231705D01*
X156578061Y-73156717D01*
X156568145Y-73068710D01*
X156597396Y-72985117D01*
X156660020Y-72922493D01*
X156734760Y-72894442D01*
X156790304Y-72885646D01*
X156903342Y-72828050D01*
X156993050Y-72738342D01*
X157050646Y-72625304D01*
X157065500Y-72531519D01*
X157065499Y-70768482D01*
X157050646Y-70674696D01*
X156993050Y-70561658D01*
X156993049Y-70561657D01*
X156993048Y-70561655D01*
X156903342Y-70471949D01*
X156790307Y-70414355D01*
X156790304Y-70414354D01*
X156790302Y-70414353D01*
X156790300Y-70414353D01*
X156724818Y-70403982D01*
X156696519Y-70399500D01*
X156696518Y-70399500D01*
X154933481Y-70399500D01*
X154839696Y-70414354D01*
X154839694Y-70414354D01*
X154726655Y-70471951D01*
X154636949Y-70561657D01*
X154579355Y-70674692D01*
X154579353Y-70674699D01*
X154564500Y-70768481D01*
X154564500Y-72531518D01*
X154575952Y-72603822D01*
X154579353Y-72625300D01*
X154579354Y-72625303D01*
X154579354Y-72625305D01*
X154636951Y-72738344D01*
X154726657Y-72828050D01*
X154828778Y-72880083D01*
X154839696Y-72885646D01*
X154895233Y-72894442D01*
X154977431Y-72927413D01*
X155037182Y-72992783D01*
X155062653Y-73077604D01*
X155048799Y-73165077D01*
X155004819Y-73231706D01*
X154861174Y-73375351D01*
X154745477Y-73534592D01*
X154656113Y-73709981D01*
X154656113Y-73709982D01*
X154595291Y-73897171D01*
X154595289Y-73897179D01*
X154564500Y-74091583D01*
X154564500Y-74288416D01*
X154595289Y-74482820D01*
X154595291Y-74482828D01*
X154656113Y-74670017D01*
X154656113Y-74670018D01*
X154656115Y-74670021D01*
X154656116Y-74670025D01*
X154745476Y-74845405D01*
X154861172Y-75004646D01*
X154861176Y-75004650D01*
X154861177Y-75004652D01*
X155000347Y-75143822D01*
X155000349Y-75143823D01*
X155000354Y-75143828D01*
X155130910Y-75238683D01*
X155189179Y-75305378D01*
X155212740Y-75390750D01*
X155196926Y-75477890D01*
X155144869Y-75549539D01*
X155113703Y-75570620D01*
X155114115Y-75571291D01*
X155107442Y-75575379D01*
X155053282Y-75614728D01*
X155685591Y-76247037D01*
X155622007Y-76264075D01*
X155507993Y-76329901D01*
X155414901Y-76422993D01*
X155349075Y-76537007D01*
X155332037Y-76600591D01*
X154699728Y-75968282D01*
X154660379Y-76022442D01*
X154660373Y-76022452D01*
X154563909Y-76211773D01*
X154563903Y-76211786D01*
X154498242Y-76413871D01*
X154498241Y-76413878D01*
X154465000Y-76623754D01*
X133270500Y-76623754D01*
X133270500Y-72538067D01*
X133290207Y-72451724D01*
X133345426Y-72382483D01*
X133425218Y-72344056D01*
X133513782Y-72344056D01*
X133580060Y-72372605D01*
X133586086Y-72376632D01*
X133586088Y-72376633D01*
X133586090Y-72376634D01*
X133707472Y-72426911D01*
X133768165Y-72452051D01*
X133961459Y-72490500D01*
X133961460Y-72490500D01*
X134158540Y-72490500D01*
X134158541Y-72490500D01*
X134351835Y-72452051D01*
X134533914Y-72376632D01*
X134697782Y-72267139D01*
X134837139Y-72127782D01*
X134946632Y-71963914D01*
X135022051Y-71781835D01*
X135060500Y-71588541D01*
X135060500Y-71391459D01*
X135022051Y-71198165D01*
X134946632Y-71016086D01*
X134926559Y-70986045D01*
X134894037Y-70937371D01*
X134889004Y-70924188D01*
X134880207Y-70913156D01*
X134873385Y-70883267D01*
X134862454Y-70854630D01*
X134860500Y-70826813D01*
X134860500Y-57294005D01*
X134867928Y-57261457D01*
X134871667Y-57228279D01*
X134877688Y-57218695D01*
X134880207Y-57207662D01*
X134897171Y-57183754D01*
X160090000Y-57183754D01*
X160090000Y-57396245D01*
X160123241Y-57606121D01*
X160123242Y-57606128D01*
X160188903Y-57808213D01*
X160188911Y-57808232D01*
X160285370Y-57997543D01*
X160285382Y-57997561D01*
X160324728Y-58051717D01*
X160957037Y-57419408D01*
X160974075Y-57482993D01*
X161039901Y-57597007D01*
X161132993Y-57690099D01*
X161247007Y-57755925D01*
X161310590Y-57772962D01*
X160678281Y-58405270D01*
X160732446Y-58444623D01*
X160739123Y-58448715D01*
X160738102Y-58450380D01*
X160797251Y-58499745D01*
X160833889Y-58580374D01*
X160831916Y-58668916D01*
X160791721Y-58747833D01*
X160755911Y-58781315D01*
X160625351Y-58876173D01*
X160486177Y-59015347D01*
X160486176Y-59015349D01*
X160370477Y-59174592D01*
X160281113Y-59349981D01*
X160281113Y-59349982D01*
X160220291Y-59537171D01*
X160220289Y-59537179D01*
X160189500Y-59731583D01*
X160189500Y-59928416D01*
X160220289Y-60122820D01*
X160220291Y-60122828D01*
X160281113Y-60310017D01*
X160281113Y-60310018D01*
X160281115Y-60310021D01*
X160281116Y-60310025D01*
X160370476Y-60485405D01*
X160486172Y-60644646D01*
X160486176Y-60644650D01*
X160486177Y-60644652D01*
X160625347Y-60783822D01*
X160625349Y-60783823D01*
X160625354Y-60783828D01*
X160784595Y-60899524D01*
X160784597Y-60899525D01*
X160830060Y-60922690D01*
X160898045Y-60979448D01*
X160934671Y-61060083D01*
X160932684Y-61148624D01*
X160892477Y-61227534D01*
X160830060Y-61277310D01*
X160784597Y-61300474D01*
X160689326Y-61369693D01*
X160625354Y-61416172D01*
X160625352Y-61416173D01*
X160625349Y-61416176D01*
X160625347Y-61416177D01*
X160486177Y-61555347D01*
X160486176Y-61555349D01*
X160370477Y-61714592D01*
X160281113Y-61889981D01*
X160281113Y-61889982D01*
X160220291Y-62077171D01*
X160220289Y-62077179D01*
X160189500Y-62271583D01*
X160189500Y-62468416D01*
X160220289Y-62662820D01*
X160220291Y-62662828D01*
X160281113Y-62850017D01*
X160281113Y-62850018D01*
X160281115Y-62850021D01*
X160281116Y-62850025D01*
X160370476Y-63025405D01*
X160486172Y-63184646D01*
X160486176Y-63184650D01*
X160486177Y-63184652D01*
X160629819Y-63328294D01*
X160676938Y-63403282D01*
X160686854Y-63491289D01*
X160657603Y-63574882D01*
X160594979Y-63637506D01*
X160520235Y-63665558D01*
X160464695Y-63674354D01*
X160464694Y-63674354D01*
X160351655Y-63731951D01*
X160261949Y-63821657D01*
X160204355Y-63934692D01*
X160204353Y-63934699D01*
X160189500Y-64028481D01*
X160189500Y-65791518D01*
X160202323Y-65872480D01*
X160204353Y-65885300D01*
X160204354Y-65885303D01*
X160204354Y-65885305D01*
X160261951Y-65998344D01*
X160351657Y-66088050D01*
X160464692Y-66145644D01*
X160464696Y-66145646D01*
X160558481Y-66160500D01*
X162321518Y-66160499D01*
X162415304Y-66145646D01*
X162528342Y-66088050D01*
X162618050Y-65998342D01*
X162675646Y-65885304D01*
X162690500Y-65791519D01*
X162690499Y-64028482D01*
X162675646Y-63934696D01*
X162618050Y-63821658D01*
X162618049Y-63821657D01*
X162618048Y-63821655D01*
X162528342Y-63731949D01*
X162415307Y-63674355D01*
X162415302Y-63674353D01*
X162359763Y-63665557D01*
X162277567Y-63632585D01*
X162217816Y-63567214D01*
X162192346Y-63482392D01*
X162206201Y-63394919D01*
X162250181Y-63328292D01*
X162254642Y-63323830D01*
X162254646Y-63323828D01*
X162393828Y-63184646D01*
X162509524Y-63025405D01*
X162598884Y-62850025D01*
X162659709Y-62662826D01*
X162690500Y-62468417D01*
X162690500Y-62271583D01*
X162659709Y-62077174D01*
X162598884Y-61889975D01*
X162509524Y-61714595D01*
X162393828Y-61555354D01*
X162393823Y-61555349D01*
X162393822Y-61555347D01*
X162254652Y-61416177D01*
X162254650Y-61416176D01*
X162254646Y-61416172D01*
X162095405Y-61300476D01*
X162049938Y-61277309D01*
X161981955Y-61220553D01*
X161945328Y-61139919D01*
X161947314Y-61051378D01*
X161987521Y-60972467D01*
X162049938Y-60922690D01*
X162095405Y-60899524D01*
X162254646Y-60783828D01*
X162393828Y-60644646D01*
X162509524Y-60485405D01*
X162598884Y-60310025D01*
X162659709Y-60122826D01*
X162690500Y-59928417D01*
X162690500Y-59731583D01*
X162659709Y-59537174D01*
X162598884Y-59349975D01*
X162509524Y-59174595D01*
X162393828Y-59015354D01*
X162393823Y-59015349D01*
X162393822Y-59015347D01*
X162254651Y-58876176D01*
X162254647Y-58876173D01*
X162254646Y-58876172D01*
X162124086Y-58781314D01*
X162065819Y-58714621D01*
X162042258Y-58629249D01*
X162058072Y-58542109D01*
X162110129Y-58470460D01*
X162141304Y-58449378D01*
X162140892Y-58448705D01*
X162147554Y-58444622D01*
X162201716Y-58405271D01*
X162201716Y-58405270D01*
X161569409Y-57772962D01*
X161632993Y-57755925D01*
X161747007Y-57690099D01*
X161840099Y-57597007D01*
X161905925Y-57482993D01*
X161922962Y-57419408D01*
X162555270Y-58051716D01*
X162555271Y-58051716D01*
X162594621Y-57997556D01*
X162691090Y-57808226D01*
X162691096Y-57808213D01*
X162756757Y-57606128D01*
X162756758Y-57606121D01*
X162790000Y-57396245D01*
X162790000Y-57183754D01*
X162756758Y-56973878D01*
X162756757Y-56973871D01*
X162691096Y-56771786D01*
X162691088Y-56771767D01*
X162594629Y-56582456D01*
X162594623Y-56582446D01*
X162555270Y-56528281D01*
X161922962Y-57160590D01*
X161905925Y-57097007D01*
X161840099Y-56982993D01*
X161747007Y-56889901D01*
X161632993Y-56824075D01*
X161569409Y-56807037D01*
X162201717Y-56174728D01*
X162201717Y-56174727D01*
X162147561Y-56135382D01*
X162147543Y-56135370D01*
X161958232Y-56038911D01*
X161958213Y-56038903D01*
X161756128Y-55973242D01*
X161756121Y-55973241D01*
X161546246Y-55940000D01*
X161333754Y-55940000D01*
X161123878Y-55973241D01*
X161123871Y-55973242D01*
X160921786Y-56038903D01*
X160921773Y-56038909D01*
X160732452Y-56135373D01*
X160732442Y-56135379D01*
X160678282Y-56174728D01*
X161310591Y-56807037D01*
X161247007Y-56824075D01*
X161132993Y-56889901D01*
X161039901Y-56982993D01*
X160974075Y-57097007D01*
X160957037Y-57160591D01*
X160324728Y-56528282D01*
X160285379Y-56582442D01*
X160285373Y-56582452D01*
X160188909Y-56771773D01*
X160188903Y-56771786D01*
X160123242Y-56973871D01*
X160123241Y-56973878D01*
X160090000Y-57183754D01*
X134897171Y-57183754D01*
X134918783Y-57153294D01*
X136457097Y-55614979D01*
X136532083Y-55567862D01*
X136558972Y-55560522D01*
X136651835Y-55542051D01*
X136833914Y-55466632D01*
X136997782Y-55357139D01*
X137137139Y-55217782D01*
X137246632Y-55053914D01*
X137322051Y-54871835D01*
X137360500Y-54678541D01*
X137360500Y-54481459D01*
X137322051Y-54288165D01*
X137246632Y-54106086D01*
X137137139Y-53942218D01*
X136997782Y-53802861D01*
X136915297Y-53747746D01*
X136833916Y-53693369D01*
X136833909Y-53693365D01*
X136651836Y-53617949D01*
X136651832Y-53617948D01*
X136522389Y-53592200D01*
X136458541Y-53579500D01*
X136261459Y-53579500D01*
X136213464Y-53589046D01*
X136068167Y-53617948D01*
X136068163Y-53617949D01*
X135886090Y-53693365D01*
X135886083Y-53693369D01*
X135722222Y-53802858D01*
X135722214Y-53802864D01*
X135582864Y-53942214D01*
X135582858Y-53942222D01*
X135473369Y-54106083D01*
X135473365Y-54106090D01*
X135397949Y-54288163D01*
X135397948Y-54288164D01*
X135379479Y-54381014D01*
X135343305Y-54461853D01*
X135325017Y-54482903D01*
X133610214Y-56197707D01*
X133535226Y-56244826D01*
X133447219Y-56254742D01*
X133363626Y-56225491D01*
X133301002Y-56162867D01*
X133271751Y-56079274D01*
X133270500Y-56056993D01*
X133270500Y-52529500D01*
X133290207Y-52443157D01*
X133345426Y-52373916D01*
X133425218Y-52335489D01*
X133469500Y-52330500D01*
X164870500Y-52330500D01*
X164956843Y-52350207D01*
G37*
%TD.AperFunction*%
%TD*%
M02*
