M48
; DRILL file {KiCad 9.0.3} date 2026-04-02T00:03:03+0700
; FORMAT={-:-/ absolute / metric / decimal}
; #@! TF.CreationDate,2026-04-02T00:03:03+07:00
; #@! TF.GenerationSoftware,Kicad,Pcbnew,9.0.3
; #@! TF.FileFunction,MixedPlating,1,2
FMAT,2
METRIC
; #@! TA.AperFunction,Plated,PTH,ComponentDrill
T1C0.200
; #@! TA.AperFunction,Plated,PTH,ViaDrill
T2C0.500
; #@! TA.AperFunction,Plated,PTH,ComponentDrill
T3C0.500
; #@! TA.AperFunction,Plated,PTH,ViaDrill
T4C0.700
; #@! TA.AperFunction,Plated,PTH,ComponentDrill
T5C0.900
; #@! TA.AperFunction,Plated,PTH,ViaDrill
T6C1.000
; #@! TA.AperFunction,Plated,PTH,ComponentDrill
T7C1.000
%
G90
G05
T1
X147.38Y-58.73
X147.38Y-59.83
X147.93Y-58.18
X147.93Y-59.28
X147.93Y-60.38
X148.48Y-58.73
X148.48Y-59.83
X149.03Y-58.18
X149.03Y-59.28
X149.03Y-60.38
X149.58Y-58.73
X149.58Y-59.83
X154.33Y-96.255
X154.33Y-97.455
X154.33Y-98.655
X155.73Y-96.255
X155.73Y-97.455
X155.73Y-98.655
T2
X134.06Y-71.49
X134.5Y-89.38
X134.63Y-83.41
X134.65Y-80.08
X134.67Y-86.41
X135.19Y-119.44
X136.08Y-71.15
X136.36Y-54.58
X138.68Y-119.58
X139.76Y-66.75
X141.84Y-119.72
X141.86Y-73.29
X146.3Y-72.62
X146.3Y-75.38
X146.34Y-69.54
X149.0Y-75.47
X149.13Y-72.64
X149.26Y-88.3
X156.04Y-109.86
X157.73Y-100.795
X158.25Y-116.3
X158.33Y-119.42
X158.35Y-113.44
X158.81Y-53.93
X158.83Y-57.93
X161.4Y-95.09
X162.59Y-119.32
X162.65Y-116.52
X162.72Y-113.38
X162.81Y-109.73
X163.45Y-53.89
X163.6Y-105.3
X163.61Y-100.28
X163.79Y-96.13
X163.86Y-82.13
X164.01Y-92.73
X164.07Y-89.34
X164.1Y-85.85
T4
X134.48Y-113.24
X142.3Y-99.39
X145.57Y-112.3
T5
X148.23Y-103.64
X148.23Y-106.18
T6
X149.24Y-118.08
T7
X138.87Y-93.48
X138.87Y-95.98
X138.95Y-103.57
X138.95Y-106.07
X155.815Y-71.65
X155.815Y-74.19
X155.815Y-76.73
X155.815Y-79.27
X161.44Y-57.29
X161.44Y-59.83
X161.44Y-62.37
X161.44Y-64.91
X161.475Y-69.11
X161.475Y-71.65
X161.475Y-74.19
X161.475Y-76.73
X161.475Y-79.27
T3
X144.85Y-115.38G85X144.85Y-116.08
G05
X144.85Y-119.18G85X144.85Y-119.88
G05
X153.49Y-115.38G85X153.49Y-116.08
G05
X153.49Y-119.18G85X153.49Y-119.88
G05
M30
