%TF.GenerationSoftware,KiCad,Pcbnew,9.0.3*%
%TF.CreationDate,2026-04-01T23:49:50+07:00*%
%TF.ProjectId,P17230326 - TENP MEASURING DEVICE (SLAVE),50313732-3330-4333-9236-202d2054454e,rev?*%
%TF.SameCoordinates,Original*%
%TF.FileFunction,Legend,Top*%
%TF.FilePolarity,Positive*%
%FSLAX46Y46*%
G04 Gerber Fmt 4.6, Leading zero omitted, Abs format (unit mm)*
G04 Created by KiCad (PCBNEW 9.0.3) date 2026-04-01 23:49:50*
%MOMM*%
%LPD*%
G01*
G04 APERTURE LIST*
%ADD10C,0.100000*%
%ADD11C,0.150000*%
%ADD12C,0.120000*%
G04 APERTURE END LIST*
D10*
X163865752Y-60017544D02*
X164532419Y-60017544D01*
X163865752Y-60446115D02*
X164389561Y-60446115D01*
X164389561Y-60446115D02*
X164484800Y-60398496D01*
X164484800Y-60398496D02*
X164532419Y-60303258D01*
X164532419Y-60303258D02*
X164532419Y-60160401D01*
X164532419Y-60160401D02*
X164484800Y-60065163D01*
X164484800Y-60065163D02*
X164437180Y-60017544D01*
X164532419Y-59112782D02*
X164008609Y-59112782D01*
X164008609Y-59112782D02*
X163913371Y-59160401D01*
X163913371Y-59160401D02*
X163865752Y-59255639D01*
X163865752Y-59255639D02*
X163865752Y-59446115D01*
X163865752Y-59446115D02*
X163913371Y-59541353D01*
X164484800Y-59112782D02*
X164532419Y-59208020D01*
X164532419Y-59208020D02*
X164532419Y-59446115D01*
X164532419Y-59446115D02*
X164484800Y-59541353D01*
X164484800Y-59541353D02*
X164389561Y-59588972D01*
X164389561Y-59588972D02*
X164294323Y-59588972D01*
X164294323Y-59588972D02*
X164199085Y-59541353D01*
X164199085Y-59541353D02*
X164151466Y-59446115D01*
X164151466Y-59446115D02*
X164151466Y-59208020D01*
X164151466Y-59208020D02*
X164103847Y-59112782D01*
X164532419Y-58636591D02*
X163865752Y-58636591D01*
X164056228Y-58636591D02*
X163960990Y-58588972D01*
X163960990Y-58588972D02*
X163913371Y-58541353D01*
X163913371Y-58541353D02*
X163865752Y-58446115D01*
X163865752Y-58446115D02*
X163865752Y-58350877D01*
X163865752Y-58160400D02*
X163865752Y-57779448D01*
X163532419Y-58017543D02*
X164389561Y-58017543D01*
X164389561Y-58017543D02*
X164484800Y-57969924D01*
X164484800Y-57969924D02*
X164532419Y-57874686D01*
X164532419Y-57874686D02*
X164532419Y-57779448D01*
D11*
X147618095Y-84304819D02*
X147618095Y-85114342D01*
X147618095Y-85114342D02*
X147665714Y-85209580D01*
X147665714Y-85209580D02*
X147713333Y-85257200D01*
X147713333Y-85257200D02*
X147808571Y-85304819D01*
X147808571Y-85304819D02*
X147999047Y-85304819D01*
X147999047Y-85304819D02*
X148094285Y-85257200D01*
X148094285Y-85257200D02*
X148141904Y-85209580D01*
X148141904Y-85209580D02*
X148189523Y-85114342D01*
X148189523Y-85114342D02*
X148189523Y-84304819D01*
X149094285Y-84304819D02*
X148903809Y-84304819D01*
X148903809Y-84304819D02*
X148808571Y-84352438D01*
X148808571Y-84352438D02*
X148760952Y-84400057D01*
X148760952Y-84400057D02*
X148665714Y-84542914D01*
X148665714Y-84542914D02*
X148618095Y-84733390D01*
X148618095Y-84733390D02*
X148618095Y-85114342D01*
X148618095Y-85114342D02*
X148665714Y-85209580D01*
X148665714Y-85209580D02*
X148713333Y-85257200D01*
X148713333Y-85257200D02*
X148808571Y-85304819D01*
X148808571Y-85304819D02*
X148999047Y-85304819D01*
X148999047Y-85304819D02*
X149094285Y-85257200D01*
X149094285Y-85257200D02*
X149141904Y-85209580D01*
X149141904Y-85209580D02*
X149189523Y-85114342D01*
X149189523Y-85114342D02*
X149189523Y-84876247D01*
X149189523Y-84876247D02*
X149141904Y-84781009D01*
X149141904Y-84781009D02*
X149094285Y-84733390D01*
X149094285Y-84733390D02*
X148999047Y-84685771D01*
X148999047Y-84685771D02*
X148808571Y-84685771D01*
X148808571Y-84685771D02*
X148713333Y-84733390D01*
X148713333Y-84733390D02*
X148665714Y-84781009D01*
X148665714Y-84781009D02*
X148618095Y-84876247D01*
X154268095Y-93509819D02*
X154268095Y-94319342D01*
X154268095Y-94319342D02*
X154315714Y-94414580D01*
X154315714Y-94414580D02*
X154363333Y-94462200D01*
X154363333Y-94462200D02*
X154458571Y-94509819D01*
X154458571Y-94509819D02*
X154649047Y-94509819D01*
X154649047Y-94509819D02*
X154744285Y-94462200D01*
X154744285Y-94462200D02*
X154791904Y-94414580D01*
X154791904Y-94414580D02*
X154839523Y-94319342D01*
X154839523Y-94319342D02*
X154839523Y-93509819D01*
X155268095Y-93605057D02*
X155315714Y-93557438D01*
X155315714Y-93557438D02*
X155410952Y-93509819D01*
X155410952Y-93509819D02*
X155649047Y-93509819D01*
X155649047Y-93509819D02*
X155744285Y-93557438D01*
X155744285Y-93557438D02*
X155791904Y-93605057D01*
X155791904Y-93605057D02*
X155839523Y-93700295D01*
X155839523Y-93700295D02*
X155839523Y-93795533D01*
X155839523Y-93795533D02*
X155791904Y-93938390D01*
X155791904Y-93938390D02*
X155220476Y-94509819D01*
X155220476Y-94509819D02*
X155839523Y-94509819D01*
X161187142Y-86764580D02*
X161139523Y-86812200D01*
X161139523Y-86812200D02*
X160996666Y-86859819D01*
X160996666Y-86859819D02*
X160901428Y-86859819D01*
X160901428Y-86859819D02*
X160758571Y-86812200D01*
X160758571Y-86812200D02*
X160663333Y-86716961D01*
X160663333Y-86716961D02*
X160615714Y-86621723D01*
X160615714Y-86621723D02*
X160568095Y-86431247D01*
X160568095Y-86431247D02*
X160568095Y-86288390D01*
X160568095Y-86288390D02*
X160615714Y-86097914D01*
X160615714Y-86097914D02*
X160663333Y-86002676D01*
X160663333Y-86002676D02*
X160758571Y-85907438D01*
X160758571Y-85907438D02*
X160901428Y-85859819D01*
X160901428Y-85859819D02*
X160996666Y-85859819D01*
X160996666Y-85859819D02*
X161139523Y-85907438D01*
X161139523Y-85907438D02*
X161187142Y-85955057D01*
X162139523Y-86859819D02*
X161568095Y-86859819D01*
X161853809Y-86859819D02*
X161853809Y-85859819D01*
X161853809Y-85859819D02*
X161758571Y-86002676D01*
X161758571Y-86002676D02*
X161663333Y-86097914D01*
X161663333Y-86097914D02*
X161568095Y-86145533D01*
X162758571Y-85859819D02*
X162853809Y-85859819D01*
X162853809Y-85859819D02*
X162949047Y-85907438D01*
X162949047Y-85907438D02*
X162996666Y-85955057D01*
X162996666Y-85955057D02*
X163044285Y-86050295D01*
X163044285Y-86050295D02*
X163091904Y-86240771D01*
X163091904Y-86240771D02*
X163091904Y-86478866D01*
X163091904Y-86478866D02*
X163044285Y-86669342D01*
X163044285Y-86669342D02*
X162996666Y-86764580D01*
X162996666Y-86764580D02*
X162949047Y-86812200D01*
X162949047Y-86812200D02*
X162853809Y-86859819D01*
X162853809Y-86859819D02*
X162758571Y-86859819D01*
X162758571Y-86859819D02*
X162663333Y-86812200D01*
X162663333Y-86812200D02*
X162615714Y-86764580D01*
X162615714Y-86764580D02*
X162568095Y-86669342D01*
X162568095Y-86669342D02*
X162520476Y-86478866D01*
X162520476Y-86478866D02*
X162520476Y-86240771D01*
X162520476Y-86240771D02*
X162568095Y-86050295D01*
X162568095Y-86050295D02*
X162615714Y-85955057D01*
X162615714Y-85955057D02*
X162663333Y-85907438D01*
X162663333Y-85907438D02*
X162758571Y-85859819D01*
X142596667Y-82877200D02*
X142739524Y-82924819D01*
X142739524Y-82924819D02*
X142977619Y-82924819D01*
X142977619Y-82924819D02*
X143072857Y-82877200D01*
X143072857Y-82877200D02*
X143120476Y-82829580D01*
X143120476Y-82829580D02*
X143168095Y-82734342D01*
X143168095Y-82734342D02*
X143168095Y-82639104D01*
X143168095Y-82639104D02*
X143120476Y-82543866D01*
X143120476Y-82543866D02*
X143072857Y-82496247D01*
X143072857Y-82496247D02*
X142977619Y-82448628D01*
X142977619Y-82448628D02*
X142787143Y-82401009D01*
X142787143Y-82401009D02*
X142691905Y-82353390D01*
X142691905Y-82353390D02*
X142644286Y-82305771D01*
X142644286Y-82305771D02*
X142596667Y-82210533D01*
X142596667Y-82210533D02*
X142596667Y-82115295D01*
X142596667Y-82115295D02*
X142644286Y-82020057D01*
X142644286Y-82020057D02*
X142691905Y-81972438D01*
X142691905Y-81972438D02*
X142787143Y-81924819D01*
X142787143Y-81924819D02*
X143025238Y-81924819D01*
X143025238Y-81924819D02*
X143168095Y-81972438D01*
X143501429Y-81924819D02*
X143739524Y-82924819D01*
X143739524Y-82924819D02*
X143930000Y-82210533D01*
X143930000Y-82210533D02*
X144120476Y-82924819D01*
X144120476Y-82924819D02*
X144358572Y-81924819D01*
X144691905Y-82020057D02*
X144739524Y-81972438D01*
X144739524Y-81972438D02*
X144834762Y-81924819D01*
X144834762Y-81924819D02*
X145072857Y-81924819D01*
X145072857Y-81924819D02*
X145168095Y-81972438D01*
X145168095Y-81972438D02*
X145215714Y-82020057D01*
X145215714Y-82020057D02*
X145263333Y-82115295D01*
X145263333Y-82115295D02*
X145263333Y-82210533D01*
X145263333Y-82210533D02*
X145215714Y-82353390D01*
X145215714Y-82353390D02*
X144644286Y-82924819D01*
X144644286Y-82924819D02*
X145263333Y-82924819D01*
X133589819Y-95669523D02*
X134304104Y-95669523D01*
X134304104Y-95669523D02*
X134446961Y-95717142D01*
X134446961Y-95717142D02*
X134542200Y-95812380D01*
X134542200Y-95812380D02*
X134589819Y-95955237D01*
X134589819Y-95955237D02*
X134589819Y-96050475D01*
X134589819Y-95145713D02*
X134589819Y-94955237D01*
X134589819Y-94955237D02*
X134542200Y-94859999D01*
X134542200Y-94859999D02*
X134494580Y-94812380D01*
X134494580Y-94812380D02*
X134351723Y-94717142D01*
X134351723Y-94717142D02*
X134161247Y-94669523D01*
X134161247Y-94669523D02*
X133780295Y-94669523D01*
X133780295Y-94669523D02*
X133685057Y-94717142D01*
X133685057Y-94717142D02*
X133637438Y-94764761D01*
X133637438Y-94764761D02*
X133589819Y-94859999D01*
X133589819Y-94859999D02*
X133589819Y-95050475D01*
X133589819Y-95050475D02*
X133637438Y-95145713D01*
X133637438Y-95145713D02*
X133685057Y-95193332D01*
X133685057Y-95193332D02*
X133780295Y-95240951D01*
X133780295Y-95240951D02*
X134018390Y-95240951D01*
X134018390Y-95240951D02*
X134113628Y-95193332D01*
X134113628Y-95193332D02*
X134161247Y-95145713D01*
X134161247Y-95145713D02*
X134208866Y-95050475D01*
X134208866Y-95050475D02*
X134208866Y-94859999D01*
X134208866Y-94859999D02*
X134161247Y-94764761D01*
X134161247Y-94764761D02*
X134113628Y-94717142D01*
X134113628Y-94717142D02*
X134018390Y-94669523D01*
X133589819Y-94336189D02*
X133589819Y-93669523D01*
X133589819Y-93669523D02*
X134589819Y-94098094D01*
X156783333Y-102864819D02*
X156450000Y-102388628D01*
X156211905Y-102864819D02*
X156211905Y-101864819D01*
X156211905Y-101864819D02*
X156592857Y-101864819D01*
X156592857Y-101864819D02*
X156688095Y-101912438D01*
X156688095Y-101912438D02*
X156735714Y-101960057D01*
X156735714Y-101960057D02*
X156783333Y-102055295D01*
X156783333Y-102055295D02*
X156783333Y-102198152D01*
X156783333Y-102198152D02*
X156735714Y-102293390D01*
X156735714Y-102293390D02*
X156688095Y-102341009D01*
X156688095Y-102341009D02*
X156592857Y-102388628D01*
X156592857Y-102388628D02*
X156211905Y-102388628D01*
X157116667Y-101864819D02*
X157735714Y-101864819D01*
X157735714Y-101864819D02*
X157402381Y-102245771D01*
X157402381Y-102245771D02*
X157545238Y-102245771D01*
X157545238Y-102245771D02*
X157640476Y-102293390D01*
X157640476Y-102293390D02*
X157688095Y-102341009D01*
X157688095Y-102341009D02*
X157735714Y-102436247D01*
X157735714Y-102436247D02*
X157735714Y-102674342D01*
X157735714Y-102674342D02*
X157688095Y-102769580D01*
X157688095Y-102769580D02*
X157640476Y-102817200D01*
X157640476Y-102817200D02*
X157545238Y-102864819D01*
X157545238Y-102864819D02*
X157259524Y-102864819D01*
X157259524Y-102864819D02*
X157164286Y-102817200D01*
X157164286Y-102817200D02*
X157116667Y-102769580D01*
X161016666Y-53614819D02*
X161016666Y-54329104D01*
X161016666Y-54329104D02*
X160969047Y-54471961D01*
X160969047Y-54471961D02*
X160873809Y-54567200D01*
X160873809Y-54567200D02*
X160730952Y-54614819D01*
X160730952Y-54614819D02*
X160635714Y-54614819D01*
X161921428Y-53614819D02*
X161730952Y-53614819D01*
X161730952Y-53614819D02*
X161635714Y-53662438D01*
X161635714Y-53662438D02*
X161588095Y-53710057D01*
X161588095Y-53710057D02*
X161492857Y-53852914D01*
X161492857Y-53852914D02*
X161445238Y-54043390D01*
X161445238Y-54043390D02*
X161445238Y-54424342D01*
X161445238Y-54424342D02*
X161492857Y-54519580D01*
X161492857Y-54519580D02*
X161540476Y-54567200D01*
X161540476Y-54567200D02*
X161635714Y-54614819D01*
X161635714Y-54614819D02*
X161826190Y-54614819D01*
X161826190Y-54614819D02*
X161921428Y-54567200D01*
X161921428Y-54567200D02*
X161969047Y-54519580D01*
X161969047Y-54519580D02*
X162016666Y-54424342D01*
X162016666Y-54424342D02*
X162016666Y-54186247D01*
X162016666Y-54186247D02*
X161969047Y-54091009D01*
X161969047Y-54091009D02*
X161921428Y-54043390D01*
X161921428Y-54043390D02*
X161826190Y-53995771D01*
X161826190Y-53995771D02*
X161635714Y-53995771D01*
X161635714Y-53995771D02*
X161540476Y-54043390D01*
X161540476Y-54043390D02*
X161492857Y-54091009D01*
X161492857Y-54091009D02*
X161445238Y-54186247D01*
X144721905Y-108144819D02*
X144721905Y-107144819D01*
X144721905Y-107144819D02*
X144960000Y-107144819D01*
X144960000Y-107144819D02*
X145102857Y-107192438D01*
X145102857Y-107192438D02*
X145198095Y-107287676D01*
X145198095Y-107287676D02*
X145245714Y-107382914D01*
X145245714Y-107382914D02*
X145293333Y-107573390D01*
X145293333Y-107573390D02*
X145293333Y-107716247D01*
X145293333Y-107716247D02*
X145245714Y-107906723D01*
X145245714Y-107906723D02*
X145198095Y-108001961D01*
X145198095Y-108001961D02*
X145102857Y-108097200D01*
X145102857Y-108097200D02*
X144960000Y-108144819D01*
X144960000Y-108144819D02*
X144721905Y-108144819D01*
X146245714Y-108144819D02*
X145674286Y-108144819D01*
X145960000Y-108144819D02*
X145960000Y-107144819D01*
X145960000Y-107144819D02*
X145864762Y-107287676D01*
X145864762Y-107287676D02*
X145769524Y-107382914D01*
X145769524Y-107382914D02*
X145674286Y-107430533D01*
X137996666Y-99453569D02*
X137996666Y-100167854D01*
X137996666Y-100167854D02*
X137949047Y-100310711D01*
X137949047Y-100310711D02*
X137853809Y-100405950D01*
X137853809Y-100405950D02*
X137710952Y-100453569D01*
X137710952Y-100453569D02*
X137615714Y-100453569D01*
X138615714Y-99882140D02*
X138520476Y-99834521D01*
X138520476Y-99834521D02*
X138472857Y-99786902D01*
X138472857Y-99786902D02*
X138425238Y-99691664D01*
X138425238Y-99691664D02*
X138425238Y-99644045D01*
X138425238Y-99644045D02*
X138472857Y-99548807D01*
X138472857Y-99548807D02*
X138520476Y-99501188D01*
X138520476Y-99501188D02*
X138615714Y-99453569D01*
X138615714Y-99453569D02*
X138806190Y-99453569D01*
X138806190Y-99453569D02*
X138901428Y-99501188D01*
X138901428Y-99501188D02*
X138949047Y-99548807D01*
X138949047Y-99548807D02*
X138996666Y-99644045D01*
X138996666Y-99644045D02*
X138996666Y-99691664D01*
X138996666Y-99691664D02*
X138949047Y-99786902D01*
X138949047Y-99786902D02*
X138901428Y-99834521D01*
X138901428Y-99834521D02*
X138806190Y-99882140D01*
X138806190Y-99882140D02*
X138615714Y-99882140D01*
X138615714Y-99882140D02*
X138520476Y-99929759D01*
X138520476Y-99929759D02*
X138472857Y-99977378D01*
X138472857Y-99977378D02*
X138425238Y-100072616D01*
X138425238Y-100072616D02*
X138425238Y-100263092D01*
X138425238Y-100263092D02*
X138472857Y-100358330D01*
X138472857Y-100358330D02*
X138520476Y-100405950D01*
X138520476Y-100405950D02*
X138615714Y-100453569D01*
X138615714Y-100453569D02*
X138806190Y-100453569D01*
X138806190Y-100453569D02*
X138901428Y-100405950D01*
X138901428Y-100405950D02*
X138949047Y-100358330D01*
X138949047Y-100358330D02*
X138996666Y-100263092D01*
X138996666Y-100263092D02*
X138996666Y-100072616D01*
X138996666Y-100072616D02*
X138949047Y-99977378D01*
X138949047Y-99977378D02*
X138901428Y-99929759D01*
X138901428Y-99929759D02*
X138806190Y-99882140D01*
X142868333Y-95702319D02*
X142535000Y-95226128D01*
X142296905Y-95702319D02*
X142296905Y-94702319D01*
X142296905Y-94702319D02*
X142677857Y-94702319D01*
X142677857Y-94702319D02*
X142773095Y-94749938D01*
X142773095Y-94749938D02*
X142820714Y-94797557D01*
X142820714Y-94797557D02*
X142868333Y-94892795D01*
X142868333Y-94892795D02*
X142868333Y-95035652D01*
X142868333Y-95035652D02*
X142820714Y-95130890D01*
X142820714Y-95130890D02*
X142773095Y-95178509D01*
X142773095Y-95178509D02*
X142677857Y-95226128D01*
X142677857Y-95226128D02*
X142296905Y-95226128D01*
X143820714Y-95702319D02*
X143249286Y-95702319D01*
X143535000Y-95702319D02*
X143535000Y-94702319D01*
X143535000Y-94702319D02*
X143439762Y-94845176D01*
X143439762Y-94845176D02*
X143344524Y-94940414D01*
X143344524Y-94940414D02*
X143249286Y-94988033D01*
X151037142Y-76129580D02*
X150989523Y-76177200D01*
X150989523Y-76177200D02*
X150846666Y-76224819D01*
X150846666Y-76224819D02*
X150751428Y-76224819D01*
X150751428Y-76224819D02*
X150608571Y-76177200D01*
X150608571Y-76177200D02*
X150513333Y-76081961D01*
X150513333Y-76081961D02*
X150465714Y-75986723D01*
X150465714Y-75986723D02*
X150418095Y-75796247D01*
X150418095Y-75796247D02*
X150418095Y-75653390D01*
X150418095Y-75653390D02*
X150465714Y-75462914D01*
X150465714Y-75462914D02*
X150513333Y-75367676D01*
X150513333Y-75367676D02*
X150608571Y-75272438D01*
X150608571Y-75272438D02*
X150751428Y-75224819D01*
X150751428Y-75224819D02*
X150846666Y-75224819D01*
X150846666Y-75224819D02*
X150989523Y-75272438D01*
X150989523Y-75272438D02*
X151037142Y-75320057D01*
X151989523Y-76224819D02*
X151418095Y-76224819D01*
X151703809Y-76224819D02*
X151703809Y-75224819D01*
X151703809Y-75224819D02*
X151608571Y-75367676D01*
X151608571Y-75367676D02*
X151513333Y-75462914D01*
X151513333Y-75462914D02*
X151418095Y-75510533D01*
X152941904Y-76224819D02*
X152370476Y-76224819D01*
X152656190Y-76224819D02*
X152656190Y-75224819D01*
X152656190Y-75224819D02*
X152560952Y-75367676D01*
X152560952Y-75367676D02*
X152465714Y-75462914D01*
X152465714Y-75462914D02*
X152370476Y-75510533D01*
X139103333Y-74874819D02*
X138770000Y-74398628D01*
X138531905Y-74874819D02*
X138531905Y-73874819D01*
X138531905Y-73874819D02*
X138912857Y-73874819D01*
X138912857Y-73874819D02*
X139008095Y-73922438D01*
X139008095Y-73922438D02*
X139055714Y-73970057D01*
X139055714Y-73970057D02*
X139103333Y-74065295D01*
X139103333Y-74065295D02*
X139103333Y-74208152D01*
X139103333Y-74208152D02*
X139055714Y-74303390D01*
X139055714Y-74303390D02*
X139008095Y-74351009D01*
X139008095Y-74351009D02*
X138912857Y-74398628D01*
X138912857Y-74398628D02*
X138531905Y-74398628D01*
X140008095Y-73874819D02*
X139531905Y-73874819D01*
X139531905Y-73874819D02*
X139484286Y-74351009D01*
X139484286Y-74351009D02*
X139531905Y-74303390D01*
X139531905Y-74303390D02*
X139627143Y-74255771D01*
X139627143Y-74255771D02*
X139865238Y-74255771D01*
X139865238Y-74255771D02*
X139960476Y-74303390D01*
X139960476Y-74303390D02*
X140008095Y-74351009D01*
X140008095Y-74351009D02*
X140055714Y-74446247D01*
X140055714Y-74446247D02*
X140055714Y-74684342D01*
X140055714Y-74684342D02*
X140008095Y-74779580D01*
X140008095Y-74779580D02*
X139960476Y-74827200D01*
X139960476Y-74827200D02*
X139865238Y-74874819D01*
X139865238Y-74874819D02*
X139627143Y-74874819D01*
X139627143Y-74874819D02*
X139531905Y-74827200D01*
X139531905Y-74827200D02*
X139484286Y-74779580D01*
X147798095Y-62054819D02*
X147798095Y-62864342D01*
X147798095Y-62864342D02*
X147845714Y-62959580D01*
X147845714Y-62959580D02*
X147893333Y-63007200D01*
X147893333Y-63007200D02*
X147988571Y-63054819D01*
X147988571Y-63054819D02*
X148179047Y-63054819D01*
X148179047Y-63054819D02*
X148274285Y-63007200D01*
X148274285Y-63007200D02*
X148321904Y-62959580D01*
X148321904Y-62959580D02*
X148369523Y-62864342D01*
X148369523Y-62864342D02*
X148369523Y-62054819D01*
X148750476Y-62054819D02*
X149369523Y-62054819D01*
X149369523Y-62054819D02*
X149036190Y-62435771D01*
X149036190Y-62435771D02*
X149179047Y-62435771D01*
X149179047Y-62435771D02*
X149274285Y-62483390D01*
X149274285Y-62483390D02*
X149321904Y-62531009D01*
X149321904Y-62531009D02*
X149369523Y-62626247D01*
X149369523Y-62626247D02*
X149369523Y-62864342D01*
X149369523Y-62864342D02*
X149321904Y-62959580D01*
X149321904Y-62959580D02*
X149274285Y-63007200D01*
X149274285Y-63007200D02*
X149179047Y-63054819D01*
X149179047Y-63054819D02*
X148893333Y-63054819D01*
X148893333Y-63054819D02*
X148798095Y-63007200D01*
X148798095Y-63007200D02*
X148750476Y-62959580D01*
X156703333Y-82499580D02*
X156655714Y-82547200D01*
X156655714Y-82547200D02*
X156512857Y-82594819D01*
X156512857Y-82594819D02*
X156417619Y-82594819D01*
X156417619Y-82594819D02*
X156274762Y-82547200D01*
X156274762Y-82547200D02*
X156179524Y-82451961D01*
X156179524Y-82451961D02*
X156131905Y-82356723D01*
X156131905Y-82356723D02*
X156084286Y-82166247D01*
X156084286Y-82166247D02*
X156084286Y-82023390D01*
X156084286Y-82023390D02*
X156131905Y-81832914D01*
X156131905Y-81832914D02*
X156179524Y-81737676D01*
X156179524Y-81737676D02*
X156274762Y-81642438D01*
X156274762Y-81642438D02*
X156417619Y-81594819D01*
X156417619Y-81594819D02*
X156512857Y-81594819D01*
X156512857Y-81594819D02*
X156655714Y-81642438D01*
X156655714Y-81642438D02*
X156703333Y-81690057D01*
X157084286Y-81690057D02*
X157131905Y-81642438D01*
X157131905Y-81642438D02*
X157227143Y-81594819D01*
X157227143Y-81594819D02*
X157465238Y-81594819D01*
X157465238Y-81594819D02*
X157560476Y-81642438D01*
X157560476Y-81642438D02*
X157608095Y-81690057D01*
X157608095Y-81690057D02*
X157655714Y-81785295D01*
X157655714Y-81785295D02*
X157655714Y-81880533D01*
X157655714Y-81880533D02*
X157608095Y-82023390D01*
X157608095Y-82023390D02*
X157036667Y-82594819D01*
X157036667Y-82594819D02*
X157655714Y-82594819D01*
X136296667Y-88707200D02*
X136439524Y-88754819D01*
X136439524Y-88754819D02*
X136677619Y-88754819D01*
X136677619Y-88754819D02*
X136772857Y-88707200D01*
X136772857Y-88707200D02*
X136820476Y-88659580D01*
X136820476Y-88659580D02*
X136868095Y-88564342D01*
X136868095Y-88564342D02*
X136868095Y-88469104D01*
X136868095Y-88469104D02*
X136820476Y-88373866D01*
X136820476Y-88373866D02*
X136772857Y-88326247D01*
X136772857Y-88326247D02*
X136677619Y-88278628D01*
X136677619Y-88278628D02*
X136487143Y-88231009D01*
X136487143Y-88231009D02*
X136391905Y-88183390D01*
X136391905Y-88183390D02*
X136344286Y-88135771D01*
X136344286Y-88135771D02*
X136296667Y-88040533D01*
X136296667Y-88040533D02*
X136296667Y-87945295D01*
X136296667Y-87945295D02*
X136344286Y-87850057D01*
X136344286Y-87850057D02*
X136391905Y-87802438D01*
X136391905Y-87802438D02*
X136487143Y-87754819D01*
X136487143Y-87754819D02*
X136725238Y-87754819D01*
X136725238Y-87754819D02*
X136868095Y-87802438D01*
X137201429Y-87754819D02*
X137439524Y-88754819D01*
X137439524Y-88754819D02*
X137630000Y-88040533D01*
X137630000Y-88040533D02*
X137820476Y-88754819D01*
X137820476Y-88754819D02*
X138058572Y-87754819D01*
X138963333Y-88754819D02*
X138391905Y-88754819D01*
X138677619Y-88754819D02*
X138677619Y-87754819D01*
X138677619Y-87754819D02*
X138582381Y-87897676D01*
X138582381Y-87897676D02*
X138487143Y-87992914D01*
X138487143Y-87992914D02*
X138391905Y-88040533D01*
X147963333Y-110284819D02*
X147630000Y-109808628D01*
X147391905Y-110284819D02*
X147391905Y-109284819D01*
X147391905Y-109284819D02*
X147772857Y-109284819D01*
X147772857Y-109284819D02*
X147868095Y-109332438D01*
X147868095Y-109332438D02*
X147915714Y-109380057D01*
X147915714Y-109380057D02*
X147963333Y-109475295D01*
X147963333Y-109475295D02*
X147963333Y-109618152D01*
X147963333Y-109618152D02*
X147915714Y-109713390D01*
X147915714Y-109713390D02*
X147868095Y-109761009D01*
X147868095Y-109761009D02*
X147772857Y-109808628D01*
X147772857Y-109808628D02*
X147391905Y-109808628D01*
X148820476Y-109618152D02*
X148820476Y-110284819D01*
X148582381Y-109237200D02*
X148344286Y-109951485D01*
X148344286Y-109951485D02*
X148963333Y-109951485D01*
X161187142Y-93769580D02*
X161139523Y-93817200D01*
X161139523Y-93817200D02*
X160996666Y-93864819D01*
X160996666Y-93864819D02*
X160901428Y-93864819D01*
X160901428Y-93864819D02*
X160758571Y-93817200D01*
X160758571Y-93817200D02*
X160663333Y-93721961D01*
X160663333Y-93721961D02*
X160615714Y-93626723D01*
X160615714Y-93626723D02*
X160568095Y-93436247D01*
X160568095Y-93436247D02*
X160568095Y-93293390D01*
X160568095Y-93293390D02*
X160615714Y-93102914D01*
X160615714Y-93102914D02*
X160663333Y-93007676D01*
X160663333Y-93007676D02*
X160758571Y-92912438D01*
X160758571Y-92912438D02*
X160901428Y-92864819D01*
X160901428Y-92864819D02*
X160996666Y-92864819D01*
X160996666Y-92864819D02*
X161139523Y-92912438D01*
X161139523Y-92912438D02*
X161187142Y-92960057D01*
X161568095Y-92960057D02*
X161615714Y-92912438D01*
X161615714Y-92912438D02*
X161710952Y-92864819D01*
X161710952Y-92864819D02*
X161949047Y-92864819D01*
X161949047Y-92864819D02*
X162044285Y-92912438D01*
X162044285Y-92912438D02*
X162091904Y-92960057D01*
X162091904Y-92960057D02*
X162139523Y-93055295D01*
X162139523Y-93055295D02*
X162139523Y-93150533D01*
X162139523Y-93150533D02*
X162091904Y-93293390D01*
X162091904Y-93293390D02*
X161520476Y-93864819D01*
X161520476Y-93864819D02*
X162139523Y-93864819D01*
X162615714Y-93864819D02*
X162806190Y-93864819D01*
X162806190Y-93864819D02*
X162901428Y-93817200D01*
X162901428Y-93817200D02*
X162949047Y-93769580D01*
X162949047Y-93769580D02*
X163044285Y-93626723D01*
X163044285Y-93626723D02*
X163091904Y-93436247D01*
X163091904Y-93436247D02*
X163091904Y-93055295D01*
X163091904Y-93055295D02*
X163044285Y-92960057D01*
X163044285Y-92960057D02*
X162996666Y-92912438D01*
X162996666Y-92912438D02*
X162901428Y-92864819D01*
X162901428Y-92864819D02*
X162710952Y-92864819D01*
X162710952Y-92864819D02*
X162615714Y-92912438D01*
X162615714Y-92912438D02*
X162568095Y-92960057D01*
X162568095Y-92960057D02*
X162520476Y-93055295D01*
X162520476Y-93055295D02*
X162520476Y-93293390D01*
X162520476Y-93293390D02*
X162568095Y-93388628D01*
X162568095Y-93388628D02*
X162615714Y-93436247D01*
X162615714Y-93436247D02*
X162710952Y-93483866D01*
X162710952Y-93483866D02*
X162901428Y-93483866D01*
X162901428Y-93483866D02*
X162996666Y-93436247D01*
X162996666Y-93436247D02*
X163044285Y-93388628D01*
X163044285Y-93388628D02*
X163091904Y-93293390D01*
X149873333Y-97989580D02*
X149825714Y-98037200D01*
X149825714Y-98037200D02*
X149682857Y-98084819D01*
X149682857Y-98084819D02*
X149587619Y-98084819D01*
X149587619Y-98084819D02*
X149444762Y-98037200D01*
X149444762Y-98037200D02*
X149349524Y-97941961D01*
X149349524Y-97941961D02*
X149301905Y-97846723D01*
X149301905Y-97846723D02*
X149254286Y-97656247D01*
X149254286Y-97656247D02*
X149254286Y-97513390D01*
X149254286Y-97513390D02*
X149301905Y-97322914D01*
X149301905Y-97322914D02*
X149349524Y-97227676D01*
X149349524Y-97227676D02*
X149444762Y-97132438D01*
X149444762Y-97132438D02*
X149587619Y-97084819D01*
X149587619Y-97084819D02*
X149682857Y-97084819D01*
X149682857Y-97084819D02*
X149825714Y-97132438D01*
X149825714Y-97132438D02*
X149873333Y-97180057D01*
X150825714Y-98084819D02*
X150254286Y-98084819D01*
X150540000Y-98084819D02*
X150540000Y-97084819D01*
X150540000Y-97084819D02*
X150444762Y-97227676D01*
X150444762Y-97227676D02*
X150349524Y-97322914D01*
X150349524Y-97322914D02*
X150254286Y-97370533D01*
X136123333Y-73314580D02*
X136075714Y-73362200D01*
X136075714Y-73362200D02*
X135932857Y-73409819D01*
X135932857Y-73409819D02*
X135837619Y-73409819D01*
X135837619Y-73409819D02*
X135694762Y-73362200D01*
X135694762Y-73362200D02*
X135599524Y-73266961D01*
X135599524Y-73266961D02*
X135551905Y-73171723D01*
X135551905Y-73171723D02*
X135504286Y-72981247D01*
X135504286Y-72981247D02*
X135504286Y-72838390D01*
X135504286Y-72838390D02*
X135551905Y-72647914D01*
X135551905Y-72647914D02*
X135599524Y-72552676D01*
X135599524Y-72552676D02*
X135694762Y-72457438D01*
X135694762Y-72457438D02*
X135837619Y-72409819D01*
X135837619Y-72409819D02*
X135932857Y-72409819D01*
X135932857Y-72409819D02*
X136075714Y-72457438D01*
X136075714Y-72457438D02*
X136123333Y-72505057D01*
X136456667Y-72409819D02*
X137123333Y-72409819D01*
X137123333Y-72409819D02*
X136694762Y-73409819D01*
X161187142Y-84134580D02*
X161139523Y-84182200D01*
X161139523Y-84182200D02*
X160996666Y-84229819D01*
X160996666Y-84229819D02*
X160901428Y-84229819D01*
X160901428Y-84229819D02*
X160758571Y-84182200D01*
X160758571Y-84182200D02*
X160663333Y-84086961D01*
X160663333Y-84086961D02*
X160615714Y-83991723D01*
X160615714Y-83991723D02*
X160568095Y-83801247D01*
X160568095Y-83801247D02*
X160568095Y-83658390D01*
X160568095Y-83658390D02*
X160615714Y-83467914D01*
X160615714Y-83467914D02*
X160663333Y-83372676D01*
X160663333Y-83372676D02*
X160758571Y-83277438D01*
X160758571Y-83277438D02*
X160901428Y-83229819D01*
X160901428Y-83229819D02*
X160996666Y-83229819D01*
X160996666Y-83229819D02*
X161139523Y-83277438D01*
X161139523Y-83277438D02*
X161187142Y-83325057D01*
X162139523Y-84229819D02*
X161568095Y-84229819D01*
X161853809Y-84229819D02*
X161853809Y-83229819D01*
X161853809Y-83229819D02*
X161758571Y-83372676D01*
X161758571Y-83372676D02*
X161663333Y-83467914D01*
X161663333Y-83467914D02*
X161568095Y-83515533D01*
X162996666Y-83229819D02*
X162806190Y-83229819D01*
X162806190Y-83229819D02*
X162710952Y-83277438D01*
X162710952Y-83277438D02*
X162663333Y-83325057D01*
X162663333Y-83325057D02*
X162568095Y-83467914D01*
X162568095Y-83467914D02*
X162520476Y-83658390D01*
X162520476Y-83658390D02*
X162520476Y-84039342D01*
X162520476Y-84039342D02*
X162568095Y-84134580D01*
X162568095Y-84134580D02*
X162615714Y-84182200D01*
X162615714Y-84182200D02*
X162710952Y-84229819D01*
X162710952Y-84229819D02*
X162901428Y-84229819D01*
X162901428Y-84229819D02*
X162996666Y-84182200D01*
X162996666Y-84182200D02*
X163044285Y-84134580D01*
X163044285Y-84134580D02*
X163091904Y-84039342D01*
X163091904Y-84039342D02*
X163091904Y-83801247D01*
X163091904Y-83801247D02*
X163044285Y-83706009D01*
X163044285Y-83706009D02*
X162996666Y-83658390D01*
X162996666Y-83658390D02*
X162901428Y-83610771D01*
X162901428Y-83610771D02*
X162710952Y-83610771D01*
X162710952Y-83610771D02*
X162615714Y-83658390D01*
X162615714Y-83658390D02*
X162568095Y-83706009D01*
X162568095Y-83706009D02*
X162520476Y-83801247D01*
X143073333Y-97964819D02*
X142740000Y-97488628D01*
X142501905Y-97964819D02*
X142501905Y-96964819D01*
X142501905Y-96964819D02*
X142882857Y-96964819D01*
X142882857Y-96964819D02*
X142978095Y-97012438D01*
X142978095Y-97012438D02*
X143025714Y-97060057D01*
X143025714Y-97060057D02*
X143073333Y-97155295D01*
X143073333Y-97155295D02*
X143073333Y-97298152D01*
X143073333Y-97298152D02*
X143025714Y-97393390D01*
X143025714Y-97393390D02*
X142978095Y-97441009D01*
X142978095Y-97441009D02*
X142882857Y-97488628D01*
X142882857Y-97488628D02*
X142501905Y-97488628D01*
X143454286Y-97060057D02*
X143501905Y-97012438D01*
X143501905Y-97012438D02*
X143597143Y-96964819D01*
X143597143Y-96964819D02*
X143835238Y-96964819D01*
X143835238Y-96964819D02*
X143930476Y-97012438D01*
X143930476Y-97012438D02*
X143978095Y-97060057D01*
X143978095Y-97060057D02*
X144025714Y-97155295D01*
X144025714Y-97155295D02*
X144025714Y-97250533D01*
X144025714Y-97250533D02*
X143978095Y-97393390D01*
X143978095Y-97393390D02*
X143406667Y-97964819D01*
X143406667Y-97964819D02*
X144025714Y-97964819D01*
X142547142Y-106089819D02*
X142213809Y-105613628D01*
X141975714Y-106089819D02*
X141975714Y-105089819D01*
X141975714Y-105089819D02*
X142356666Y-105089819D01*
X142356666Y-105089819D02*
X142451904Y-105137438D01*
X142451904Y-105137438D02*
X142499523Y-105185057D01*
X142499523Y-105185057D02*
X142547142Y-105280295D01*
X142547142Y-105280295D02*
X142547142Y-105423152D01*
X142547142Y-105423152D02*
X142499523Y-105518390D01*
X142499523Y-105518390D02*
X142451904Y-105566009D01*
X142451904Y-105566009D02*
X142356666Y-105613628D01*
X142356666Y-105613628D02*
X141975714Y-105613628D01*
X142928095Y-105185057D02*
X142975714Y-105137438D01*
X142975714Y-105137438D02*
X143070952Y-105089819D01*
X143070952Y-105089819D02*
X143309047Y-105089819D01*
X143309047Y-105089819D02*
X143404285Y-105137438D01*
X143404285Y-105137438D02*
X143451904Y-105185057D01*
X143451904Y-105185057D02*
X143499523Y-105280295D01*
X143499523Y-105280295D02*
X143499523Y-105375533D01*
X143499523Y-105375533D02*
X143451904Y-105518390D01*
X143451904Y-105518390D02*
X142880476Y-106089819D01*
X142880476Y-106089819D02*
X143499523Y-106089819D01*
X143832857Y-105089819D02*
X144499523Y-105089819D01*
X144499523Y-105089819D02*
X144070952Y-106089819D01*
X142557142Y-68899580D02*
X142509523Y-68947200D01*
X142509523Y-68947200D02*
X142366666Y-68994819D01*
X142366666Y-68994819D02*
X142271428Y-68994819D01*
X142271428Y-68994819D02*
X142128571Y-68947200D01*
X142128571Y-68947200D02*
X142033333Y-68851961D01*
X142033333Y-68851961D02*
X141985714Y-68756723D01*
X141985714Y-68756723D02*
X141938095Y-68566247D01*
X141938095Y-68566247D02*
X141938095Y-68423390D01*
X141938095Y-68423390D02*
X141985714Y-68232914D01*
X141985714Y-68232914D02*
X142033333Y-68137676D01*
X142033333Y-68137676D02*
X142128571Y-68042438D01*
X142128571Y-68042438D02*
X142271428Y-67994819D01*
X142271428Y-67994819D02*
X142366666Y-67994819D01*
X142366666Y-67994819D02*
X142509523Y-68042438D01*
X142509523Y-68042438D02*
X142557142Y-68090057D01*
X143509523Y-68994819D02*
X142938095Y-68994819D01*
X143223809Y-68994819D02*
X143223809Y-67994819D01*
X143223809Y-67994819D02*
X143128571Y-68137676D01*
X143128571Y-68137676D02*
X143033333Y-68232914D01*
X143033333Y-68232914D02*
X142938095Y-68280533D01*
X143842857Y-67994819D02*
X144461904Y-67994819D01*
X144461904Y-67994819D02*
X144128571Y-68375771D01*
X144128571Y-68375771D02*
X144271428Y-68375771D01*
X144271428Y-68375771D02*
X144366666Y-68423390D01*
X144366666Y-68423390D02*
X144414285Y-68471009D01*
X144414285Y-68471009D02*
X144461904Y-68566247D01*
X144461904Y-68566247D02*
X144461904Y-68804342D01*
X144461904Y-68804342D02*
X144414285Y-68899580D01*
X144414285Y-68899580D02*
X144366666Y-68947200D01*
X144366666Y-68947200D02*
X144271428Y-68994819D01*
X144271428Y-68994819D02*
X143985714Y-68994819D01*
X143985714Y-68994819D02*
X143890476Y-68947200D01*
X143890476Y-68947200D02*
X143842857Y-68899580D01*
X152243333Y-112674819D02*
X151910000Y-112198628D01*
X151671905Y-112674819D02*
X151671905Y-111674819D01*
X151671905Y-111674819D02*
X152052857Y-111674819D01*
X152052857Y-111674819D02*
X152148095Y-111722438D01*
X152148095Y-111722438D02*
X152195714Y-111770057D01*
X152195714Y-111770057D02*
X152243333Y-111865295D01*
X152243333Y-111865295D02*
X152243333Y-112008152D01*
X152243333Y-112008152D02*
X152195714Y-112103390D01*
X152195714Y-112103390D02*
X152148095Y-112151009D01*
X152148095Y-112151009D02*
X152052857Y-112198628D01*
X152052857Y-112198628D02*
X151671905Y-112198628D01*
X152814762Y-112103390D02*
X152719524Y-112055771D01*
X152719524Y-112055771D02*
X152671905Y-112008152D01*
X152671905Y-112008152D02*
X152624286Y-111912914D01*
X152624286Y-111912914D02*
X152624286Y-111865295D01*
X152624286Y-111865295D02*
X152671905Y-111770057D01*
X152671905Y-111770057D02*
X152719524Y-111722438D01*
X152719524Y-111722438D02*
X152814762Y-111674819D01*
X152814762Y-111674819D02*
X153005238Y-111674819D01*
X153005238Y-111674819D02*
X153100476Y-111722438D01*
X153100476Y-111722438D02*
X153148095Y-111770057D01*
X153148095Y-111770057D02*
X153195714Y-111865295D01*
X153195714Y-111865295D02*
X153195714Y-111912914D01*
X153195714Y-111912914D02*
X153148095Y-112008152D01*
X153148095Y-112008152D02*
X153100476Y-112055771D01*
X153100476Y-112055771D02*
X153005238Y-112103390D01*
X153005238Y-112103390D02*
X152814762Y-112103390D01*
X152814762Y-112103390D02*
X152719524Y-112151009D01*
X152719524Y-112151009D02*
X152671905Y-112198628D01*
X152671905Y-112198628D02*
X152624286Y-112293866D01*
X152624286Y-112293866D02*
X152624286Y-112484342D01*
X152624286Y-112484342D02*
X152671905Y-112579580D01*
X152671905Y-112579580D02*
X152719524Y-112627200D01*
X152719524Y-112627200D02*
X152814762Y-112674819D01*
X152814762Y-112674819D02*
X153005238Y-112674819D01*
X153005238Y-112674819D02*
X153100476Y-112627200D01*
X153100476Y-112627200D02*
X153148095Y-112579580D01*
X153148095Y-112579580D02*
X153195714Y-112484342D01*
X153195714Y-112484342D02*
X153195714Y-112293866D01*
X153195714Y-112293866D02*
X153148095Y-112198628D01*
X153148095Y-112198628D02*
X153100476Y-112151009D01*
X153100476Y-112151009D02*
X153005238Y-112103390D01*
X142697142Y-71589580D02*
X142649523Y-71637200D01*
X142649523Y-71637200D02*
X142506666Y-71684819D01*
X142506666Y-71684819D02*
X142411428Y-71684819D01*
X142411428Y-71684819D02*
X142268571Y-71637200D01*
X142268571Y-71637200D02*
X142173333Y-71541961D01*
X142173333Y-71541961D02*
X142125714Y-71446723D01*
X142125714Y-71446723D02*
X142078095Y-71256247D01*
X142078095Y-71256247D02*
X142078095Y-71113390D01*
X142078095Y-71113390D02*
X142125714Y-70922914D01*
X142125714Y-70922914D02*
X142173333Y-70827676D01*
X142173333Y-70827676D02*
X142268571Y-70732438D01*
X142268571Y-70732438D02*
X142411428Y-70684819D01*
X142411428Y-70684819D02*
X142506666Y-70684819D01*
X142506666Y-70684819D02*
X142649523Y-70732438D01*
X142649523Y-70732438D02*
X142697142Y-70780057D01*
X143649523Y-71684819D02*
X143078095Y-71684819D01*
X143363809Y-71684819D02*
X143363809Y-70684819D01*
X143363809Y-70684819D02*
X143268571Y-70827676D01*
X143268571Y-70827676D02*
X143173333Y-70922914D01*
X143173333Y-70922914D02*
X143078095Y-70970533D01*
X144030476Y-70780057D02*
X144078095Y-70732438D01*
X144078095Y-70732438D02*
X144173333Y-70684819D01*
X144173333Y-70684819D02*
X144411428Y-70684819D01*
X144411428Y-70684819D02*
X144506666Y-70732438D01*
X144506666Y-70732438D02*
X144554285Y-70780057D01*
X144554285Y-70780057D02*
X144601904Y-70875295D01*
X144601904Y-70875295D02*
X144601904Y-70970533D01*
X144601904Y-70970533D02*
X144554285Y-71113390D01*
X144554285Y-71113390D02*
X143982857Y-71684819D01*
X143982857Y-71684819D02*
X144601904Y-71684819D01*
X161141666Y-81104819D02*
X161141666Y-81819104D01*
X161141666Y-81819104D02*
X161094047Y-81961961D01*
X161094047Y-81961961D02*
X160998809Y-82057200D01*
X160998809Y-82057200D02*
X160855952Y-82104819D01*
X160855952Y-82104819D02*
X160760714Y-82104819D01*
X161522619Y-81104819D02*
X162141666Y-81104819D01*
X162141666Y-81104819D02*
X161808333Y-81485771D01*
X161808333Y-81485771D02*
X161951190Y-81485771D01*
X161951190Y-81485771D02*
X162046428Y-81533390D01*
X162046428Y-81533390D02*
X162094047Y-81581009D01*
X162094047Y-81581009D02*
X162141666Y-81676247D01*
X162141666Y-81676247D02*
X162141666Y-81914342D01*
X162141666Y-81914342D02*
X162094047Y-82009580D01*
X162094047Y-82009580D02*
X162046428Y-82057200D01*
X162046428Y-82057200D02*
X161951190Y-82104819D01*
X161951190Y-82104819D02*
X161665476Y-82104819D01*
X161665476Y-82104819D02*
X161570238Y-82057200D01*
X161570238Y-82057200D02*
X161522619Y-82009580D01*
X149513333Y-100709580D02*
X149465714Y-100757200D01*
X149465714Y-100757200D02*
X149322857Y-100804819D01*
X149322857Y-100804819D02*
X149227619Y-100804819D01*
X149227619Y-100804819D02*
X149084762Y-100757200D01*
X149084762Y-100757200D02*
X148989524Y-100661961D01*
X148989524Y-100661961D02*
X148941905Y-100566723D01*
X148941905Y-100566723D02*
X148894286Y-100376247D01*
X148894286Y-100376247D02*
X148894286Y-100233390D01*
X148894286Y-100233390D02*
X148941905Y-100042914D01*
X148941905Y-100042914D02*
X148989524Y-99947676D01*
X148989524Y-99947676D02*
X149084762Y-99852438D01*
X149084762Y-99852438D02*
X149227619Y-99804819D01*
X149227619Y-99804819D02*
X149322857Y-99804819D01*
X149322857Y-99804819D02*
X149465714Y-99852438D01*
X149465714Y-99852438D02*
X149513333Y-99900057D01*
X150370476Y-99804819D02*
X150180000Y-99804819D01*
X150180000Y-99804819D02*
X150084762Y-99852438D01*
X150084762Y-99852438D02*
X150037143Y-99900057D01*
X150037143Y-99900057D02*
X149941905Y-100042914D01*
X149941905Y-100042914D02*
X149894286Y-100233390D01*
X149894286Y-100233390D02*
X149894286Y-100614342D01*
X149894286Y-100614342D02*
X149941905Y-100709580D01*
X149941905Y-100709580D02*
X149989524Y-100757200D01*
X149989524Y-100757200D02*
X150084762Y-100804819D01*
X150084762Y-100804819D02*
X150275238Y-100804819D01*
X150275238Y-100804819D02*
X150370476Y-100757200D01*
X150370476Y-100757200D02*
X150418095Y-100709580D01*
X150418095Y-100709580D02*
X150465714Y-100614342D01*
X150465714Y-100614342D02*
X150465714Y-100376247D01*
X150465714Y-100376247D02*
X150418095Y-100281009D01*
X150418095Y-100281009D02*
X150370476Y-100233390D01*
X150370476Y-100233390D02*
X150275238Y-100185771D01*
X150275238Y-100185771D02*
X150084762Y-100185771D01*
X150084762Y-100185771D02*
X149989524Y-100233390D01*
X149989524Y-100233390D02*
X149941905Y-100281009D01*
X149941905Y-100281009D02*
X149894286Y-100376247D01*
X141253333Y-87759580D02*
X141205714Y-87807200D01*
X141205714Y-87807200D02*
X141062857Y-87854819D01*
X141062857Y-87854819D02*
X140967619Y-87854819D01*
X140967619Y-87854819D02*
X140824762Y-87807200D01*
X140824762Y-87807200D02*
X140729524Y-87711961D01*
X140729524Y-87711961D02*
X140681905Y-87616723D01*
X140681905Y-87616723D02*
X140634286Y-87426247D01*
X140634286Y-87426247D02*
X140634286Y-87283390D01*
X140634286Y-87283390D02*
X140681905Y-87092914D01*
X140681905Y-87092914D02*
X140729524Y-86997676D01*
X140729524Y-86997676D02*
X140824762Y-86902438D01*
X140824762Y-86902438D02*
X140967619Y-86854819D01*
X140967619Y-86854819D02*
X141062857Y-86854819D01*
X141062857Y-86854819D02*
X141205714Y-86902438D01*
X141205714Y-86902438D02*
X141253333Y-86950057D01*
X142110476Y-87188152D02*
X142110476Y-87854819D01*
X141872381Y-86807200D02*
X141634286Y-87521485D01*
X141634286Y-87521485D02*
X142253333Y-87521485D01*
X156393333Y-112479819D02*
X155917143Y-112479819D01*
X155917143Y-112479819D02*
X155917143Y-111479819D01*
X157250476Y-112479819D02*
X156679048Y-112479819D01*
X156964762Y-112479819D02*
X156964762Y-111479819D01*
X156964762Y-111479819D02*
X156869524Y-111622676D01*
X156869524Y-111622676D02*
X156774286Y-111717914D01*
X156774286Y-111717914D02*
X156679048Y-111765533D01*
X161187142Y-91454580D02*
X161139523Y-91502200D01*
X161139523Y-91502200D02*
X160996666Y-91549819D01*
X160996666Y-91549819D02*
X160901428Y-91549819D01*
X160901428Y-91549819D02*
X160758571Y-91502200D01*
X160758571Y-91502200D02*
X160663333Y-91406961D01*
X160663333Y-91406961D02*
X160615714Y-91311723D01*
X160615714Y-91311723D02*
X160568095Y-91121247D01*
X160568095Y-91121247D02*
X160568095Y-90978390D01*
X160568095Y-90978390D02*
X160615714Y-90787914D01*
X160615714Y-90787914D02*
X160663333Y-90692676D01*
X160663333Y-90692676D02*
X160758571Y-90597438D01*
X160758571Y-90597438D02*
X160901428Y-90549819D01*
X160901428Y-90549819D02*
X160996666Y-90549819D01*
X160996666Y-90549819D02*
X161139523Y-90597438D01*
X161139523Y-90597438D02*
X161187142Y-90645057D01*
X162139523Y-91549819D02*
X161568095Y-91549819D01*
X161853809Y-91549819D02*
X161853809Y-90549819D01*
X161853809Y-90549819D02*
X161758571Y-90692676D01*
X161758571Y-90692676D02*
X161663333Y-90787914D01*
X161663333Y-90787914D02*
X161568095Y-90835533D01*
X162615714Y-91549819D02*
X162806190Y-91549819D01*
X162806190Y-91549819D02*
X162901428Y-91502200D01*
X162901428Y-91502200D02*
X162949047Y-91454580D01*
X162949047Y-91454580D02*
X163044285Y-91311723D01*
X163044285Y-91311723D02*
X163091904Y-91121247D01*
X163091904Y-91121247D02*
X163091904Y-90740295D01*
X163091904Y-90740295D02*
X163044285Y-90645057D01*
X163044285Y-90645057D02*
X162996666Y-90597438D01*
X162996666Y-90597438D02*
X162901428Y-90549819D01*
X162901428Y-90549819D02*
X162710952Y-90549819D01*
X162710952Y-90549819D02*
X162615714Y-90597438D01*
X162615714Y-90597438D02*
X162568095Y-90645057D01*
X162568095Y-90645057D02*
X162520476Y-90740295D01*
X162520476Y-90740295D02*
X162520476Y-90978390D01*
X162520476Y-90978390D02*
X162568095Y-91073628D01*
X162568095Y-91073628D02*
X162615714Y-91121247D01*
X162615714Y-91121247D02*
X162710952Y-91168866D01*
X162710952Y-91168866D02*
X162901428Y-91168866D01*
X162901428Y-91168866D02*
X162996666Y-91121247D01*
X162996666Y-91121247D02*
X163044285Y-91073628D01*
X163044285Y-91073628D02*
X163091904Y-90978390D01*
X147623333Y-82129580D02*
X147575714Y-82177200D01*
X147575714Y-82177200D02*
X147432857Y-82224819D01*
X147432857Y-82224819D02*
X147337619Y-82224819D01*
X147337619Y-82224819D02*
X147194762Y-82177200D01*
X147194762Y-82177200D02*
X147099524Y-82081961D01*
X147099524Y-82081961D02*
X147051905Y-81986723D01*
X147051905Y-81986723D02*
X147004286Y-81796247D01*
X147004286Y-81796247D02*
X147004286Y-81653390D01*
X147004286Y-81653390D02*
X147051905Y-81462914D01*
X147051905Y-81462914D02*
X147099524Y-81367676D01*
X147099524Y-81367676D02*
X147194762Y-81272438D01*
X147194762Y-81272438D02*
X147337619Y-81224819D01*
X147337619Y-81224819D02*
X147432857Y-81224819D01*
X147432857Y-81224819D02*
X147575714Y-81272438D01*
X147575714Y-81272438D02*
X147623333Y-81320057D01*
X148194762Y-81653390D02*
X148099524Y-81605771D01*
X148099524Y-81605771D02*
X148051905Y-81558152D01*
X148051905Y-81558152D02*
X148004286Y-81462914D01*
X148004286Y-81462914D02*
X148004286Y-81415295D01*
X148004286Y-81415295D02*
X148051905Y-81320057D01*
X148051905Y-81320057D02*
X148099524Y-81272438D01*
X148099524Y-81272438D02*
X148194762Y-81224819D01*
X148194762Y-81224819D02*
X148385238Y-81224819D01*
X148385238Y-81224819D02*
X148480476Y-81272438D01*
X148480476Y-81272438D02*
X148528095Y-81320057D01*
X148528095Y-81320057D02*
X148575714Y-81415295D01*
X148575714Y-81415295D02*
X148575714Y-81462914D01*
X148575714Y-81462914D02*
X148528095Y-81558152D01*
X148528095Y-81558152D02*
X148480476Y-81605771D01*
X148480476Y-81605771D02*
X148385238Y-81653390D01*
X148385238Y-81653390D02*
X148194762Y-81653390D01*
X148194762Y-81653390D02*
X148099524Y-81701009D01*
X148099524Y-81701009D02*
X148051905Y-81748628D01*
X148051905Y-81748628D02*
X148004286Y-81843866D01*
X148004286Y-81843866D02*
X148004286Y-82034342D01*
X148004286Y-82034342D02*
X148051905Y-82129580D01*
X148051905Y-82129580D02*
X148099524Y-82177200D01*
X148099524Y-82177200D02*
X148194762Y-82224819D01*
X148194762Y-82224819D02*
X148385238Y-82224819D01*
X148385238Y-82224819D02*
X148480476Y-82177200D01*
X148480476Y-82177200D02*
X148528095Y-82129580D01*
X148528095Y-82129580D02*
X148575714Y-82034342D01*
X148575714Y-82034342D02*
X148575714Y-81843866D01*
X148575714Y-81843866D02*
X148528095Y-81748628D01*
X148528095Y-81748628D02*
X148480476Y-81701009D01*
X148480476Y-81701009D02*
X148385238Y-81653390D01*
X146613333Y-87459580D02*
X146565714Y-87507200D01*
X146565714Y-87507200D02*
X146422857Y-87554819D01*
X146422857Y-87554819D02*
X146327619Y-87554819D01*
X146327619Y-87554819D02*
X146184762Y-87507200D01*
X146184762Y-87507200D02*
X146089524Y-87411961D01*
X146089524Y-87411961D02*
X146041905Y-87316723D01*
X146041905Y-87316723D02*
X145994286Y-87126247D01*
X145994286Y-87126247D02*
X145994286Y-86983390D01*
X145994286Y-86983390D02*
X146041905Y-86792914D01*
X146041905Y-86792914D02*
X146089524Y-86697676D01*
X146089524Y-86697676D02*
X146184762Y-86602438D01*
X146184762Y-86602438D02*
X146327619Y-86554819D01*
X146327619Y-86554819D02*
X146422857Y-86554819D01*
X146422857Y-86554819D02*
X146565714Y-86602438D01*
X146565714Y-86602438D02*
X146613333Y-86650057D01*
X147518095Y-86554819D02*
X147041905Y-86554819D01*
X147041905Y-86554819D02*
X146994286Y-87031009D01*
X146994286Y-87031009D02*
X147041905Y-86983390D01*
X147041905Y-86983390D02*
X147137143Y-86935771D01*
X147137143Y-86935771D02*
X147375238Y-86935771D01*
X147375238Y-86935771D02*
X147470476Y-86983390D01*
X147470476Y-86983390D02*
X147518095Y-87031009D01*
X147518095Y-87031009D02*
X147565714Y-87126247D01*
X147565714Y-87126247D02*
X147565714Y-87364342D01*
X147565714Y-87364342D02*
X147518095Y-87459580D01*
X147518095Y-87459580D02*
X147470476Y-87507200D01*
X147470476Y-87507200D02*
X147375238Y-87554819D01*
X147375238Y-87554819D02*
X147137143Y-87554819D01*
X147137143Y-87554819D02*
X147041905Y-87507200D01*
X147041905Y-87507200D02*
X146994286Y-87459580D01*
X161663333Y-89059580D02*
X161615714Y-89107200D01*
X161615714Y-89107200D02*
X161472857Y-89154819D01*
X161472857Y-89154819D02*
X161377619Y-89154819D01*
X161377619Y-89154819D02*
X161234762Y-89107200D01*
X161234762Y-89107200D02*
X161139524Y-89011961D01*
X161139524Y-89011961D02*
X161091905Y-88916723D01*
X161091905Y-88916723D02*
X161044286Y-88726247D01*
X161044286Y-88726247D02*
X161044286Y-88583390D01*
X161044286Y-88583390D02*
X161091905Y-88392914D01*
X161091905Y-88392914D02*
X161139524Y-88297676D01*
X161139524Y-88297676D02*
X161234762Y-88202438D01*
X161234762Y-88202438D02*
X161377619Y-88154819D01*
X161377619Y-88154819D02*
X161472857Y-88154819D01*
X161472857Y-88154819D02*
X161615714Y-88202438D01*
X161615714Y-88202438D02*
X161663333Y-88250057D01*
X161996667Y-88154819D02*
X162615714Y-88154819D01*
X162615714Y-88154819D02*
X162282381Y-88535771D01*
X162282381Y-88535771D02*
X162425238Y-88535771D01*
X162425238Y-88535771D02*
X162520476Y-88583390D01*
X162520476Y-88583390D02*
X162568095Y-88631009D01*
X162568095Y-88631009D02*
X162615714Y-88726247D01*
X162615714Y-88726247D02*
X162615714Y-88964342D01*
X162615714Y-88964342D02*
X162568095Y-89059580D01*
X162568095Y-89059580D02*
X162520476Y-89107200D01*
X162520476Y-89107200D02*
X162425238Y-89154819D01*
X162425238Y-89154819D02*
X162139524Y-89154819D01*
X162139524Y-89154819D02*
X162044286Y-89107200D01*
X162044286Y-89107200D02*
X161996667Y-89059580D01*
X155481666Y-68724819D02*
X155481666Y-69439104D01*
X155481666Y-69439104D02*
X155434047Y-69581961D01*
X155434047Y-69581961D02*
X155338809Y-69677200D01*
X155338809Y-69677200D02*
X155195952Y-69724819D01*
X155195952Y-69724819D02*
X155100714Y-69724819D01*
X155910238Y-68820057D02*
X155957857Y-68772438D01*
X155957857Y-68772438D02*
X156053095Y-68724819D01*
X156053095Y-68724819D02*
X156291190Y-68724819D01*
X156291190Y-68724819D02*
X156386428Y-68772438D01*
X156386428Y-68772438D02*
X156434047Y-68820057D01*
X156434047Y-68820057D02*
X156481666Y-68915295D01*
X156481666Y-68915295D02*
X156481666Y-69010533D01*
X156481666Y-69010533D02*
X156434047Y-69153390D01*
X156434047Y-69153390D02*
X155862619Y-69724819D01*
X155862619Y-69724819D02*
X156481666Y-69724819D01*
X136073333Y-60624819D02*
X135740000Y-60148628D01*
X135501905Y-60624819D02*
X135501905Y-59624819D01*
X135501905Y-59624819D02*
X135882857Y-59624819D01*
X135882857Y-59624819D02*
X135978095Y-59672438D01*
X135978095Y-59672438D02*
X136025714Y-59720057D01*
X136025714Y-59720057D02*
X136073333Y-59815295D01*
X136073333Y-59815295D02*
X136073333Y-59958152D01*
X136073333Y-59958152D02*
X136025714Y-60053390D01*
X136025714Y-60053390D02*
X135978095Y-60101009D01*
X135978095Y-60101009D02*
X135882857Y-60148628D01*
X135882857Y-60148628D02*
X135501905Y-60148628D01*
X136406667Y-59624819D02*
X137073333Y-59624819D01*
X137073333Y-59624819D02*
X136644762Y-60624819D01*
X135281905Y-116484819D02*
X135281905Y-115484819D01*
X135281905Y-115484819D02*
X135520000Y-115484819D01*
X135520000Y-115484819D02*
X135662857Y-115532438D01*
X135662857Y-115532438D02*
X135758095Y-115627676D01*
X135758095Y-115627676D02*
X135805714Y-115722914D01*
X135805714Y-115722914D02*
X135853333Y-115913390D01*
X135853333Y-115913390D02*
X135853333Y-116056247D01*
X135853333Y-116056247D02*
X135805714Y-116246723D01*
X135805714Y-116246723D02*
X135758095Y-116341961D01*
X135758095Y-116341961D02*
X135662857Y-116437200D01*
X135662857Y-116437200D02*
X135520000Y-116484819D01*
X135520000Y-116484819D02*
X135281905Y-116484819D01*
X136234286Y-115580057D02*
X136281905Y-115532438D01*
X136281905Y-115532438D02*
X136377143Y-115484819D01*
X136377143Y-115484819D02*
X136615238Y-115484819D01*
X136615238Y-115484819D02*
X136710476Y-115532438D01*
X136710476Y-115532438D02*
X136758095Y-115580057D01*
X136758095Y-115580057D02*
X136805714Y-115675295D01*
X136805714Y-115675295D02*
X136805714Y-115770533D01*
X136805714Y-115770533D02*
X136758095Y-115913390D01*
X136758095Y-115913390D02*
X136186667Y-116484819D01*
X136186667Y-116484819D02*
X136805714Y-116484819D01*
X142933333Y-74944819D02*
X142600000Y-74468628D01*
X142361905Y-74944819D02*
X142361905Y-73944819D01*
X142361905Y-73944819D02*
X142742857Y-73944819D01*
X142742857Y-73944819D02*
X142838095Y-73992438D01*
X142838095Y-73992438D02*
X142885714Y-74040057D01*
X142885714Y-74040057D02*
X142933333Y-74135295D01*
X142933333Y-74135295D02*
X142933333Y-74278152D01*
X142933333Y-74278152D02*
X142885714Y-74373390D01*
X142885714Y-74373390D02*
X142838095Y-74421009D01*
X142838095Y-74421009D02*
X142742857Y-74468628D01*
X142742857Y-74468628D02*
X142361905Y-74468628D01*
X143790476Y-73944819D02*
X143600000Y-73944819D01*
X143600000Y-73944819D02*
X143504762Y-73992438D01*
X143504762Y-73992438D02*
X143457143Y-74040057D01*
X143457143Y-74040057D02*
X143361905Y-74182914D01*
X143361905Y-74182914D02*
X143314286Y-74373390D01*
X143314286Y-74373390D02*
X143314286Y-74754342D01*
X143314286Y-74754342D02*
X143361905Y-74849580D01*
X143361905Y-74849580D02*
X143409524Y-74897200D01*
X143409524Y-74897200D02*
X143504762Y-74944819D01*
X143504762Y-74944819D02*
X143695238Y-74944819D01*
X143695238Y-74944819D02*
X143790476Y-74897200D01*
X143790476Y-74897200D02*
X143838095Y-74849580D01*
X143838095Y-74849580D02*
X143885714Y-74754342D01*
X143885714Y-74754342D02*
X143885714Y-74516247D01*
X143885714Y-74516247D02*
X143838095Y-74421009D01*
X143838095Y-74421009D02*
X143790476Y-74373390D01*
X143790476Y-74373390D02*
X143695238Y-74325771D01*
X143695238Y-74325771D02*
X143504762Y-74325771D01*
X143504762Y-74325771D02*
X143409524Y-74373390D01*
X143409524Y-74373390D02*
X143361905Y-74421009D01*
X143361905Y-74421009D02*
X143314286Y-74516247D01*
D12*
%TO.C,U6*%
X148330000Y-86455000D02*
X149590000Y-86455000D01*
X148330000Y-90215000D02*
X148330000Y-86455000D01*
X155150000Y-86455000D02*
X153890000Y-86455000D01*
X155150000Y-90215000D02*
X155150000Y-86455000D01*
X148430000Y-91495000D02*
X148100000Y-91735000D01*
X148100000Y-91255000D01*
X148430000Y-91495000D01*
G36*
X148430000Y-91495000D02*
G01*
X148100000Y-91735000D01*
X148100000Y-91255000D01*
X148430000Y-91495000D01*
G37*
%TO.C,U2*%
X155030000Y-94895000D02*
X153080000Y-94895000D01*
X155030000Y-94895000D02*
X156980000Y-94895000D01*
X155030000Y-100015000D02*
X153080000Y-100015000D01*
X155030000Y-100015000D02*
X156980000Y-100015000D01*
X152330000Y-94990000D02*
X152090000Y-94660000D01*
X152570000Y-94660000D01*
X152330000Y-94990000D01*
G36*
X152330000Y-94990000D02*
G01*
X152090000Y-94660000D01*
X152570000Y-94660000D01*
X152330000Y-94990000D01*
G37*
%TO.C,C10*%
X158213748Y-85610000D02*
X158736252Y-85610000D01*
X158213748Y-87080000D02*
X158736252Y-87080000D01*
%TO.C,SW2*%
X142080000Y-79410000D02*
X145780000Y-79410000D01*
X142080000Y-85530000D02*
X142080000Y-79410000D01*
X145780000Y-79410000D02*
X145780000Y-85530000D01*
X145780000Y-85530000D02*
X142080000Y-85530000D01*
%TO.C,J97*%
X135360000Y-90920000D02*
X135360000Y-98540000D01*
X135360000Y-98540000D02*
X141330000Y-98540000D01*
X136120000Y-91680000D02*
X136120000Y-94730000D01*
X136120000Y-97780000D02*
X136120000Y-94730000D01*
X139070000Y-90930000D02*
X139070000Y-91680000D01*
X139070000Y-91680000D02*
X136120000Y-91680000D01*
X139070000Y-97780000D02*
X136120000Y-97780000D01*
X139070000Y-98530000D02*
X139070000Y-97780000D01*
X140570000Y-90930000D02*
X140570000Y-92730000D01*
X140570000Y-92730000D02*
X141320000Y-92730000D01*
X140570000Y-94230000D02*
X140570000Y-95230000D01*
X140570000Y-95230000D02*
X141320000Y-95230000D01*
X140570000Y-96730000D02*
X140570000Y-98530000D01*
X140570000Y-98530000D02*
X141320000Y-98530000D01*
X141320000Y-90930000D02*
X140570000Y-90930000D01*
X141320000Y-92730000D02*
X141320000Y-90930000D01*
X141320000Y-94230000D02*
X140570000Y-94230000D01*
X141320000Y-95230000D02*
X141320000Y-94230000D01*
X141320000Y-96730000D02*
X140570000Y-96730000D01*
X141320000Y-98530000D02*
X141320000Y-96730000D01*
X141330000Y-90920000D02*
X135360000Y-90920000D01*
X141330000Y-98540000D02*
X141330000Y-90920000D01*
X141620000Y-90630000D02*
X140370000Y-90630000D01*
X141620000Y-91880000D02*
X141620000Y-90630000D01*
%TO.C,R3*%
X154197258Y-101837500D02*
X153722742Y-101837500D01*
X154197258Y-102882500D02*
X153722742Y-102882500D01*
%TO.C,J6*%
X160060000Y-63640000D02*
X160060000Y-55910000D01*
X162820000Y-55910000D02*
X160060000Y-55910000D01*
X162820000Y-63640000D02*
X160060000Y-63640000D01*
X162820000Y-63640000D02*
X162820000Y-55910000D01*
X162820000Y-64910000D02*
X162820000Y-66290000D01*
X162820000Y-66290000D02*
X161440000Y-66290000D01*
%TO.C,D1*%
X146994000Y-106470000D02*
X147150000Y-106470000D01*
X149310000Y-106470000D02*
X149466000Y-106470000D01*
X146994484Y-106470000D02*
G75*
G02*
X147150000Y-103238563I1235516J1560000D01*
G01*
X147150000Y-105950961D02*
G75*
G02*
X147150000Y-103869039I1080000J1040961D01*
G01*
X149310000Y-103238563D02*
G75*
G02*
X149465516Y-106470000I-1080000J-1671437D01*
G01*
X149310000Y-103869039D02*
G75*
G02*
X149310000Y-105950961I-1080000J-1040961D01*
G01*
%TO.C,J8*%
X135440000Y-101010000D02*
X135440000Y-108630000D01*
X135440000Y-108630000D02*
X141410000Y-108630000D01*
X136200000Y-101770000D02*
X136200000Y-104820000D01*
X136200000Y-107870000D02*
X136200000Y-104820000D01*
X139150000Y-101020000D02*
X139150000Y-101770000D01*
X139150000Y-101770000D02*
X136200000Y-101770000D01*
X139150000Y-107870000D02*
X136200000Y-107870000D01*
X139150000Y-108620000D02*
X139150000Y-107870000D01*
X140650000Y-101020000D02*
X140650000Y-102820000D01*
X140650000Y-102820000D02*
X141400000Y-102820000D01*
X140650000Y-104320000D02*
X140650000Y-105320000D01*
X140650000Y-105320000D02*
X141400000Y-105320000D01*
X140650000Y-106820000D02*
X140650000Y-108620000D01*
X140650000Y-108620000D02*
X141400000Y-108620000D01*
X141400000Y-101020000D02*
X140650000Y-101020000D01*
X141400000Y-102820000D02*
X141400000Y-101020000D01*
X141400000Y-104320000D02*
X140650000Y-104320000D01*
X141400000Y-105320000D02*
X141400000Y-104320000D01*
X141400000Y-106820000D02*
X140650000Y-106820000D01*
X141400000Y-108620000D02*
X141400000Y-106820000D01*
X141410000Y-101010000D02*
X135440000Y-101010000D01*
X141410000Y-108630000D02*
X141410000Y-101010000D01*
X141700000Y-100720000D02*
X140450000Y-100720000D01*
X141700000Y-101970000D02*
X141700000Y-100720000D01*
%TO.C,R1*%
X144277742Y-93045000D02*
X144752258Y-93045000D01*
X144277742Y-94090000D02*
X144752258Y-94090000D01*
%TO.C,C11*%
X151005000Y-79121252D02*
X151005000Y-78598748D01*
X152475000Y-79121252D02*
X152475000Y-78598748D01*
%TO.C,R5*%
X139554065Y-75567500D02*
X139079549Y-75567500D01*
X139554065Y-76612500D02*
X139079549Y-76612500D01*
%TO.C,U3*%
X138410000Y-45870000D02*
X138410000Y-51680000D01*
X138410000Y-45870000D02*
X156630000Y-45870000D01*
X138410000Y-65790000D02*
X138410000Y-66090000D01*
X138410000Y-66090000D02*
X156630000Y-66090000D01*
X156630000Y-45870000D02*
X156630000Y-52370000D01*
X156630000Y-65790000D02*
X156630000Y-66090000D01*
X138420000Y-52380000D02*
X137920000Y-52380000D01*
X138420000Y-51880000D01*
X138420000Y-52380000D01*
G36*
X138420000Y-52380000D02*
G01*
X137920000Y-52380000D01*
X138420000Y-51880000D01*
X138420000Y-52380000D01*
G37*
%TO.C,C2*%
X153829420Y-81880000D02*
X154110580Y-81880000D01*
X153829420Y-82900000D02*
X154110580Y-82900000D01*
%TO.C,SW1*%
X136620000Y-79370000D02*
X140320000Y-79370000D01*
X136620000Y-85490000D02*
X136620000Y-79370000D01*
X140320000Y-79370000D02*
X140320000Y-85490000D01*
X140320000Y-85490000D02*
X136620000Y-85490000D01*
%TO.C,R4*%
X147577500Y-112532258D02*
X147577500Y-112057742D01*
X148622500Y-112532258D02*
X148622500Y-112057742D01*
%TO.C,C29*%
X158114420Y-92900000D02*
X158395580Y-92900000D01*
X158114420Y-93920000D02*
X158395580Y-93920000D01*
%TO.C,C1*%
X147135000Y-96257498D02*
X147135000Y-96780002D01*
X148605000Y-96257498D02*
X148605000Y-96780002D01*
%TO.C,C7*%
X135720000Y-75454420D02*
X135720000Y-75735580D01*
X136740000Y-75454420D02*
X136740000Y-75735580D01*
%TO.C,C16*%
X158179420Y-83475000D02*
X158460580Y-83475000D01*
X158179420Y-84495000D02*
X158460580Y-84495000D01*
%TO.C,R2*%
X144687500Y-96681492D02*
X144687500Y-97156008D01*
X145732500Y-96681492D02*
X145732500Y-97156008D01*
%TO.C,R27*%
X142687500Y-102492742D02*
X142687500Y-102967258D01*
X143732500Y-102492742D02*
X143732500Y-102967258D01*
%TO.C,C13*%
X139606267Y-68180000D02*
X139313733Y-68180000D01*
X139606267Y-69200000D02*
X139313733Y-69200000D01*
%TO.C,R8*%
X149687500Y-112532258D02*
X149687500Y-112057742D01*
X150732500Y-112532258D02*
X150732500Y-112057742D01*
%TO.C,C12*%
X139871252Y-70515000D02*
X139348748Y-70515000D01*
X139871252Y-71985000D02*
X139348748Y-71985000D01*
%TO.C,J3*%
X160095000Y-78000000D02*
X160095000Y-67730000D01*
X162855000Y-67730000D02*
X160095000Y-67730000D01*
X162855000Y-78000000D02*
X160095000Y-78000000D01*
X162855000Y-78000000D02*
X162855000Y-67730000D01*
X162855000Y-79270000D02*
X162855000Y-80650000D01*
X162855000Y-80650000D02*
X161475000Y-80650000D01*
%TO.C,C6*%
X146018748Y-99441250D02*
X146541252Y-99441250D01*
X146018748Y-100911250D02*
X146541252Y-100911250D01*
%TO.C,C4*%
X142560000Y-89866248D02*
X142560000Y-90388752D01*
X144030000Y-89866248D02*
X144030000Y-90388752D01*
%TO.C,L1*%
X152860000Y-103875000D02*
X160260000Y-103875000D01*
X152860000Y-106175000D02*
X152860000Y-103875000D01*
X152860000Y-111275000D02*
X152860000Y-108975000D01*
X160260000Y-103875000D02*
X160260000Y-106175000D01*
X160260000Y-108975000D02*
X160260000Y-111275000D01*
X160260000Y-111275000D02*
X152860000Y-111275000D01*
%TO.C,C19*%
X158114420Y-90545000D02*
X158395580Y-90545000D01*
X158114420Y-91565000D02*
X158395580Y-91565000D01*
%TO.C,C8*%
X146770000Y-79320580D02*
X146770000Y-79039420D01*
X147790000Y-79320580D02*
X147790000Y-79039420D01*
%TO.C,C5*%
X145750000Y-90488752D02*
X145750000Y-89966248D01*
X147220000Y-90488752D02*
X147220000Y-89966248D01*
%TO.C,C3*%
X158114420Y-88190000D02*
X158395580Y-88190000D01*
X158114420Y-89210000D02*
X158395580Y-89210000D01*
%TO.C,J1*%
X144590000Y-116830000D02*
X144590000Y-118830000D01*
X144590000Y-120730000D02*
X144590000Y-122240000D01*
X144590000Y-122240000D02*
X153750000Y-122240000D01*
X153750000Y-116830000D02*
X153750000Y-118830000D01*
X153750000Y-120730000D02*
X153750000Y-122240000D01*
%TO.C,J2*%
X154435000Y-70270000D02*
X155815000Y-70270000D01*
X154435000Y-71650000D02*
X154435000Y-70270000D01*
X154435000Y-72920000D02*
X154435000Y-80650000D01*
X154435000Y-72920000D02*
X157195000Y-72920000D01*
X154435000Y-80650000D02*
X157195000Y-80650000D01*
X157195000Y-72920000D02*
X157195000Y-80650000D01*
%TO.C,R7*%
X135767500Y-62735276D02*
X135767500Y-63244724D01*
X136812500Y-62735276D02*
X136812500Y-63244724D01*
%TO.C,D2*%
X137330000Y-117560000D02*
X137330000Y-111750000D01*
X137330000Y-117560000D02*
X141630000Y-117560000D01*
X141630000Y-117560000D02*
X141630000Y-111750000D01*
%TO.C,R6*%
X142779549Y-75597500D02*
X143254065Y-75597500D01*
X142779549Y-76642500D02*
X143254065Y-76642500D01*
%TD*%
M02*
