%TF.GenerationSoftware,KiCad,Pcbnew,9.0.3*%
%TF.CreationDate,2026-04-01T23:49:50+07:00*%
%TF.ProjectId,P17230326 - TENP MEASURING DEVICE (SLAVE),50313732-3330-4333-9236-202d2054454e,rev?*%
%TF.SameCoordinates,Original*%
%TF.FileFunction,Paste,Top*%
%TF.FilePolarity,Positive*%
%FSLAX46Y46*%
G04 Gerber Fmt 4.6, Leading zero omitted, Abs format (unit mm)*
G04 Created by KiCad (PCBNEW 9.0.3) date 2026-04-01 23:49:50*
%MOMM*%
%LPD*%
G01*
G04 APERTURE LIST*
G04 Aperture macros list*
%AMRoundRect*
0 Rectangle with rounded corners*
0 $1 Rounding radius*
0 $2 $3 $4 $5 $6 $7 $8 $9 X,Y pos of 4 corners*
0 Add a 4 corners polygon primitive as box body*
4,1,4,$2,$3,$4,$5,$6,$7,$8,$9,$2,$3,0*
0 Add four circle primitives for the rounded corners*
1,1,$1+$1,$2,$3*
1,1,$1+$1,$4,$5*
1,1,$1+$1,$6,$7*
1,1,$1+$1,$8,$9*
0 Add four rect primitives between the rounded corners*
20,1,$1+$1,$2,$3,$4,$5,0*
20,1,$1+$1,$4,$5,$6,$7,0*
20,1,$1+$1,$6,$7,$8,$9,0*
20,1,$1+$1,$8,$9,$2,$3,0*%
G04 Aperture macros list end*
%ADD10RoundRect,0.375000X0.375000X-0.625000X0.375000X0.625000X-0.375000X0.625000X-0.375000X-0.625000X0*%
%ADD11RoundRect,0.500000X1.400000X-0.500000X1.400000X0.500000X-1.400000X0.500000X-1.400000X-0.500000X0*%
%ADD12RoundRect,0.250000X-0.255000X-0.440000X0.255000X-0.440000X0.255000X0.440000X-0.255000X0.440000X0*%
%ADD13RoundRect,0.150000X-0.825000X-0.150000X0.825000X-0.150000X0.825000X0.150000X-0.825000X0.150000X0*%
%ADD14RoundRect,0.250000X-0.250000X-0.475000X0.250000X-0.475000X0.250000X0.475000X-0.250000X0.475000X0*%
%ADD15R,1.500000X1.500000*%
%ADD16RoundRect,0.200000X0.200000X0.275000X-0.200000X0.275000X-0.200000X-0.275000X0.200000X-0.275000X0*%
%ADD17RoundRect,0.200000X-0.200000X-0.275000X0.200000X-0.275000X0.200000X0.275000X-0.200000X0.275000X0*%
%ADD18RoundRect,0.250000X0.475000X-0.250000X0.475000X0.250000X-0.475000X0.250000X-0.475000X-0.250000X0*%
%ADD19R,0.700000X0.700000*%
%ADD20R,1.500000X0.900000*%
%ADD21RoundRect,0.225000X-0.225000X-0.250000X0.225000X-0.250000X0.225000X0.250000X-0.225000X0.250000X0*%
%ADD22RoundRect,0.200000X0.275000X-0.200000X0.275000X0.200000X-0.275000X0.200000X-0.275000X-0.200000X0*%
%ADD23RoundRect,0.250000X-0.475000X0.337500X-0.475000X-0.337500X0.475000X-0.337500X0.475000X0.337500X0*%
%ADD24RoundRect,0.225000X-0.250000X0.225000X-0.250000X-0.225000X0.250000X-0.225000X0.250000X0.225000X0*%
%ADD25RoundRect,0.200000X-0.275000X0.200000X-0.275000X-0.200000X0.275000X-0.200000X0.275000X0.200000X0*%
%ADD26RoundRect,0.237500X0.300000X0.237500X-0.300000X0.237500X-0.300000X-0.237500X0.300000X-0.237500X0*%
%ADD27RoundRect,0.250000X0.337500X0.475000X-0.337500X0.475000X-0.337500X-0.475000X0.337500X-0.475000X0*%
%ADD28RoundRect,0.250000X-0.337500X-0.475000X0.337500X-0.475000X0.337500X0.475000X-0.337500X0.475000X0*%
%ADD29R,1.500000X2.200000*%
%ADD30RoundRect,0.225000X0.250000X-0.225000X0.250000X0.225000X-0.250000X0.225000X-0.250000X-0.225000X0*%
%ADD31RoundRect,0.250000X0.475000X-0.337500X0.475000X0.337500X-0.475000X0.337500X-0.475000X-0.337500X0*%
%ADD32RoundRect,0.175000X-0.175000X-0.625000X0.175000X-0.625000X0.175000X0.625000X-0.175000X0.625000X0*%
%ADD33RoundRect,0.200000X-0.200000X-0.600000X0.200000X-0.600000X0.200000X0.600000X-0.200000X0.600000X0*%
%ADD34RoundRect,0.225000X-0.225000X-0.575000X0.225000X-0.575000X0.225000X0.575000X-0.225000X0.575000X0*%
%ADD35RoundRect,0.237500X-0.237500X0.250000X-0.237500X-0.250000X0.237500X-0.250000X0.237500X0.250000X0*%
%ADD36RoundRect,0.250000X0.900000X-1.000000X0.900000X1.000000X-0.900000X1.000000X-0.900000X-1.000000X0*%
G04 APERTURE END LIST*
D10*
%TO.C,U6*%
X149440000Y-91515000D03*
X151740000Y-91515000D03*
D11*
X151740000Y-85215000D03*
D10*
X154040000Y-91515000D03*
%TD*%
D12*
%TO.C,U2*%
X154430000Y-96630000D03*
X154430000Y-98280000D03*
X155630000Y-96630000D03*
X155630000Y-98280000D03*
D13*
X152555000Y-95550000D03*
X152555000Y-96820000D03*
X152555000Y-98090000D03*
X152555000Y-99360000D03*
X157505000Y-99360000D03*
X157505000Y-98090000D03*
X157505000Y-96820000D03*
X157505000Y-95550000D03*
%TD*%
D14*
%TO.C,C10*%
X157525000Y-86345000D03*
X159425000Y-86345000D03*
%TD*%
D15*
%TO.C,SW2*%
X143930000Y-78570000D03*
X143930000Y-86370000D03*
%TD*%
D16*
%TO.C,R3*%
X154785000Y-102360000D03*
X153135000Y-102360000D03*
%TD*%
D17*
%TO.C,R1*%
X143690000Y-93567500D03*
X145340000Y-93567500D03*
%TD*%
D18*
%TO.C,C11*%
X151740000Y-79810000D03*
X151740000Y-77910000D03*
%TD*%
D16*
%TO.C,R5*%
X140141807Y-76090000D03*
X138491807Y-76090000D03*
%TD*%
D19*
%TO.C,U3*%
X147380000Y-58180000D03*
X147380000Y-59280000D03*
X147380000Y-60380000D03*
X148480000Y-58180000D03*
X148480000Y-59280000D03*
X148480000Y-60380000D03*
X149580000Y-58180000D03*
X149580000Y-59280000D03*
X149580000Y-60380000D03*
D20*
X138770000Y-53080000D03*
X138770000Y-54580000D03*
X138770000Y-56080000D03*
X138770000Y-57580000D03*
X138770000Y-59080000D03*
X138770000Y-60580000D03*
X138770000Y-62080000D03*
X138770000Y-63580000D03*
X138770000Y-65080000D03*
X156270000Y-65080000D03*
X156270000Y-63580000D03*
X156270000Y-62080000D03*
X156270000Y-60580000D03*
X156270000Y-59080000D03*
X156270000Y-57580000D03*
X156270000Y-56080000D03*
X156270000Y-54580000D03*
X156270000Y-53080000D03*
%TD*%
D21*
%TO.C,C2*%
X153195000Y-82390000D03*
X154745000Y-82390000D03*
%TD*%
D15*
%TO.C,SW1*%
X138470000Y-78530000D03*
X138470000Y-86330000D03*
%TD*%
D22*
%TO.C,R4*%
X148100000Y-113120000D03*
X148100000Y-111470000D03*
%TD*%
D21*
%TO.C,C29*%
X157480000Y-93410000D03*
X159030000Y-93410000D03*
%TD*%
D23*
%TO.C,C1*%
X147870000Y-95481250D03*
X147870000Y-97556250D03*
%TD*%
D24*
%TO.C,C7*%
X136230000Y-74820000D03*
X136230000Y-76370000D03*
%TD*%
D21*
%TO.C,C16*%
X157545000Y-83985000D03*
X159095000Y-83985000D03*
%TD*%
D25*
%TO.C,R2*%
X145210000Y-96093750D03*
X145210000Y-97743750D03*
%TD*%
%TO.C,R27*%
X143210000Y-101905000D03*
X143210000Y-103555000D03*
%TD*%
D26*
%TO.C,C13*%
X140322500Y-68690000D03*
X138597500Y-68690000D03*
%TD*%
D22*
%TO.C,R8*%
X150210000Y-113120000D03*
X150210000Y-111470000D03*
%TD*%
D27*
%TO.C,C12*%
X140647500Y-71250000D03*
X138572500Y-71250000D03*
%TD*%
D28*
%TO.C,C6*%
X145242500Y-100176250D03*
X147317500Y-100176250D03*
%TD*%
D23*
%TO.C,C4*%
X143295000Y-89090000D03*
X143295000Y-91165000D03*
%TD*%
D29*
%TO.C,L1*%
X159760000Y-107575000D03*
X153360000Y-107575000D03*
%TD*%
D21*
%TO.C,C19*%
X157480000Y-91055000D03*
X159030000Y-91055000D03*
%TD*%
D30*
%TO.C,C8*%
X147280000Y-79955000D03*
X147280000Y-78405000D03*
%TD*%
D31*
%TO.C,C5*%
X146485000Y-91265000D03*
X146485000Y-89190000D03*
%TD*%
D21*
%TO.C,C3*%
X157480000Y-88700000D03*
X159030000Y-88700000D03*
%TD*%
D32*
%TO.C,J1*%
X148670000Y-115550000D03*
D33*
X150690000Y-115550000D03*
D34*
X151920000Y-115550000D03*
D32*
X149670000Y-115550000D03*
D33*
X147650000Y-115550000D03*
D34*
X146420000Y-115550000D03*
%TD*%
D35*
%TO.C,R7*%
X136290000Y-62077500D03*
X136290000Y-63902500D03*
%TD*%
D36*
%TO.C,D2*%
X139480000Y-116050000D03*
X139480000Y-111750000D03*
%TD*%
D17*
%TO.C,R6*%
X142191807Y-76120000D03*
X143841807Y-76120000D03*
%TD*%
M02*
