%TF.GenerationSoftware,KiCad,Pcbnew,9.0.3*%
%TF.CreationDate,2026-04-04T09:31:58+07:00*%
%TF.ProjectId,P17230326 - TENP MEASURING DEVICE - MASTER,50313732-3330-4333-9236-202d2054454e,rev?*%
%TF.SameCoordinates,Original*%
%TF.FileFunction,Drillmap*%
%TF.FilePolarity,Positive*%
%FSLAX45Y45*%
G04 Gerber Fmt 4.5, Leading zero omitted, Abs format (unit mm)*
G04 Created by KiCad (PCBNEW 9.0.3) date 2026-04-04 09:31:58*
%MOMM*%
%LPD*%
G01*
G04 APERTURE LIST*
%ADD10C,0.050000*%
%ADD11C,0.200000*%
G04 APERTURE END LIST*
D10*
X3335000Y-4750000D02*
X15367000Y-4750000D01*
X15367000Y-13828000D01*
X3335000Y-13828000D01*
X3335000Y-4750000D01*
X10132000Y-11711000D02*
G75*
G02*
X8482000Y-11711000I-825000J0D01*
G01*
X8482000Y-11711000D02*
G75*
G02*
X10132000Y-11711000I825000J0D01*
G01*
X22946500Y-5785000D02*
G75*
G02*
X19146500Y-5785000I-1900000J0D01*
G01*
X19146500Y-5785000D02*
G75*
G02*
X22946500Y-5785000I1900000J0D01*
G01*
X4409000Y-5791000D02*
X14220000Y-5791000D01*
X14220000Y-9801000D01*
X4409000Y-9801000D01*
X4409000Y-5791000D01*
X24935000Y-14435000D02*
G75*
G02*
X24045000Y-14435000I-445000J0D01*
G01*
X24045000Y-14435000D02*
G75*
G02*
X24935000Y-14435000I445000J0D01*
G01*
X20019000Y-13544000D02*
X22135000Y-13544000D01*
X22135000Y-14855000D01*
X20019000Y-14855000D01*
X20019000Y-13544000D01*
X6367000Y-11711000D02*
G75*
G02*
X4717000Y-11711000I-825000J0D01*
G01*
X4717000Y-11711000D02*
G75*
G02*
X6367000Y-11711000I825000J0D01*
G01*
X13897000Y-11711000D02*
G75*
G02*
X12247000Y-11711000I-825000J0D01*
G01*
X12247000Y-11711000D02*
G75*
G02*
X13897000Y-11711000I825000J0D01*
G01*
X16491000Y-9736000D02*
X25596000Y-9736000D01*
X25596000Y-15738000D01*
X16491000Y-15738000D01*
X16491000Y-9736000D01*
X16494000Y-2784000D02*
X25599000Y-2784000D01*
X25599000Y-8786000D01*
X16494000Y-8786000D01*
X16494000Y-2784000D01*
D11*
X3593277Y-16051984D02*
X3593277Y-15851984D01*
X3593277Y-15851984D02*
X3640896Y-15851984D01*
X3640896Y-15851984D02*
X3669467Y-15861508D01*
X3669467Y-15861508D02*
X3688515Y-15880555D01*
X3688515Y-15880555D02*
X3698039Y-15899603D01*
X3698039Y-15899603D02*
X3707562Y-15937698D01*
X3707562Y-15937698D02*
X3707562Y-15966269D01*
X3707562Y-15966269D02*
X3698039Y-16004365D01*
X3698039Y-16004365D02*
X3688515Y-16023412D01*
X3688515Y-16023412D02*
X3669467Y-16042460D01*
X3669467Y-16042460D02*
X3640896Y-16051984D01*
X3640896Y-16051984D02*
X3593277Y-16051984D01*
X3793277Y-16051984D02*
X3793277Y-15918650D01*
X3793277Y-15956746D02*
X3802801Y-15937698D01*
X3802801Y-15937698D02*
X3812324Y-15928174D01*
X3812324Y-15928174D02*
X3831372Y-15918650D01*
X3831372Y-15918650D02*
X3850420Y-15918650D01*
X3917086Y-16051984D02*
X3917086Y-15918650D01*
X3917086Y-15851984D02*
X3907562Y-15861508D01*
X3907562Y-15861508D02*
X3917086Y-15871031D01*
X3917086Y-15871031D02*
X3926610Y-15861508D01*
X3926610Y-15861508D02*
X3917086Y-15851984D01*
X3917086Y-15851984D02*
X3917086Y-15871031D01*
X4040896Y-16051984D02*
X4021848Y-16042460D01*
X4021848Y-16042460D02*
X4012324Y-16023412D01*
X4012324Y-16023412D02*
X4012324Y-15851984D01*
X4145658Y-16051984D02*
X4126610Y-16042460D01*
X4126610Y-16042460D02*
X4117086Y-16023412D01*
X4117086Y-16023412D02*
X4117086Y-15851984D01*
X4374229Y-16051984D02*
X4374229Y-15851984D01*
X4374229Y-15851984D02*
X4440896Y-15994841D01*
X4440896Y-15994841D02*
X4507563Y-15851984D01*
X4507563Y-15851984D02*
X4507563Y-16051984D01*
X4688515Y-16051984D02*
X4688515Y-15947222D01*
X4688515Y-15947222D02*
X4678991Y-15928174D01*
X4678991Y-15928174D02*
X4659944Y-15918650D01*
X4659944Y-15918650D02*
X4621848Y-15918650D01*
X4621848Y-15918650D02*
X4602801Y-15928174D01*
X4688515Y-16042460D02*
X4669467Y-16051984D01*
X4669467Y-16051984D02*
X4621848Y-16051984D01*
X4621848Y-16051984D02*
X4602801Y-16042460D01*
X4602801Y-16042460D02*
X4593277Y-16023412D01*
X4593277Y-16023412D02*
X4593277Y-16004365D01*
X4593277Y-16004365D02*
X4602801Y-15985317D01*
X4602801Y-15985317D02*
X4621848Y-15975793D01*
X4621848Y-15975793D02*
X4669467Y-15975793D01*
X4669467Y-15975793D02*
X4688515Y-15966269D01*
X4783753Y-15918650D02*
X4783753Y-16118650D01*
X4783753Y-15928174D02*
X4802801Y-15918650D01*
X4802801Y-15918650D02*
X4840896Y-15918650D01*
X4840896Y-15918650D02*
X4859944Y-15928174D01*
X4859944Y-15928174D02*
X4869467Y-15937698D01*
X4869467Y-15937698D02*
X4878991Y-15956746D01*
X4878991Y-15956746D02*
X4878991Y-16013888D01*
X4878991Y-16013888D02*
X4869467Y-16032936D01*
X4869467Y-16032936D02*
X4859944Y-16042460D01*
X4859944Y-16042460D02*
X4840896Y-16051984D01*
X4840896Y-16051984D02*
X4802801Y-16051984D01*
X4802801Y-16051984D02*
X4783753Y-16042460D01*
X4964705Y-16032936D02*
X4974229Y-16042460D01*
X4974229Y-16042460D02*
X4964705Y-16051984D01*
X4964705Y-16051984D02*
X4955182Y-16042460D01*
X4955182Y-16042460D02*
X4964705Y-16032936D01*
X4964705Y-16032936D02*
X4964705Y-16051984D01*
X4964705Y-15928174D02*
X4974229Y-15937698D01*
X4974229Y-15937698D02*
X4964705Y-15947222D01*
X4964705Y-15947222D02*
X4955182Y-15937698D01*
X4955182Y-15937698D02*
X4964705Y-15928174D01*
X4964705Y-15928174D02*
X4964705Y-15947222D01*
M02*
